%TF.GenerationSoftware,KiCad,Pcbnew,7.0.9*%
%TF.CreationDate,2024-03-07T17:23:47+01:00*%
%TF.ProjectId,zenFlow,7a656e46-6c6f-4772-9e6b-696361645f70,1*%
%TF.SameCoordinates,Original*%
%TF.FileFunction,Legend,Bot*%
%TF.FilePolarity,Positive*%
%FSLAX46Y46*%
G04 Gerber Fmt 4.6, Leading zero omitted, Abs format (unit mm)*
G04 Created by KiCad (PCBNEW 7.0.9) date 2024-03-07 17:23:47*
%MOMM*%
%LPD*%
G01*
G04 APERTURE LIST*
%ADD10C,0.150000*%
%ADD11C,0.120000*%
%ADD12C,1.000000*%
G04 APERTURE END LIST*
D10*
X234312969Y-125314819D02*
X234312969Y-124314819D01*
X234312969Y-124314819D02*
X233932017Y-124314819D01*
X233932017Y-124314819D02*
X233836779Y-124362438D01*
X233836779Y-124362438D02*
X233789160Y-124410057D01*
X233789160Y-124410057D02*
X233741541Y-124505295D01*
X233741541Y-124505295D02*
X233741541Y-124648152D01*
X233741541Y-124648152D02*
X233789160Y-124743390D01*
X233789160Y-124743390D02*
X233836779Y-124791009D01*
X233836779Y-124791009D02*
X233932017Y-124838628D01*
X233932017Y-124838628D02*
X234312969Y-124838628D01*
X232789160Y-125314819D02*
X233360588Y-125314819D01*
X233074874Y-125314819D02*
X233074874Y-124314819D01*
X233074874Y-124314819D02*
X233170112Y-124457676D01*
X233170112Y-124457676D02*
X233265350Y-124552914D01*
X233265350Y-124552914D02*
X233360588Y-124600533D01*
X237591792Y-125314819D02*
X237925125Y-124838628D01*
X238163220Y-125314819D02*
X238163220Y-124314819D01*
X238163220Y-124314819D02*
X237782268Y-124314819D01*
X237782268Y-124314819D02*
X237687030Y-124362438D01*
X237687030Y-124362438D02*
X237639411Y-124410057D01*
X237639411Y-124410057D02*
X237591792Y-124505295D01*
X237591792Y-124505295D02*
X237591792Y-124648152D01*
X237591792Y-124648152D02*
X237639411Y-124743390D01*
X237639411Y-124743390D02*
X237687030Y-124791009D01*
X237687030Y-124791009D02*
X237782268Y-124838628D01*
X237782268Y-124838628D02*
X238163220Y-124838628D01*
X237210839Y-125029104D02*
X236734649Y-125029104D01*
X237306077Y-125314819D02*
X236972744Y-124314819D01*
X236972744Y-124314819D02*
X236639411Y-125314819D01*
X236401315Y-124314819D02*
X236163220Y-125314819D01*
X236163220Y-125314819D02*
X235972744Y-124600533D01*
X235972744Y-124600533D02*
X235782268Y-125314819D01*
X235782268Y-125314819D02*
X235544173Y-124314819D01*
X234312969Y-127854819D02*
X234312969Y-126854819D01*
X234312969Y-126854819D02*
X233932017Y-126854819D01*
X233932017Y-126854819D02*
X233836779Y-126902438D01*
X233836779Y-126902438D02*
X233789160Y-126950057D01*
X233789160Y-126950057D02*
X233741541Y-127045295D01*
X233741541Y-127045295D02*
X233741541Y-127188152D01*
X233741541Y-127188152D02*
X233789160Y-127283390D01*
X233789160Y-127283390D02*
X233836779Y-127331009D01*
X233836779Y-127331009D02*
X233932017Y-127378628D01*
X233932017Y-127378628D02*
X234312969Y-127378628D01*
X233122493Y-126854819D02*
X233027255Y-126854819D01*
X233027255Y-126854819D02*
X232932017Y-126902438D01*
X232932017Y-126902438D02*
X232884398Y-126950057D01*
X232884398Y-126950057D02*
X232836779Y-127045295D01*
X232836779Y-127045295D02*
X232789160Y-127235771D01*
X232789160Y-127235771D02*
X232789160Y-127473866D01*
X232789160Y-127473866D02*
X232836779Y-127664342D01*
X232836779Y-127664342D02*
X232884398Y-127759580D01*
X232884398Y-127759580D02*
X232932017Y-127807200D01*
X232932017Y-127807200D02*
X233027255Y-127854819D01*
X233027255Y-127854819D02*
X233122493Y-127854819D01*
X233122493Y-127854819D02*
X233217731Y-127807200D01*
X233217731Y-127807200D02*
X233265350Y-127759580D01*
X233265350Y-127759580D02*
X233312969Y-127664342D01*
X233312969Y-127664342D02*
X233360588Y-127473866D01*
X233360588Y-127473866D02*
X233360588Y-127235771D01*
X233360588Y-127235771D02*
X233312969Y-127045295D01*
X233312969Y-127045295D02*
X233265350Y-126950057D01*
X233265350Y-126950057D02*
X233217731Y-126902438D01*
X233217731Y-126902438D02*
X233122493Y-126854819D01*
X237639411Y-126902438D02*
X237734649Y-126854819D01*
X237734649Y-126854819D02*
X237877506Y-126854819D01*
X237877506Y-126854819D02*
X238020363Y-126902438D01*
X238020363Y-126902438D02*
X238115601Y-126997676D01*
X238115601Y-126997676D02*
X238163220Y-127092914D01*
X238163220Y-127092914D02*
X238210839Y-127283390D01*
X238210839Y-127283390D02*
X238210839Y-127426247D01*
X238210839Y-127426247D02*
X238163220Y-127616723D01*
X238163220Y-127616723D02*
X238115601Y-127711961D01*
X238115601Y-127711961D02*
X238020363Y-127807200D01*
X238020363Y-127807200D02*
X237877506Y-127854819D01*
X237877506Y-127854819D02*
X237782268Y-127854819D01*
X237782268Y-127854819D02*
X237639411Y-127807200D01*
X237639411Y-127807200D02*
X237591792Y-127759580D01*
X237591792Y-127759580D02*
X237591792Y-127426247D01*
X237591792Y-127426247D02*
X237782268Y-127426247D01*
X237163220Y-127854819D02*
X237163220Y-126854819D01*
X237163220Y-126854819D02*
X236591792Y-127854819D01*
X236591792Y-127854819D02*
X236591792Y-126854819D01*
X236115601Y-127854819D02*
X236115601Y-126854819D01*
X236115601Y-126854819D02*
X235877506Y-126854819D01*
X235877506Y-126854819D02*
X235734649Y-126902438D01*
X235734649Y-126902438D02*
X235639411Y-126997676D01*
X235639411Y-126997676D02*
X235591792Y-127092914D01*
X235591792Y-127092914D02*
X235544173Y-127283390D01*
X235544173Y-127283390D02*
X235544173Y-127426247D01*
X235544173Y-127426247D02*
X235591792Y-127616723D01*
X235591792Y-127616723D02*
X235639411Y-127711961D01*
X235639411Y-127711961D02*
X235734649Y-127807200D01*
X235734649Y-127807200D02*
X235877506Y-127854819D01*
X235877506Y-127854819D02*
X236115601Y-127854819D01*
X234884398Y-129442438D02*
X234979636Y-129394819D01*
X234979636Y-129394819D02*
X235122493Y-129394819D01*
X235122493Y-129394819D02*
X235265350Y-129442438D01*
X235265350Y-129442438D02*
X235360588Y-129537676D01*
X235360588Y-129537676D02*
X235408207Y-129632914D01*
X235408207Y-129632914D02*
X235455826Y-129823390D01*
X235455826Y-129823390D02*
X235455826Y-129966247D01*
X235455826Y-129966247D02*
X235408207Y-130156723D01*
X235408207Y-130156723D02*
X235360588Y-130251961D01*
X235360588Y-130251961D02*
X235265350Y-130347200D01*
X235265350Y-130347200D02*
X235122493Y-130394819D01*
X235122493Y-130394819D02*
X235027255Y-130394819D01*
X235027255Y-130394819D02*
X234884398Y-130347200D01*
X234884398Y-130347200D02*
X234836779Y-130299580D01*
X234836779Y-130299580D02*
X234836779Y-129966247D01*
X234836779Y-129966247D02*
X235027255Y-129966247D01*
X234408207Y-130394819D02*
X234408207Y-129394819D01*
X234408207Y-129394819D02*
X233836779Y-130394819D01*
X233836779Y-130394819D02*
X233836779Y-129394819D01*
X233360588Y-130394819D02*
X233360588Y-129394819D01*
X233360588Y-129394819D02*
X233122493Y-129394819D01*
X233122493Y-129394819D02*
X232979636Y-129442438D01*
X232979636Y-129442438D02*
X232884398Y-129537676D01*
X232884398Y-129537676D02*
X232836779Y-129632914D01*
X232836779Y-129632914D02*
X232789160Y-129823390D01*
X232789160Y-129823390D02*
X232789160Y-129966247D01*
X232789160Y-129966247D02*
X232836779Y-130156723D01*
X232836779Y-130156723D02*
X232884398Y-130251961D01*
X232884398Y-130251961D02*
X232979636Y-130347200D01*
X232979636Y-130347200D02*
X233122493Y-130394819D01*
X233122493Y-130394819D02*
X233360588Y-130394819D01*
X237591792Y-130394819D02*
X237925125Y-129918628D01*
X238163220Y-130394819D02*
X238163220Y-129394819D01*
X238163220Y-129394819D02*
X237782268Y-129394819D01*
X237782268Y-129394819D02*
X237687030Y-129442438D01*
X237687030Y-129442438D02*
X237639411Y-129490057D01*
X237639411Y-129490057D02*
X237591792Y-129585295D01*
X237591792Y-129585295D02*
X237591792Y-129728152D01*
X237591792Y-129728152D02*
X237639411Y-129823390D01*
X237639411Y-129823390D02*
X237687030Y-129871009D01*
X237687030Y-129871009D02*
X237782268Y-129918628D01*
X237782268Y-129918628D02*
X238163220Y-129918628D01*
X237210839Y-130347200D02*
X237067982Y-130394819D01*
X237067982Y-130394819D02*
X236829887Y-130394819D01*
X236829887Y-130394819D02*
X236734649Y-130347200D01*
X236734649Y-130347200D02*
X236687030Y-130299580D01*
X236687030Y-130299580D02*
X236639411Y-130204342D01*
X236639411Y-130204342D02*
X236639411Y-130109104D01*
X236639411Y-130109104D02*
X236687030Y-130013866D01*
X236687030Y-130013866D02*
X236734649Y-129966247D01*
X236734649Y-129966247D02*
X236829887Y-129918628D01*
X236829887Y-129918628D02*
X237020363Y-129871009D01*
X237020363Y-129871009D02*
X237115601Y-129823390D01*
X237115601Y-129823390D02*
X237163220Y-129775771D01*
X237163220Y-129775771D02*
X237210839Y-129680533D01*
X237210839Y-129680533D02*
X237210839Y-129585295D01*
X237210839Y-129585295D02*
X237163220Y-129490057D01*
X237163220Y-129490057D02*
X237115601Y-129442438D01*
X237115601Y-129442438D02*
X237020363Y-129394819D01*
X237020363Y-129394819D02*
X236782268Y-129394819D01*
X236782268Y-129394819D02*
X236639411Y-129442438D01*
X236353696Y-129394819D02*
X235782268Y-129394819D01*
X236067982Y-130394819D02*
X236067982Y-129394819D01*
X234884398Y-131982438D02*
X234979636Y-131934819D01*
X234979636Y-131934819D02*
X235122493Y-131934819D01*
X235122493Y-131934819D02*
X235265350Y-131982438D01*
X235265350Y-131982438D02*
X235360588Y-132077676D01*
X235360588Y-132077676D02*
X235408207Y-132172914D01*
X235408207Y-132172914D02*
X235455826Y-132363390D01*
X235455826Y-132363390D02*
X235455826Y-132506247D01*
X235455826Y-132506247D02*
X235408207Y-132696723D01*
X235408207Y-132696723D02*
X235360588Y-132791961D01*
X235360588Y-132791961D02*
X235265350Y-132887200D01*
X235265350Y-132887200D02*
X235122493Y-132934819D01*
X235122493Y-132934819D02*
X235027255Y-132934819D01*
X235027255Y-132934819D02*
X234884398Y-132887200D01*
X234884398Y-132887200D02*
X234836779Y-132839580D01*
X234836779Y-132839580D02*
X234836779Y-132506247D01*
X234836779Y-132506247D02*
X235027255Y-132506247D01*
X234408207Y-132934819D02*
X234408207Y-131934819D01*
X234408207Y-131934819D02*
X233836779Y-132934819D01*
X233836779Y-132934819D02*
X233836779Y-131934819D01*
X233360588Y-132934819D02*
X233360588Y-131934819D01*
X233360588Y-131934819D02*
X233122493Y-131934819D01*
X233122493Y-131934819D02*
X232979636Y-131982438D01*
X232979636Y-131982438D02*
X232884398Y-132077676D01*
X232884398Y-132077676D02*
X232836779Y-132172914D01*
X232836779Y-132172914D02*
X232789160Y-132363390D01*
X232789160Y-132363390D02*
X232789160Y-132506247D01*
X232789160Y-132506247D02*
X232836779Y-132696723D01*
X232836779Y-132696723D02*
X232884398Y-132791961D01*
X232884398Y-132791961D02*
X232979636Y-132887200D01*
X232979636Y-132887200D02*
X233122493Y-132934819D01*
X233122493Y-132934819D02*
X233360588Y-132934819D01*
X238306077Y-131934819D02*
X237972744Y-132934819D01*
X237972744Y-132934819D02*
X237639411Y-131934819D01*
X236734649Y-132839580D02*
X236782268Y-132887200D01*
X236782268Y-132887200D02*
X236925125Y-132934819D01*
X236925125Y-132934819D02*
X237020363Y-132934819D01*
X237020363Y-132934819D02*
X237163220Y-132887200D01*
X237163220Y-132887200D02*
X237258458Y-132791961D01*
X237258458Y-132791961D02*
X237306077Y-132696723D01*
X237306077Y-132696723D02*
X237353696Y-132506247D01*
X237353696Y-132506247D02*
X237353696Y-132363390D01*
X237353696Y-132363390D02*
X237306077Y-132172914D01*
X237306077Y-132172914D02*
X237258458Y-132077676D01*
X237258458Y-132077676D02*
X237163220Y-131982438D01*
X237163220Y-131982438D02*
X237020363Y-131934819D01*
X237020363Y-131934819D02*
X236925125Y-131934819D01*
X236925125Y-131934819D02*
X236782268Y-131982438D01*
X236782268Y-131982438D02*
X236734649Y-132030057D01*
X235734649Y-132839580D02*
X235782268Y-132887200D01*
X235782268Y-132887200D02*
X235925125Y-132934819D01*
X235925125Y-132934819D02*
X236020363Y-132934819D01*
X236020363Y-132934819D02*
X236163220Y-132887200D01*
X236163220Y-132887200D02*
X236258458Y-132791961D01*
X236258458Y-132791961D02*
X236306077Y-132696723D01*
X236306077Y-132696723D02*
X236353696Y-132506247D01*
X236353696Y-132506247D02*
X236353696Y-132363390D01*
X236353696Y-132363390D02*
X236306077Y-132172914D01*
X236306077Y-132172914D02*
X236258458Y-132077676D01*
X236258458Y-132077676D02*
X236163220Y-131982438D01*
X236163220Y-131982438D02*
X236020363Y-131934819D01*
X236020363Y-131934819D02*
X235925125Y-131934819D01*
X235925125Y-131934819D02*
X235782268Y-131982438D01*
X235782268Y-131982438D02*
X235734649Y-132030057D01*
X234312969Y-135474819D02*
X234312969Y-134474819D01*
X234312969Y-134474819D02*
X233932017Y-134474819D01*
X233932017Y-134474819D02*
X233836779Y-134522438D01*
X233836779Y-134522438D02*
X233789160Y-134570057D01*
X233789160Y-134570057D02*
X233741541Y-134665295D01*
X233741541Y-134665295D02*
X233741541Y-134808152D01*
X233741541Y-134808152D02*
X233789160Y-134903390D01*
X233789160Y-134903390D02*
X233836779Y-134951009D01*
X233836779Y-134951009D02*
X233932017Y-134998628D01*
X233932017Y-134998628D02*
X234312969Y-134998628D01*
X233360588Y-134570057D02*
X233312969Y-134522438D01*
X233312969Y-134522438D02*
X233217731Y-134474819D01*
X233217731Y-134474819D02*
X232979636Y-134474819D01*
X232979636Y-134474819D02*
X232884398Y-134522438D01*
X232884398Y-134522438D02*
X232836779Y-134570057D01*
X232836779Y-134570057D02*
X232789160Y-134665295D01*
X232789160Y-134665295D02*
X232789160Y-134760533D01*
X232789160Y-134760533D02*
X232836779Y-134903390D01*
X232836779Y-134903390D02*
X233408207Y-135474819D01*
X233408207Y-135474819D02*
X232789160Y-135474819D01*
X238163220Y-135474819D02*
X238163220Y-134474819D01*
X238163220Y-134474819D02*
X237782268Y-134474819D01*
X237782268Y-134474819D02*
X237687030Y-134522438D01*
X237687030Y-134522438D02*
X237639411Y-134570057D01*
X237639411Y-134570057D02*
X237591792Y-134665295D01*
X237591792Y-134665295D02*
X237591792Y-134808152D01*
X237591792Y-134808152D02*
X237639411Y-134903390D01*
X237639411Y-134903390D02*
X237687030Y-134951009D01*
X237687030Y-134951009D02*
X237782268Y-134998628D01*
X237782268Y-134998628D02*
X238163220Y-134998628D01*
X237210839Y-134570057D02*
X237163220Y-134522438D01*
X237163220Y-134522438D02*
X237067982Y-134474819D01*
X237067982Y-134474819D02*
X236829887Y-134474819D01*
X236829887Y-134474819D02*
X236734649Y-134522438D01*
X236734649Y-134522438D02*
X236687030Y-134570057D01*
X236687030Y-134570057D02*
X236639411Y-134665295D01*
X236639411Y-134665295D02*
X236639411Y-134760533D01*
X236639411Y-134760533D02*
X236687030Y-134903390D01*
X236687030Y-134903390D02*
X237258458Y-135474819D01*
X237258458Y-135474819D02*
X236639411Y-135474819D01*
X235687030Y-135474819D02*
X236258458Y-135474819D01*
X235972744Y-135474819D02*
X235972744Y-134474819D01*
X235972744Y-134474819D02*
X236067982Y-134617676D01*
X236067982Y-134617676D02*
X236163220Y-134712914D01*
X236163220Y-134712914D02*
X236258458Y-134760533D01*
X234312969Y-138014819D02*
X234312969Y-137014819D01*
X234312969Y-137014819D02*
X233932017Y-137014819D01*
X233932017Y-137014819D02*
X233836779Y-137062438D01*
X233836779Y-137062438D02*
X233789160Y-137110057D01*
X233789160Y-137110057D02*
X233741541Y-137205295D01*
X233741541Y-137205295D02*
X233741541Y-137348152D01*
X233741541Y-137348152D02*
X233789160Y-137443390D01*
X233789160Y-137443390D02*
X233836779Y-137491009D01*
X233836779Y-137491009D02*
X233932017Y-137538628D01*
X233932017Y-137538628D02*
X234312969Y-137538628D01*
X233408207Y-137014819D02*
X232789160Y-137014819D01*
X232789160Y-137014819D02*
X233122493Y-137395771D01*
X233122493Y-137395771D02*
X232979636Y-137395771D01*
X232979636Y-137395771D02*
X232884398Y-137443390D01*
X232884398Y-137443390D02*
X232836779Y-137491009D01*
X232836779Y-137491009D02*
X232789160Y-137586247D01*
X232789160Y-137586247D02*
X232789160Y-137824342D01*
X232789160Y-137824342D02*
X232836779Y-137919580D01*
X232836779Y-137919580D02*
X232884398Y-137967200D01*
X232884398Y-137967200D02*
X232979636Y-138014819D01*
X232979636Y-138014819D02*
X233265350Y-138014819D01*
X233265350Y-138014819D02*
X233360588Y-137967200D01*
X233360588Y-137967200D02*
X233408207Y-137919580D01*
X238163220Y-138014819D02*
X238163220Y-137014819D01*
X238163220Y-137014819D02*
X237782268Y-137014819D01*
X237782268Y-137014819D02*
X237687030Y-137062438D01*
X237687030Y-137062438D02*
X237639411Y-137110057D01*
X237639411Y-137110057D02*
X237591792Y-137205295D01*
X237591792Y-137205295D02*
X237591792Y-137348152D01*
X237591792Y-137348152D02*
X237639411Y-137443390D01*
X237639411Y-137443390D02*
X237687030Y-137491009D01*
X237687030Y-137491009D02*
X237782268Y-137538628D01*
X237782268Y-137538628D02*
X238163220Y-137538628D01*
X237210839Y-137110057D02*
X237163220Y-137062438D01*
X237163220Y-137062438D02*
X237067982Y-137014819D01*
X237067982Y-137014819D02*
X236829887Y-137014819D01*
X236829887Y-137014819D02*
X236734649Y-137062438D01*
X236734649Y-137062438D02*
X236687030Y-137110057D01*
X236687030Y-137110057D02*
X236639411Y-137205295D01*
X236639411Y-137205295D02*
X236639411Y-137300533D01*
X236639411Y-137300533D02*
X236687030Y-137443390D01*
X236687030Y-137443390D02*
X237258458Y-138014819D01*
X237258458Y-138014819D02*
X236639411Y-138014819D01*
X236020363Y-137014819D02*
X235925125Y-137014819D01*
X235925125Y-137014819D02*
X235829887Y-137062438D01*
X235829887Y-137062438D02*
X235782268Y-137110057D01*
X235782268Y-137110057D02*
X235734649Y-137205295D01*
X235734649Y-137205295D02*
X235687030Y-137395771D01*
X235687030Y-137395771D02*
X235687030Y-137633866D01*
X235687030Y-137633866D02*
X235734649Y-137824342D01*
X235734649Y-137824342D02*
X235782268Y-137919580D01*
X235782268Y-137919580D02*
X235829887Y-137967200D01*
X235829887Y-137967200D02*
X235925125Y-138014819D01*
X235925125Y-138014819D02*
X236020363Y-138014819D01*
X236020363Y-138014819D02*
X236115601Y-137967200D01*
X236115601Y-137967200D02*
X236163220Y-137919580D01*
X236163220Y-137919580D02*
X236210839Y-137824342D01*
X236210839Y-137824342D02*
X236258458Y-137633866D01*
X236258458Y-137633866D02*
X236258458Y-137395771D01*
X236258458Y-137395771D02*
X236210839Y-137205295D01*
X236210839Y-137205295D02*
X236163220Y-137110057D01*
X236163220Y-137110057D02*
X236115601Y-137062438D01*
X236115601Y-137062438D02*
X236020363Y-137014819D01*
X234312969Y-140554819D02*
X234312969Y-139554819D01*
X234312969Y-139554819D02*
X233932017Y-139554819D01*
X233932017Y-139554819D02*
X233836779Y-139602438D01*
X233836779Y-139602438D02*
X233789160Y-139650057D01*
X233789160Y-139650057D02*
X233741541Y-139745295D01*
X233741541Y-139745295D02*
X233741541Y-139888152D01*
X233741541Y-139888152D02*
X233789160Y-139983390D01*
X233789160Y-139983390D02*
X233836779Y-140031009D01*
X233836779Y-140031009D02*
X233932017Y-140078628D01*
X233932017Y-140078628D02*
X234312969Y-140078628D01*
X232884398Y-139888152D02*
X232884398Y-140554819D01*
X233122493Y-139507200D02*
X233360588Y-140221485D01*
X233360588Y-140221485D02*
X232741541Y-140221485D01*
X238163220Y-140554819D02*
X238163220Y-139554819D01*
X238163220Y-139554819D02*
X237782268Y-139554819D01*
X237782268Y-139554819D02*
X237687030Y-139602438D01*
X237687030Y-139602438D02*
X237639411Y-139650057D01*
X237639411Y-139650057D02*
X237591792Y-139745295D01*
X237591792Y-139745295D02*
X237591792Y-139888152D01*
X237591792Y-139888152D02*
X237639411Y-139983390D01*
X237639411Y-139983390D02*
X237687030Y-140031009D01*
X237687030Y-140031009D02*
X237782268Y-140078628D01*
X237782268Y-140078628D02*
X238163220Y-140078628D01*
X236639411Y-140554819D02*
X237210839Y-140554819D01*
X236925125Y-140554819D02*
X236925125Y-139554819D01*
X236925125Y-139554819D02*
X237020363Y-139697676D01*
X237020363Y-139697676D02*
X237115601Y-139792914D01*
X237115601Y-139792914D02*
X237210839Y-139840533D01*
X236163220Y-140554819D02*
X235972744Y-140554819D01*
X235972744Y-140554819D02*
X235877506Y-140507200D01*
X235877506Y-140507200D02*
X235829887Y-140459580D01*
X235829887Y-140459580D02*
X235734649Y-140316723D01*
X235734649Y-140316723D02*
X235687030Y-140126247D01*
X235687030Y-140126247D02*
X235687030Y-139745295D01*
X235687030Y-139745295D02*
X235734649Y-139650057D01*
X235734649Y-139650057D02*
X235782268Y-139602438D01*
X235782268Y-139602438D02*
X235877506Y-139554819D01*
X235877506Y-139554819D02*
X236067982Y-139554819D01*
X236067982Y-139554819D02*
X236163220Y-139602438D01*
X236163220Y-139602438D02*
X236210839Y-139650057D01*
X236210839Y-139650057D02*
X236258458Y-139745295D01*
X236258458Y-139745295D02*
X236258458Y-139983390D01*
X236258458Y-139983390D02*
X236210839Y-140078628D01*
X236210839Y-140078628D02*
X236163220Y-140126247D01*
X236163220Y-140126247D02*
X236067982Y-140173866D01*
X236067982Y-140173866D02*
X235877506Y-140173866D01*
X235877506Y-140173866D02*
X235782268Y-140126247D01*
X235782268Y-140126247D02*
X235734649Y-140078628D01*
X235734649Y-140078628D02*
X235687030Y-139983390D01*
X234312969Y-143094819D02*
X234312969Y-142094819D01*
X234312969Y-142094819D02*
X233932017Y-142094819D01*
X233932017Y-142094819D02*
X233836779Y-142142438D01*
X233836779Y-142142438D02*
X233789160Y-142190057D01*
X233789160Y-142190057D02*
X233741541Y-142285295D01*
X233741541Y-142285295D02*
X233741541Y-142428152D01*
X233741541Y-142428152D02*
X233789160Y-142523390D01*
X233789160Y-142523390D02*
X233836779Y-142571009D01*
X233836779Y-142571009D02*
X233932017Y-142618628D01*
X233932017Y-142618628D02*
X234312969Y-142618628D01*
X232836779Y-142094819D02*
X233312969Y-142094819D01*
X233312969Y-142094819D02*
X233360588Y-142571009D01*
X233360588Y-142571009D02*
X233312969Y-142523390D01*
X233312969Y-142523390D02*
X233217731Y-142475771D01*
X233217731Y-142475771D02*
X232979636Y-142475771D01*
X232979636Y-142475771D02*
X232884398Y-142523390D01*
X232884398Y-142523390D02*
X232836779Y-142571009D01*
X232836779Y-142571009D02*
X232789160Y-142666247D01*
X232789160Y-142666247D02*
X232789160Y-142904342D01*
X232789160Y-142904342D02*
X232836779Y-142999580D01*
X232836779Y-142999580D02*
X232884398Y-143047200D01*
X232884398Y-143047200D02*
X232979636Y-143094819D01*
X232979636Y-143094819D02*
X233217731Y-143094819D01*
X233217731Y-143094819D02*
X233312969Y-143047200D01*
X233312969Y-143047200D02*
X233360588Y-142999580D01*
X238163220Y-143094819D02*
X238163220Y-142094819D01*
X238163220Y-142094819D02*
X237782268Y-142094819D01*
X237782268Y-142094819D02*
X237687030Y-142142438D01*
X237687030Y-142142438D02*
X237639411Y-142190057D01*
X237639411Y-142190057D02*
X237591792Y-142285295D01*
X237591792Y-142285295D02*
X237591792Y-142428152D01*
X237591792Y-142428152D02*
X237639411Y-142523390D01*
X237639411Y-142523390D02*
X237687030Y-142571009D01*
X237687030Y-142571009D02*
X237782268Y-142618628D01*
X237782268Y-142618628D02*
X238163220Y-142618628D01*
X236639411Y-143094819D02*
X237210839Y-143094819D01*
X236925125Y-143094819D02*
X236925125Y-142094819D01*
X236925125Y-142094819D02*
X237020363Y-142237676D01*
X237020363Y-142237676D02*
X237115601Y-142332914D01*
X237115601Y-142332914D02*
X237210839Y-142380533D01*
X236067982Y-142523390D02*
X236163220Y-142475771D01*
X236163220Y-142475771D02*
X236210839Y-142428152D01*
X236210839Y-142428152D02*
X236258458Y-142332914D01*
X236258458Y-142332914D02*
X236258458Y-142285295D01*
X236258458Y-142285295D02*
X236210839Y-142190057D01*
X236210839Y-142190057D02*
X236163220Y-142142438D01*
X236163220Y-142142438D02*
X236067982Y-142094819D01*
X236067982Y-142094819D02*
X235877506Y-142094819D01*
X235877506Y-142094819D02*
X235782268Y-142142438D01*
X235782268Y-142142438D02*
X235734649Y-142190057D01*
X235734649Y-142190057D02*
X235687030Y-142285295D01*
X235687030Y-142285295D02*
X235687030Y-142332914D01*
X235687030Y-142332914D02*
X235734649Y-142428152D01*
X235734649Y-142428152D02*
X235782268Y-142475771D01*
X235782268Y-142475771D02*
X235877506Y-142523390D01*
X235877506Y-142523390D02*
X236067982Y-142523390D01*
X236067982Y-142523390D02*
X236163220Y-142571009D01*
X236163220Y-142571009D02*
X236210839Y-142618628D01*
X236210839Y-142618628D02*
X236258458Y-142713866D01*
X236258458Y-142713866D02*
X236258458Y-142904342D01*
X236258458Y-142904342D02*
X236210839Y-142999580D01*
X236210839Y-142999580D02*
X236163220Y-143047200D01*
X236163220Y-143047200D02*
X236067982Y-143094819D01*
X236067982Y-143094819D02*
X235877506Y-143094819D01*
X235877506Y-143094819D02*
X235782268Y-143047200D01*
X235782268Y-143047200D02*
X235734649Y-142999580D01*
X235734649Y-142999580D02*
X235687030Y-142904342D01*
X235687030Y-142904342D02*
X235687030Y-142713866D01*
X235687030Y-142713866D02*
X235734649Y-142618628D01*
X235734649Y-142618628D02*
X235782268Y-142571009D01*
X235782268Y-142571009D02*
X235877506Y-142523390D01*
X234312969Y-145634819D02*
X234312969Y-144634819D01*
X234312969Y-144634819D02*
X233932017Y-144634819D01*
X233932017Y-144634819D02*
X233836779Y-144682438D01*
X233836779Y-144682438D02*
X233789160Y-144730057D01*
X233789160Y-144730057D02*
X233741541Y-144825295D01*
X233741541Y-144825295D02*
X233741541Y-144968152D01*
X233741541Y-144968152D02*
X233789160Y-145063390D01*
X233789160Y-145063390D02*
X233836779Y-145111009D01*
X233836779Y-145111009D02*
X233932017Y-145158628D01*
X233932017Y-145158628D02*
X234312969Y-145158628D01*
X232884398Y-144634819D02*
X233074874Y-144634819D01*
X233074874Y-144634819D02*
X233170112Y-144682438D01*
X233170112Y-144682438D02*
X233217731Y-144730057D01*
X233217731Y-144730057D02*
X233312969Y-144872914D01*
X233312969Y-144872914D02*
X233360588Y-145063390D01*
X233360588Y-145063390D02*
X233360588Y-145444342D01*
X233360588Y-145444342D02*
X233312969Y-145539580D01*
X233312969Y-145539580D02*
X233265350Y-145587200D01*
X233265350Y-145587200D02*
X233170112Y-145634819D01*
X233170112Y-145634819D02*
X232979636Y-145634819D01*
X232979636Y-145634819D02*
X232884398Y-145587200D01*
X232884398Y-145587200D02*
X232836779Y-145539580D01*
X232836779Y-145539580D02*
X232789160Y-145444342D01*
X232789160Y-145444342D02*
X232789160Y-145206247D01*
X232789160Y-145206247D02*
X232836779Y-145111009D01*
X232836779Y-145111009D02*
X232884398Y-145063390D01*
X232884398Y-145063390D02*
X232979636Y-145015771D01*
X232979636Y-145015771D02*
X233170112Y-145015771D01*
X233170112Y-145015771D02*
X233265350Y-145063390D01*
X233265350Y-145063390D02*
X233312969Y-145111009D01*
X233312969Y-145111009D02*
X233360588Y-145206247D01*
X238163220Y-145634819D02*
X238163220Y-144634819D01*
X238163220Y-144634819D02*
X237782268Y-144634819D01*
X237782268Y-144634819D02*
X237687030Y-144682438D01*
X237687030Y-144682438D02*
X237639411Y-144730057D01*
X237639411Y-144730057D02*
X237591792Y-144825295D01*
X237591792Y-144825295D02*
X237591792Y-144968152D01*
X237591792Y-144968152D02*
X237639411Y-145063390D01*
X237639411Y-145063390D02*
X237687030Y-145111009D01*
X237687030Y-145111009D02*
X237782268Y-145158628D01*
X237782268Y-145158628D02*
X238163220Y-145158628D01*
X236639411Y-145634819D02*
X237210839Y-145634819D01*
X236925125Y-145634819D02*
X236925125Y-144634819D01*
X236925125Y-144634819D02*
X237020363Y-144777676D01*
X237020363Y-144777676D02*
X237115601Y-144872914D01*
X237115601Y-144872914D02*
X237210839Y-144920533D01*
X235734649Y-144634819D02*
X236210839Y-144634819D01*
X236210839Y-144634819D02*
X236258458Y-145111009D01*
X236258458Y-145111009D02*
X236210839Y-145063390D01*
X236210839Y-145063390D02*
X236115601Y-145015771D01*
X236115601Y-145015771D02*
X235877506Y-145015771D01*
X235877506Y-145015771D02*
X235782268Y-145063390D01*
X235782268Y-145063390D02*
X235734649Y-145111009D01*
X235734649Y-145111009D02*
X235687030Y-145206247D01*
X235687030Y-145206247D02*
X235687030Y-145444342D01*
X235687030Y-145444342D02*
X235734649Y-145539580D01*
X235734649Y-145539580D02*
X235782268Y-145587200D01*
X235782268Y-145587200D02*
X235877506Y-145634819D01*
X235877506Y-145634819D02*
X236115601Y-145634819D01*
X236115601Y-145634819D02*
X236210839Y-145587200D01*
X236210839Y-145587200D02*
X236258458Y-145539580D01*
X234312969Y-148174819D02*
X234312969Y-147174819D01*
X234312969Y-147174819D02*
X233932017Y-147174819D01*
X233932017Y-147174819D02*
X233836779Y-147222438D01*
X233836779Y-147222438D02*
X233789160Y-147270057D01*
X233789160Y-147270057D02*
X233741541Y-147365295D01*
X233741541Y-147365295D02*
X233741541Y-147508152D01*
X233741541Y-147508152D02*
X233789160Y-147603390D01*
X233789160Y-147603390D02*
X233836779Y-147651009D01*
X233836779Y-147651009D02*
X233932017Y-147698628D01*
X233932017Y-147698628D02*
X234312969Y-147698628D01*
X233408207Y-147174819D02*
X232741541Y-147174819D01*
X232741541Y-147174819D02*
X233170112Y-148174819D01*
X238163220Y-148174819D02*
X238163220Y-147174819D01*
X238163220Y-147174819D02*
X237782268Y-147174819D01*
X237782268Y-147174819D02*
X237687030Y-147222438D01*
X237687030Y-147222438D02*
X237639411Y-147270057D01*
X237639411Y-147270057D02*
X237591792Y-147365295D01*
X237591792Y-147365295D02*
X237591792Y-147508152D01*
X237591792Y-147508152D02*
X237639411Y-147603390D01*
X237639411Y-147603390D02*
X237687030Y-147651009D01*
X237687030Y-147651009D02*
X237782268Y-147698628D01*
X237782268Y-147698628D02*
X238163220Y-147698628D01*
X236639411Y-148174819D02*
X237210839Y-148174819D01*
X236925125Y-148174819D02*
X236925125Y-147174819D01*
X236925125Y-147174819D02*
X237020363Y-147317676D01*
X237020363Y-147317676D02*
X237115601Y-147412914D01*
X237115601Y-147412914D02*
X237210839Y-147460533D01*
X235782268Y-147508152D02*
X235782268Y-148174819D01*
X236020363Y-147127200D02*
X236258458Y-147841485D01*
X236258458Y-147841485D02*
X235639411Y-147841485D01*
X234312969Y-150714819D02*
X234312969Y-149714819D01*
X234312969Y-149714819D02*
X233932017Y-149714819D01*
X233932017Y-149714819D02*
X233836779Y-149762438D01*
X233836779Y-149762438D02*
X233789160Y-149810057D01*
X233789160Y-149810057D02*
X233741541Y-149905295D01*
X233741541Y-149905295D02*
X233741541Y-150048152D01*
X233741541Y-150048152D02*
X233789160Y-150143390D01*
X233789160Y-150143390D02*
X233836779Y-150191009D01*
X233836779Y-150191009D02*
X233932017Y-150238628D01*
X233932017Y-150238628D02*
X234312969Y-150238628D01*
X233170112Y-150143390D02*
X233265350Y-150095771D01*
X233265350Y-150095771D02*
X233312969Y-150048152D01*
X233312969Y-150048152D02*
X233360588Y-149952914D01*
X233360588Y-149952914D02*
X233360588Y-149905295D01*
X233360588Y-149905295D02*
X233312969Y-149810057D01*
X233312969Y-149810057D02*
X233265350Y-149762438D01*
X233265350Y-149762438D02*
X233170112Y-149714819D01*
X233170112Y-149714819D02*
X232979636Y-149714819D01*
X232979636Y-149714819D02*
X232884398Y-149762438D01*
X232884398Y-149762438D02*
X232836779Y-149810057D01*
X232836779Y-149810057D02*
X232789160Y-149905295D01*
X232789160Y-149905295D02*
X232789160Y-149952914D01*
X232789160Y-149952914D02*
X232836779Y-150048152D01*
X232836779Y-150048152D02*
X232884398Y-150095771D01*
X232884398Y-150095771D02*
X232979636Y-150143390D01*
X232979636Y-150143390D02*
X233170112Y-150143390D01*
X233170112Y-150143390D02*
X233265350Y-150191009D01*
X233265350Y-150191009D02*
X233312969Y-150238628D01*
X233312969Y-150238628D02*
X233360588Y-150333866D01*
X233360588Y-150333866D02*
X233360588Y-150524342D01*
X233360588Y-150524342D02*
X233312969Y-150619580D01*
X233312969Y-150619580D02*
X233265350Y-150667200D01*
X233265350Y-150667200D02*
X233170112Y-150714819D01*
X233170112Y-150714819D02*
X232979636Y-150714819D01*
X232979636Y-150714819D02*
X232884398Y-150667200D01*
X232884398Y-150667200D02*
X232836779Y-150619580D01*
X232836779Y-150619580D02*
X232789160Y-150524342D01*
X232789160Y-150524342D02*
X232789160Y-150333866D01*
X232789160Y-150333866D02*
X232836779Y-150238628D01*
X232836779Y-150238628D02*
X232884398Y-150191009D01*
X232884398Y-150191009D02*
X232979636Y-150143390D01*
X238163220Y-150714819D02*
X238163220Y-149714819D01*
X238163220Y-149714819D02*
X237782268Y-149714819D01*
X237782268Y-149714819D02*
X237687030Y-149762438D01*
X237687030Y-149762438D02*
X237639411Y-149810057D01*
X237639411Y-149810057D02*
X237591792Y-149905295D01*
X237591792Y-149905295D02*
X237591792Y-150048152D01*
X237591792Y-150048152D02*
X237639411Y-150143390D01*
X237639411Y-150143390D02*
X237687030Y-150191009D01*
X237687030Y-150191009D02*
X237782268Y-150238628D01*
X237782268Y-150238628D02*
X238163220Y-150238628D01*
X236639411Y-150714819D02*
X237210839Y-150714819D01*
X236925125Y-150714819D02*
X236925125Y-149714819D01*
X236925125Y-149714819D02*
X237020363Y-149857676D01*
X237020363Y-149857676D02*
X237115601Y-149952914D01*
X237115601Y-149952914D02*
X237210839Y-150000533D01*
X235782268Y-149714819D02*
X235972744Y-149714819D01*
X235972744Y-149714819D02*
X236067982Y-149762438D01*
X236067982Y-149762438D02*
X236115601Y-149810057D01*
X236115601Y-149810057D02*
X236210839Y-149952914D01*
X236210839Y-149952914D02*
X236258458Y-150143390D01*
X236258458Y-150143390D02*
X236258458Y-150524342D01*
X236258458Y-150524342D02*
X236210839Y-150619580D01*
X236210839Y-150619580D02*
X236163220Y-150667200D01*
X236163220Y-150667200D02*
X236067982Y-150714819D01*
X236067982Y-150714819D02*
X235877506Y-150714819D01*
X235877506Y-150714819D02*
X235782268Y-150667200D01*
X235782268Y-150667200D02*
X235734649Y-150619580D01*
X235734649Y-150619580D02*
X235687030Y-150524342D01*
X235687030Y-150524342D02*
X235687030Y-150286247D01*
X235687030Y-150286247D02*
X235734649Y-150191009D01*
X235734649Y-150191009D02*
X235782268Y-150143390D01*
X235782268Y-150143390D02*
X235877506Y-150095771D01*
X235877506Y-150095771D02*
X236067982Y-150095771D01*
X236067982Y-150095771D02*
X236163220Y-150143390D01*
X236163220Y-150143390D02*
X236210839Y-150191009D01*
X236210839Y-150191009D02*
X236258458Y-150286247D01*
X234312969Y-153254819D02*
X234312969Y-152254819D01*
X234312969Y-152254819D02*
X233932017Y-152254819D01*
X233932017Y-152254819D02*
X233836779Y-152302438D01*
X233836779Y-152302438D02*
X233789160Y-152350057D01*
X233789160Y-152350057D02*
X233741541Y-152445295D01*
X233741541Y-152445295D02*
X233741541Y-152588152D01*
X233741541Y-152588152D02*
X233789160Y-152683390D01*
X233789160Y-152683390D02*
X233836779Y-152731009D01*
X233836779Y-152731009D02*
X233932017Y-152778628D01*
X233932017Y-152778628D02*
X234312969Y-152778628D01*
X233265350Y-153254819D02*
X233074874Y-153254819D01*
X233074874Y-153254819D02*
X232979636Y-153207200D01*
X232979636Y-153207200D02*
X232932017Y-153159580D01*
X232932017Y-153159580D02*
X232836779Y-153016723D01*
X232836779Y-153016723D02*
X232789160Y-152826247D01*
X232789160Y-152826247D02*
X232789160Y-152445295D01*
X232789160Y-152445295D02*
X232836779Y-152350057D01*
X232836779Y-152350057D02*
X232884398Y-152302438D01*
X232884398Y-152302438D02*
X232979636Y-152254819D01*
X232979636Y-152254819D02*
X233170112Y-152254819D01*
X233170112Y-152254819D02*
X233265350Y-152302438D01*
X233265350Y-152302438D02*
X233312969Y-152350057D01*
X233312969Y-152350057D02*
X233360588Y-152445295D01*
X233360588Y-152445295D02*
X233360588Y-152683390D01*
X233360588Y-152683390D02*
X233312969Y-152778628D01*
X233312969Y-152778628D02*
X233265350Y-152826247D01*
X233265350Y-152826247D02*
X233170112Y-152873866D01*
X233170112Y-152873866D02*
X232979636Y-152873866D01*
X232979636Y-152873866D02*
X232884398Y-152826247D01*
X232884398Y-152826247D02*
X232836779Y-152778628D01*
X232836779Y-152778628D02*
X232789160Y-152683390D01*
X238163220Y-153254819D02*
X238163220Y-152254819D01*
X238163220Y-152254819D02*
X237782268Y-152254819D01*
X237782268Y-152254819D02*
X237687030Y-152302438D01*
X237687030Y-152302438D02*
X237639411Y-152350057D01*
X237639411Y-152350057D02*
X237591792Y-152445295D01*
X237591792Y-152445295D02*
X237591792Y-152588152D01*
X237591792Y-152588152D02*
X237639411Y-152683390D01*
X237639411Y-152683390D02*
X237687030Y-152731009D01*
X237687030Y-152731009D02*
X237782268Y-152778628D01*
X237782268Y-152778628D02*
X238163220Y-152778628D01*
X236639411Y-153254819D02*
X237210839Y-153254819D01*
X236925125Y-153254819D02*
X236925125Y-152254819D01*
X236925125Y-152254819D02*
X237020363Y-152397676D01*
X237020363Y-152397676D02*
X237115601Y-152492914D01*
X237115601Y-152492914D02*
X237210839Y-152540533D01*
X236020363Y-152254819D02*
X235925125Y-152254819D01*
X235925125Y-152254819D02*
X235829887Y-152302438D01*
X235829887Y-152302438D02*
X235782268Y-152350057D01*
X235782268Y-152350057D02*
X235734649Y-152445295D01*
X235734649Y-152445295D02*
X235687030Y-152635771D01*
X235687030Y-152635771D02*
X235687030Y-152873866D01*
X235687030Y-152873866D02*
X235734649Y-153064342D01*
X235734649Y-153064342D02*
X235782268Y-153159580D01*
X235782268Y-153159580D02*
X235829887Y-153207200D01*
X235829887Y-153207200D02*
X235925125Y-153254819D01*
X235925125Y-153254819D02*
X236020363Y-153254819D01*
X236020363Y-153254819D02*
X236115601Y-153207200D01*
X236115601Y-153207200D02*
X236163220Y-153159580D01*
X236163220Y-153159580D02*
X236210839Y-153064342D01*
X236210839Y-153064342D02*
X236258458Y-152873866D01*
X236258458Y-152873866D02*
X236258458Y-152635771D01*
X236258458Y-152635771D02*
X236210839Y-152445295D01*
X236210839Y-152445295D02*
X236163220Y-152350057D01*
X236163220Y-152350057D02*
X236115601Y-152302438D01*
X236115601Y-152302438D02*
X236020363Y-152254819D01*
X243547619Y-122769819D02*
X244023809Y-122769819D01*
X244023809Y-122769819D02*
X244023809Y-121769819D01*
X243214285Y-122674580D02*
X243166666Y-122722200D01*
X243166666Y-122722200D02*
X243214285Y-122769819D01*
X243214285Y-122769819D02*
X243261904Y-122722200D01*
X243261904Y-122722200D02*
X243214285Y-122674580D01*
X243214285Y-122674580D02*
X243214285Y-122769819D01*
X242023809Y-122722200D02*
X241880952Y-122769819D01*
X241880952Y-122769819D02*
X241642857Y-122769819D01*
X241642857Y-122769819D02*
X241547619Y-122722200D01*
X241547619Y-122722200D02*
X241500000Y-122674580D01*
X241500000Y-122674580D02*
X241452381Y-122579342D01*
X241452381Y-122579342D02*
X241452381Y-122484104D01*
X241452381Y-122484104D02*
X241500000Y-122388866D01*
X241500000Y-122388866D02*
X241547619Y-122341247D01*
X241547619Y-122341247D02*
X241642857Y-122293628D01*
X241642857Y-122293628D02*
X241833333Y-122246009D01*
X241833333Y-122246009D02*
X241928571Y-122198390D01*
X241928571Y-122198390D02*
X241976190Y-122150771D01*
X241976190Y-122150771D02*
X242023809Y-122055533D01*
X242023809Y-122055533D02*
X242023809Y-121960295D01*
X242023809Y-121960295D02*
X241976190Y-121865057D01*
X241976190Y-121865057D02*
X241928571Y-121817438D01*
X241928571Y-121817438D02*
X241833333Y-121769819D01*
X241833333Y-121769819D02*
X241595238Y-121769819D01*
X241595238Y-121769819D02*
X241452381Y-121817438D01*
X241023809Y-122769819D02*
X241023809Y-122103152D01*
X241023809Y-121769819D02*
X241071428Y-121817438D01*
X241071428Y-121817438D02*
X241023809Y-121865057D01*
X241023809Y-121865057D02*
X240976190Y-121817438D01*
X240976190Y-121817438D02*
X241023809Y-121769819D01*
X241023809Y-121769819D02*
X241023809Y-121865057D01*
X240119048Y-122769819D02*
X240119048Y-121769819D01*
X240119048Y-122722200D02*
X240214286Y-122769819D01*
X240214286Y-122769819D02*
X240404762Y-122769819D01*
X240404762Y-122769819D02*
X240500000Y-122722200D01*
X240500000Y-122722200D02*
X240547619Y-122674580D01*
X240547619Y-122674580D02*
X240595238Y-122579342D01*
X240595238Y-122579342D02*
X240595238Y-122293628D01*
X240595238Y-122293628D02*
X240547619Y-122198390D01*
X240547619Y-122198390D02*
X240500000Y-122150771D01*
X240500000Y-122150771D02*
X240404762Y-122103152D01*
X240404762Y-122103152D02*
X240214286Y-122103152D01*
X240214286Y-122103152D02*
X240119048Y-122150771D01*
X239261905Y-122722200D02*
X239357143Y-122769819D01*
X239357143Y-122769819D02*
X239547619Y-122769819D01*
X239547619Y-122769819D02*
X239642857Y-122722200D01*
X239642857Y-122722200D02*
X239690476Y-122626961D01*
X239690476Y-122626961D02*
X239690476Y-122246009D01*
X239690476Y-122246009D02*
X239642857Y-122150771D01*
X239642857Y-122150771D02*
X239547619Y-122103152D01*
X239547619Y-122103152D02*
X239357143Y-122103152D01*
X239357143Y-122103152D02*
X239261905Y-122150771D01*
X239261905Y-122150771D02*
X239214286Y-122246009D01*
X239214286Y-122246009D02*
X239214286Y-122341247D01*
X239214286Y-122341247D02*
X239690476Y-122436485D01*
X238023809Y-122388866D02*
X237261905Y-122388866D01*
X235738095Y-121769819D02*
X235738095Y-122484104D01*
X235738095Y-122484104D02*
X235785714Y-122626961D01*
X235785714Y-122626961D02*
X235880952Y-122722200D01*
X235880952Y-122722200D02*
X236023809Y-122769819D01*
X236023809Y-122769819D02*
X236119047Y-122769819D01*
X234833333Y-122103152D02*
X234833333Y-122769819D01*
X235261904Y-122103152D02*
X235261904Y-122626961D01*
X235261904Y-122626961D02*
X235214285Y-122722200D01*
X235214285Y-122722200D02*
X235119047Y-122769819D01*
X235119047Y-122769819D02*
X234976190Y-122769819D01*
X234976190Y-122769819D02*
X234880952Y-122722200D01*
X234880952Y-122722200D02*
X234833333Y-122674580D01*
X234357142Y-122769819D02*
X234357142Y-122103152D01*
X234357142Y-122198390D02*
X234309523Y-122150771D01*
X234309523Y-122150771D02*
X234214285Y-122103152D01*
X234214285Y-122103152D02*
X234071428Y-122103152D01*
X234071428Y-122103152D02*
X233976190Y-122150771D01*
X233976190Y-122150771D02*
X233928571Y-122246009D01*
X233928571Y-122246009D02*
X233928571Y-122769819D01*
X233928571Y-122246009D02*
X233880952Y-122150771D01*
X233880952Y-122150771D02*
X233785714Y-122103152D01*
X233785714Y-122103152D02*
X233642857Y-122103152D01*
X233642857Y-122103152D02*
X233547618Y-122150771D01*
X233547618Y-122150771D02*
X233499999Y-122246009D01*
X233499999Y-122246009D02*
X233499999Y-122769819D01*
X233023809Y-122103152D02*
X233023809Y-123103152D01*
X233023809Y-122150771D02*
X232928571Y-122103152D01*
X232928571Y-122103152D02*
X232738095Y-122103152D01*
X232738095Y-122103152D02*
X232642857Y-122150771D01*
X232642857Y-122150771D02*
X232595238Y-122198390D01*
X232595238Y-122198390D02*
X232547619Y-122293628D01*
X232547619Y-122293628D02*
X232547619Y-122579342D01*
X232547619Y-122579342D02*
X232595238Y-122674580D01*
X232595238Y-122674580D02*
X232642857Y-122722200D01*
X232642857Y-122722200D02*
X232738095Y-122769819D01*
X232738095Y-122769819D02*
X232928571Y-122769819D01*
X232928571Y-122769819D02*
X233023809Y-122722200D01*
X231738095Y-122722200D02*
X231833333Y-122769819D01*
X231833333Y-122769819D02*
X232023809Y-122769819D01*
X232023809Y-122769819D02*
X232119047Y-122722200D01*
X232119047Y-122722200D02*
X232166666Y-122626961D01*
X232166666Y-122626961D02*
X232166666Y-122246009D01*
X232166666Y-122246009D02*
X232119047Y-122150771D01*
X232119047Y-122150771D02*
X232023809Y-122103152D01*
X232023809Y-122103152D02*
X231833333Y-122103152D01*
X231833333Y-122103152D02*
X231738095Y-122150771D01*
X231738095Y-122150771D02*
X231690476Y-122246009D01*
X231690476Y-122246009D02*
X231690476Y-122341247D01*
X231690476Y-122341247D02*
X232166666Y-122436485D01*
X231261904Y-122769819D02*
X231261904Y-122103152D01*
X231261904Y-122293628D02*
X231214285Y-122198390D01*
X231214285Y-122198390D02*
X231166666Y-122150771D01*
X231166666Y-122150771D02*
X231071428Y-122103152D01*
X231071428Y-122103152D02*
X230976190Y-122103152D01*
X229880951Y-122769819D02*
X229880951Y-121769819D01*
X229880951Y-122246009D02*
X229309523Y-122246009D01*
X229309523Y-122769819D02*
X229309523Y-121769819D01*
X228452380Y-122722200D02*
X228547618Y-122769819D01*
X228547618Y-122769819D02*
X228738094Y-122769819D01*
X228738094Y-122769819D02*
X228833332Y-122722200D01*
X228833332Y-122722200D02*
X228880951Y-122626961D01*
X228880951Y-122626961D02*
X228880951Y-122246009D01*
X228880951Y-122246009D02*
X228833332Y-122150771D01*
X228833332Y-122150771D02*
X228738094Y-122103152D01*
X228738094Y-122103152D02*
X228547618Y-122103152D01*
X228547618Y-122103152D02*
X228452380Y-122150771D01*
X228452380Y-122150771D02*
X228404761Y-122246009D01*
X228404761Y-122246009D02*
X228404761Y-122341247D01*
X228404761Y-122341247D02*
X228880951Y-122436485D01*
X227976189Y-122769819D02*
X227976189Y-122103152D01*
X227976189Y-122293628D02*
X227928570Y-122198390D01*
X227928570Y-122198390D02*
X227880951Y-122150771D01*
X227880951Y-122150771D02*
X227785713Y-122103152D01*
X227785713Y-122103152D02*
X227690475Y-122103152D01*
X226976189Y-122722200D02*
X227071427Y-122769819D01*
X227071427Y-122769819D02*
X227261903Y-122769819D01*
X227261903Y-122769819D02*
X227357141Y-122722200D01*
X227357141Y-122722200D02*
X227404760Y-122626961D01*
X227404760Y-122626961D02*
X227404760Y-122246009D01*
X227404760Y-122246009D02*
X227357141Y-122150771D01*
X227357141Y-122150771D02*
X227261903Y-122103152D01*
X227261903Y-122103152D02*
X227071427Y-122103152D01*
X227071427Y-122103152D02*
X226976189Y-122150771D01*
X226976189Y-122150771D02*
X226928570Y-122246009D01*
X226928570Y-122246009D02*
X226928570Y-122341247D01*
X226928570Y-122341247D02*
X227404760Y-122436485D01*
%TO.C,G\u002A\u002A\u002A*%
G36*
X174245475Y-162958000D02*
G01*
X174296786Y-162959521D01*
X174403716Y-162974094D01*
X174458075Y-162999106D01*
X174461482Y-163009613D01*
X174464882Y-163089999D01*
X174457782Y-163224545D01*
X174441157Y-163390689D01*
X174437193Y-163423796D01*
X174415187Y-163613421D01*
X174388106Y-163853631D01*
X174359012Y-164117016D01*
X174330972Y-164376167D01*
X174319229Y-164484411D01*
X174294822Y-164699316D01*
X174272991Y-164878714D01*
X174255755Y-165006365D01*
X174245136Y-165066031D01*
X174208714Y-165095725D01*
X174110832Y-165110058D01*
X173940831Y-165108364D01*
X173654500Y-165095833D01*
X173551116Y-164368112D01*
X173520914Y-164165955D01*
X173486445Y-163959348D01*
X173455374Y-163797754D01*
X173430227Y-163694154D01*
X173413532Y-163661527D01*
X173412427Y-163662279D01*
X173388397Y-163717813D01*
X173377297Y-163817748D01*
X173376904Y-163829055D01*
X173367037Y-163933925D01*
X173346090Y-164098251D01*
X173316793Y-164301798D01*
X173281880Y-164524333D01*
X173188499Y-165095833D01*
X172923535Y-165108451D01*
X172792261Y-165110910D01*
X172682777Y-165098291D01*
X172638001Y-165066117D01*
X172631302Y-165040528D01*
X172612128Y-164938080D01*
X172585823Y-164776209D01*
X172554360Y-164569231D01*
X172519716Y-164331459D01*
X172483864Y-164077207D01*
X172448779Y-163820791D01*
X172416435Y-163576525D01*
X172388809Y-163358722D01*
X172367873Y-163181698D01*
X172355604Y-163059766D01*
X172353975Y-163007242D01*
X172392230Y-162978782D01*
X172486736Y-162961428D01*
X172603904Y-162961188D01*
X172711241Y-162977778D01*
X172776253Y-163010917D01*
X172782830Y-163024790D01*
X172802961Y-163112403D01*
X172825765Y-163261475D01*
X172848910Y-163455424D01*
X172870062Y-163677667D01*
X172887575Y-163884491D01*
X172912105Y-164156555D01*
X172933097Y-164346397D01*
X172952468Y-164455375D01*
X172972139Y-164484846D01*
X172994027Y-164436169D01*
X173020051Y-164310699D01*
X173052131Y-164109796D01*
X173092185Y-163834817D01*
X173093140Y-163828160D01*
X173130119Y-163577604D01*
X173164771Y-163355640D01*
X173194785Y-163176090D01*
X173217856Y-163052774D01*
X173231675Y-162999511D01*
X173249097Y-162984231D01*
X173332924Y-162962518D01*
X173447335Y-162960431D01*
X173556162Y-162976915D01*
X173623239Y-163010917D01*
X173636999Y-163042058D01*
X173663185Y-163147214D01*
X173691182Y-163302542D01*
X173716884Y-163487167D01*
X173726044Y-163561891D01*
X173757189Y-163803681D01*
X173790353Y-164047059D01*
X173819750Y-164249167D01*
X173839224Y-164374067D01*
X173858692Y-164481974D01*
X173872624Y-164519958D01*
X173884807Y-164496104D01*
X173899026Y-164418500D01*
X173899591Y-164414963D01*
X173913975Y-164303955D01*
X173932546Y-164132428D01*
X173952970Y-163923136D01*
X173972909Y-163698833D01*
X173988305Y-163515137D01*
X174007571Y-163297993D01*
X174025576Y-163145958D01*
X174046570Y-163047479D01*
X174074806Y-162990999D01*
X174114534Y-162964962D01*
X174170007Y-162957815D01*
X174245475Y-162958000D01*
G37*
G36*
X186227500Y-164016333D02*
G01*
X186226861Y-164136867D01*
X186220746Y-164314809D01*
X186205304Y-164442618D01*
X186177085Y-164542909D01*
X186132641Y-164638297D01*
X186020429Y-164800289D01*
X185814479Y-164978403D01*
X185561944Y-165097115D01*
X185536298Y-165104506D01*
X185349419Y-165137676D01*
X185119709Y-165154179D01*
X184881637Y-165152675D01*
X184669671Y-165131824D01*
X184508841Y-165105247D01*
X184521504Y-164910040D01*
X184534167Y-164714833D01*
X184898939Y-164729894D01*
X185155657Y-164726370D01*
X185411169Y-164679872D01*
X185597757Y-164586366D01*
X185716495Y-164445479D01*
X185722451Y-164433870D01*
X185765406Y-164343690D01*
X185783000Y-164294651D01*
X185763953Y-164289142D01*
X185674162Y-164280853D01*
X185523381Y-164272904D01*
X185325668Y-164265989D01*
X185095083Y-164260798D01*
X184407167Y-164249167D01*
X184410176Y-163910500D01*
X184411559Y-163889333D01*
X184798750Y-163889333D01*
X185312848Y-163889333D01*
X185826947Y-163889333D01*
X185798800Y-163772917D01*
X185773952Y-163693243D01*
X185668129Y-163519125D01*
X185515561Y-163402948D01*
X185331392Y-163353616D01*
X185130762Y-163380037D01*
X185010311Y-163437693D01*
X184893043Y-163564124D01*
X184825824Y-163753963D01*
X184798750Y-163889333D01*
X184411559Y-163889333D01*
X184426553Y-163659811D01*
X184481620Y-163441054D01*
X184583173Y-163264181D01*
X184739133Y-163109919D01*
X184819044Y-163049333D01*
X184892401Y-163010351D01*
X184980241Y-162989345D01*
X185105954Y-162980791D01*
X185292931Y-162979167D01*
X185433069Y-162980101D01*
X185579058Y-162987142D01*
X185681554Y-163005456D01*
X185764811Y-163040108D01*
X185853080Y-163096165D01*
X185891296Y-163125095D01*
X186021881Y-163252992D01*
X186124782Y-163392498D01*
X186162873Y-163464242D01*
X186196708Y-163554147D01*
X186216286Y-163661122D01*
X186225314Y-163807680D01*
X186226169Y-163889333D01*
X186227500Y-164016333D01*
G37*
G36*
X174753377Y-168237003D02*
G01*
X174672424Y-168357424D01*
X174621132Y-168398192D01*
X174469680Y-168454935D01*
X174302427Y-168456028D01*
X174155291Y-168398611D01*
X174118431Y-168374261D01*
X174061828Y-168358376D01*
X174013688Y-168398611D01*
X173986625Y-168422399D01*
X173883021Y-168456909D01*
X173766426Y-168450707D01*
X173680120Y-168403199D01*
X173662174Y-168372629D01*
X173655216Y-168295641D01*
X173685085Y-168234548D01*
X173740458Y-168223138D01*
X173750425Y-168226027D01*
X173793321Y-168205790D01*
X173822336Y-168121532D01*
X173833768Y-168014537D01*
X174141333Y-168014537D01*
X174158793Y-168131960D01*
X174223217Y-168205844D01*
X174279877Y-168233055D01*
X174360468Y-168244409D01*
X174429200Y-168198867D01*
X174476055Y-168129530D01*
X174473768Y-168034488D01*
X174398750Y-167952278D01*
X174257750Y-167894864D01*
X174250363Y-167893113D01*
X174176343Y-167883580D01*
X174146724Y-167917142D01*
X174141333Y-168014537D01*
X173833768Y-168014537D01*
X173838895Y-167966554D01*
X173844422Y-167734156D01*
X173844778Y-167663857D01*
X173849927Y-167521364D01*
X173866112Y-167432099D01*
X173899571Y-167373100D01*
X173956543Y-167321406D01*
X173998820Y-167293820D01*
X174161091Y-167242475D01*
X174357248Y-167237254D01*
X174558350Y-167280141D01*
X174584918Y-167290091D01*
X174668365Y-167345883D01*
X174691667Y-167431161D01*
X174691068Y-167455776D01*
X174670619Y-167513710D01*
X174607000Y-167511686D01*
X174551399Y-167495898D01*
X174434612Y-167462677D01*
X174391944Y-167453467D01*
X174270604Y-167457113D01*
X174178123Y-167499429D01*
X174141333Y-167570546D01*
X174153265Y-167616788D01*
X174211238Y-167654425D01*
X174334832Y-167680829D01*
X174451257Y-167706500D01*
X174627429Y-167792084D01*
X174738001Y-167920623D01*
X174776333Y-168086021D01*
X174769718Y-168129530D01*
X174753377Y-168237003D01*
G37*
G36*
X193044110Y-163710494D02*
G01*
X193055529Y-164060014D01*
X193017897Y-164320655D01*
X192913643Y-164589980D01*
X192746107Y-164803351D01*
X192516091Y-164959805D01*
X192224398Y-165058379D01*
X192156379Y-165072602D01*
X191974357Y-165102672D01*
X191818559Y-165108985D01*
X191653291Y-165091092D01*
X191442857Y-165048544D01*
X191439834Y-165047864D01*
X191250521Y-165001369D01*
X191130248Y-164956911D01*
X191064730Y-164902764D01*
X191039683Y-164827201D01*
X191040821Y-164718494D01*
X191045035Y-164661082D01*
X191056538Y-164597382D01*
X191087627Y-164565897D01*
X191154029Y-164563345D01*
X191271467Y-164586443D01*
X191455667Y-164631910D01*
X191692912Y-164676295D01*
X191955481Y-164677178D01*
X192173528Y-164613052D01*
X192353839Y-164482788D01*
X192369332Y-164466987D01*
X192476620Y-164328649D01*
X192514000Y-164212837D01*
X192514000Y-164103047D01*
X191804917Y-164091440D01*
X191095833Y-164079833D01*
X191082741Y-163874095D01*
X191080603Y-163826014D01*
X191090847Y-163677667D01*
X191625000Y-163677667D01*
X192069500Y-163677667D01*
X192242673Y-163676492D01*
X192396754Y-163667967D01*
X192484388Y-163645261D01*
X192515787Y-163601582D01*
X192501167Y-163530138D01*
X192450742Y-163424134D01*
X192371098Y-163307277D01*
X192222592Y-163203743D01*
X192028331Y-163171013D01*
X191917415Y-163183065D01*
X191760319Y-163255649D01*
X191660169Y-163386954D01*
X191625000Y-163569050D01*
X191625000Y-163677667D01*
X191090847Y-163677667D01*
X191099567Y-163551379D01*
X191165163Y-163288585D01*
X191269602Y-163071093D01*
X191300648Y-163027848D01*
X191474564Y-162872855D01*
X191706468Y-162779254D01*
X191995878Y-162747263D01*
X192134325Y-162754160D01*
X192415184Y-162821601D01*
X192651029Y-162956452D01*
X192837423Y-163153216D01*
X192969930Y-163406396D01*
X193017543Y-163601582D01*
X193044110Y-163710494D01*
G37*
G36*
X183493175Y-167276507D02*
G01*
X183586493Y-167285123D01*
X183624000Y-167301021D01*
X183623955Y-167301665D01*
X183599536Y-167348812D01*
X183538899Y-167444024D01*
X183454667Y-167567443D01*
X183451362Y-167572162D01*
X183367595Y-167696191D01*
X183308017Y-167792675D01*
X183285333Y-167841078D01*
X183285451Y-167842457D01*
X183310589Y-167895152D01*
X183371092Y-167995369D01*
X183454667Y-168122667D01*
X183461724Y-168133079D01*
X183543749Y-168257383D01*
X183601905Y-168351408D01*
X183624000Y-168395510D01*
X183623616Y-168397263D01*
X183580105Y-168412238D01*
X183486417Y-168417635D01*
X183469415Y-168417210D01*
X183381845Y-168399289D01*
X183306957Y-168341992D01*
X183219349Y-168227207D01*
X183089864Y-168038143D01*
X182955638Y-168228572D01*
X182922097Y-168275092D01*
X182842435Y-168366986D01*
X182768077Y-168408982D01*
X182672373Y-168419000D01*
X182652242Y-168418677D01*
X182560584Y-168406978D01*
X182523333Y-168383685D01*
X182523363Y-168382982D01*
X182547553Y-168330966D01*
X182608230Y-168231911D01*
X182692667Y-168106638D01*
X182696253Y-168101512D01*
X182779889Y-167977747D01*
X182839361Y-167881946D01*
X182862000Y-167834472D01*
X182844865Y-167794863D01*
X182791246Y-167703487D01*
X182713833Y-167584021D01*
X182645554Y-167477649D01*
X182587846Y-167376024D01*
X182565667Y-167320003D01*
X182601437Y-167289091D01*
X182689005Y-167276000D01*
X182753505Y-167283912D01*
X182841028Y-167334212D01*
X182937065Y-167445596D01*
X183061787Y-167615193D01*
X183179318Y-167445596D01*
X183197392Y-167419877D01*
X183275469Y-167326951D01*
X183352378Y-167285489D01*
X183460424Y-167276000D01*
X183493175Y-167276507D01*
G37*
G36*
X196110388Y-167276208D02*
G01*
X196202062Y-167284000D01*
X196239333Y-167299557D01*
X196239093Y-167301226D01*
X196219483Y-167355024D01*
X196172976Y-167468972D01*
X196106011Y-167627574D01*
X196025029Y-167815331D01*
X195961355Y-167964596D01*
X195885738Y-168160861D01*
X195846183Y-168304762D01*
X195840793Y-168410491D01*
X195867672Y-168492242D01*
X195924921Y-168564206D01*
X195985303Y-168603993D01*
X196094191Y-168630667D01*
X196094617Y-168630667D01*
X196174481Y-168662821D01*
X196202244Y-168736407D01*
X196165250Y-168818054D01*
X196142182Y-168831906D01*
X196047617Y-168839393D01*
X195923013Y-168816239D01*
X195799415Y-168769919D01*
X195707870Y-168707912D01*
X195689241Y-168682193D01*
X195634645Y-168585780D01*
X195558831Y-168438018D01*
X195469180Y-168254796D01*
X195373072Y-168051999D01*
X195277888Y-167845516D01*
X195191008Y-167651232D01*
X195119813Y-167485034D01*
X195071683Y-167362810D01*
X195054000Y-167300446D01*
X195054426Y-167298525D01*
X195098309Y-167282554D01*
X195192312Y-167276000D01*
X195200084Y-167276015D01*
X195264196Y-167280852D01*
X195312202Y-167304692D01*
X195355797Y-167362512D01*
X195406677Y-167469292D01*
X195476536Y-167640007D01*
X195520156Y-167750963D01*
X195569193Y-167871827D01*
X195606596Y-167933303D01*
X195642211Y-167932096D01*
X195685880Y-167864909D01*
X195747449Y-167728448D01*
X195836762Y-167519417D01*
X195841497Y-167508472D01*
X195901128Y-167379483D01*
X195949881Y-167309866D01*
X196006726Y-167281435D01*
X196090633Y-167276000D01*
X196110388Y-167276208D01*
G37*
G36*
X184851509Y-167839019D02*
G01*
X184828122Y-168043565D01*
X184739504Y-168237492D01*
X184585028Y-168378380D01*
X184465788Y-168430246D01*
X184237833Y-168456955D01*
X184204334Y-168456180D01*
X184015429Y-168443037D01*
X183894483Y-168412182D01*
X183827515Y-168357761D01*
X183800543Y-168273923D01*
X183796068Y-168210077D01*
X183816335Y-168170814D01*
X183885210Y-168180370D01*
X183953654Y-168198291D01*
X184152758Y-168235639D01*
X184298302Y-168232935D01*
X184406502Y-168190495D01*
X184479983Y-168119571D01*
X184513000Y-168038736D01*
X184511765Y-168019150D01*
X184493614Y-167985346D01*
X184440636Y-167964619D01*
X184336220Y-167952486D01*
X184163750Y-167944462D01*
X183814500Y-167932167D01*
X183818692Y-167780597D01*
X183821529Y-167716209D01*
X183830131Y-167660024D01*
X184132000Y-167660024D01*
X184132013Y-167662398D01*
X184146593Y-167712491D01*
X184203025Y-167735886D01*
X184322500Y-167741667D01*
X184439694Y-167736014D01*
X184498116Y-167712804D01*
X184513000Y-167663561D01*
X184511819Y-167648817D01*
X184470346Y-167558881D01*
X184392945Y-167479498D01*
X184311607Y-167445333D01*
X184309468Y-167445367D01*
X184230449Y-167482492D01*
X184161506Y-167565744D01*
X184132000Y-167660024D01*
X183830131Y-167660024D01*
X183849449Y-167533855D01*
X183911692Y-167407447D01*
X184016720Y-167317178D01*
X184029669Y-167309490D01*
X184223359Y-167239237D01*
X184412691Y-167243844D01*
X184583917Y-167314719D01*
X184723293Y-167443268D01*
X184817072Y-167620899D01*
X184823808Y-167663561D01*
X184851509Y-167839019D01*
G37*
G36*
X197382333Y-167741667D02*
G01*
X197382333Y-168212201D01*
X197382333Y-168419000D01*
X197020398Y-168419000D01*
X196957699Y-168418522D01*
X196719185Y-168402670D01*
X196550871Y-168359684D01*
X196442735Y-168283204D01*
X196384756Y-168166871D01*
X196374543Y-168073843D01*
X196713167Y-168073843D01*
X196714516Y-168084701D01*
X196735465Y-168151758D01*
X196790973Y-168184495D01*
X196906083Y-168199184D01*
X197086000Y-168212201D01*
X197086000Y-168019267D01*
X197085723Y-167977409D01*
X197077358Y-167878642D01*
X197049019Y-167835701D01*
X196989586Y-167826333D01*
X196954735Y-167828269D01*
X196825807Y-167872594D01*
X196738064Y-167960917D01*
X196713167Y-168073843D01*
X196374543Y-168073843D01*
X196366912Y-168004326D01*
X196367120Y-167997441D01*
X196400294Y-167899723D01*
X196473039Y-167800445D01*
X196579745Y-167693740D01*
X196494206Y-167584994D01*
X196424228Y-167456943D01*
X196422826Y-167429743D01*
X196747333Y-167429743D01*
X196767239Y-167508440D01*
X196855923Y-167573381D01*
X196943165Y-167603026D01*
X197033015Y-167610387D01*
X197075378Y-167560744D01*
X197086000Y-167445333D01*
X197085983Y-167435400D01*
X197079030Y-167331071D01*
X197049680Y-167285824D01*
X196983629Y-167276000D01*
X196867276Y-167286658D01*
X196775975Y-167335821D01*
X196747333Y-167429743D01*
X196422826Y-167429743D01*
X196416919Y-167315174D01*
X196485444Y-167195040D01*
X196625757Y-167111119D01*
X196735667Y-167087603D01*
X196895808Y-167070759D01*
X197071151Y-167064333D01*
X197382333Y-167064333D01*
X197382333Y-167445333D01*
X197382333Y-167741667D01*
G37*
G36*
X176720985Y-164046198D02*
G01*
X176704482Y-164314337D01*
X176654131Y-164543995D01*
X176568258Y-164719679D01*
X176434772Y-164892936D01*
X176278678Y-165031408D01*
X176122051Y-165111548D01*
X175874649Y-165156450D01*
X175595997Y-165139407D01*
X175344603Y-165047998D01*
X175130978Y-164884631D01*
X175090954Y-164840827D01*
X174972484Y-164666575D01*
X174899362Y-164462884D01*
X174867306Y-164213506D01*
X174868116Y-164160160D01*
X175336114Y-164160160D01*
X175376446Y-164389023D01*
X175461130Y-164564625D01*
X175586806Y-164675675D01*
X175744542Y-164730019D01*
X175907146Y-164720123D01*
X176043302Y-164638016D01*
X176147204Y-164489595D01*
X176213046Y-164280755D01*
X176235022Y-164017393D01*
X176230666Y-163907817D01*
X176185911Y-163673133D01*
X176092093Y-163505544D01*
X175948261Y-163403014D01*
X175804059Y-163366122D01*
X175639264Y-163389135D01*
X175502581Y-163484503D01*
X175402153Y-163645949D01*
X175346123Y-163867197D01*
X175343497Y-163889328D01*
X175336114Y-164160160D01*
X174868116Y-164160160D01*
X174872033Y-163902195D01*
X174910539Y-163617180D01*
X174995804Y-163377197D01*
X175131563Y-163193396D01*
X175322742Y-163056537D01*
X175331707Y-163051913D01*
X175527552Y-162986280D01*
X175759473Y-162957360D01*
X175990903Y-162966851D01*
X176185277Y-163016452D01*
X176221389Y-163033556D01*
X176399462Y-163164240D01*
X176551685Y-163349120D01*
X176656107Y-163562729D01*
X176703560Y-163778739D01*
X176719108Y-164017393D01*
X176720985Y-164046198D01*
G37*
G36*
X192093482Y-167090800D02*
G01*
X192147387Y-167122881D01*
X192167562Y-167201917D01*
X192175955Y-167250727D01*
X192215190Y-167305453D01*
X192308090Y-167318333D01*
X192365404Y-167320846D01*
X192418094Y-167345986D01*
X192421694Y-167413583D01*
X192390950Y-167483786D01*
X192297577Y-167521666D01*
X192245723Y-167531223D01*
X192211068Y-167556974D01*
X192189933Y-167615804D01*
X192176288Y-167724867D01*
X192164102Y-167901318D01*
X192157548Y-167998891D01*
X192142534Y-168147691D01*
X192120286Y-168243884D01*
X192084510Y-168309042D01*
X192028915Y-168364735D01*
X191942690Y-168422492D01*
X191832304Y-168453049D01*
X191670156Y-168461333D01*
X191568967Y-168457410D01*
X191417746Y-168425249D01*
X191342781Y-168361399D01*
X191345545Y-168266745D01*
X191358495Y-168242473D01*
X191412970Y-168215793D01*
X191521464Y-168226138D01*
X191655585Y-168245036D01*
X191751520Y-168232945D01*
X191806251Y-168174517D01*
X191830920Y-168057097D01*
X191836667Y-167868026D01*
X191836667Y-167534424D01*
X191614417Y-167521629D01*
X191552437Y-167517456D01*
X191448110Y-167501802D01*
X191397528Y-167470546D01*
X191378639Y-167413583D01*
X191375897Y-167368034D01*
X191397525Y-167334833D01*
X191465147Y-167321061D01*
X191598077Y-167318333D01*
X191718961Y-167316385D01*
X191796757Y-167303284D01*
X191831235Y-167268599D01*
X191844438Y-167201917D01*
X191859038Y-167133660D01*
X191904408Y-167094206D01*
X192006000Y-167085500D01*
X192093482Y-167090800D01*
G37*
G36*
X182863455Y-162969456D02*
G01*
X183012194Y-162981258D01*
X183107379Y-163004012D01*
X183176239Y-163048068D01*
X183246005Y-163123775D01*
X183363846Y-163264929D01*
X183377506Y-163122048D01*
X183384064Y-163065071D01*
X183406506Y-163005807D01*
X183464129Y-162982942D01*
X183581667Y-162979167D01*
X183772167Y-162979167D01*
X183783482Y-164050321D01*
X183794797Y-165121475D01*
X183571815Y-165108654D01*
X183348833Y-165095833D01*
X183327667Y-164376167D01*
X183326377Y-164333082D01*
X183315640Y-164047243D01*
X183300938Y-163832343D01*
X183278772Y-163676236D01*
X183245641Y-163566777D01*
X183198045Y-163491820D01*
X183132486Y-163439220D01*
X183045462Y-163396831D01*
X182955070Y-163370892D01*
X182796896Y-163370508D01*
X182657221Y-163418804D01*
X182565342Y-163508940D01*
X182553639Y-163560416D01*
X182541488Y-163687209D01*
X182531895Y-163871323D01*
X182525597Y-164097934D01*
X182523333Y-164352217D01*
X182523333Y-165117000D01*
X182290500Y-165117000D01*
X182057667Y-165117000D01*
X182057667Y-164300470D01*
X182057667Y-164292691D01*
X182058305Y-164008847D01*
X182061062Y-163795374D01*
X182067260Y-163638314D01*
X182078223Y-163523710D01*
X182095271Y-163437603D01*
X182119729Y-163366037D01*
X182152917Y-163295053D01*
X182154455Y-163292016D01*
X182263958Y-163128965D01*
X182404092Y-163025414D01*
X182589877Y-162974176D01*
X182836332Y-162968065D01*
X182863455Y-162969456D01*
G37*
G36*
X178568378Y-167711825D02*
G01*
X178580437Y-167906595D01*
X178538986Y-168095874D01*
X178442802Y-168261087D01*
X178290661Y-168383660D01*
X178213212Y-168415689D01*
X178020644Y-168454249D01*
X177814162Y-168456496D01*
X177636589Y-168420048D01*
X177556075Y-168367091D01*
X177528000Y-168267292D01*
X177531640Y-168205699D01*
X177561713Y-168174028D01*
X177644417Y-168190886D01*
X177793482Y-168221497D01*
X177962237Y-168226120D01*
X178102576Y-168199916D01*
X178188493Y-168145076D01*
X178238192Y-168066257D01*
X178245765Y-168008253D01*
X178195890Y-167973920D01*
X178079576Y-167957524D01*
X177887833Y-167953333D01*
X177528000Y-167953333D01*
X177528000Y-167769094D01*
X177528085Y-167757902D01*
X177548775Y-167644300D01*
X177866667Y-167644300D01*
X177867151Y-167664409D01*
X177883362Y-167714965D01*
X177939231Y-167736900D01*
X178057167Y-167741667D01*
X178160400Y-167734224D01*
X178239641Y-167697693D01*
X178240362Y-167629908D01*
X178163000Y-167530000D01*
X178071736Y-167466256D01*
X177969965Y-167458228D01*
X177895530Y-167519920D01*
X177866667Y-167644300D01*
X177548775Y-167644300D01*
X177566591Y-167546483D01*
X177666935Y-167384205D01*
X177817006Y-167279683D01*
X178004694Y-167241531D01*
X178217886Y-167278365D01*
X178223368Y-167280308D01*
X178388621Y-167380107D01*
X178504032Y-167530137D01*
X178539367Y-167629908D01*
X178568378Y-167711825D01*
G37*
G36*
X193600123Y-167857961D02*
G01*
X193673966Y-168060150D01*
X193732726Y-168225080D01*
X193771448Y-168338773D01*
X193785179Y-168387250D01*
X193750251Y-168409323D01*
X193663422Y-168419000D01*
X193585506Y-168408049D01*
X193528130Y-168358137D01*
X193475468Y-168247478D01*
X193408092Y-168075956D01*
X193165722Y-168088728D01*
X193163685Y-168088835D01*
X193026680Y-168098988D01*
X192949231Y-168120069D01*
X192906564Y-168165741D01*
X192873907Y-168249667D01*
X192838592Y-168335325D01*
X192778559Y-168390472D01*
X192669230Y-168410972D01*
X192642828Y-168412707D01*
X192551243Y-168408854D01*
X192514497Y-168389805D01*
X192520530Y-168366866D01*
X192551911Y-168274901D01*
X192605525Y-168127094D01*
X192676211Y-167937583D01*
X192707618Y-167855041D01*
X193022000Y-167855041D01*
X193023254Y-167856811D01*
X193072162Y-167865238D01*
X193170167Y-167868667D01*
X193189324Y-167868519D01*
X193274669Y-167857748D01*
X193308643Y-167818826D01*
X193295070Y-167736243D01*
X193237775Y-167594492D01*
X193163495Y-167426151D01*
X193092748Y-167633784D01*
X193066417Y-167712044D01*
X193034469Y-167810745D01*
X193022000Y-167855041D01*
X192707618Y-167855041D01*
X192758810Y-167720500D01*
X193002626Y-167085500D01*
X193152521Y-167072836D01*
X193302416Y-167060171D01*
X193544387Y-167707836D01*
X193585594Y-167818826D01*
X193600123Y-167857961D01*
G37*
G36*
X187330093Y-167902501D02*
G01*
X187405129Y-168101147D01*
X187464884Y-168260534D01*
X187504384Y-168367384D01*
X187518657Y-168408417D01*
X187518592Y-168408753D01*
X187478976Y-168416001D01*
X187388261Y-168419000D01*
X187387569Y-168419000D01*
X187299570Y-168407548D01*
X187242796Y-168358530D01*
X187191340Y-168249667D01*
X187124824Y-168080333D01*
X186878945Y-168080333D01*
X186633065Y-168080333D01*
X186582332Y-168249667D01*
X186577924Y-168264213D01*
X186538063Y-168365662D01*
X186486268Y-168409530D01*
X186397188Y-168419000D01*
X186393957Y-168418993D01*
X186293937Y-168411736D01*
X186238703Y-168394925D01*
X186238425Y-168356912D01*
X186263784Y-168260388D01*
X186310630Y-168130342D01*
X186337429Y-168062751D01*
X186406198Y-167887268D01*
X186413422Y-167868667D01*
X186719473Y-167868667D01*
X186882344Y-167868667D01*
X187045216Y-167868667D01*
X186978194Y-167659084D01*
X186949895Y-167579635D01*
X186909050Y-167493988D01*
X186880215Y-167468633D01*
X186867289Y-167484173D01*
X186828727Y-167561972D01*
X186784366Y-167678216D01*
X186719473Y-167868667D01*
X186413422Y-167868667D01*
X186486418Y-167680710D01*
X186565726Y-167474840D01*
X186724819Y-167059847D01*
X186872117Y-167072674D01*
X187019414Y-167085500D01*
X187269031Y-167741667D01*
X187317248Y-167868667D01*
X187330093Y-167902501D01*
G37*
G36*
X195509593Y-163434250D02*
G01*
X195520685Y-165032333D01*
X195266176Y-165032333D01*
X195011667Y-165032333D01*
X195011667Y-164329785D01*
X195011571Y-164246639D01*
X195008163Y-163973151D01*
X194996474Y-163767658D01*
X194971912Y-163616935D01*
X194929882Y-163507759D01*
X194865793Y-163426904D01*
X194775050Y-163361146D01*
X194653060Y-163297260D01*
X194615560Y-163279403D01*
X194507220Y-163236866D01*
X194429307Y-163232328D01*
X194348086Y-163261877D01*
X194291147Y-163297695D01*
X194243247Y-163355619D01*
X194209151Y-163443479D01*
X194187059Y-163572196D01*
X194175170Y-163752687D01*
X194171683Y-163995871D01*
X194174797Y-164312667D01*
X194186167Y-165011167D01*
X193917407Y-165023878D01*
X193648647Y-165036590D01*
X193664456Y-164113712D01*
X193665069Y-164078468D01*
X193672476Y-163746377D01*
X193683293Y-163486791D01*
X193700131Y-163288592D01*
X193725600Y-163140662D01*
X193762308Y-163031885D01*
X193812866Y-162951141D01*
X193879884Y-162887314D01*
X193965972Y-162829286D01*
X194119760Y-162767076D01*
X194332176Y-162743461D01*
X194552500Y-162769718D01*
X194752972Y-162842080D01*
X194905833Y-162956784D01*
X194990500Y-163051920D01*
X195011667Y-162444043D01*
X195032833Y-161836167D01*
X195265667Y-161836167D01*
X195498500Y-161836167D01*
X195509593Y-163434250D01*
G37*
G36*
X188568736Y-162481750D02*
G01*
X188555833Y-162682833D01*
X187952583Y-162694579D01*
X187866494Y-162696503D01*
X187662755Y-162703220D01*
X187498641Y-162711729D01*
X187389162Y-162721136D01*
X187349333Y-162730544D01*
X187349665Y-162732582D01*
X187375801Y-162784635D01*
X187435482Y-162885378D01*
X187517106Y-163015132D01*
X187704544Y-163306083D01*
X187920847Y-163642505D01*
X188098058Y-163919795D01*
X188240073Y-164144869D01*
X188350790Y-164324643D01*
X188434106Y-164466033D01*
X188493918Y-164575954D01*
X188534124Y-164661322D01*
X188558622Y-164729052D01*
X188571307Y-164786061D01*
X188576079Y-164839263D01*
X188576833Y-164895575D01*
X188577000Y-165118651D01*
X187656250Y-165107242D01*
X186735500Y-165095833D01*
X186735500Y-164905333D01*
X186735500Y-164714833D01*
X187400223Y-164703185D01*
X188064946Y-164691537D01*
X187789173Y-164258685D01*
X187754097Y-164203688D01*
X187617546Y-163990267D01*
X187457429Y-163740790D01*
X187290880Y-163481929D01*
X187135034Y-163240359D01*
X186995391Y-163021930D01*
X186891691Y-162851975D01*
X186822628Y-162725181D01*
X186781543Y-162627948D01*
X186761776Y-162546679D01*
X186756667Y-162467775D01*
X186756667Y-162280667D01*
X187669153Y-162280666D01*
X188581639Y-162280666D01*
X188568736Y-162481750D01*
G37*
G36*
X179170789Y-162311134D02*
G01*
X179157833Y-162513500D01*
X178872083Y-162526017D01*
X178586333Y-162538535D01*
X178586333Y-163440989D01*
X178585690Y-163659643D01*
X178580034Y-164017502D01*
X178566712Y-164305216D01*
X178543520Y-164532244D01*
X178508252Y-164708043D01*
X178458704Y-164842072D01*
X178392670Y-164943790D01*
X178307945Y-165022652D01*
X178202324Y-165088119D01*
X178145582Y-165114649D01*
X178042232Y-165142694D01*
X177907290Y-165152157D01*
X177714675Y-165146142D01*
X177624023Y-165140638D01*
X177434560Y-165121866D01*
X177312747Y-165091335D01*
X177246206Y-165041616D01*
X177222558Y-164965278D01*
X177229426Y-164854892D01*
X177233192Y-164826982D01*
X177246694Y-164745796D01*
X177272218Y-164701047D01*
X177327769Y-164686203D01*
X177431349Y-164694733D01*
X177600962Y-164720105D01*
X177667510Y-164726681D01*
X177838562Y-164712570D01*
X177979500Y-164658766D01*
X178064708Y-164573374D01*
X178065717Y-164570845D01*
X178074779Y-164503053D01*
X178083036Y-164363413D01*
X178090153Y-164163498D01*
X178095791Y-163914882D01*
X178099614Y-163629136D01*
X178101285Y-163317833D01*
X178103070Y-162132500D01*
X178643407Y-162120634D01*
X179183744Y-162108768D01*
X179170789Y-162311134D01*
G37*
G36*
X179804351Y-167625250D02*
G01*
X179815868Y-168419000D01*
X179666768Y-168419000D01*
X179517667Y-168419000D01*
X179517667Y-168045379D01*
X179517041Y-167927281D01*
X179511228Y-167784464D01*
X179495458Y-167692426D01*
X179465121Y-167629965D01*
X179415610Y-167575881D01*
X179412299Y-167572816D01*
X179318756Y-167511700D01*
X179235693Y-167494920D01*
X179201639Y-167509566D01*
X179177713Y-167548940D01*
X179162354Y-167627843D01*
X179152682Y-167761320D01*
X179145818Y-167964418D01*
X179133802Y-168419000D01*
X178987068Y-168419000D01*
X178840333Y-168419000D01*
X178840333Y-167914072D01*
X178840835Y-167715086D01*
X178844521Y-167564064D01*
X178854652Y-167465591D01*
X178874486Y-167402914D01*
X178907282Y-167359276D01*
X178956300Y-167317926D01*
X179076646Y-167258693D01*
X179253528Y-167244666D01*
X179441361Y-167293992D01*
X179469354Y-167302543D01*
X179498984Y-167285415D01*
X179515742Y-167216194D01*
X179526028Y-167078593D01*
X179527149Y-167057126D01*
X179536703Y-166928119D01*
X179555384Y-166860977D01*
X179594618Y-166835503D01*
X179665833Y-166831500D01*
X179792833Y-166831500D01*
X179804351Y-167625250D01*
G37*
G36*
X180632478Y-167052036D02*
G01*
X180843293Y-167141721D01*
X181005340Y-167291974D01*
X181109358Y-167494666D01*
X181146089Y-167741667D01*
X181144146Y-167802266D01*
X181092348Y-168041158D01*
X180973932Y-168235503D01*
X180794110Y-168375908D01*
X180641073Y-168431320D01*
X180427833Y-168455242D01*
X180419238Y-168455138D01*
X180220650Y-168444486D01*
X180091956Y-168415262D01*
X180019870Y-168362127D01*
X179991105Y-168279742D01*
X179990558Y-168204888D01*
X180022111Y-168171570D01*
X180101515Y-168176113D01*
X180244473Y-168214474D01*
X180272429Y-168222025D01*
X180456859Y-168229355D01*
X180615642Y-168165972D01*
X180736786Y-168043340D01*
X180808298Y-167872918D01*
X180818187Y-167666169D01*
X180802735Y-167575557D01*
X180729429Y-167408196D01*
X180603044Y-167305423D01*
X180421925Y-167266256D01*
X180184417Y-167289711D01*
X180157778Y-167295064D01*
X180068389Y-167306264D01*
X180032349Y-167283882D01*
X180025667Y-167216916D01*
X180025850Y-167201392D01*
X180038522Y-167128830D01*
X180083604Y-167083540D01*
X180178496Y-167055441D01*
X180340601Y-167034450D01*
X180382155Y-167031050D01*
X180632478Y-167052036D01*
G37*
G36*
X190439667Y-167643688D02*
G01*
X190439835Y-167702642D01*
X190444394Y-167868216D01*
X190458382Y-167976800D01*
X190486066Y-168049982D01*
X190531713Y-168109355D01*
X190544862Y-168122788D01*
X190647612Y-168192763D01*
X190737246Y-168199363D01*
X190794971Y-168140371D01*
X190800832Y-168114562D01*
X190811012Y-168010769D01*
X190818043Y-167856539D01*
X190820667Y-167674704D01*
X190820667Y-167276000D01*
X190968833Y-167276000D01*
X191117000Y-167276000D01*
X191117000Y-167764757D01*
X191116775Y-167885248D01*
X191113893Y-168059689D01*
X191105185Y-168176438D01*
X191087550Y-168253183D01*
X191057886Y-168307615D01*
X191013091Y-168357424D01*
X190995431Y-168373802D01*
X190851121Y-168448021D01*
X190686731Y-168456063D01*
X190533753Y-168395433D01*
X190468192Y-168361889D01*
X190439667Y-168374266D01*
X190438384Y-168380144D01*
X190389425Y-168407767D01*
X190291500Y-168419000D01*
X190143333Y-168419000D01*
X190143333Y-167847500D01*
X190143333Y-167276000D01*
X190291500Y-167276000D01*
X190439667Y-167276000D01*
X190439667Y-167643688D01*
G37*
G36*
X181422667Y-163670611D02*
G01*
X181422319Y-163888508D01*
X181420486Y-164207080D01*
X181417259Y-164491789D01*
X181412838Y-164732473D01*
X181407428Y-164918973D01*
X181401229Y-165041128D01*
X181394445Y-165088778D01*
X181374791Y-165097774D01*
X181287897Y-165111567D01*
X181162876Y-165117000D01*
X180959530Y-165117000D01*
X180947682Y-164577250D01*
X180935833Y-164037500D01*
X180396083Y-164025652D01*
X179856333Y-164013804D01*
X179856333Y-163803402D01*
X179856333Y-163593000D01*
X180406667Y-163593000D01*
X180957000Y-163593000D01*
X180957000Y-163148500D01*
X180957000Y-162704000D01*
X180283129Y-162704000D01*
X180143763Y-162703455D01*
X179922919Y-162700228D01*
X179738295Y-162694587D01*
X179606038Y-162687092D01*
X179542296Y-162678304D01*
X179528492Y-162671183D01*
X179487987Y-162603472D01*
X179475333Y-162466637D01*
X179475333Y-162280667D01*
X180449000Y-162280667D01*
X181422667Y-162280667D01*
X181422667Y-163670611D01*
G37*
G36*
X172965993Y-167252161D02*
G01*
X173002898Y-167258506D01*
X173149213Y-167272569D01*
X173305250Y-167276082D01*
X173506333Y-167271727D01*
X173506333Y-167847919D01*
X173506333Y-168424111D01*
X173347583Y-168410972D01*
X173188833Y-168397833D01*
X173176661Y-168006184D01*
X173170666Y-167847311D01*
X173160133Y-167716441D01*
X173141487Y-167635402D01*
X173109907Y-167585101D01*
X173060571Y-167546446D01*
X173008572Y-167515026D01*
X172931844Y-167488778D01*
X172880053Y-167513324D01*
X172848670Y-167597065D01*
X172833162Y-167748399D01*
X172829000Y-167975727D01*
X172829000Y-168424111D01*
X172670250Y-168410972D01*
X172511500Y-168397833D01*
X172498288Y-168016833D01*
X172495373Y-167835739D01*
X172508139Y-167608843D01*
X172544815Y-167447053D01*
X172608324Y-167339714D01*
X172701593Y-167276168D01*
X172811028Y-167248863D01*
X172965993Y-167252161D01*
G37*
G36*
X197977419Y-162374747D02*
G01*
X198148943Y-162380172D01*
X198265263Y-162388943D01*
X198334061Y-162401324D01*
X198363021Y-162417578D01*
X198368537Y-162427111D01*
X198395704Y-162526278D01*
X198396707Y-162645136D01*
X198374333Y-162749530D01*
X198331371Y-162805304D01*
X198291985Y-162812875D01*
X198177432Y-162822226D01*
X198014131Y-162828627D01*
X197823371Y-162831000D01*
X197382333Y-162831000D01*
X197382333Y-163931667D01*
X197382333Y-165032333D01*
X197128333Y-165032333D01*
X196874333Y-165032333D01*
X196874333Y-163933053D01*
X196874333Y-162833773D01*
X196398083Y-162821803D01*
X195921833Y-162809833D01*
X195921833Y-162598167D01*
X195921833Y-162386500D01*
X197125420Y-162375244D01*
X197438032Y-162372887D01*
X197743010Y-162372407D01*
X197977419Y-162374747D01*
G37*
G36*
X176512000Y-167263976D02*
G01*
X176588569Y-167266609D01*
X176778581Y-167271003D01*
X176945917Y-167272423D01*
X177147000Y-167271727D01*
X177147000Y-167845363D01*
X177147000Y-168419000D01*
X176998833Y-168419000D01*
X176850667Y-168419000D01*
X176850667Y-168042690D01*
X176848405Y-167909315D01*
X176830141Y-167722104D01*
X176788446Y-167595899D01*
X176717238Y-167516157D01*
X176610436Y-167468337D01*
X176597233Y-167464758D01*
X176531171Y-167468589D01*
X176504602Y-167538742D01*
X176468151Y-167615916D01*
X176371973Y-167649464D01*
X176314397Y-167654136D01*
X176273098Y-167639097D01*
X176260837Y-167580926D01*
X176266140Y-167458964D01*
X176279167Y-167254833D01*
X176512000Y-167263976D01*
G37*
G36*
X175675917Y-167284871D02*
G01*
X175770001Y-167288544D01*
X175906702Y-167297825D01*
X175983656Y-167313374D01*
X176017574Y-167339830D01*
X176025167Y-167381833D01*
X176025049Y-167388905D01*
X176008123Y-167438922D01*
X175948044Y-167465735D01*
X175824083Y-167479403D01*
X175623000Y-167492305D01*
X175623000Y-167955653D01*
X175623000Y-168419000D01*
X175474833Y-168419000D01*
X175326667Y-168419000D01*
X175326667Y-167845788D01*
X175326667Y-167272576D01*
X175675917Y-167284871D01*
G37*
G36*
X185860919Y-166832044D02*
G01*
X185990569Y-166836833D01*
X186062678Y-166849853D01*
X186093804Y-166874999D01*
X186100500Y-166916167D01*
X186100383Y-166923238D01*
X186083456Y-166973255D01*
X186023377Y-167000069D01*
X185899417Y-167013736D01*
X185698333Y-167026639D01*
X185698333Y-167725375D01*
X185698333Y-168424111D01*
X185539583Y-168410972D01*
X185380833Y-168397833D01*
X185380833Y-167614667D01*
X185380833Y-166831500D01*
X185740667Y-166831500D01*
X185860919Y-166832044D01*
G37*
G36*
X189576459Y-166831811D02*
G01*
X189711107Y-166836062D01*
X189786198Y-166848700D01*
X189818763Y-166873982D01*
X189825833Y-166916167D01*
X189825716Y-166923238D01*
X189808790Y-166973255D01*
X189748711Y-167000069D01*
X189624750Y-167013736D01*
X189423667Y-167026639D01*
X189423667Y-167722819D01*
X189423667Y-168419000D01*
X189274566Y-168419000D01*
X189125465Y-168419000D01*
X189136983Y-167625250D01*
X189148500Y-166831500D01*
X189487167Y-166831500D01*
X189576459Y-166831811D01*
G37*
G36*
X175510808Y-166831708D02*
G01*
X175602150Y-166841557D01*
X175642240Y-166880730D01*
X175657432Y-166969083D01*
X175662274Y-167034311D01*
X175649157Y-167085149D01*
X175593737Y-167103947D01*
X175474833Y-167106667D01*
X175382073Y-167105649D01*
X175310921Y-167092993D01*
X175288035Y-167052790D01*
X175292235Y-166969083D01*
X175295307Y-166939870D01*
X175314511Y-166866427D01*
X175365569Y-166836922D01*
X175474833Y-166831500D01*
X175510808Y-166831708D01*
G37*
%TO.C,S1*%
X161000000Y-145500000D02*
X162000000Y-145500000D01*
X148000000Y-145500000D02*
X148000000Y-146500000D01*
X162000000Y-146500000D02*
X162000000Y-145500000D01*
X148000000Y-145500000D02*
X149000000Y-145500000D01*
X149000000Y-159500000D02*
X148000000Y-159500000D01*
X162000000Y-159500000D02*
X162000000Y-158500000D01*
X148000000Y-158500000D02*
X148000000Y-159500000D01*
X162000000Y-159500000D02*
X161000000Y-159500000D01*
X162000000Y-159500000D02*
X161000000Y-159500000D01*
X163200000Y-154000000D02*
X162700000Y-154500000D01*
X156500000Y-159500000D02*
X157000000Y-159500000D01*
X163200000Y-151000000D02*
X163200000Y-154000000D01*
X162000000Y-159500000D02*
X162000000Y-158500000D01*
X161200000Y-159500000D02*
X161200000Y-155000000D01*
X157200000Y-155000000D02*
X156500000Y-155000000D01*
X162700000Y-150500000D02*
X163200000Y-151000000D01*
X158700000Y-151000000D02*
X158700000Y-153500000D01*
X160600000Y-159500000D02*
X161200000Y-159500000D01*
X161700000Y-154500000D02*
X162700000Y-154500000D01*
X156500000Y-155000000D02*
X156500000Y-159500000D01*
X159200000Y-150500000D02*
X158700000Y-151000000D01*
X161690001Y-154500000D02*
G75*
G03*
X161199901Y-155000397I9999J-499999D01*
G01*
X157170000Y-155000000D02*
G75*
G03*
X158700000Y-153470000I0J1530000D01*
G01*
%TO.C,S2*%
X165500000Y-141060000D02*
X165500000Y-140060000D01*
X165500000Y-154060000D02*
X166500000Y-154060000D01*
X166500000Y-140060000D02*
X165500000Y-140060000D01*
X165500000Y-154060000D02*
X165500000Y-153060000D01*
X179500000Y-153060000D02*
X179500000Y-154060000D01*
X179500000Y-140060000D02*
X178500000Y-140060000D01*
X178500000Y-154060000D02*
X179500000Y-154060000D01*
X179500000Y-140060000D02*
X179500000Y-141060000D01*
X179500000Y-140060000D02*
X179500000Y-141060000D01*
X174000000Y-138860000D02*
X174500000Y-139360000D01*
X179500000Y-145560000D02*
X179500000Y-145060000D01*
X171000000Y-138860000D02*
X174000000Y-138860000D01*
X179500000Y-140060000D02*
X178500000Y-140060000D01*
X179500000Y-140860000D02*
X175000000Y-140860000D01*
X175000000Y-144860000D02*
X175000000Y-145560000D01*
X170500000Y-139360000D02*
X171000000Y-138860000D01*
X171000000Y-143360000D02*
X173500000Y-143360000D01*
X179500000Y-141460000D02*
X179500000Y-140860000D01*
X174500000Y-140360000D02*
X174500000Y-139360000D01*
X175000000Y-145560000D02*
X179500000Y-145560000D01*
X170500000Y-142860000D02*
X171000000Y-143360000D01*
X174500000Y-140369999D02*
G75*
G03*
X175000397Y-140860099I499999J9999D01*
G01*
X175000000Y-144890000D02*
G75*
G03*
X173470000Y-143360000I-1530000J0D01*
G01*
%TO.C,S3*%
X165500000Y-124060000D02*
X165500000Y-123060000D01*
X165500000Y-137060000D02*
X166500000Y-137060000D01*
X166500000Y-123060000D02*
X165500000Y-123060000D01*
X165500000Y-137060000D02*
X165500000Y-136060000D01*
X179500000Y-136060000D02*
X179500000Y-137060000D01*
X179500000Y-123060000D02*
X178500000Y-123060000D01*
X178500000Y-137060000D02*
X179500000Y-137060000D01*
X179500000Y-123060000D02*
X179500000Y-124060000D01*
X179500000Y-123060000D02*
X179500000Y-124060000D01*
X174000000Y-121860000D02*
X174500000Y-122360000D01*
X179500000Y-128560000D02*
X179500000Y-128060000D01*
X171000000Y-121860000D02*
X174000000Y-121860000D01*
X179500000Y-123060000D02*
X178500000Y-123060000D01*
X179500000Y-123860000D02*
X175000000Y-123860000D01*
X175000000Y-127860000D02*
X175000000Y-128560000D01*
X170500000Y-122360000D02*
X171000000Y-121860000D01*
X171000000Y-126360000D02*
X173500000Y-126360000D01*
X179500000Y-124460000D02*
X179500000Y-123860000D01*
X174500000Y-123360000D02*
X174500000Y-122360000D01*
X175000000Y-128560000D02*
X179500000Y-128560000D01*
X170500000Y-125860000D02*
X171000000Y-126360000D01*
X174500000Y-123369999D02*
G75*
G03*
X175000397Y-123860099I499999J9999D01*
G01*
X175000000Y-127890000D02*
G75*
G03*
X173470000Y-126360000I-1530000J0D01*
G01*
%TO.C,S4*%
X183500000Y-141060000D02*
X183500000Y-140060000D01*
X183500000Y-154060000D02*
X184500000Y-154060000D01*
X184500000Y-140060000D02*
X183500000Y-140060000D01*
X183500000Y-154060000D02*
X183500000Y-153060000D01*
X197500000Y-153060000D02*
X197500000Y-154060000D01*
X197500000Y-140060000D02*
X196500000Y-140060000D01*
X196500000Y-154060000D02*
X197500000Y-154060000D01*
X197500000Y-140060000D02*
X197500000Y-141060000D01*
X197500000Y-140060000D02*
X197500000Y-141060000D01*
X192000000Y-138860000D02*
X192500000Y-139360000D01*
X197500000Y-145560000D02*
X197500000Y-145060000D01*
X189000000Y-138860000D02*
X192000000Y-138860000D01*
X197500000Y-140060000D02*
X196500000Y-140060000D01*
X197500000Y-140860000D02*
X193000000Y-140860000D01*
X193000000Y-144860000D02*
X193000000Y-145560000D01*
X188500000Y-139360000D02*
X189000000Y-138860000D01*
X189000000Y-143360000D02*
X191500000Y-143360000D01*
X197500000Y-141460000D02*
X197500000Y-140860000D01*
X192500000Y-140360000D02*
X192500000Y-139360000D01*
X193000000Y-145560000D02*
X197500000Y-145560000D01*
X188500000Y-142860000D02*
X189000000Y-143360000D01*
X192500000Y-140369999D02*
G75*
G03*
X193000397Y-140860099I499999J9999D01*
G01*
X193000000Y-144890000D02*
G75*
G03*
X191470000Y-143360000I-1530000J0D01*
G01*
%TO.C,S5*%
X183500000Y-124060000D02*
X183500000Y-123060000D01*
X183500000Y-137060000D02*
X184500000Y-137060000D01*
X184500000Y-123060000D02*
X183500000Y-123060000D01*
X183500000Y-137060000D02*
X183500000Y-136060000D01*
X197500000Y-136060000D02*
X197500000Y-137060000D01*
X197500000Y-123060000D02*
X196500000Y-123060000D01*
X196500000Y-137060000D02*
X197500000Y-137060000D01*
X197500000Y-123060000D02*
X197500000Y-124060000D01*
X197500000Y-123060000D02*
X197500000Y-124060000D01*
X192000000Y-121860000D02*
X192500000Y-122360000D01*
X197500000Y-128560000D02*
X197500000Y-128060000D01*
X189000000Y-121860000D02*
X192000000Y-121860000D01*
X197500000Y-123060000D02*
X196500000Y-123060000D01*
X197500000Y-123860000D02*
X193000000Y-123860000D01*
X193000000Y-127860000D02*
X193000000Y-128560000D01*
X188500000Y-122360000D02*
X189000000Y-121860000D01*
X189000000Y-126360000D02*
X191500000Y-126360000D01*
X197500000Y-124460000D02*
X197500000Y-123860000D01*
X192500000Y-123360000D02*
X192500000Y-122360000D01*
X193000000Y-128560000D02*
X197500000Y-128560000D01*
X188500000Y-125860000D02*
X189000000Y-126360000D01*
X192500000Y-123369999D02*
G75*
G03*
X193000397Y-123860099I499999J9999D01*
G01*
X193000000Y-127890000D02*
G75*
G03*
X191470000Y-126360000I-1530000J0D01*
G01*
%TO.C,S6*%
X201500000Y-141060000D02*
X201500000Y-140060000D01*
X201500000Y-154060000D02*
X202500000Y-154060000D01*
X202500000Y-140060000D02*
X201500000Y-140060000D01*
X201500000Y-154060000D02*
X201500000Y-153060000D01*
X215500000Y-153060000D02*
X215500000Y-154060000D01*
X215500000Y-140060000D02*
X214500000Y-140060000D01*
X214500000Y-154060000D02*
X215500000Y-154060000D01*
X215500000Y-140060000D02*
X215500000Y-141060000D01*
X215500000Y-140060000D02*
X215500000Y-141060000D01*
X210000000Y-138860000D02*
X210500000Y-139360000D01*
X215500000Y-145560000D02*
X215500000Y-145060000D01*
X207000000Y-138860000D02*
X210000000Y-138860000D01*
X215500000Y-140060000D02*
X214500000Y-140060000D01*
X215500000Y-140860000D02*
X211000000Y-140860000D01*
X211000000Y-144860000D02*
X211000000Y-145560000D01*
X206500000Y-139360000D02*
X207000000Y-138860000D01*
X207000000Y-143360000D02*
X209500000Y-143360000D01*
X215500000Y-141460000D02*
X215500000Y-140860000D01*
X210500000Y-140360000D02*
X210500000Y-139360000D01*
X211000000Y-145560000D02*
X215500000Y-145560000D01*
X206500000Y-142860000D02*
X207000000Y-143360000D01*
X210500000Y-140369999D02*
G75*
G03*
X211000397Y-140860099I499999J9999D01*
G01*
X211000000Y-144890000D02*
G75*
G03*
X209470000Y-143360000I-1530000J0D01*
G01*
%TO.C,S7*%
X201500000Y-124060000D02*
X201500000Y-123060000D01*
X201500000Y-137060000D02*
X202500000Y-137060000D01*
X202500000Y-123060000D02*
X201500000Y-123060000D01*
X201500000Y-137060000D02*
X201500000Y-136060000D01*
X215500000Y-136060000D02*
X215500000Y-137060000D01*
X215500000Y-123060000D02*
X214500000Y-123060000D01*
X214500000Y-137060000D02*
X215500000Y-137060000D01*
X215500000Y-123060000D02*
X215500000Y-124060000D01*
X215500000Y-123060000D02*
X215500000Y-124060000D01*
X210000000Y-121860000D02*
X210500000Y-122360000D01*
X215500000Y-128560000D02*
X215500000Y-128060000D01*
X207000000Y-121860000D02*
X210000000Y-121860000D01*
X215500000Y-123060000D02*
X214500000Y-123060000D01*
X215500000Y-123860000D02*
X211000000Y-123860000D01*
X211000000Y-127860000D02*
X211000000Y-128560000D01*
X206500000Y-122360000D02*
X207000000Y-121860000D01*
X207000000Y-126360000D02*
X209500000Y-126360000D01*
X215500000Y-124460000D02*
X215500000Y-123860000D01*
X210500000Y-123360000D02*
X210500000Y-122360000D01*
X211000000Y-128560000D02*
X215500000Y-128560000D01*
X206500000Y-125860000D02*
X207000000Y-126360000D01*
X210500000Y-123369999D02*
G75*
G03*
X211000397Y-123860099I499999J9999D01*
G01*
X211000000Y-127890000D02*
G75*
G03*
X209470000Y-126360000I-1530000J0D01*
G01*
%TO.C,S8*%
X220000000Y-163500000D02*
X220000000Y-162500000D01*
X220000000Y-176500000D02*
X221000000Y-176500000D01*
X221000000Y-162500000D02*
X220000000Y-162500000D01*
X220000000Y-176500000D02*
X220000000Y-175500000D01*
X234000000Y-175500000D02*
X234000000Y-176500000D01*
X234000000Y-162500000D02*
X233000000Y-162500000D01*
X233000000Y-176500000D02*
X234000000Y-176500000D01*
X234000000Y-162500000D02*
X234000000Y-163500000D01*
X234000000Y-162500000D02*
X234000000Y-163500000D01*
X228500000Y-161300000D02*
X229000000Y-161800000D01*
X234000000Y-168000000D02*
X234000000Y-167500000D01*
X225500000Y-161300000D02*
X228500000Y-161300000D01*
X234000000Y-162500000D02*
X233000000Y-162500000D01*
X234000000Y-163300000D02*
X229500000Y-163300000D01*
X229500000Y-167300000D02*
X229500000Y-168000000D01*
X225000000Y-161800000D02*
X225500000Y-161300000D01*
X225500000Y-165800000D02*
X228000000Y-165800000D01*
X234000000Y-163900000D02*
X234000000Y-163300000D01*
X229000000Y-162800000D02*
X229000000Y-161800000D01*
X229500000Y-168000000D02*
X234000000Y-168000000D01*
X225000000Y-165300000D02*
X225500000Y-165800000D01*
X229000000Y-162809999D02*
G75*
G03*
X229500397Y-163300099I499999J9999D01*
G01*
X229500000Y-167330000D02*
G75*
G03*
X227970000Y-165800000I-1530000J0D01*
G01*
%TO.C,S9*%
X238000000Y-163500000D02*
X238000000Y-162500000D01*
X238000000Y-176500000D02*
X239000000Y-176500000D01*
X239000000Y-162500000D02*
X238000000Y-162500000D01*
X238000000Y-176500000D02*
X238000000Y-175500000D01*
X252000000Y-175500000D02*
X252000000Y-176500000D01*
X252000000Y-162500000D02*
X251000000Y-162500000D01*
X251000000Y-176500000D02*
X252000000Y-176500000D01*
X252000000Y-162500000D02*
X252000000Y-163500000D01*
X252000000Y-162500000D02*
X252000000Y-163500000D01*
X246500000Y-161300000D02*
X247000000Y-161800000D01*
X252000000Y-168000000D02*
X252000000Y-167500000D01*
X243500000Y-161300000D02*
X246500000Y-161300000D01*
X252000000Y-162500000D02*
X251000000Y-162500000D01*
X252000000Y-163300000D02*
X247500000Y-163300000D01*
X247500000Y-167300000D02*
X247500000Y-168000000D01*
X243000000Y-161800000D02*
X243500000Y-161300000D01*
X243500000Y-165800000D02*
X246000000Y-165800000D01*
X252000000Y-163900000D02*
X252000000Y-163300000D01*
X247000000Y-162800000D02*
X247000000Y-161800000D01*
X247500000Y-168000000D02*
X252000000Y-168000000D01*
X243000000Y-165300000D02*
X243500000Y-165800000D01*
X247000000Y-162809999D02*
G75*
G03*
X247500397Y-163300099I499999J9999D01*
G01*
X247500000Y-167330000D02*
G75*
G03*
X245970000Y-165800000I-1530000J0D01*
G01*
D11*
%TO.C,MCU1*%
X226550000Y-126130000D02*
X229210000Y-126130000D01*
X229210000Y-123530000D02*
X226550000Y-123530000D01*
X229210000Y-123530000D02*
X229210000Y-154130000D01*
X229210000Y-154130000D02*
X226550000Y-154130000D01*
X226550000Y-123530000D02*
X226550000Y-154130000D01*
X244450000Y-123530000D02*
X241790000Y-123530000D01*
X244450000Y-123530000D02*
X244450000Y-154130000D01*
X244450000Y-154130000D02*
X241790000Y-154130000D01*
X241790000Y-123530000D02*
X241790000Y-154130000D01*
%TO.C,SW1*%
X250075000Y-129460000D02*
X250075000Y-129660000D01*
X251915000Y-131510000D02*
X251125000Y-131510000D01*
X251125000Y-124610000D02*
X251915000Y-124610000D01*
X250075000Y-126460000D02*
X250075000Y-128160000D01*
X252925000Y-125210000D02*
X252925000Y-130910000D01*
%TO.C,DISP1*%
X241910000Y-156430000D02*
X241910000Y-159090000D01*
X241910000Y-156430000D02*
X229090000Y-156430000D01*
X241910000Y-159090000D02*
X229090000Y-159090000D01*
X229090000Y-156430000D02*
X229090000Y-159090000D01*
%TD*%
D12*
%TO.C,BAT*%
X225000000Y-157060000D03*
X225000000Y-155060000D03*
%TD*%
M02*
