%TF.GenerationSoftware,KiCad,Pcbnew,7.0.9*%
%TF.CreationDate,2024-03-07T17:23:47+01:00*%
%TF.ProjectId,zenFlow,7a656e46-6c6f-4772-9e6b-696361645f70,1*%
%TF.SameCoordinates,Original*%
%TF.FileFunction,Copper,L2,Bot*%
%TF.FilePolarity,Positive*%
%FSLAX46Y46*%
G04 Gerber Fmt 4.6, Leading zero omitted, Abs format (unit mm)*
G04 Created by KiCad (PCBNEW 7.0.9) date 2024-03-07 17:23:47*
%MOMM*%
%LPD*%
G01*
G04 APERTURE LIST*
G04 Aperture macros list*
%AMFreePoly0*
4,1,6,1.300000,-1.300000,-0.050000,-1.300000,-1.300000,-0.250000,-1.300000,1.300000,1.300000,1.300000,1.300000,-1.300000,1.300000,-1.300000,$1*%
%AMFreePoly1*
4,1,6,0.250000,0.000000,-0.250000,-0.625000,-0.500000,-0.625000,-0.500000,0.625000,-0.250000,0.625000,0.250000,0.000000,0.250000,0.000000,$1*%
%AMFreePoly2*
4,1,6,0.500000,-0.625000,-0.650000,-0.625000,-0.150000,0.000000,-0.650000,0.625000,0.500000,0.625000,0.500000,-0.625000,0.500000,-0.625000,$1*%
G04 Aperture macros list end*
%TA.AperFunction,SMDPad,CuDef*%
%ADD10FreePoly0,270.000000*%
%TD*%
%TA.AperFunction,SMDPad,CuDef*%
%ADD11R,2.600000X2.600000*%
%TD*%
%TA.AperFunction,ComponentPad*%
%ADD12C,2.032000*%
%TD*%
%TA.AperFunction,SMDPad,CuDef*%
%ADD13FreePoly0,0.000000*%
%TD*%
%TA.AperFunction,ComponentPad*%
%ADD14C,1.700000*%
%TD*%
%TA.AperFunction,ComponentPad*%
%ADD15C,0.800000*%
%TD*%
%TA.AperFunction,SMDPad,CuDef*%
%ADD16FreePoly1,0.000000*%
%TD*%
%TA.AperFunction,SMDPad,CuDef*%
%ADD17FreePoly2,0.000000*%
%TD*%
%TA.AperFunction,SMDPad,CuDef*%
%ADD18FreePoly2,180.000000*%
%TD*%
%TA.AperFunction,SMDPad,CuDef*%
%ADD19FreePoly1,180.000000*%
%TD*%
%TA.AperFunction,SMDPad,CuDef*%
%ADD20R,0.800000X1.000000*%
%TD*%
%TA.AperFunction,SMDPad,CuDef*%
%ADD21R,1.500000X0.700000*%
%TD*%
%TA.AperFunction,SMDPad,CuDef*%
%ADD22R,1.700000X0.900000*%
%TD*%
%TA.AperFunction,ComponentPad*%
%ADD23C,1.000000*%
%TD*%
%TA.AperFunction,ComponentPad*%
%ADD24C,0.600000*%
%TD*%
%TA.AperFunction,ComponentPad*%
%ADD25C,2.400000*%
%TD*%
%TA.AperFunction,SMDPad,CuDef*%
%ADD26R,1.200000X0.600000*%
%TD*%
%TA.AperFunction,ComponentPad*%
%ADD27O,1.700000X1.700000*%
%TD*%
%TA.AperFunction,ViaPad*%
%ADD28C,0.800000*%
%TD*%
%TA.AperFunction,Conductor*%
%ADD29C,0.250000*%
%TD*%
G04 APERTURE END LIST*
%TA.AperFunction,EtchedComponent*%
%TO.C,G\u002A\u002A\u002A*%
G36*
X207710300Y-162880686D02*
G01*
X207711516Y-163235098D01*
X207711655Y-163631693D01*
X207711667Y-163665737D01*
X207711667Y-164651957D01*
X207711667Y-165266679D01*
X207604619Y-165424213D01*
X207565138Y-165476866D01*
X207375242Y-165641177D01*
X207119274Y-165754779D01*
X207118723Y-165754936D01*
X207057680Y-165760182D01*
X206919007Y-165765256D01*
X206709542Y-165770084D01*
X206436118Y-165774591D01*
X206105573Y-165778701D01*
X205724741Y-165782340D01*
X205300459Y-165785434D01*
X204839562Y-165787908D01*
X204348886Y-165789686D01*
X203835267Y-165790695D01*
X203281340Y-165791310D01*
X202728327Y-165791634D01*
X202249100Y-165791176D01*
X201837878Y-165789533D01*
X201488882Y-165786303D01*
X201196331Y-165781082D01*
X200954445Y-165773470D01*
X200757445Y-165763063D01*
X200599549Y-165749458D01*
X200474979Y-165732255D01*
X200377953Y-165711049D01*
X200302692Y-165685439D01*
X200243415Y-165655023D01*
X200194343Y-165619397D01*
X200149695Y-165578161D01*
X200103692Y-165530910D01*
X200073941Y-165498374D01*
X199983321Y-165379258D01*
X199924930Y-165272994D01*
X199913248Y-165203241D01*
X199902805Y-165058761D01*
X199894255Y-164853313D01*
X199889010Y-164653005D01*
X201404000Y-164653005D01*
X201424061Y-164741223D01*
X201511825Y-164813871D01*
X201520538Y-164817325D01*
X201624247Y-164836819D01*
X201805842Y-164851147D01*
X202059564Y-164859982D01*
X202379659Y-164863000D01*
X202588886Y-164862686D01*
X202807598Y-164860613D01*
X202964029Y-164855465D01*
X203071048Y-164845953D01*
X203141526Y-164830787D01*
X203188331Y-164808677D01*
X203224333Y-164778333D01*
X203287969Y-164697299D01*
X203299879Y-164603290D01*
X203289541Y-164589128D01*
X204328464Y-164589128D01*
X204330421Y-164603290D01*
X204344240Y-164703297D01*
X204419086Y-164797099D01*
X204453672Y-164815881D01*
X204522077Y-164835331D01*
X204626510Y-164848836D01*
X204779123Y-164857327D01*
X204992069Y-164861737D01*
X205277500Y-164863000D01*
X205563836Y-164861130D01*
X205807782Y-164853425D01*
X205985633Y-164837722D01*
X206107086Y-164811871D01*
X206181835Y-164773726D01*
X206219575Y-164721137D01*
X206230000Y-164651957D01*
X206228353Y-164611268D01*
X206213243Y-164552488D01*
X206173932Y-164508811D01*
X206100347Y-164478028D01*
X205982414Y-164457932D01*
X205810057Y-164446312D01*
X205573203Y-164440960D01*
X205261776Y-164439667D01*
X204971906Y-164441155D01*
X204718795Y-164446623D01*
X204539043Y-164456436D01*
X204426697Y-164470937D01*
X204375800Y-164490466D01*
X204328464Y-164589128D01*
X203289541Y-164589128D01*
X203231583Y-164509728D01*
X203217900Y-164498762D01*
X203173268Y-164476881D01*
X203103034Y-164461037D01*
X202995390Y-164450311D01*
X202838524Y-164443785D01*
X202620626Y-164440543D01*
X202329883Y-164439667D01*
X202104133Y-164440071D01*
X201855909Y-164443158D01*
X201674440Y-164451357D01*
X201549315Y-164467067D01*
X201470121Y-164492688D01*
X201426446Y-164530618D01*
X201407876Y-164583258D01*
X201404000Y-164653005D01*
X199889010Y-164653005D01*
X199887597Y-164599033D01*
X199882831Y-164308055D01*
X199879957Y-163992513D01*
X199878975Y-163664542D01*
X199879088Y-163623567D01*
X201287646Y-163623567D01*
X201297467Y-163720537D01*
X201380909Y-163827757D01*
X201478524Y-163893506D01*
X201621865Y-163927199D01*
X201771494Y-163915217D01*
X201905501Y-163863119D01*
X202001973Y-163776462D01*
X202031912Y-163682948D01*
X202468369Y-163682948D01*
X202508882Y-163797710D01*
X202611477Y-163882076D01*
X202648652Y-163897448D01*
X202827420Y-163931597D01*
X202992234Y-163904868D01*
X203123211Y-163823604D01*
X203200468Y-163694150D01*
X203202413Y-163686865D01*
X203196605Y-163622180D01*
X204415967Y-163622180D01*
X204425603Y-163686865D01*
X204432930Y-163736049D01*
X204521209Y-163843927D01*
X204596019Y-163890184D01*
X204762051Y-163932395D01*
X204929165Y-163911294D01*
X205067758Y-163827757D01*
X205075527Y-163819819D01*
X205143681Y-163732458D01*
X205171667Y-163663114D01*
X205170053Y-163643968D01*
X205166841Y-163637377D01*
X205591511Y-163637377D01*
X205595374Y-163663114D01*
X205610732Y-163765434D01*
X205689086Y-163865766D01*
X205716062Y-163881884D01*
X205858653Y-163921860D01*
X206026070Y-163921474D01*
X206178004Y-163879588D01*
X206214525Y-163857278D01*
X206289124Y-163757303D01*
X206308252Y-163631693D01*
X206271803Y-163509403D01*
X206179673Y-163419388D01*
X206172442Y-163415660D01*
X206019388Y-163376881D01*
X205846620Y-163386225D01*
X205699864Y-163441576D01*
X205630609Y-163513658D01*
X205591511Y-163637377D01*
X205166841Y-163637377D01*
X205120432Y-163542151D01*
X205020595Y-163448213D01*
X204896500Y-163388099D01*
X204839562Y-163376093D01*
X204682117Y-163379278D01*
X204551646Y-163430330D01*
X204459234Y-163515786D01*
X204415967Y-163622180D01*
X203196605Y-163622180D01*
X203192323Y-163574483D01*
X203117073Y-163477865D01*
X202994920Y-163407745D01*
X202844120Y-163374852D01*
X202682929Y-163389920D01*
X202560064Y-163455420D01*
X202486557Y-163561086D01*
X202471674Y-163660807D01*
X202468369Y-163682948D01*
X202031912Y-163682948D01*
X202039000Y-163660807D01*
X202007525Y-163544267D01*
X201915563Y-163447513D01*
X201784599Y-163387289D01*
X201636366Y-163369391D01*
X201492599Y-163399614D01*
X201375030Y-163483754D01*
X201351035Y-163512712D01*
X201287646Y-163623567D01*
X199879088Y-163623567D01*
X199879884Y-163336275D01*
X199882683Y-163019848D01*
X199887372Y-162727395D01*
X199887825Y-162709738D01*
X201107589Y-162709738D01*
X201112348Y-162822884D01*
X201187083Y-162932082D01*
X201222243Y-162957448D01*
X201350036Y-163007685D01*
X201496118Y-163029603D01*
X201615667Y-163014575D01*
X201682257Y-162980666D01*
X201788047Y-162877092D01*
X201826685Y-162750355D01*
X201826075Y-162741271D01*
X202275563Y-162741271D01*
X202278699Y-162750355D01*
X202317825Y-162863690D01*
X202382406Y-162934729D01*
X202488470Y-163002223D01*
X202501040Y-163006944D01*
X202607379Y-163036357D01*
X202701545Y-163028961D01*
X202826415Y-162982217D01*
X202953280Y-162893666D01*
X203011081Y-162777688D01*
X203004020Y-162723985D01*
X204588636Y-162723985D01*
X204598344Y-162777688D01*
X204601989Y-162797855D01*
X204674250Y-162893568D01*
X204786572Y-162981837D01*
X204931932Y-163026285D01*
X205080392Y-163020012D01*
X205211616Y-162967616D01*
X205305264Y-162873694D01*
X205326069Y-162797516D01*
X205772369Y-162797516D01*
X205828786Y-162899388D01*
X205954981Y-162981956D01*
X206003057Y-163001460D01*
X206118092Y-163034908D01*
X206217286Y-163027879D01*
X206344942Y-162980173D01*
X206369312Y-162968442D01*
X206473497Y-162875746D01*
X206513016Y-162758125D01*
X206490888Y-162637155D01*
X206410133Y-162534414D01*
X206273768Y-162471482D01*
X206245112Y-162465922D01*
X206077714Y-162464032D01*
X205938402Y-162509599D01*
X205835515Y-162589269D01*
X205777391Y-162689692D01*
X205774915Y-162742845D01*
X205772369Y-162797516D01*
X205326069Y-162797516D01*
X205341000Y-162742845D01*
X205325559Y-162653391D01*
X205249975Y-162544750D01*
X205129546Y-162477072D01*
X204984628Y-162455750D01*
X204835575Y-162486176D01*
X204702744Y-162573743D01*
X204636718Y-162643582D01*
X204588636Y-162723985D01*
X203004020Y-162723985D01*
X202994698Y-162653083D01*
X202901124Y-162537739D01*
X202781709Y-162473164D01*
X202637395Y-162451541D01*
X202498850Y-162476354D01*
X202381848Y-162538789D01*
X202302161Y-162630033D01*
X202275563Y-162741271D01*
X201826075Y-162741271D01*
X201821936Y-162679671D01*
X201778226Y-162576514D01*
X201671367Y-162498671D01*
X201671111Y-162498536D01*
X201524128Y-162454101D01*
X201381075Y-162464825D01*
X201255162Y-162518887D01*
X201159596Y-162604465D01*
X201107589Y-162709738D01*
X199887825Y-162709738D01*
X199893952Y-162471049D01*
X199902421Y-162262946D01*
X199912779Y-162115220D01*
X199925027Y-162040006D01*
X200013705Y-161884246D01*
X200171778Y-161721933D01*
X200366833Y-161598925D01*
X200376518Y-161594549D01*
X200412797Y-161580550D01*
X200457391Y-161568426D01*
X200516173Y-161558042D01*
X200595016Y-161549262D01*
X200699795Y-161541948D01*
X200836380Y-161535965D01*
X201010647Y-161531175D01*
X201228468Y-161527442D01*
X201495717Y-161524629D01*
X201818266Y-161522601D01*
X202201989Y-161521220D01*
X202652759Y-161520350D01*
X203176449Y-161519854D01*
X203778933Y-161519596D01*
X204294714Y-161519702D01*
X204901997Y-161520660D01*
X205430029Y-161522588D01*
X205881886Y-161525529D01*
X206260644Y-161529525D01*
X206569378Y-161534621D01*
X206811165Y-161540857D01*
X206989080Y-161548279D01*
X207106200Y-161556927D01*
X207165600Y-161566846D01*
X207178467Y-161571361D01*
X207315703Y-161635217D01*
X207447128Y-161717201D01*
X207462332Y-161728489D01*
X207524703Y-161776683D01*
X207575696Y-161825140D01*
X207616456Y-161882299D01*
X207648129Y-161956603D01*
X207671861Y-162056490D01*
X207688799Y-162190401D01*
X207700087Y-162366778D01*
X207706872Y-162594059D01*
X207708834Y-162758125D01*
X207710300Y-162880686D01*
G37*
%TD.AperFunction*%
%TD*%
D10*
%TO.P,S1,1*%
%TO.N,P8*%
X160950000Y-149225000D03*
D11*
%TO.P,S1,2*%
%TO.N,GND*%
X158750000Y-160775000D03*
D12*
X149100000Y-152500000D03*
%TO.P,S1,1*%
%TO.N,P8*%
X151200000Y-147500000D03*
X151200000Y-157500000D03*
%TD*%
D13*
%TO.P,S2,1*%
%TO.N,P7*%
X169225000Y-141110000D03*
D11*
%TO.P,S2,2*%
%TO.N,GND*%
X180775000Y-143310000D03*
D12*
X172500000Y-152960000D03*
%TO.P,S2,1*%
%TO.N,P7*%
X167500000Y-150860000D03*
X177500000Y-150860000D03*
%TD*%
D13*
%TO.P,S3,1*%
%TO.N,P19*%
X169225000Y-124110000D03*
D11*
%TO.P,S3,2*%
%TO.N,GND*%
X180775000Y-126310000D03*
D12*
X172500000Y-135960000D03*
%TO.P,S3,1*%
%TO.N,P19*%
X167500000Y-133860000D03*
X177500000Y-133860000D03*
%TD*%
D13*
%TO.P,S4,1*%
%TO.N,P6*%
X187225000Y-141110000D03*
D11*
%TO.P,S4,2*%
%TO.N,GND*%
X198775000Y-143310000D03*
D12*
X190500000Y-152960000D03*
%TO.P,S4,1*%
%TO.N,P6*%
X185500000Y-150860000D03*
X195500000Y-150860000D03*
%TD*%
D13*
%TO.P,S5,1*%
%TO.N,P20*%
X187225000Y-124110000D03*
D11*
%TO.P,S5,2*%
%TO.N,GND*%
X198775000Y-126310000D03*
D12*
X190500000Y-135960000D03*
%TO.P,S5,1*%
%TO.N,P20*%
X185500000Y-133860000D03*
X195500000Y-133860000D03*
%TD*%
D13*
%TO.P,S6,1*%
%TO.N,P5*%
X205225000Y-141110000D03*
D11*
%TO.P,S6,2*%
%TO.N,GND*%
X216775000Y-143310000D03*
D12*
X208500000Y-152960000D03*
%TO.P,S6,1*%
%TO.N,P5*%
X203500000Y-150860000D03*
X213500000Y-150860000D03*
%TD*%
D13*
%TO.P,S7,1*%
%TO.N,P21*%
X205225000Y-124110000D03*
D11*
%TO.P,S7,2*%
%TO.N,GND*%
X216775000Y-126310000D03*
D12*
X208500000Y-135960000D03*
%TO.P,S7,1*%
%TO.N,P21*%
X203500000Y-133860000D03*
X213500000Y-133860000D03*
%TD*%
D13*
%TO.P,S8,1*%
%TO.N,P15*%
X223725000Y-163550000D03*
D11*
%TO.P,S8,2*%
%TO.N,GND*%
X235275000Y-165750000D03*
D12*
X227000000Y-175400000D03*
%TO.P,S8,1*%
%TO.N,P15*%
X222000000Y-173300000D03*
X232000000Y-173300000D03*
%TD*%
D13*
%TO.P,S9,1*%
%TO.N,P14*%
X241725000Y-163550000D03*
D11*
%TO.P,S9,2*%
%TO.N,GND*%
X253275000Y-165750000D03*
D12*
X245000000Y-175400000D03*
%TO.P,S9,1*%
%TO.N,P14*%
X240000000Y-173300000D03*
X250000000Y-173300000D03*
%TD*%
D14*
%TO.P,MCU1,24*%
%TO.N,MCU1_24*%
X227880000Y-124860000D03*
%TO.P,MCU1,1*%
%TO.N,MCU1_1*%
X243120000Y-124860000D03*
D15*
%TO.P,MCU1,124*%
%TO.N,P1*%
X232238000Y-124860000D03*
%TO.P,MCU1,1*%
%TO.N,RAW*%
X238762000Y-124860000D03*
D16*
%TO.P,MCU1,24*%
%TO.N,MCU1_24*%
X230000000Y-124860000D03*
D17*
%TO.P,MCU1,1*%
%TO.N,RAW*%
X230725000Y-124860000D03*
D18*
%TO.P,MCU1,124*%
%TO.N,P1*%
X240275000Y-124860000D03*
D19*
%TO.P,MCU1,1*%
%TO.N,MCU1_1*%
X241000000Y-124860000D03*
D14*
%TO.P,MCU1,23*%
%TO.N,MCU1_23*%
X227880000Y-127400000D03*
%TO.P,MCU1,2*%
%TO.N,MCU1_2*%
X243120000Y-127400000D03*
D15*
%TO.P,MCU1,123*%
%TO.N,P0*%
X232238000Y-127400000D03*
%TO.P,MCU1,2*%
%TO.N,GND*%
X238762000Y-127400000D03*
D16*
%TO.P,MCU1,23*%
%TO.N,MCU1_23*%
X230000000Y-127400000D03*
D17*
%TO.P,MCU1,2*%
%TO.N,GND*%
X230725000Y-127400000D03*
D18*
%TO.P,MCU1,123*%
%TO.N,P0*%
X240275000Y-127400000D03*
D19*
%TO.P,MCU1,2*%
%TO.N,MCU1_2*%
X241000000Y-127400000D03*
D14*
%TO.P,MCU1,22*%
%TO.N,MCU1_22*%
X227880000Y-129940000D03*
%TO.P,MCU1,3*%
%TO.N,MCU1_3*%
X243120000Y-129940000D03*
D15*
%TO.P,MCU1,122*%
%TO.N,GND*%
X232238000Y-129940000D03*
%TO.P,MCU1,3*%
%TO.N,RST*%
X238762000Y-129940000D03*
D16*
%TO.P,MCU1,22*%
%TO.N,MCU1_22*%
X230000000Y-129940000D03*
D17*
%TO.P,MCU1,3*%
%TO.N,RST*%
X230725000Y-129940000D03*
D18*
%TO.P,MCU1,122*%
%TO.N,GND*%
X240275000Y-129940000D03*
D19*
%TO.P,MCU1,3*%
%TO.N,MCU1_3*%
X241000000Y-129940000D03*
D14*
%TO.P,MCU1,21*%
%TO.N,MCU1_21*%
X227880000Y-132480000D03*
%TO.P,MCU1,4*%
%TO.N,MCU1_4*%
X243120000Y-132480000D03*
D15*
%TO.P,MCU1,121*%
%TO.N,GND*%
X232238000Y-132480000D03*
%TO.P,MCU1,4*%
%TO.N,VCC*%
X238762000Y-132480000D03*
D16*
%TO.P,MCU1,21*%
%TO.N,MCU1_21*%
X230000000Y-132480000D03*
D17*
%TO.P,MCU1,4*%
%TO.N,VCC*%
X230725000Y-132480000D03*
D18*
%TO.P,MCU1,121*%
%TO.N,GND*%
X240275000Y-132480000D03*
D19*
%TO.P,MCU1,4*%
%TO.N,MCU1_4*%
X241000000Y-132480000D03*
D14*
%TO.P,MCU1,20*%
%TO.N,MCU1_20*%
X227880000Y-135020000D03*
%TO.P,MCU1,5*%
%TO.N,MCU1_5*%
X243120000Y-135020000D03*
D15*
%TO.P,MCU1,120*%
%TO.N,P2*%
X232238000Y-135020000D03*
%TO.P,MCU1,5*%
%TO.N,P21*%
X238762000Y-135020000D03*
D16*
%TO.P,MCU1,20*%
%TO.N,MCU1_20*%
X230000000Y-135020000D03*
D17*
%TO.P,MCU1,5*%
%TO.N,P21*%
X230725000Y-135020000D03*
D18*
%TO.P,MCU1,120*%
%TO.N,P2*%
X240275000Y-135020000D03*
D19*
%TO.P,MCU1,5*%
%TO.N,MCU1_5*%
X241000000Y-135020000D03*
D14*
%TO.P,MCU1,19*%
%TO.N,MCU1_19*%
X227880000Y-137560000D03*
%TO.P,MCU1,6*%
%TO.N,MCU1_6*%
X243120000Y-137560000D03*
D15*
%TO.P,MCU1,119*%
%TO.N,P3*%
X232238000Y-137560000D03*
%TO.P,MCU1,6*%
%TO.N,P20*%
X238762000Y-137560000D03*
D16*
%TO.P,MCU1,19*%
%TO.N,MCU1_19*%
X230000000Y-137560000D03*
D17*
%TO.P,MCU1,6*%
%TO.N,P20*%
X230725000Y-137560000D03*
D18*
%TO.P,MCU1,119*%
%TO.N,P3*%
X240275000Y-137560000D03*
D19*
%TO.P,MCU1,6*%
%TO.N,MCU1_6*%
X241000000Y-137560000D03*
D14*
%TO.P,MCU1,18*%
%TO.N,MCU1_18*%
X227880000Y-140100000D03*
%TO.P,MCU1,7*%
%TO.N,MCU1_7*%
X243120000Y-140100000D03*
D15*
%TO.P,MCU1,118*%
%TO.N,P4*%
X232238000Y-140100000D03*
%TO.P,MCU1,7*%
%TO.N,P19*%
X238762000Y-140100000D03*
D16*
%TO.P,MCU1,18*%
%TO.N,MCU1_18*%
X230000000Y-140100000D03*
D17*
%TO.P,MCU1,7*%
%TO.N,P19*%
X230725000Y-140100000D03*
D18*
%TO.P,MCU1,118*%
%TO.N,P4*%
X240275000Y-140100000D03*
D19*
%TO.P,MCU1,7*%
%TO.N,MCU1_7*%
X241000000Y-140100000D03*
D14*
%TO.P,MCU1,17*%
%TO.N,MCU1_17*%
X227880000Y-142640000D03*
%TO.P,MCU1,8*%
%TO.N,MCU1_8*%
X243120000Y-142640000D03*
D15*
%TO.P,MCU1,117*%
%TO.N,P5*%
X232238000Y-142640000D03*
%TO.P,MCU1,8*%
%TO.N,P18*%
X238762000Y-142640000D03*
D16*
%TO.P,MCU1,17*%
%TO.N,MCU1_17*%
X230000000Y-142640000D03*
D17*
%TO.P,MCU1,8*%
%TO.N,P18*%
X230725000Y-142640000D03*
D18*
%TO.P,MCU1,117*%
%TO.N,P5*%
X240275000Y-142640000D03*
D19*
%TO.P,MCU1,8*%
%TO.N,MCU1_8*%
X241000000Y-142640000D03*
D14*
%TO.P,MCU1,16*%
%TO.N,MCU1_16*%
X227880000Y-145180000D03*
%TO.P,MCU1,9*%
%TO.N,MCU1_9*%
X243120000Y-145180000D03*
D15*
%TO.P,MCU1,116*%
%TO.N,P6*%
X232238000Y-145180000D03*
%TO.P,MCU1,9*%
%TO.N,P15*%
X238762000Y-145180000D03*
D16*
%TO.P,MCU1,16*%
%TO.N,MCU1_16*%
X230000000Y-145180000D03*
D17*
%TO.P,MCU1,9*%
%TO.N,P15*%
X230725000Y-145180000D03*
D18*
%TO.P,MCU1,116*%
%TO.N,P6*%
X240275000Y-145180000D03*
D19*
%TO.P,MCU1,9*%
%TO.N,MCU1_9*%
X241000000Y-145180000D03*
D14*
%TO.P,MCU1,15*%
%TO.N,MCU1_15*%
X227880000Y-147720000D03*
%TO.P,MCU1,10*%
%TO.N,MCU1_10*%
X243120000Y-147720000D03*
D15*
%TO.P,MCU1,115*%
%TO.N,P7*%
X232238000Y-147720000D03*
%TO.P,MCU1,10*%
%TO.N,P14*%
X238762000Y-147720000D03*
D16*
%TO.P,MCU1,15*%
%TO.N,MCU1_15*%
X230000000Y-147720000D03*
D17*
%TO.P,MCU1,10*%
%TO.N,P14*%
X230725000Y-147720000D03*
D18*
%TO.P,MCU1,115*%
%TO.N,P7*%
X240275000Y-147720000D03*
D19*
%TO.P,MCU1,10*%
%TO.N,MCU1_10*%
X241000000Y-147720000D03*
D14*
%TO.P,MCU1,14*%
%TO.N,MCU1_14*%
X227880000Y-150260000D03*
%TO.P,MCU1,11*%
%TO.N,MCU1_11*%
X243120000Y-150260000D03*
D15*
%TO.P,MCU1,114*%
%TO.N,P8*%
X232238000Y-150260000D03*
%TO.P,MCU1,11*%
%TO.N,P16*%
X238762000Y-150260000D03*
D16*
%TO.P,MCU1,14*%
%TO.N,MCU1_14*%
X230000000Y-150260000D03*
D17*
%TO.P,MCU1,11*%
%TO.N,P16*%
X230725000Y-150260000D03*
D18*
%TO.P,MCU1,114*%
%TO.N,P8*%
X240275000Y-150260000D03*
D19*
%TO.P,MCU1,11*%
%TO.N,MCU1_11*%
X241000000Y-150260000D03*
D14*
%TO.P,MCU1,13*%
%TO.N,MCU1_13*%
X227880000Y-152800000D03*
%TO.P,MCU1,12*%
%TO.N,MCU1_12*%
X243120000Y-152800000D03*
D15*
%TO.P,MCU1,113*%
%TO.N,P9*%
X232238000Y-152800000D03*
%TO.P,MCU1,12*%
%TO.N,P10*%
X238762000Y-152800000D03*
D16*
%TO.P,MCU1,13*%
%TO.N,MCU1_13*%
X230000000Y-152800000D03*
D17*
%TO.P,MCU1,12*%
%TO.N,P10*%
X230725000Y-152800000D03*
D18*
%TO.P,MCU1,113*%
%TO.N,P9*%
X240275000Y-152800000D03*
D19*
%TO.P,MCU1,12*%
%TO.N,MCU1_12*%
X241000000Y-152800000D03*
%TD*%
D20*
%TO.P,SW1,*%
%TO.N,*%
X250415000Y-124410000D03*
X252625000Y-124410000D03*
D21*
%TO.P,SW1,4*%
%TO.N,N/C*%
X249765000Y-130310000D03*
D20*
%TO.P,SW1,*%
%TO.N,*%
X250415000Y-131710000D03*
D21*
%TO.P,SW1,5*%
%TO.N,BAT_P*%
X249765000Y-128810000D03*
%TO.P,SW1,6*%
%TO.N,RAW*%
X249765000Y-125810000D03*
D20*
%TO.P,SW1,*%
%TO.N,*%
X252625000Y-131710000D03*
%TD*%
D22*
%TO.P,S10,1*%
%TO.N,RST*%
X251500000Y-141760000D03*
%TO.P,S10,2*%
%TO.N,GND*%
X251500000Y-138360000D03*
%TD*%
D23*
%TO.P,BAT,1*%
%TO.N,GND*%
X225000000Y-157060000D03*
%TO.P,BAT,2*%
%TO.N,BAT_P*%
X225000000Y-155060000D03*
%TD*%
D24*
%TO.P,Via1,1*%
%TO.N,P19*%
X172500000Y-127360000D03*
%TD*%
%TO.P,Via2,1*%
%TO.N,P20*%
X190500000Y-127360000D03*
%TD*%
%TO.P,Via3,1*%
%TO.N,P21*%
X208500000Y-127360000D03*
%TD*%
D25*
%TO.P,H1,*%
%TO.N,*%
X199500000Y-138560000D03*
%TD*%
%TO.P,H2,*%
%TO.N,*%
X181500000Y-138560000D03*
%TD*%
%TO.P,H3,*%
%TO.N,*%
X165500000Y-158060000D03*
%TD*%
%TO.P,H4,*%
%TO.N,*%
X220000000Y-158060000D03*
%TD*%
D26*
%TO.P,DISP1,24*%
%TO.N,P1*%
X240580000Y-154510000D03*
%TO.P,DISP1,25*%
%TO.N,GND*%
X238040000Y-154510000D03*
%TO.P,DISP1,26*%
%TO.N,P3*%
X232960000Y-154510000D03*
%TO.P,DISP1,27*%
%TO.N,P2*%
X230420000Y-154510000D03*
%TO.P,DISP1,20*%
%TO.N,DISP1_5*%
X240580000Y-155410000D03*
%TO.P,DISP1,21*%
%TO.N,DISP1_4*%
X238040000Y-155410000D03*
%TO.P,DISP1,22*%
%TO.N,DISP1_2*%
X232960000Y-155410000D03*
%TO.P,DISP1,23*%
%TO.N,DISP1_1*%
X230420000Y-155410000D03*
D27*
%TO.P,DISP1,1*%
X230420000Y-157760000D03*
%TO.P,DISP1,2*%
%TO.N,DISP1_2*%
X232960000Y-157760000D03*
%TO.P,DISP1,3*%
%TO.N,VCC*%
X235500000Y-157760000D03*
%TO.P,DISP1,4*%
%TO.N,DISP1_4*%
X238040000Y-157760000D03*
D14*
%TO.P,DISP1,5*%
%TO.N,DISP1_5*%
X240580000Y-157760000D03*
%TD*%
D28*
%TO.N,DISP1_1*%
X229190300Y-155380900D03*
%TO.N,BAT_P*%
X248409100Y-128738500D03*
X233557500Y-159981500D03*
%TO.N,P3*%
X236047300Y-154502600D03*
%TO.N,P2*%
X229198400Y-154315400D03*
%TO.N,P1*%
X236774500Y-156754900D03*
%TO.N,RST*%
X250412300Y-139422900D03*
%TO.N,P14*%
X243507100Y-155227500D03*
%TO.N,GND*%
X249679800Y-138359200D03*
%TD*%
D29*
%TO.N,DISP1_5*%
X241506900Y-156833100D02*
X241506900Y-155410000D01*
X240580000Y-157760000D02*
X241506900Y-156833100D01*
X240580000Y-155410000D02*
X241506900Y-155410000D01*
%TO.N,DISP1_4*%
X238966900Y-155910100D02*
X238966900Y-155410000D01*
X238293900Y-156583100D02*
X238966900Y-155910100D01*
X238040000Y-156583100D02*
X238293900Y-156583100D01*
X238040000Y-155410000D02*
X238966900Y-155410000D01*
X238040000Y-157760000D02*
X238040000Y-156583100D01*
%TO.N,DISP1_2*%
X233886900Y-155910100D02*
X233886900Y-155410000D01*
X233213900Y-156583100D02*
X233886900Y-155910100D01*
X232960000Y-156583100D02*
X233213900Y-156583100D01*
X232960000Y-155410000D02*
X233886900Y-155410000D01*
X232960000Y-157760000D02*
X232960000Y-156583100D01*
%TO.N,DISP1_1*%
X229219400Y-155410000D02*
X229190300Y-155380900D01*
X230420000Y-155410000D02*
X229219400Y-155410000D01*
X231346900Y-155910100D02*
X231346900Y-155410000D01*
X230673900Y-156583100D02*
X231346900Y-155910100D01*
X230420000Y-156583100D02*
X230673900Y-156583100D01*
X230420000Y-155410000D02*
X231346900Y-155410000D01*
X230420000Y-157760000D02*
X230420000Y-156583100D01*
%TO.N,BAT_P*%
X249765000Y-128810000D02*
X248688100Y-128810000D01*
X248480600Y-128810000D02*
X248409100Y-128738500D01*
X248688100Y-128810000D02*
X248480600Y-128810000D01*
X226734100Y-159981500D02*
X233557500Y-159981500D01*
X224161000Y-157408400D02*
X226734100Y-159981500D01*
X224161000Y-155899000D02*
X224161000Y-157408400D01*
X225000000Y-155060000D02*
X224161000Y-155899000D01*
%TO.N,MCU1_12*%
X243120000Y-152800000D02*
X241000000Y-152800000D01*
%TO.N,MCU1_13*%
X227880000Y-152800000D02*
X230000000Y-152800000D01*
%TO.N,MCU1_11*%
X243120000Y-150260000D02*
X241000000Y-150260000D01*
%TO.N,MCU1_14*%
X227880000Y-150260000D02*
X230000000Y-150260000D01*
%TO.N,MCU1_10*%
X243120000Y-147720000D02*
X241000000Y-147720000D01*
%TO.N,MCU1_15*%
X227880000Y-147720000D02*
X230000000Y-147720000D01*
%TO.N,MCU1_9*%
X243120000Y-145180000D02*
X241000000Y-145180000D01*
%TO.N,MCU1_16*%
X227880000Y-145180000D02*
X230000000Y-145180000D01*
%TO.N,MCU1_8*%
X243120000Y-142640000D02*
X241000000Y-142640000D01*
%TO.N,MCU1_17*%
X227880000Y-142640000D02*
X230000000Y-142640000D01*
%TO.N,MCU1_7*%
X243120000Y-140100000D02*
X241000000Y-140100000D01*
%TO.N,MCU1_18*%
X227880000Y-140100000D02*
X230000000Y-140100000D01*
%TO.N,MCU1_6*%
X243120000Y-137560000D02*
X241000000Y-137560000D01*
%TO.N,MCU1_19*%
X227880000Y-137560000D02*
X230000000Y-137560000D01*
%TO.N,MCU1_5*%
X243120000Y-135020000D02*
X241000000Y-135020000D01*
%TO.N,MCU1_20*%
X227880000Y-135020000D02*
X230000000Y-135020000D01*
%TO.N,MCU1_4*%
X243120000Y-132480000D02*
X241000000Y-132480000D01*
%TO.N,MCU1_21*%
X227880000Y-132480000D02*
X230000000Y-132480000D01*
%TO.N,MCU1_3*%
X243120000Y-129940000D02*
X241000000Y-129940000D01*
%TO.N,MCU1_22*%
X227880000Y-129940000D02*
X230000000Y-129940000D01*
%TO.N,MCU1_2*%
X243120000Y-127400000D02*
X241000000Y-127400000D01*
%TO.N,MCU1_23*%
X227880000Y-127400000D02*
X230000000Y-127400000D01*
%TO.N,MCU1_1*%
X243120000Y-124860000D02*
X241000000Y-124860000D01*
%TO.N,MCU1_24*%
X227880000Y-124860000D02*
X230000000Y-124860000D01*
%TO.N,P9*%
X240280000Y-152800000D02*
X240275000Y-152800000D01*
X232337200Y-152700800D02*
X232339200Y-152700800D01*
X232238000Y-152800000D02*
X232337200Y-152700800D01*
X232490000Y-152550000D02*
X232339200Y-152700800D01*
X237940000Y-152550000D02*
X232490000Y-152550000D01*
X238410000Y-152070000D02*
X237940000Y-152550000D01*
X239110000Y-152070000D02*
X238410000Y-152070000D01*
X239840000Y-152800000D02*
X239110000Y-152070000D01*
X240275000Y-152800000D02*
X239840000Y-152800000D01*
X232339200Y-152700800D02*
X232240000Y-152800000D01*
%TO.N,P4*%
X240280000Y-140100000D02*
X240275000Y-140100000D01*
X232337200Y-140000800D02*
X232339200Y-140000800D01*
X232238000Y-140100000D02*
X232337200Y-140000800D01*
X232490000Y-139850000D02*
X232339200Y-140000800D01*
X237940000Y-139850000D02*
X232490000Y-139850000D01*
X238410000Y-139370000D02*
X237940000Y-139850000D01*
X239110000Y-139370000D02*
X238410000Y-139370000D01*
X239840000Y-140100000D02*
X239110000Y-139370000D01*
X240275000Y-140100000D02*
X239840000Y-140100000D01*
X232339200Y-140000800D02*
X232240000Y-140100000D01*
%TO.N,P3*%
X240280000Y-137560000D02*
X240275000Y-137560000D01*
X232337200Y-137460800D02*
X232339200Y-137460800D01*
X232238000Y-137560000D02*
X232337200Y-137460800D01*
X232339200Y-137460800D02*
X232240000Y-137560000D01*
X240275000Y-137560000D02*
X240057500Y-137560000D01*
X232490000Y-137310000D02*
X232339200Y-137460800D01*
X237940000Y-137310000D02*
X232490000Y-137310000D01*
X238410000Y-136830000D02*
X237940000Y-137310000D01*
X239110000Y-136830000D02*
X238410000Y-136830000D01*
X239840000Y-137560000D02*
X239110000Y-136830000D01*
X240057500Y-137560000D02*
X239840000Y-137560000D01*
X232960000Y-154510000D02*
X233886900Y-154510000D01*
X233894300Y-154502600D02*
X233886900Y-154510000D01*
X236047300Y-154502600D02*
X233894300Y-154502600D01*
X236666800Y-153883100D02*
X236047300Y-154502600D01*
X241315400Y-153883100D02*
X236666800Y-153883100D01*
X241448300Y-154016000D02*
X241315400Y-153883100D01*
X243581100Y-154016000D02*
X241448300Y-154016000D01*
X244319600Y-153277500D02*
X243581100Y-154016000D01*
X244319600Y-139566000D02*
X244319600Y-153277500D01*
X243583600Y-138830000D02*
X244319600Y-139566000D01*
X241327500Y-138830000D02*
X243583600Y-138830000D01*
X240057500Y-137560000D02*
X241327500Y-138830000D01*
%TO.N,P2*%
X240280000Y-135020000D02*
X240275000Y-135020000D01*
X232337200Y-134920800D02*
X232339200Y-134920800D01*
X232238000Y-135020000D02*
X232337200Y-134920800D01*
X232339200Y-134920800D02*
X232240000Y-135020000D01*
X232490000Y-134770000D02*
X232339200Y-134920800D01*
X237940000Y-134770000D02*
X232490000Y-134770000D01*
X238410000Y-134290000D02*
X237940000Y-134770000D01*
X239110000Y-134290000D02*
X238410000Y-134290000D01*
X239840000Y-135020000D02*
X239110000Y-134290000D01*
X240275000Y-135020000D02*
X239840000Y-135020000D01*
X229298500Y-154315400D02*
X229493100Y-154510000D01*
X229198400Y-154315400D02*
X229298500Y-154315400D01*
X230420000Y-154510000D02*
X229493100Y-154510000D01*
%TO.N,P0*%
X240280000Y-127400000D02*
X240275000Y-127400000D01*
X232337200Y-127300800D02*
X232339200Y-127300800D01*
X232238000Y-127400000D02*
X232337200Y-127300800D01*
X232490000Y-127150000D02*
X232339200Y-127300800D01*
X237940000Y-127150000D02*
X232490000Y-127150000D01*
X238410000Y-126670000D02*
X237940000Y-127150000D01*
X239110000Y-126670000D02*
X238410000Y-126670000D01*
X239840000Y-127400000D02*
X239110000Y-126670000D01*
X240275000Y-127400000D02*
X239840000Y-127400000D01*
X232339200Y-127300800D02*
X232240000Y-127400000D01*
%TO.N,P1*%
X232337200Y-124760800D02*
X232339200Y-124760800D01*
X232238000Y-124860000D02*
X232337200Y-124760800D01*
X232339200Y-124760800D02*
X232240000Y-124860000D01*
X240280000Y-124860000D02*
X240275000Y-124860000D01*
X240275000Y-124860000D02*
X240057500Y-124860000D01*
X232490000Y-124610000D02*
X232339200Y-124760800D01*
X237940000Y-124610000D02*
X232490000Y-124610000D01*
X238410000Y-124130000D02*
X237940000Y-124610000D01*
X239110000Y-124130000D02*
X238410000Y-124130000D01*
X239840000Y-124860000D02*
X239110000Y-124130000D01*
X240057500Y-124860000D02*
X239840000Y-124860000D01*
X240580000Y-154510000D02*
X241506900Y-154510000D01*
X241992600Y-154510000D02*
X241506900Y-154510000D01*
X242013700Y-154488900D02*
X241992600Y-154510000D01*
X243750600Y-154488900D02*
X242013700Y-154488900D01*
X245980200Y-152259300D02*
X243750600Y-154488900D01*
X245980200Y-139743800D02*
X245980200Y-152259300D01*
X253364500Y-132359500D02*
X245980200Y-139743800D01*
X253364500Y-126554100D02*
X253364500Y-132359500D01*
X251893500Y-125083100D02*
X253364500Y-126554100D01*
X251893500Y-124457800D02*
X251893500Y-125083100D01*
X250970100Y-123534400D02*
X251893500Y-124457800D01*
X241383100Y-123534400D02*
X250970100Y-123534400D01*
X240057500Y-124860000D02*
X241383100Y-123534400D01*
X236774600Y-156754900D02*
X236774500Y-156754900D01*
X236774600Y-158185800D02*
X236774600Y-156754900D01*
X237525700Y-158936900D02*
X236774600Y-158185800D01*
X241071200Y-158936900D02*
X237525700Y-158936900D01*
X241992600Y-158015500D02*
X241071200Y-158936900D01*
X241992600Y-154510000D02*
X241992600Y-158015500D01*
%TO.N,P10*%
X230720000Y-152800000D02*
X230725000Y-152800000D01*
X238662800Y-152899200D02*
X238660800Y-152899200D01*
X238762000Y-152800000D02*
X238662800Y-152899200D01*
X238510000Y-153050000D02*
X238660800Y-152899200D01*
X233050000Y-153050000D02*
X238510000Y-153050000D01*
X232960000Y-153140000D02*
X233050000Y-153050000D01*
X232960000Y-153150000D02*
X232960000Y-153140000D01*
X232590000Y-153530000D02*
X232960000Y-153150000D01*
X231890000Y-153530000D02*
X232590000Y-153530000D01*
X231160000Y-152800000D02*
X231890000Y-153530000D01*
X230725000Y-152800000D02*
X231160000Y-152800000D01*
X238660800Y-152899200D02*
X238760000Y-152800000D01*
%TO.N,P16*%
X230720000Y-150260000D02*
X230725000Y-150260000D01*
X238662800Y-150359200D02*
X238660800Y-150359200D01*
X238762000Y-150260000D02*
X238662800Y-150359200D01*
X238510000Y-150510000D02*
X238660800Y-150359200D01*
X233050000Y-150510000D02*
X238510000Y-150510000D01*
X232960000Y-150600000D02*
X233050000Y-150510000D01*
X232960000Y-150610000D02*
X232960000Y-150600000D01*
X232590000Y-150990000D02*
X232960000Y-150610000D01*
X231890000Y-150990000D02*
X232590000Y-150990000D01*
X231160000Y-150260000D02*
X231890000Y-150990000D01*
X230725000Y-150260000D02*
X231160000Y-150260000D01*
X238660800Y-150359200D02*
X238760000Y-150260000D01*
%TO.N,P18*%
X230720000Y-142640000D02*
X230725000Y-142640000D01*
X238662800Y-142739200D02*
X238660800Y-142739200D01*
X238762000Y-142640000D02*
X238662800Y-142739200D01*
X238510000Y-142890000D02*
X238660800Y-142739200D01*
X233050000Y-142890000D02*
X238510000Y-142890000D01*
X232960000Y-142980000D02*
X233050000Y-142890000D01*
X232960000Y-142990000D02*
X232960000Y-142980000D01*
X232590000Y-143370000D02*
X232960000Y-142990000D01*
X231890000Y-143370000D02*
X232590000Y-143370000D01*
X231160000Y-142640000D02*
X231890000Y-143370000D01*
X230725000Y-142640000D02*
X231160000Y-142640000D01*
X238660800Y-142739200D02*
X238760000Y-142640000D01*
%TO.N,VCC*%
X230720000Y-132480000D02*
X230725000Y-132480000D01*
X238660800Y-132579200D02*
X238760000Y-132480000D01*
X238662800Y-132579200D02*
X238660800Y-132579200D01*
X238762000Y-132480000D02*
X238662800Y-132579200D01*
X238510000Y-132730000D02*
X238660800Y-132579200D01*
X233050000Y-132730000D02*
X238510000Y-132730000D01*
X232960000Y-132820000D02*
X233050000Y-132730000D01*
X232960000Y-132830000D02*
X232960000Y-132820000D01*
X232590000Y-133210000D02*
X232960000Y-132830000D01*
X231890000Y-133210000D02*
X232590000Y-133210000D01*
X231160000Y-132480000D02*
X231890000Y-133210000D01*
X230725000Y-132480000D02*
X231160000Y-132480000D01*
%TO.N,RST*%
X230720000Y-129940000D02*
X230725000Y-129940000D01*
X238662800Y-130039200D02*
X238660800Y-130039200D01*
X238762000Y-129940000D02*
X238662800Y-130039200D01*
X238510000Y-130190000D02*
X238660800Y-130039200D01*
X233050000Y-130190000D02*
X238510000Y-130190000D01*
X232960000Y-130280000D02*
X233050000Y-130190000D01*
X232960000Y-130290000D02*
X232960000Y-130280000D01*
X232590000Y-130670000D02*
X232960000Y-130290000D01*
X231890000Y-130670000D02*
X232590000Y-130670000D01*
X231160000Y-129940000D02*
X231890000Y-130670000D01*
X230725000Y-129940000D02*
X231160000Y-129940000D01*
X238660800Y-130039200D02*
X238760000Y-129940000D01*
X250323100Y-139512100D02*
X250412300Y-139422900D01*
X250323100Y-141760000D02*
X250323100Y-139512100D01*
X251500000Y-141760000D02*
X250323100Y-141760000D01*
%TO.N,RAW*%
X230720000Y-124860000D02*
X230725000Y-124860000D01*
X249765000Y-125810000D02*
X248688100Y-125810000D01*
X238510000Y-125110000D02*
X238660800Y-124959200D01*
X233050000Y-125110000D02*
X238510000Y-125110000D01*
X232960000Y-125200000D02*
X233050000Y-125110000D01*
X232960000Y-125210000D02*
X232960000Y-125200000D01*
X232590000Y-125590000D02*
X232960000Y-125210000D01*
X231890000Y-125590000D02*
X232590000Y-125590000D01*
X231160000Y-124860000D02*
X231890000Y-125590000D01*
X230725000Y-124860000D02*
X231160000Y-124860000D01*
X238660800Y-124959200D02*
X238760000Y-124860000D01*
X238762000Y-124959200D02*
X238660800Y-124959200D01*
X239852800Y-126050000D02*
X238762000Y-124959200D01*
X248448100Y-126050000D02*
X239852800Y-126050000D01*
X248688100Y-125810000D02*
X248448100Y-126050000D01*
X238762000Y-124959200D02*
X238762000Y-124860000D01*
%TO.N,P14*%
X230720000Y-147720000D02*
X230725000Y-147720000D01*
X238662800Y-147819200D02*
X238660800Y-147819200D01*
X238762000Y-147720000D02*
X238662800Y-147819200D01*
X238660800Y-147819200D02*
X238760000Y-147720000D01*
X238510000Y-147970000D02*
X238660800Y-147819200D01*
X233050000Y-147970000D02*
X238510000Y-147970000D01*
X232960000Y-148060000D02*
X233050000Y-147970000D01*
X232960000Y-148070000D02*
X232960000Y-148060000D01*
X232590000Y-148450000D02*
X232960000Y-148070000D01*
X231890000Y-148450000D02*
X232590000Y-148450000D01*
X231160000Y-147720000D02*
X231890000Y-148450000D01*
X230725000Y-147720000D02*
X231160000Y-147720000D01*
X242089600Y-171210400D02*
X240000000Y-173300000D01*
X242089600Y-163914600D02*
X242089600Y-171210400D01*
X241725000Y-163550000D02*
X242089600Y-163914600D01*
X243507100Y-161767900D02*
X241725000Y-163550000D01*
X243507100Y-155227500D02*
X243507100Y-161767900D01*
%TO.N,P15*%
X230720000Y-145180000D02*
X230725000Y-145180000D01*
X238662800Y-145279200D02*
X238660800Y-145279200D01*
X238762000Y-145180000D02*
X238662800Y-145279200D01*
X238660800Y-145279200D02*
X238760000Y-145180000D01*
X238510000Y-145430000D02*
X238660800Y-145279200D01*
X233050000Y-145430000D02*
X238510000Y-145430000D01*
X232960000Y-145520000D02*
X233050000Y-145430000D01*
X232960000Y-145530000D02*
X232960000Y-145520000D01*
X232590000Y-145910000D02*
X232960000Y-145530000D01*
X231890000Y-145910000D02*
X232590000Y-145910000D01*
X231887600Y-145907600D02*
X231890000Y-145910000D01*
X231160000Y-145180000D02*
X231887600Y-145907600D01*
X230725000Y-145180000D02*
X231160000Y-145180000D01*
X224076900Y-163901900D02*
X223725000Y-163550000D01*
X224076900Y-171223100D02*
X224076900Y-163901900D01*
X222000000Y-173300000D02*
X224076900Y-171223100D01*
X223695300Y-163520300D02*
X223725000Y-163550000D01*
X223695300Y-150238400D02*
X223695300Y-163520300D01*
X227483700Y-146450000D02*
X223695300Y-150238400D01*
X231345200Y-146450000D02*
X227483700Y-146450000D01*
X231887600Y-145907600D02*
X231345200Y-146450000D01*
%TO.N,P21*%
X230720000Y-135020000D02*
X230725000Y-135020000D01*
X238662800Y-135119200D02*
X238660800Y-135119200D01*
X238762000Y-135020000D02*
X238662800Y-135119200D01*
X238510000Y-135270000D02*
X238660800Y-135119200D01*
X233050000Y-135270000D02*
X238510000Y-135270000D01*
X232960000Y-135360000D02*
X233050000Y-135270000D01*
X232960000Y-135370000D02*
X232960000Y-135360000D01*
X232590000Y-135750000D02*
X232960000Y-135370000D01*
X231890000Y-135750000D02*
X232590000Y-135750000D01*
X231160000Y-135020000D02*
X231890000Y-135750000D01*
X230725000Y-135020000D02*
X231160000Y-135020000D01*
X238660800Y-135119200D02*
X238760000Y-135020000D01*
X209040600Y-127360000D02*
X208500000Y-127360000D01*
X213500000Y-131819400D02*
X209040600Y-127360000D01*
X213500000Y-133860000D02*
X213500000Y-131819400D01*
X208212500Y-127097500D02*
X205225000Y-124110000D01*
X203500000Y-131810000D02*
X208212500Y-127097500D01*
X203500000Y-133860000D02*
X203500000Y-131810000D01*
X208237500Y-127097500D02*
X208500000Y-127360000D01*
X208212500Y-127097500D02*
X208237500Y-127097500D01*
%TO.N,P5*%
X240280000Y-142640000D02*
X240275000Y-142640000D01*
X232337200Y-142540800D02*
X232339200Y-142540800D01*
X232238000Y-142640000D02*
X232337200Y-142540800D01*
X232490000Y-142390000D02*
X232339200Y-142540800D01*
X237940000Y-142390000D02*
X232490000Y-142390000D01*
X238410000Y-141910000D02*
X237940000Y-142390000D01*
X239110000Y-141910000D02*
X238410000Y-141910000D01*
X239840000Y-142640000D02*
X239110000Y-141910000D01*
X240275000Y-142640000D02*
X239840000Y-142640000D01*
X232339200Y-142540800D02*
X232240000Y-142640000D01*
X205594400Y-148765600D02*
X203500000Y-150860000D01*
X205594400Y-141479400D02*
X205594400Y-148765600D01*
X205225000Y-141110000D02*
X205594400Y-141479400D01*
%TO.N,P20*%
X230720000Y-137560000D02*
X230725000Y-137560000D01*
X238662800Y-137659200D02*
X238660800Y-137659200D01*
X238762000Y-137560000D02*
X238662800Y-137659200D01*
X238510000Y-137810000D02*
X238660800Y-137659200D01*
X233050000Y-137810000D02*
X238510000Y-137810000D01*
X232960000Y-137900000D02*
X233050000Y-137810000D01*
X232960000Y-137910000D02*
X232960000Y-137900000D01*
X232590000Y-138290000D02*
X232960000Y-137910000D01*
X231890000Y-138290000D02*
X232590000Y-138290000D01*
X231160000Y-137560000D02*
X231890000Y-138290000D01*
X230725000Y-137560000D02*
X231160000Y-137560000D01*
X238660800Y-137659200D02*
X238760000Y-137560000D01*
X190212500Y-127097500D02*
X187225000Y-124110000D01*
X185500000Y-131810000D02*
X190212500Y-127097500D01*
X185500000Y-133860000D02*
X185500000Y-131810000D01*
X190237500Y-127097500D02*
X190500000Y-127360000D01*
X190212500Y-127097500D02*
X190237500Y-127097500D01*
X195500000Y-131819400D02*
X195500000Y-133860000D01*
X191040600Y-127360000D02*
X195500000Y-131819400D01*
X190500000Y-127360000D02*
X191040600Y-127360000D01*
%TO.N,P6*%
X240280000Y-145180000D02*
X240275000Y-145180000D01*
X232337200Y-145080800D02*
X232339200Y-145080800D01*
X232238000Y-145180000D02*
X232337200Y-145080800D01*
X232339200Y-145080800D02*
X232240000Y-145180000D01*
X187594400Y-148765600D02*
X185500000Y-150860000D01*
X187594400Y-141479400D02*
X187594400Y-148765600D01*
X187225000Y-141110000D02*
X187594400Y-141479400D01*
X232490000Y-144930000D02*
X232339200Y-145080800D01*
X232647900Y-144930000D02*
X232490000Y-144930000D01*
X237940000Y-144930000D02*
X232647900Y-144930000D01*
X238410000Y-144450000D02*
X237940000Y-144930000D01*
X239110000Y-144450000D02*
X238410000Y-144450000D01*
X239840000Y-145180000D02*
X239110000Y-144450000D01*
X240275000Y-145180000D02*
X239840000Y-145180000D01*
X231691600Y-143973700D02*
X232647900Y-144930000D01*
X224405400Y-143973700D02*
X231691600Y-143973700D01*
X213582300Y-154796800D02*
X224405400Y-143973700D01*
X199436800Y-154796800D02*
X213582300Y-154796800D01*
X195500000Y-150860000D02*
X199436800Y-154796800D01*
%TO.N,P19*%
X230720000Y-140100000D02*
X230725000Y-140100000D01*
X238662800Y-140199200D02*
X238660800Y-140199200D01*
X238762000Y-140100000D02*
X238662800Y-140199200D01*
X238660800Y-140199200D02*
X238760000Y-140100000D01*
X171930400Y-126815400D02*
X169225000Y-124110000D01*
X171930400Y-127360000D02*
X171930400Y-126815400D01*
X167500000Y-131790400D02*
X171930400Y-127360000D01*
X167500000Y-133860000D02*
X167500000Y-131790400D01*
X171930400Y-127360000D02*
X172500000Y-127360000D01*
X238510000Y-140350000D02*
X238660800Y-140199200D01*
X233050000Y-140350000D02*
X238510000Y-140350000D01*
X232960000Y-140440000D02*
X233050000Y-140350000D01*
X232960000Y-140450000D02*
X232960000Y-140440000D01*
X232590000Y-140830000D02*
X232960000Y-140450000D01*
X231890000Y-140830000D02*
X232590000Y-140830000D01*
X231887600Y-140827600D02*
X231890000Y-140830000D01*
X231160000Y-140100000D02*
X231887600Y-140827600D01*
X230725000Y-140100000D02*
X231160000Y-140100000D01*
X176594300Y-124217500D02*
X173269500Y-127542300D01*
X181809700Y-124217500D02*
X176594300Y-124217500D01*
X182488600Y-124896400D02*
X181809700Y-124217500D01*
X182488600Y-132747700D02*
X182488600Y-124896400D01*
X184989200Y-135248300D02*
X182488600Y-132747700D01*
X187455800Y-135248300D02*
X184989200Y-135248300D01*
X188101300Y-134602800D02*
X187455800Y-135248300D01*
X193137700Y-134602800D02*
X188101300Y-134602800D01*
X200433900Y-141899000D02*
X193137700Y-134602800D01*
X200433900Y-149728800D02*
X200433900Y-141899000D01*
X205028200Y-154323100D02*
X200433900Y-149728800D01*
X211936100Y-154323100D02*
X205028200Y-154323100D01*
X224889200Y-141370000D02*
X211936100Y-154323100D01*
X231345200Y-141370000D02*
X224889200Y-141370000D01*
X231887600Y-140827600D02*
X231345200Y-141370000D01*
X173087200Y-127360000D02*
X173269500Y-127542300D01*
X172500000Y-127360000D02*
X173087200Y-127360000D01*
X177500000Y-131772800D02*
X177500000Y-133860000D01*
X173269500Y-127542300D02*
X177500000Y-131772800D01*
%TO.N,P7*%
X240280000Y-147720000D02*
X240275000Y-147720000D01*
X232337200Y-147620800D02*
X232339200Y-147620800D01*
X232238000Y-147720000D02*
X232337200Y-147620800D01*
X232490000Y-147470000D02*
X232339200Y-147620800D01*
X237940000Y-147470000D02*
X232490000Y-147470000D01*
X238410000Y-146990000D02*
X237940000Y-147470000D01*
X239110000Y-146990000D02*
X238410000Y-146990000D01*
X239840000Y-147720000D02*
X239110000Y-146990000D01*
X240275000Y-147720000D02*
X239840000Y-147720000D01*
X232339200Y-147620800D02*
X232240000Y-147720000D01*
X169594400Y-148765600D02*
X167500000Y-150860000D01*
X169594400Y-141479400D02*
X169594400Y-148765600D01*
X169225000Y-141110000D02*
X169594400Y-141479400D01*
%TO.N,GND*%
X240280000Y-132480000D02*
X240275000Y-132480000D01*
X240280000Y-129940000D02*
X240275000Y-129940000D01*
X232337200Y-132380800D02*
X232339200Y-132380800D01*
X232238000Y-132480000D02*
X232337200Y-132380800D01*
X232339200Y-132380800D02*
X232240000Y-132480000D01*
X232337200Y-129840800D02*
X232339200Y-129840800D01*
X232238000Y-129940000D02*
X232337200Y-129840800D01*
X232339200Y-129840800D02*
X232240000Y-129940000D01*
X238662800Y-127499200D02*
X238660800Y-127499200D01*
X238762000Y-127400000D02*
X238662800Y-127499200D01*
X238660800Y-127499200D02*
X238760000Y-127400000D01*
X231890000Y-128130000D02*
X232240000Y-128130000D01*
X231160000Y-127400000D02*
X231890000Y-128130000D01*
X230725000Y-127400000D02*
X231160000Y-127400000D01*
X238510000Y-127650000D02*
X238660800Y-127499200D01*
X233050000Y-127650000D02*
X238510000Y-127650000D01*
X232960000Y-127740000D02*
X233050000Y-127650000D01*
X232960000Y-127750000D02*
X232960000Y-127740000D01*
X232590000Y-128130000D02*
X232960000Y-127750000D01*
X232240000Y-128130000D02*
X232590000Y-128130000D01*
X232490000Y-128380000D02*
X232490000Y-129690000D01*
X232240000Y-128130000D02*
X232490000Y-128380000D01*
X232490000Y-129690000D02*
X232339200Y-129840800D01*
X235275000Y-165750000D02*
X235275000Y-164123100D01*
X214691100Y-145393900D02*
X216775000Y-143310000D01*
X213635200Y-145393900D02*
X214691100Y-145393900D01*
X208500000Y-150529100D02*
X213635200Y-145393900D01*
X208500000Y-152960000D02*
X208500000Y-150529100D01*
X198769400Y-143304400D02*
X198451400Y-143304400D01*
X198775000Y-143310000D02*
X198769400Y-143304400D01*
X190500000Y-150537800D02*
X190500000Y-152960000D01*
X195528300Y-145509500D02*
X190500000Y-150537800D01*
X196246300Y-145509500D02*
X195528300Y-145509500D01*
X198451400Y-143304400D02*
X196246300Y-145509500D01*
X245000000Y-172901200D02*
X245000000Y-174646000D01*
X249951700Y-167949500D02*
X245000000Y-172901200D01*
X251075500Y-167949500D02*
X249951700Y-167949500D01*
X253275000Y-165750000D02*
X251075500Y-167949500D01*
X245000000Y-174646000D02*
X245000000Y-175400000D01*
X252676900Y-163525000D02*
X253275000Y-164123100D01*
X252676900Y-138360000D02*
X252676900Y-163525000D01*
X251500000Y-138360000D02*
X252676900Y-138360000D01*
X253275000Y-165750000D02*
X253275000Y-164123100D01*
X238040000Y-154510000D02*
X237113100Y-154510000D01*
X198775000Y-131053200D02*
X198775000Y-126310000D01*
X203681800Y-135960000D02*
X198775000Y-131053200D01*
X208500000Y-135960000D02*
X203681800Y-135960000D01*
X235275000Y-171210100D02*
X235275000Y-165750000D01*
X238710900Y-174646000D02*
X235275000Y-171210100D01*
X245000000Y-174646000D02*
X238710900Y-174646000D01*
X231189900Y-171210100D02*
X227000000Y-175400000D01*
X235275000Y-171210100D02*
X231189900Y-171210100D01*
X234301800Y-163149900D02*
X235275000Y-164123100D01*
X234301800Y-158944300D02*
X234301800Y-163149900D01*
X230720000Y-127400000D02*
X230722500Y-127400000D01*
X230722500Y-127400000D02*
X230725000Y-127400000D01*
X240275000Y-129940000D02*
X240057500Y-129940000D01*
X237940000Y-129690000D02*
X232490000Y-129690000D01*
X238410000Y-129210000D02*
X237940000Y-129690000D01*
X239110000Y-129210000D02*
X238410000Y-129210000D01*
X239840000Y-129940000D02*
X239110000Y-129210000D01*
X240057500Y-129940000D02*
X239840000Y-129940000D01*
X239110000Y-130887500D02*
X239110000Y-131750000D01*
X240057500Y-129940000D02*
X239110000Y-130887500D01*
X239840000Y-132480000D02*
X239110000Y-131750000D01*
X240275000Y-132480000D02*
X239840000Y-132480000D01*
X232490000Y-132230000D02*
X232339200Y-132380800D01*
X237940000Y-132230000D02*
X232490000Y-132230000D01*
X238410000Y-131750000D02*
X237940000Y-132230000D01*
X239110000Y-131750000D02*
X238410000Y-131750000D01*
X158750000Y-160775000D02*
X159079300Y-160775000D01*
X159079300Y-160775000D02*
X160376900Y-160775000D01*
X151522300Y-152500000D02*
X149100000Y-152500000D01*
X156550500Y-157528200D02*
X151522300Y-152500000D01*
X156550500Y-158246200D02*
X156550500Y-157528200D01*
X159079300Y-160775000D02*
X156550500Y-158246200D01*
X216775000Y-126310000D02*
X218401900Y-126310000D01*
X229643400Y-128598100D02*
X220690000Y-128598100D01*
X230722500Y-127519000D02*
X229643400Y-128598100D01*
X230722500Y-127400000D02*
X230722500Y-127519000D01*
X220690000Y-128598100D02*
X218401900Y-126310000D01*
X216775000Y-143310000D02*
X216775000Y-141683100D01*
X216775000Y-135960000D02*
X216775000Y-141683100D01*
X216775000Y-132513100D02*
X216775000Y-135960000D01*
X220690000Y-128598100D02*
X216775000Y-132513100D01*
X216775000Y-135960000D02*
X208500000Y-135960000D01*
X251500000Y-138360000D02*
X250323100Y-138360000D01*
X191107000Y-135960000D02*
X198451400Y-143304400D01*
X190500000Y-135960000D02*
X191107000Y-135960000D01*
X177248100Y-138156200D02*
X180775000Y-141683100D01*
X177248100Y-136045800D02*
X177248100Y-138156200D01*
X177162300Y-135960000D02*
X177248100Y-136045800D01*
X172500000Y-135960000D02*
X177162300Y-135960000D01*
X180775000Y-132518900D02*
X180775000Y-126310000D01*
X177248100Y-136045800D02*
X180775000Y-132518900D01*
X168191900Y-152960000D02*
X172500000Y-152960000D01*
X160376900Y-160775000D02*
X168191900Y-152960000D01*
X180775000Y-143310000D02*
X180775000Y-142980700D01*
X180775000Y-142980700D02*
X180775000Y-141683100D01*
X172500000Y-150537800D02*
X172500000Y-152960000D01*
X177528300Y-145509500D02*
X172500000Y-150537800D01*
X178246200Y-145509500D02*
X177528300Y-145509500D01*
X180775000Y-142980700D02*
X178246200Y-145509500D01*
X237067800Y-154510000D02*
X237113100Y-154510000D01*
X237067800Y-154510100D02*
X237067800Y-154510000D01*
X234301800Y-157276100D02*
X237067800Y-154510100D01*
X234301800Y-158944300D02*
X234301800Y-157276100D01*
X226884300Y-158944300D02*
X225000000Y-157060000D01*
X234301800Y-158944300D02*
X226884300Y-158944300D01*
X250322300Y-138359200D02*
X249679800Y-138359200D01*
X250323100Y-138360000D02*
X250322300Y-138359200D01*
%TO.N,P8*%
X240280000Y-150260000D02*
X240275000Y-150260000D01*
X232337200Y-150160800D02*
X232339200Y-150160800D01*
X232238000Y-150260000D02*
X232337200Y-150160800D01*
X232490000Y-150010000D02*
X232339200Y-150160800D01*
X237940000Y-150010000D02*
X232490000Y-150010000D01*
X238410000Y-149530000D02*
X237940000Y-150010000D01*
X239110000Y-149530000D02*
X238410000Y-149530000D01*
X239840000Y-150260000D02*
X239110000Y-149530000D01*
X240275000Y-150260000D02*
X239840000Y-150260000D01*
X232339200Y-150160800D02*
X232240000Y-150260000D01*
X160598100Y-149576900D02*
X160950000Y-149225000D01*
X153276900Y-149576900D02*
X160598100Y-149576900D01*
X151200000Y-147500000D02*
X153276900Y-149576900D01*
%TD*%
M02*
