M48
; DRILL file {KiCad 7.0.9} date Thu Mar  7 17:23:42 2024
; FORMAT={-:-/ absolute / inch / decimal}
; #@! TF.CreationDate,2024-03-07T17:23:42+01:00
; #@! TF.GenerationSoftware,Kicad,Pcbnew,7.0.9
; #@! TF.FileFunction,NonPlated,1,2,NPTH
FMAT,2
INCH
; #@! TA.AperFunction,NonPlated,NPTH,ComponentDrill
T1C0.0354
; #@! TA.AperFunction,NonPlated,NPTH,ComponentDrill
T2C0.0670
; #@! TA.AperFunction,NonPlated,NPTH,ComponentDrill
T3C0.1181
; #@! TA.AperFunction,NonPlated,NPTH,ComponentDrill
T4C0.1350
%
G90
G05
T1
X9.9026Y-4.9827
X9.9026Y-5.1008
T2
X6.1024Y-5.7874
X6.1024Y-6.2205
X6.5748Y-5.1205
X6.5748Y-5.7898
X7.0079Y-5.1205
X7.0079Y-5.7898
X7.2835Y-5.1205
X7.2835Y-5.7898
X7.7165Y-5.1205
X7.7165Y-5.7898
X7.9921Y-5.1205
X7.9921Y-5.7898
X8.4252Y-5.1205
X8.4252Y-5.7898
X8.7205Y-6.6732
X9.1535Y-6.6732
X9.4291Y-6.6732
X9.8622Y-6.6732
T3
X6.25Y-5.8071
X6.25Y-6.2008
X6.3366Y-6.0039
X6.5945Y-4.9728
X6.5945Y-5.6421
X6.7913Y-4.8862
X6.7913Y-5.5555
X6.9882Y-4.9728
X6.9882Y-5.6421
X7.3031Y-4.9728
X7.3031Y-5.6421
X7.5Y-4.8862
X7.5Y-5.5555
X7.6969Y-4.9728
X7.6969Y-5.6421
X8.0118Y-4.9728
X8.0118Y-5.6421
X8.2087Y-4.8862
X8.2087Y-5.5555
X8.4055Y-4.9728
X8.4055Y-5.6421
X8.7402Y-6.5256
X8.937Y-6.439
X9.1339Y-6.5256
X9.4488Y-6.5256
X9.6457Y-6.439
X9.8425Y-6.5256
T4
X6.1024Y-6.0039
X6.7913Y-5.1205
X6.7913Y-5.7898
X7.5Y-5.1205
X7.5Y-5.7898
X8.2087Y-5.1205
X8.2087Y-5.7898
X8.937Y-6.6732
X9.6457Y-6.6732
T0
M30
