%TF.GenerationSoftware,KiCad,Pcbnew,7.0.9*%
%TF.CreationDate,2024-03-07T17:23:47+01:00*%
%TF.ProjectId,zenFlow,7a656e46-6c6f-4772-9e6b-696361645f70,1*%
%TF.SameCoordinates,Original*%
%TF.FileFunction,Soldermask,Bot*%
%TF.FilePolarity,Negative*%
%FSLAX46Y46*%
G04 Gerber Fmt 4.6, Leading zero omitted, Abs format (unit mm)*
G04 Created by KiCad (PCBNEW 7.0.9) date 2024-03-07 17:23:47*
%MOMM*%
%LPD*%
G01*
G04 APERTURE LIST*
G04 Aperture macros list*
%AMRoundRect*
0 Rectangle with rounded corners*
0 $1 Rounding radius*
0 $2 $3 $4 $5 $6 $7 $8 $9 X,Y pos of 4 corners*
0 Add a 4 corners polygon primitive as box body*
4,1,4,$2,$3,$4,$5,$6,$7,$8,$9,$2,$3,0*
0 Add four circle primitives for the rounded corners*
1,1,$1+$1,$2,$3*
1,1,$1+$1,$4,$5*
1,1,$1+$1,$6,$7*
1,1,$1+$1,$8,$9*
0 Add four rect primitives between the rounded corners*
20,1,$1+$1,$2,$3,$4,$5,0*
20,1,$1+$1,$4,$5,$6,$7,0*
20,1,$1+$1,$6,$7,$8,$9,0*
20,1,$1+$1,$8,$9,$2,$3,0*%
%AMFreePoly0*
4,1,15,1.335355,1.335355,1.350000,1.300000,1.350000,-1.300000,1.335355,-1.335355,1.300000,-1.350000,-0.050000,-1.350000,-0.082160,-1.338285,-1.332160,-0.288285,-1.349812,-0.254331,-1.350000,-0.250000,-1.350000,1.300000,-1.335355,1.335355,-1.300000,1.350000,1.300000,1.350000,1.335355,1.335355,1.335355,1.335355,$1*%
%AMFreePoly1*
4,1,16,-0.214645,0.660355,-0.210957,0.656235,0.289043,0.031235,0.299694,-0.005522,0.289043,-0.031235,-0.210957,-0.656235,-0.244478,-0.674694,-0.250000,-0.675000,-0.500000,-0.675000,-0.535355,-0.660355,-0.550000,-0.625000,-0.550000,0.625000,-0.535355,0.660355,-0.500000,0.675000,-0.250000,0.675000,-0.214645,0.660355,-0.214645,0.660355,$1*%
%AMFreePoly2*
4,1,16,0.535355,0.660355,0.550000,0.625000,0.550000,-0.625000,0.535355,-0.660355,0.500000,-0.675000,-0.650000,-0.675000,-0.685355,-0.660355,-0.700000,-0.625000,-0.689043,-0.593765,-0.214031,0.000000,-0.689043,0.593765,-0.699694,0.630522,-0.681235,0.664043,-0.650000,0.675000,0.500000,0.675000,0.535355,0.660355,0.535355,0.660355,$1*%
G04 Aperture macros list end*
%ADD10C,3.529000*%
%ADD11C,1.801800*%
%ADD12C,3.100000*%
%ADD13FreePoly0,270.000000*%
%ADD14RoundRect,0.050000X-1.300000X1.300000X-1.300000X-1.300000X1.300000X-1.300000X1.300000X1.300000X0*%
%ADD15C,2.132000*%
%ADD16FreePoly0,0.000000*%
%ADD17RoundRect,0.050000X-1.300000X-1.300000X1.300000X-1.300000X1.300000X1.300000X-1.300000X1.300000X0*%
%ADD18C,1.800000*%
%ADD19C,0.900000*%
%ADD20FreePoly1,0.000000*%
%ADD21FreePoly2,0.000000*%
%ADD22FreePoly2,180.000000*%
%ADD23FreePoly1,180.000000*%
%ADD24RoundRect,0.050000X-0.400000X0.500000X-0.400000X-0.500000X0.400000X-0.500000X0.400000X0.500000X0*%
%ADD25RoundRect,0.050000X-0.750000X0.350000X-0.750000X-0.350000X0.750000X-0.350000X0.750000X0.350000X0*%
%ADD26C,1.000000*%
%ADD27RoundRect,0.050000X0.850000X-0.450000X0.850000X0.450000X-0.850000X0.450000X-0.850000X-0.450000X0*%
%ADD28C,1.100000*%
%ADD29C,2.500000*%
%ADD30RoundRect,0.050000X-0.600000X0.300000X-0.600000X-0.300000X0.600000X-0.300000X0.600000X0.300000X0*%
%ADD31O,1.800000X1.800000*%
G04 APERTURE END LIST*
%TO.C,G\u002A\u002A\u002A*%
G36*
X207710300Y-162880686D02*
G01*
X207711516Y-163235098D01*
X207711655Y-163631693D01*
X207711667Y-163665737D01*
X207711667Y-164651957D01*
X207711667Y-165266679D01*
X207604619Y-165424213D01*
X207565138Y-165476866D01*
X207375242Y-165641177D01*
X207119274Y-165754779D01*
X207118723Y-165754936D01*
X207057680Y-165760182D01*
X206919007Y-165765256D01*
X206709542Y-165770084D01*
X206436118Y-165774591D01*
X206105573Y-165778701D01*
X205724741Y-165782340D01*
X205300459Y-165785434D01*
X204839562Y-165787908D01*
X204348886Y-165789686D01*
X203835267Y-165790695D01*
X203281340Y-165791310D01*
X202728327Y-165791634D01*
X202249100Y-165791176D01*
X201837878Y-165789533D01*
X201488882Y-165786303D01*
X201196331Y-165781082D01*
X200954445Y-165773470D01*
X200757445Y-165763063D01*
X200599549Y-165749458D01*
X200474979Y-165732255D01*
X200377953Y-165711049D01*
X200302692Y-165685439D01*
X200243415Y-165655023D01*
X200194343Y-165619397D01*
X200149695Y-165578161D01*
X200103692Y-165530910D01*
X200073941Y-165498374D01*
X199983321Y-165379258D01*
X199924930Y-165272994D01*
X199913248Y-165203241D01*
X199902805Y-165058761D01*
X199894255Y-164853313D01*
X199889010Y-164653005D01*
X201404000Y-164653005D01*
X201424061Y-164741223D01*
X201511825Y-164813871D01*
X201520538Y-164817325D01*
X201624247Y-164836819D01*
X201805842Y-164851147D01*
X202059564Y-164859982D01*
X202379659Y-164863000D01*
X202588886Y-164862686D01*
X202807598Y-164860613D01*
X202964029Y-164855465D01*
X203071048Y-164845953D01*
X203141526Y-164830787D01*
X203188331Y-164808677D01*
X203224333Y-164778333D01*
X203287969Y-164697299D01*
X203299879Y-164603290D01*
X203289541Y-164589128D01*
X204328464Y-164589128D01*
X204330421Y-164603290D01*
X204344240Y-164703297D01*
X204419086Y-164797099D01*
X204453672Y-164815881D01*
X204522077Y-164835331D01*
X204626510Y-164848836D01*
X204779123Y-164857327D01*
X204992069Y-164861737D01*
X205277500Y-164863000D01*
X205563836Y-164861130D01*
X205807782Y-164853425D01*
X205985633Y-164837722D01*
X206107086Y-164811871D01*
X206181835Y-164773726D01*
X206219575Y-164721137D01*
X206230000Y-164651957D01*
X206228353Y-164611268D01*
X206213243Y-164552488D01*
X206173932Y-164508811D01*
X206100347Y-164478028D01*
X205982414Y-164457932D01*
X205810057Y-164446312D01*
X205573203Y-164440960D01*
X205261776Y-164439667D01*
X204971906Y-164441155D01*
X204718795Y-164446623D01*
X204539043Y-164456436D01*
X204426697Y-164470937D01*
X204375800Y-164490466D01*
X204328464Y-164589128D01*
X203289541Y-164589128D01*
X203231583Y-164509728D01*
X203217900Y-164498762D01*
X203173268Y-164476881D01*
X203103034Y-164461037D01*
X202995390Y-164450311D01*
X202838524Y-164443785D01*
X202620626Y-164440543D01*
X202329883Y-164439667D01*
X202104133Y-164440071D01*
X201855909Y-164443158D01*
X201674440Y-164451357D01*
X201549315Y-164467067D01*
X201470121Y-164492688D01*
X201426446Y-164530618D01*
X201407876Y-164583258D01*
X201404000Y-164653005D01*
X199889010Y-164653005D01*
X199887597Y-164599033D01*
X199882831Y-164308055D01*
X199879957Y-163992513D01*
X199878975Y-163664542D01*
X199879088Y-163623567D01*
X201287646Y-163623567D01*
X201297467Y-163720537D01*
X201380909Y-163827757D01*
X201478524Y-163893506D01*
X201621865Y-163927199D01*
X201771494Y-163915217D01*
X201905501Y-163863119D01*
X202001973Y-163776462D01*
X202031912Y-163682948D01*
X202468369Y-163682948D01*
X202508882Y-163797710D01*
X202611477Y-163882076D01*
X202648652Y-163897448D01*
X202827420Y-163931597D01*
X202992234Y-163904868D01*
X203123211Y-163823604D01*
X203200468Y-163694150D01*
X203202413Y-163686865D01*
X203196605Y-163622180D01*
X204415967Y-163622180D01*
X204425603Y-163686865D01*
X204432930Y-163736049D01*
X204521209Y-163843927D01*
X204596019Y-163890184D01*
X204762051Y-163932395D01*
X204929165Y-163911294D01*
X205067758Y-163827757D01*
X205075527Y-163819819D01*
X205143681Y-163732458D01*
X205171667Y-163663114D01*
X205170053Y-163643968D01*
X205166841Y-163637377D01*
X205591511Y-163637377D01*
X205595374Y-163663114D01*
X205610732Y-163765434D01*
X205689086Y-163865766D01*
X205716062Y-163881884D01*
X205858653Y-163921860D01*
X206026070Y-163921474D01*
X206178004Y-163879588D01*
X206214525Y-163857278D01*
X206289124Y-163757303D01*
X206308252Y-163631693D01*
X206271803Y-163509403D01*
X206179673Y-163419388D01*
X206172442Y-163415660D01*
X206019388Y-163376881D01*
X205846620Y-163386225D01*
X205699864Y-163441576D01*
X205630609Y-163513658D01*
X205591511Y-163637377D01*
X205166841Y-163637377D01*
X205120432Y-163542151D01*
X205020595Y-163448213D01*
X204896500Y-163388099D01*
X204839562Y-163376093D01*
X204682117Y-163379278D01*
X204551646Y-163430330D01*
X204459234Y-163515786D01*
X204415967Y-163622180D01*
X203196605Y-163622180D01*
X203192323Y-163574483D01*
X203117073Y-163477865D01*
X202994920Y-163407745D01*
X202844120Y-163374852D01*
X202682929Y-163389920D01*
X202560064Y-163455420D01*
X202486557Y-163561086D01*
X202471674Y-163660807D01*
X202468369Y-163682948D01*
X202031912Y-163682948D01*
X202039000Y-163660807D01*
X202007525Y-163544267D01*
X201915563Y-163447513D01*
X201784599Y-163387289D01*
X201636366Y-163369391D01*
X201492599Y-163399614D01*
X201375030Y-163483754D01*
X201351035Y-163512712D01*
X201287646Y-163623567D01*
X199879088Y-163623567D01*
X199879884Y-163336275D01*
X199882683Y-163019848D01*
X199887372Y-162727395D01*
X199887825Y-162709738D01*
X201107589Y-162709738D01*
X201112348Y-162822884D01*
X201187083Y-162932082D01*
X201222243Y-162957448D01*
X201350036Y-163007685D01*
X201496118Y-163029603D01*
X201615667Y-163014575D01*
X201682257Y-162980666D01*
X201788047Y-162877092D01*
X201826685Y-162750355D01*
X201826075Y-162741271D01*
X202275563Y-162741271D01*
X202278699Y-162750355D01*
X202317825Y-162863690D01*
X202382406Y-162934729D01*
X202488470Y-163002223D01*
X202501040Y-163006944D01*
X202607379Y-163036357D01*
X202701545Y-163028961D01*
X202826415Y-162982217D01*
X202953280Y-162893666D01*
X203011081Y-162777688D01*
X203004020Y-162723985D01*
X204588636Y-162723985D01*
X204598344Y-162777688D01*
X204601989Y-162797855D01*
X204674250Y-162893568D01*
X204786572Y-162981837D01*
X204931932Y-163026285D01*
X205080392Y-163020012D01*
X205211616Y-162967616D01*
X205305264Y-162873694D01*
X205326069Y-162797516D01*
X205772369Y-162797516D01*
X205828786Y-162899388D01*
X205954981Y-162981956D01*
X206003057Y-163001460D01*
X206118092Y-163034908D01*
X206217286Y-163027879D01*
X206344942Y-162980173D01*
X206369312Y-162968442D01*
X206473497Y-162875746D01*
X206513016Y-162758125D01*
X206490888Y-162637155D01*
X206410133Y-162534414D01*
X206273768Y-162471482D01*
X206245112Y-162465922D01*
X206077714Y-162464032D01*
X205938402Y-162509599D01*
X205835515Y-162589269D01*
X205777391Y-162689692D01*
X205774915Y-162742845D01*
X205772369Y-162797516D01*
X205326069Y-162797516D01*
X205341000Y-162742845D01*
X205325559Y-162653391D01*
X205249975Y-162544750D01*
X205129546Y-162477072D01*
X204984628Y-162455750D01*
X204835575Y-162486176D01*
X204702744Y-162573743D01*
X204636718Y-162643582D01*
X204588636Y-162723985D01*
X203004020Y-162723985D01*
X202994698Y-162653083D01*
X202901124Y-162537739D01*
X202781709Y-162473164D01*
X202637395Y-162451541D01*
X202498850Y-162476354D01*
X202381848Y-162538789D01*
X202302161Y-162630033D01*
X202275563Y-162741271D01*
X201826075Y-162741271D01*
X201821936Y-162679671D01*
X201778226Y-162576514D01*
X201671367Y-162498671D01*
X201671111Y-162498536D01*
X201524128Y-162454101D01*
X201381075Y-162464825D01*
X201255162Y-162518887D01*
X201159596Y-162604465D01*
X201107589Y-162709738D01*
X199887825Y-162709738D01*
X199893952Y-162471049D01*
X199902421Y-162262946D01*
X199912779Y-162115220D01*
X199925027Y-162040006D01*
X200013705Y-161884246D01*
X200171778Y-161721933D01*
X200366833Y-161598925D01*
X200376518Y-161594549D01*
X200412797Y-161580550D01*
X200457391Y-161568426D01*
X200516173Y-161558042D01*
X200595016Y-161549262D01*
X200699795Y-161541948D01*
X200836380Y-161535965D01*
X201010647Y-161531175D01*
X201228468Y-161527442D01*
X201495717Y-161524629D01*
X201818266Y-161522601D01*
X202201989Y-161521220D01*
X202652759Y-161520350D01*
X203176449Y-161519854D01*
X203778933Y-161519596D01*
X204294714Y-161519702D01*
X204901997Y-161520660D01*
X205430029Y-161522588D01*
X205881886Y-161525529D01*
X206260644Y-161529525D01*
X206569378Y-161534621D01*
X206811165Y-161540857D01*
X206989080Y-161548279D01*
X207106200Y-161556927D01*
X207165600Y-161566846D01*
X207178467Y-161571361D01*
X207315703Y-161635217D01*
X207447128Y-161717201D01*
X207462332Y-161728489D01*
X207524703Y-161776683D01*
X207575696Y-161825140D01*
X207616456Y-161882299D01*
X207648129Y-161956603D01*
X207671861Y-162056490D01*
X207688799Y-162190401D01*
X207700087Y-162366778D01*
X207706872Y-162594059D01*
X207708834Y-162758125D01*
X207710300Y-162880686D01*
G37*
%TD*%
D10*
%TO.C,S1*%
X155000000Y-152500000D03*
D11*
X155000000Y-158000000D03*
X155000000Y-147000000D03*
D12*
X160950000Y-152500000D03*
D13*
X160950000Y-149225000D03*
D14*
X158750000Y-160775000D03*
D12*
X158750000Y-157500000D03*
X158750000Y-147500000D03*
D15*
X149100000Y-152500000D03*
X151200000Y-147500000D03*
X151200000Y-157500000D03*
%TD*%
D10*
%TO.C,S2*%
X172500000Y-147060000D03*
D11*
X178000000Y-147060000D03*
X167000000Y-147060000D03*
D12*
X172500000Y-141110000D03*
D16*
X169225000Y-141110000D03*
D17*
X180775000Y-143310000D03*
D12*
X177500000Y-143310000D03*
X167500000Y-143310000D03*
D15*
X172500000Y-152960000D03*
X167500000Y-150860000D03*
X177500000Y-150860000D03*
%TD*%
D10*
%TO.C,S3*%
X172500000Y-130060000D03*
D11*
X178000000Y-130060000D03*
X167000000Y-130060000D03*
D12*
X172500000Y-124110000D03*
D16*
X169225000Y-124110000D03*
D17*
X180775000Y-126310000D03*
D12*
X177500000Y-126310000D03*
X167500000Y-126310000D03*
D15*
X172500000Y-135960000D03*
X167500000Y-133860000D03*
X177500000Y-133860000D03*
%TD*%
D10*
%TO.C,S4*%
X190500000Y-147060000D03*
D11*
X196000000Y-147060000D03*
X185000000Y-147060000D03*
D12*
X190500000Y-141110000D03*
D16*
X187225000Y-141110000D03*
D17*
X198775000Y-143310000D03*
D12*
X195500000Y-143310000D03*
X185500000Y-143310000D03*
D15*
X190500000Y-152960000D03*
X185500000Y-150860000D03*
X195500000Y-150860000D03*
%TD*%
D10*
%TO.C,S5*%
X190500000Y-130060000D03*
D11*
X196000000Y-130060000D03*
X185000000Y-130060000D03*
D12*
X190500000Y-124110000D03*
D16*
X187225000Y-124110000D03*
D17*
X198775000Y-126310000D03*
D12*
X195500000Y-126310000D03*
X185500000Y-126310000D03*
D15*
X190500000Y-135960000D03*
X185500000Y-133860000D03*
X195500000Y-133860000D03*
%TD*%
D10*
%TO.C,S6*%
X208500000Y-147060000D03*
D11*
X214000000Y-147060000D03*
X203000000Y-147060000D03*
D12*
X208500000Y-141110000D03*
D16*
X205225000Y-141110000D03*
D17*
X216775000Y-143310000D03*
D12*
X213500000Y-143310000D03*
X203500000Y-143310000D03*
D15*
X208500000Y-152960000D03*
X203500000Y-150860000D03*
X213500000Y-150860000D03*
%TD*%
D10*
%TO.C,S7*%
X208500000Y-130060000D03*
D11*
X214000000Y-130060000D03*
X203000000Y-130060000D03*
D12*
X208500000Y-124110000D03*
D16*
X205225000Y-124110000D03*
D17*
X216775000Y-126310000D03*
D12*
X213500000Y-126310000D03*
X203500000Y-126310000D03*
D15*
X208500000Y-135960000D03*
X203500000Y-133860000D03*
X213500000Y-133860000D03*
%TD*%
D10*
%TO.C,S8*%
X227000000Y-169500000D03*
D11*
X232500000Y-169500000D03*
X221500000Y-169500000D03*
D12*
X227000000Y-163550000D03*
D16*
X223725000Y-163550000D03*
D17*
X235275000Y-165750000D03*
D12*
X232000000Y-165750000D03*
X222000000Y-165750000D03*
D15*
X227000000Y-175400000D03*
X222000000Y-173300000D03*
X232000000Y-173300000D03*
%TD*%
D10*
%TO.C,S9*%
X245000000Y-169500000D03*
D11*
X250500000Y-169500000D03*
X239500000Y-169500000D03*
D12*
X245000000Y-163550000D03*
D16*
X241725000Y-163550000D03*
D17*
X253275000Y-165750000D03*
D12*
X250000000Y-165750000D03*
X240000000Y-165750000D03*
D15*
X245000000Y-175400000D03*
X240000000Y-173300000D03*
X250000000Y-173300000D03*
%TD*%
D18*
%TO.C,MCU1*%
X227880000Y-124860000D03*
X243120000Y-124860000D03*
D19*
X232238000Y-124860000D03*
X238762000Y-124860000D03*
D20*
X230000000Y-124860000D03*
D21*
X230725000Y-124860000D03*
D22*
X240275000Y-124860000D03*
D23*
X241000000Y-124860000D03*
D18*
X227880000Y-127400000D03*
X243120000Y-127400000D03*
D19*
X232238000Y-127400000D03*
X238762000Y-127400000D03*
D20*
X230000000Y-127400000D03*
D21*
X230725000Y-127400000D03*
D22*
X240275000Y-127400000D03*
D23*
X241000000Y-127400000D03*
D18*
X227880000Y-129940000D03*
X243120000Y-129940000D03*
D19*
X232238000Y-129940000D03*
X238762000Y-129940000D03*
D20*
X230000000Y-129940000D03*
D21*
X230725000Y-129940000D03*
D22*
X240275000Y-129940000D03*
D23*
X241000000Y-129940000D03*
D18*
X227880000Y-132480000D03*
X243120000Y-132480000D03*
D19*
X232238000Y-132480000D03*
X238762000Y-132480000D03*
D20*
X230000000Y-132480000D03*
D21*
X230725000Y-132480000D03*
D22*
X240275000Y-132480000D03*
D23*
X241000000Y-132480000D03*
D18*
X227880000Y-135020000D03*
X243120000Y-135020000D03*
D19*
X232238000Y-135020000D03*
X238762000Y-135020000D03*
D20*
X230000000Y-135020000D03*
D21*
X230725000Y-135020000D03*
D22*
X240275000Y-135020000D03*
D23*
X241000000Y-135020000D03*
D18*
X227880000Y-137560000D03*
X243120000Y-137560000D03*
D19*
X232238000Y-137560000D03*
X238762000Y-137560000D03*
D20*
X230000000Y-137560000D03*
D21*
X230725000Y-137560000D03*
D22*
X240275000Y-137560000D03*
D23*
X241000000Y-137560000D03*
D18*
X227880000Y-140100000D03*
X243120000Y-140100000D03*
D19*
X232238000Y-140100000D03*
X238762000Y-140100000D03*
D20*
X230000000Y-140100000D03*
D21*
X230725000Y-140100000D03*
D22*
X240275000Y-140100000D03*
D23*
X241000000Y-140100000D03*
D18*
X227880000Y-142640000D03*
X243120000Y-142640000D03*
D19*
X232238000Y-142640000D03*
X238762000Y-142640000D03*
D20*
X230000000Y-142640000D03*
D21*
X230725000Y-142640000D03*
D22*
X240275000Y-142640000D03*
D23*
X241000000Y-142640000D03*
D18*
X227880000Y-145180000D03*
X243120000Y-145180000D03*
D19*
X232238000Y-145180000D03*
X238762000Y-145180000D03*
D20*
X230000000Y-145180000D03*
D21*
X230725000Y-145180000D03*
D22*
X240275000Y-145180000D03*
D23*
X241000000Y-145180000D03*
D18*
X227880000Y-147720000D03*
X243120000Y-147720000D03*
D19*
X232238000Y-147720000D03*
X238762000Y-147720000D03*
D20*
X230000000Y-147720000D03*
D21*
X230725000Y-147720000D03*
D22*
X240275000Y-147720000D03*
D23*
X241000000Y-147720000D03*
D18*
X227880000Y-150260000D03*
X243120000Y-150260000D03*
D19*
X232238000Y-150260000D03*
X238762000Y-150260000D03*
D20*
X230000000Y-150260000D03*
D21*
X230725000Y-150260000D03*
D22*
X240275000Y-150260000D03*
D23*
X241000000Y-150260000D03*
D18*
X227880000Y-152800000D03*
X243120000Y-152800000D03*
D19*
X232238000Y-152800000D03*
X238762000Y-152800000D03*
D20*
X230000000Y-152800000D03*
D21*
X230725000Y-152800000D03*
D22*
X240275000Y-152800000D03*
D23*
X241000000Y-152800000D03*
%TD*%
D24*
%TO.C,SW1*%
X250415000Y-124410000D03*
X252625000Y-124410000D03*
D25*
X249765000Y-130310000D03*
D24*
X250415000Y-131710000D03*
D25*
X249765000Y-128810000D03*
X249765000Y-125810000D03*
D24*
X252625000Y-131710000D03*
D26*
X251525000Y-126560000D03*
X251525000Y-129560000D03*
%TD*%
D27*
%TO.C,S10*%
X251500000Y-141760000D03*
X251500000Y-138360000D03*
%TD*%
D28*
%TO.C,BAT*%
X225000000Y-157060000D03*
X225000000Y-155060000D03*
%TD*%
D29*
%TO.C,H1*%
X199500000Y-138560000D03*
%TD*%
%TO.C,H2*%
X181500000Y-138560000D03*
%TD*%
%TO.C,H3*%
X165500000Y-158060000D03*
%TD*%
%TO.C,H4*%
X220000000Y-158060000D03*
%TD*%
D30*
%TO.C,DISP1*%
X240580000Y-154510000D03*
X238040000Y-154510000D03*
X232960000Y-154510000D03*
X230420000Y-154510000D03*
X240580000Y-155410000D03*
X238040000Y-155410000D03*
X232960000Y-155410000D03*
X230420000Y-155410000D03*
D31*
X230420000Y-157760000D03*
X232960000Y-157760000D03*
X235500000Y-157760000D03*
X238040000Y-157760000D03*
D18*
X240580000Y-157760000D03*
%TD*%
M02*
