M48
; DRILL file {KiCad 7.0.9} date Thu Mar  7 17:23:42 2024
; FORMAT={-:-/ absolute / inch / decimal}
; #@! TF.CreationDate,2024-03-07T17:23:42+01:00
; #@! TF.GenerationSoftware,Kicad,Pcbnew,7.0.9
; #@! TF.FileFunction,Plated,1,2,PTH
FMAT,2
INCH
; #@! TA.AperFunction,Plated,PTH,ComponentDrill
T1C0.0118
; #@! TA.AperFunction,Plated,PTH,ViaDrill
T2C0.0157
; #@! TA.AperFunction,Plated,PTH,ComponentDrill
T3C0.0157
; #@! TA.AperFunction,Plated,PTH,ComponentDrill
T4C0.0276
; #@! TA.AperFunction,Plated,PTH,ComponentDrill
T5C0.0394
; #@! TA.AperFunction,Plated,PTH,ComponentDrill
T6C0.0500
; #@! TA.AperFunction,Plated,PTH,ComponentDrill
T7C0.0866
%
G90
G05
T1
X6.7913Y-5.0142
X7.5Y-5.0142
X8.2087Y-5.0142
T2
X9.0232Y-6.1174
X9.0236Y-6.0754
X9.1952Y-6.2985
X9.2932Y-6.0828
X9.3218Y-6.1715
X9.5869Y-6.1113
X9.7799Y-5.0684
X9.8299Y-5.4472
X9.8588Y-5.4891
T3
X9.1432Y-4.9157
X9.1432Y-5.0157
X9.1432Y-5.1157
X9.1432Y-5.2157
X9.1432Y-5.3157
X9.1432Y-5.4157
X9.1432Y-5.5157
X9.1432Y-5.6157
X9.1432Y-5.7157
X9.1432Y-5.8157
X9.1432Y-5.9157
X9.1432Y-6.0157
X9.4001Y-4.9157
X9.4001Y-5.0157
X9.4001Y-5.1157
X9.4001Y-5.2157
X9.4001Y-5.3157
X9.4001Y-5.4157
X9.4001Y-5.5157
X9.4001Y-5.6157
X9.4001Y-5.7157
X9.4001Y-5.8157
X9.4001Y-5.9157
X9.4001Y-6.0157
T4
X8.8583Y-6.1047
X8.8583Y-6.1835
T5
X8.9717Y-4.9157
X8.9717Y-5.0157
X8.9717Y-5.1157
X8.9717Y-5.2157
X8.9717Y-5.3157
X8.9717Y-5.4157
X8.9717Y-5.5157
X8.9717Y-5.6157
X8.9717Y-5.7157
X8.9717Y-5.8157
X8.9717Y-5.9157
X8.9717Y-6.0157
X9.0717Y-6.211
X9.1717Y-6.211
X9.2717Y-6.211
X9.3717Y-6.211
X9.4717Y-6.211
X9.5717Y-4.9157
X9.5717Y-5.0157
X9.5717Y-5.1157
X9.5717Y-5.2157
X9.5717Y-5.3157
X9.5717Y-5.4157
X9.5717Y-5.5157
X9.5717Y-5.6157
X9.5717Y-5.7157
X9.5717Y-5.8157
X9.5717Y-5.9157
X9.5717Y-6.0157
T6
X5.8701Y-6.0039
X5.9528Y-5.8071
X5.9528Y-6.2008
X6.5945Y-5.2701
X6.5945Y-5.9394
X6.7913Y-5.3528
X6.7913Y-6.022
X6.9882Y-5.2701
X6.9882Y-5.9394
X7.3031Y-5.2701
X7.3031Y-5.9394
X7.5Y-5.3528
X7.5Y-6.022
X7.6969Y-5.2701
X7.6969Y-5.9394
X8.0118Y-5.2701
X8.0118Y-5.9394
X8.2087Y-5.3528
X8.2087Y-6.022
X8.4055Y-5.2701
X8.4055Y-5.9394
X8.7402Y-6.8228
X8.937Y-6.9055
X9.1339Y-6.8228
X9.4488Y-6.8228
X9.6457Y-6.9055
X9.8425Y-6.8228
T7
X6.5157Y-6.2228
X7.1457Y-5.4551
X7.8543Y-5.4551
X8.6614Y-6.2228
T0
M30
