%TF.GenerationSoftware,KiCad,Pcbnew,7.0.9*%
%TF.CreationDate,2024-03-07T17:23:47+01:00*%
%TF.ProjectId,zenFlow,7a656e46-6c6f-4772-9e6b-696361645f70,1*%
%TF.SameCoordinates,Original*%
%TF.FileFunction,Legend,Top*%
%TF.FilePolarity,Positive*%
%FSLAX46Y46*%
G04 Gerber Fmt 4.6, Leading zero omitted, Abs format (unit mm)*
G04 Created by KiCad (PCBNEW 7.0.9) date 2024-03-07 17:23:47*
%MOMM*%
%LPD*%
G01*
G04 APERTURE LIST*
%ADD10C,0.150000*%
%ADD11C,0.120000*%
%ADD12C,1.000000*%
G04 APERTURE END LIST*
D10*
X203880951Y-137504819D02*
X203880951Y-138219104D01*
X203880951Y-138219104D02*
X203833332Y-138361961D01*
X203833332Y-138361961D02*
X203738094Y-138457200D01*
X203738094Y-138457200D02*
X203595237Y-138504819D01*
X203595237Y-138504819D02*
X203499999Y-138504819D01*
X204833332Y-138504819D02*
X204357142Y-138504819D01*
X204357142Y-138504819D02*
X204357142Y-137504819D01*
X205738094Y-138409580D02*
X205690475Y-138457200D01*
X205690475Y-138457200D02*
X205547618Y-138504819D01*
X205547618Y-138504819D02*
X205452380Y-138504819D01*
X205452380Y-138504819D02*
X205309523Y-138457200D01*
X205309523Y-138457200D02*
X205214285Y-138361961D01*
X205214285Y-138361961D02*
X205166666Y-138266723D01*
X205166666Y-138266723D02*
X205119047Y-138076247D01*
X205119047Y-138076247D02*
X205119047Y-137933390D01*
X205119047Y-137933390D02*
X205166666Y-137742914D01*
X205166666Y-137742914D02*
X205214285Y-137647676D01*
X205214285Y-137647676D02*
X205309523Y-137552438D01*
X205309523Y-137552438D02*
X205452380Y-137504819D01*
X205452380Y-137504819D02*
X205547618Y-137504819D01*
X205547618Y-137504819D02*
X205690475Y-137552438D01*
X205690475Y-137552438D02*
X205738094Y-137600057D01*
X206452380Y-137504819D02*
X206452380Y-138219104D01*
X206452380Y-138219104D02*
X206404761Y-138361961D01*
X206404761Y-138361961D02*
X206309523Y-138457200D01*
X206309523Y-138457200D02*
X206166666Y-138504819D01*
X206166666Y-138504819D02*
X206071428Y-138504819D01*
X207404761Y-138504819D02*
X206928571Y-138504819D01*
X206928571Y-138504819D02*
X206928571Y-137504819D01*
X208309523Y-138409580D02*
X208261904Y-138457200D01*
X208261904Y-138457200D02*
X208119047Y-138504819D01*
X208119047Y-138504819D02*
X208023809Y-138504819D01*
X208023809Y-138504819D02*
X207880952Y-138457200D01*
X207880952Y-138457200D02*
X207785714Y-138361961D01*
X207785714Y-138361961D02*
X207738095Y-138266723D01*
X207738095Y-138266723D02*
X207690476Y-138076247D01*
X207690476Y-138076247D02*
X207690476Y-137933390D01*
X207690476Y-137933390D02*
X207738095Y-137742914D01*
X207738095Y-137742914D02*
X207785714Y-137647676D01*
X207785714Y-137647676D02*
X207880952Y-137552438D01*
X207880952Y-137552438D02*
X208023809Y-137504819D01*
X208023809Y-137504819D02*
X208119047Y-137504819D01*
X208119047Y-137504819D02*
X208261904Y-137552438D01*
X208261904Y-137552438D02*
X208309523Y-137600057D01*
X209023809Y-137504819D02*
X209023809Y-138219104D01*
X209023809Y-138219104D02*
X208976190Y-138361961D01*
X208976190Y-138361961D02*
X208880952Y-138457200D01*
X208880952Y-138457200D02*
X208738095Y-138504819D01*
X208738095Y-138504819D02*
X208642857Y-138504819D01*
X209976190Y-138504819D02*
X209500000Y-138504819D01*
X209500000Y-138504819D02*
X209500000Y-137504819D01*
X210880952Y-138409580D02*
X210833333Y-138457200D01*
X210833333Y-138457200D02*
X210690476Y-138504819D01*
X210690476Y-138504819D02*
X210595238Y-138504819D01*
X210595238Y-138504819D02*
X210452381Y-138457200D01*
X210452381Y-138457200D02*
X210357143Y-138361961D01*
X210357143Y-138361961D02*
X210309524Y-138266723D01*
X210309524Y-138266723D02*
X210261905Y-138076247D01*
X210261905Y-138076247D02*
X210261905Y-137933390D01*
X210261905Y-137933390D02*
X210309524Y-137742914D01*
X210309524Y-137742914D02*
X210357143Y-137647676D01*
X210357143Y-137647676D02*
X210452381Y-137552438D01*
X210452381Y-137552438D02*
X210595238Y-137504819D01*
X210595238Y-137504819D02*
X210690476Y-137504819D01*
X210690476Y-137504819D02*
X210833333Y-137552438D01*
X210833333Y-137552438D02*
X210880952Y-137600057D01*
X211595238Y-137504819D02*
X211595238Y-138219104D01*
X211595238Y-138219104D02*
X211547619Y-138361961D01*
X211547619Y-138361961D02*
X211452381Y-138457200D01*
X211452381Y-138457200D02*
X211309524Y-138504819D01*
X211309524Y-138504819D02*
X211214286Y-138504819D01*
X212547619Y-138504819D02*
X212071429Y-138504819D01*
X212071429Y-138504819D02*
X212071429Y-137504819D01*
X213452381Y-138409580D02*
X213404762Y-138457200D01*
X213404762Y-138457200D02*
X213261905Y-138504819D01*
X213261905Y-138504819D02*
X213166667Y-138504819D01*
X213166667Y-138504819D02*
X213023810Y-138457200D01*
X213023810Y-138457200D02*
X212928572Y-138361961D01*
X212928572Y-138361961D02*
X212880953Y-138266723D01*
X212880953Y-138266723D02*
X212833334Y-138076247D01*
X212833334Y-138076247D02*
X212833334Y-137933390D01*
X212833334Y-137933390D02*
X212880953Y-137742914D01*
X212880953Y-137742914D02*
X212928572Y-137647676D01*
X212928572Y-137647676D02*
X213023810Y-137552438D01*
X213023810Y-137552438D02*
X213166667Y-137504819D01*
X213166667Y-137504819D02*
X213261905Y-137504819D01*
X213261905Y-137504819D02*
X213404762Y-137552438D01*
X213404762Y-137552438D02*
X213452381Y-137600057D01*
X233408207Y-125314819D02*
X233074874Y-124838628D01*
X232836779Y-125314819D02*
X232836779Y-124314819D01*
X232836779Y-124314819D02*
X233217731Y-124314819D01*
X233217731Y-124314819D02*
X233312969Y-124362438D01*
X233312969Y-124362438D02*
X233360588Y-124410057D01*
X233360588Y-124410057D02*
X233408207Y-124505295D01*
X233408207Y-124505295D02*
X233408207Y-124648152D01*
X233408207Y-124648152D02*
X233360588Y-124743390D01*
X233360588Y-124743390D02*
X233312969Y-124791009D01*
X233312969Y-124791009D02*
X233217731Y-124838628D01*
X233217731Y-124838628D02*
X232836779Y-124838628D01*
X233789160Y-125029104D02*
X234265350Y-125029104D01*
X233693922Y-125314819D02*
X234027255Y-124314819D01*
X234027255Y-124314819D02*
X234360588Y-125314819D01*
X234598684Y-124314819D02*
X234836779Y-125314819D01*
X234836779Y-125314819D02*
X235027255Y-124600533D01*
X235027255Y-124600533D02*
X235217731Y-125314819D01*
X235217731Y-125314819D02*
X235455827Y-124314819D01*
X236687030Y-125314819D02*
X236687030Y-124314819D01*
X236687030Y-124314819D02*
X237067982Y-124314819D01*
X237067982Y-124314819D02*
X237163220Y-124362438D01*
X237163220Y-124362438D02*
X237210839Y-124410057D01*
X237210839Y-124410057D02*
X237258458Y-124505295D01*
X237258458Y-124505295D02*
X237258458Y-124648152D01*
X237258458Y-124648152D02*
X237210839Y-124743390D01*
X237210839Y-124743390D02*
X237163220Y-124791009D01*
X237163220Y-124791009D02*
X237067982Y-124838628D01*
X237067982Y-124838628D02*
X236687030Y-124838628D01*
X238210839Y-125314819D02*
X237639411Y-125314819D01*
X237925125Y-125314819D02*
X237925125Y-124314819D01*
X237925125Y-124314819D02*
X237829887Y-124457676D01*
X237829887Y-124457676D02*
X237734649Y-124552914D01*
X237734649Y-124552914D02*
X237639411Y-124600533D01*
X233360588Y-126902438D02*
X233265350Y-126854819D01*
X233265350Y-126854819D02*
X233122493Y-126854819D01*
X233122493Y-126854819D02*
X232979636Y-126902438D01*
X232979636Y-126902438D02*
X232884398Y-126997676D01*
X232884398Y-126997676D02*
X232836779Y-127092914D01*
X232836779Y-127092914D02*
X232789160Y-127283390D01*
X232789160Y-127283390D02*
X232789160Y-127426247D01*
X232789160Y-127426247D02*
X232836779Y-127616723D01*
X232836779Y-127616723D02*
X232884398Y-127711961D01*
X232884398Y-127711961D02*
X232979636Y-127807200D01*
X232979636Y-127807200D02*
X233122493Y-127854819D01*
X233122493Y-127854819D02*
X233217731Y-127854819D01*
X233217731Y-127854819D02*
X233360588Y-127807200D01*
X233360588Y-127807200D02*
X233408207Y-127759580D01*
X233408207Y-127759580D02*
X233408207Y-127426247D01*
X233408207Y-127426247D02*
X233217731Y-127426247D01*
X233836779Y-127854819D02*
X233836779Y-126854819D01*
X233836779Y-126854819D02*
X234408207Y-127854819D01*
X234408207Y-127854819D02*
X234408207Y-126854819D01*
X234884398Y-127854819D02*
X234884398Y-126854819D01*
X234884398Y-126854819D02*
X235122493Y-126854819D01*
X235122493Y-126854819D02*
X235265350Y-126902438D01*
X235265350Y-126902438D02*
X235360588Y-126997676D01*
X235360588Y-126997676D02*
X235408207Y-127092914D01*
X235408207Y-127092914D02*
X235455826Y-127283390D01*
X235455826Y-127283390D02*
X235455826Y-127426247D01*
X235455826Y-127426247D02*
X235408207Y-127616723D01*
X235408207Y-127616723D02*
X235360588Y-127711961D01*
X235360588Y-127711961D02*
X235265350Y-127807200D01*
X235265350Y-127807200D02*
X235122493Y-127854819D01*
X235122493Y-127854819D02*
X234884398Y-127854819D01*
X236687030Y-127854819D02*
X236687030Y-126854819D01*
X236687030Y-126854819D02*
X237067982Y-126854819D01*
X237067982Y-126854819D02*
X237163220Y-126902438D01*
X237163220Y-126902438D02*
X237210839Y-126950057D01*
X237210839Y-126950057D02*
X237258458Y-127045295D01*
X237258458Y-127045295D02*
X237258458Y-127188152D01*
X237258458Y-127188152D02*
X237210839Y-127283390D01*
X237210839Y-127283390D02*
X237163220Y-127331009D01*
X237163220Y-127331009D02*
X237067982Y-127378628D01*
X237067982Y-127378628D02*
X236687030Y-127378628D01*
X237877506Y-126854819D02*
X237972744Y-126854819D01*
X237972744Y-126854819D02*
X238067982Y-126902438D01*
X238067982Y-126902438D02*
X238115601Y-126950057D01*
X238115601Y-126950057D02*
X238163220Y-127045295D01*
X238163220Y-127045295D02*
X238210839Y-127235771D01*
X238210839Y-127235771D02*
X238210839Y-127473866D01*
X238210839Y-127473866D02*
X238163220Y-127664342D01*
X238163220Y-127664342D02*
X238115601Y-127759580D01*
X238115601Y-127759580D02*
X238067982Y-127807200D01*
X238067982Y-127807200D02*
X237972744Y-127854819D01*
X237972744Y-127854819D02*
X237877506Y-127854819D01*
X237877506Y-127854819D02*
X237782268Y-127807200D01*
X237782268Y-127807200D02*
X237734649Y-127759580D01*
X237734649Y-127759580D02*
X237687030Y-127664342D01*
X237687030Y-127664342D02*
X237639411Y-127473866D01*
X237639411Y-127473866D02*
X237639411Y-127235771D01*
X237639411Y-127235771D02*
X237687030Y-127045295D01*
X237687030Y-127045295D02*
X237734649Y-126950057D01*
X237734649Y-126950057D02*
X237782268Y-126902438D01*
X237782268Y-126902438D02*
X237877506Y-126854819D01*
X233408207Y-130394819D02*
X233074874Y-129918628D01*
X232836779Y-130394819D02*
X232836779Y-129394819D01*
X232836779Y-129394819D02*
X233217731Y-129394819D01*
X233217731Y-129394819D02*
X233312969Y-129442438D01*
X233312969Y-129442438D02*
X233360588Y-129490057D01*
X233360588Y-129490057D02*
X233408207Y-129585295D01*
X233408207Y-129585295D02*
X233408207Y-129728152D01*
X233408207Y-129728152D02*
X233360588Y-129823390D01*
X233360588Y-129823390D02*
X233312969Y-129871009D01*
X233312969Y-129871009D02*
X233217731Y-129918628D01*
X233217731Y-129918628D02*
X232836779Y-129918628D01*
X233789160Y-130347200D02*
X233932017Y-130394819D01*
X233932017Y-130394819D02*
X234170112Y-130394819D01*
X234170112Y-130394819D02*
X234265350Y-130347200D01*
X234265350Y-130347200D02*
X234312969Y-130299580D01*
X234312969Y-130299580D02*
X234360588Y-130204342D01*
X234360588Y-130204342D02*
X234360588Y-130109104D01*
X234360588Y-130109104D02*
X234312969Y-130013866D01*
X234312969Y-130013866D02*
X234265350Y-129966247D01*
X234265350Y-129966247D02*
X234170112Y-129918628D01*
X234170112Y-129918628D02*
X233979636Y-129871009D01*
X233979636Y-129871009D02*
X233884398Y-129823390D01*
X233884398Y-129823390D02*
X233836779Y-129775771D01*
X233836779Y-129775771D02*
X233789160Y-129680533D01*
X233789160Y-129680533D02*
X233789160Y-129585295D01*
X233789160Y-129585295D02*
X233836779Y-129490057D01*
X233836779Y-129490057D02*
X233884398Y-129442438D01*
X233884398Y-129442438D02*
X233979636Y-129394819D01*
X233979636Y-129394819D02*
X234217731Y-129394819D01*
X234217731Y-129394819D02*
X234360588Y-129442438D01*
X234646303Y-129394819D02*
X235217731Y-129394819D01*
X234932017Y-130394819D02*
X234932017Y-129394819D01*
X236115601Y-129442438D02*
X236020363Y-129394819D01*
X236020363Y-129394819D02*
X235877506Y-129394819D01*
X235877506Y-129394819D02*
X235734649Y-129442438D01*
X235734649Y-129442438D02*
X235639411Y-129537676D01*
X235639411Y-129537676D02*
X235591792Y-129632914D01*
X235591792Y-129632914D02*
X235544173Y-129823390D01*
X235544173Y-129823390D02*
X235544173Y-129966247D01*
X235544173Y-129966247D02*
X235591792Y-130156723D01*
X235591792Y-130156723D02*
X235639411Y-130251961D01*
X235639411Y-130251961D02*
X235734649Y-130347200D01*
X235734649Y-130347200D02*
X235877506Y-130394819D01*
X235877506Y-130394819D02*
X235972744Y-130394819D01*
X235972744Y-130394819D02*
X236115601Y-130347200D01*
X236115601Y-130347200D02*
X236163220Y-130299580D01*
X236163220Y-130299580D02*
X236163220Y-129966247D01*
X236163220Y-129966247D02*
X235972744Y-129966247D01*
X236591792Y-130394819D02*
X236591792Y-129394819D01*
X236591792Y-129394819D02*
X237163220Y-130394819D01*
X237163220Y-130394819D02*
X237163220Y-129394819D01*
X237639411Y-130394819D02*
X237639411Y-129394819D01*
X237639411Y-129394819D02*
X237877506Y-129394819D01*
X237877506Y-129394819D02*
X238020363Y-129442438D01*
X238020363Y-129442438D02*
X238115601Y-129537676D01*
X238115601Y-129537676D02*
X238163220Y-129632914D01*
X238163220Y-129632914D02*
X238210839Y-129823390D01*
X238210839Y-129823390D02*
X238210839Y-129966247D01*
X238210839Y-129966247D02*
X238163220Y-130156723D01*
X238163220Y-130156723D02*
X238115601Y-130251961D01*
X238115601Y-130251961D02*
X238020363Y-130347200D01*
X238020363Y-130347200D02*
X237877506Y-130394819D01*
X237877506Y-130394819D02*
X237639411Y-130394819D01*
X232693922Y-131934819D02*
X233027255Y-132934819D01*
X233027255Y-132934819D02*
X233360588Y-131934819D01*
X234265350Y-132839580D02*
X234217731Y-132887200D01*
X234217731Y-132887200D02*
X234074874Y-132934819D01*
X234074874Y-132934819D02*
X233979636Y-132934819D01*
X233979636Y-132934819D02*
X233836779Y-132887200D01*
X233836779Y-132887200D02*
X233741541Y-132791961D01*
X233741541Y-132791961D02*
X233693922Y-132696723D01*
X233693922Y-132696723D02*
X233646303Y-132506247D01*
X233646303Y-132506247D02*
X233646303Y-132363390D01*
X233646303Y-132363390D02*
X233693922Y-132172914D01*
X233693922Y-132172914D02*
X233741541Y-132077676D01*
X233741541Y-132077676D02*
X233836779Y-131982438D01*
X233836779Y-131982438D02*
X233979636Y-131934819D01*
X233979636Y-131934819D02*
X234074874Y-131934819D01*
X234074874Y-131934819D02*
X234217731Y-131982438D01*
X234217731Y-131982438D02*
X234265350Y-132030057D01*
X235265350Y-132839580D02*
X235217731Y-132887200D01*
X235217731Y-132887200D02*
X235074874Y-132934819D01*
X235074874Y-132934819D02*
X234979636Y-132934819D01*
X234979636Y-132934819D02*
X234836779Y-132887200D01*
X234836779Y-132887200D02*
X234741541Y-132791961D01*
X234741541Y-132791961D02*
X234693922Y-132696723D01*
X234693922Y-132696723D02*
X234646303Y-132506247D01*
X234646303Y-132506247D02*
X234646303Y-132363390D01*
X234646303Y-132363390D02*
X234693922Y-132172914D01*
X234693922Y-132172914D02*
X234741541Y-132077676D01*
X234741541Y-132077676D02*
X234836779Y-131982438D01*
X234836779Y-131982438D02*
X234979636Y-131934819D01*
X234979636Y-131934819D02*
X235074874Y-131934819D01*
X235074874Y-131934819D02*
X235217731Y-131982438D01*
X235217731Y-131982438D02*
X235265350Y-132030057D01*
X236115601Y-131982438D02*
X236020363Y-131934819D01*
X236020363Y-131934819D02*
X235877506Y-131934819D01*
X235877506Y-131934819D02*
X235734649Y-131982438D01*
X235734649Y-131982438D02*
X235639411Y-132077676D01*
X235639411Y-132077676D02*
X235591792Y-132172914D01*
X235591792Y-132172914D02*
X235544173Y-132363390D01*
X235544173Y-132363390D02*
X235544173Y-132506247D01*
X235544173Y-132506247D02*
X235591792Y-132696723D01*
X235591792Y-132696723D02*
X235639411Y-132791961D01*
X235639411Y-132791961D02*
X235734649Y-132887200D01*
X235734649Y-132887200D02*
X235877506Y-132934819D01*
X235877506Y-132934819D02*
X235972744Y-132934819D01*
X235972744Y-132934819D02*
X236115601Y-132887200D01*
X236115601Y-132887200D02*
X236163220Y-132839580D01*
X236163220Y-132839580D02*
X236163220Y-132506247D01*
X236163220Y-132506247D02*
X235972744Y-132506247D01*
X236591792Y-132934819D02*
X236591792Y-131934819D01*
X236591792Y-131934819D02*
X237163220Y-132934819D01*
X237163220Y-132934819D02*
X237163220Y-131934819D01*
X237639411Y-132934819D02*
X237639411Y-131934819D01*
X237639411Y-131934819D02*
X237877506Y-131934819D01*
X237877506Y-131934819D02*
X238020363Y-131982438D01*
X238020363Y-131982438D02*
X238115601Y-132077676D01*
X238115601Y-132077676D02*
X238163220Y-132172914D01*
X238163220Y-132172914D02*
X238210839Y-132363390D01*
X238210839Y-132363390D02*
X238210839Y-132506247D01*
X238210839Y-132506247D02*
X238163220Y-132696723D01*
X238163220Y-132696723D02*
X238115601Y-132791961D01*
X238115601Y-132791961D02*
X238020363Y-132887200D01*
X238020363Y-132887200D02*
X237877506Y-132934819D01*
X237877506Y-132934819D02*
X237639411Y-132934819D01*
X232836779Y-135474819D02*
X232836779Y-134474819D01*
X232836779Y-134474819D02*
X233217731Y-134474819D01*
X233217731Y-134474819D02*
X233312969Y-134522438D01*
X233312969Y-134522438D02*
X233360588Y-134570057D01*
X233360588Y-134570057D02*
X233408207Y-134665295D01*
X233408207Y-134665295D02*
X233408207Y-134808152D01*
X233408207Y-134808152D02*
X233360588Y-134903390D01*
X233360588Y-134903390D02*
X233312969Y-134951009D01*
X233312969Y-134951009D02*
X233217731Y-134998628D01*
X233217731Y-134998628D02*
X232836779Y-134998628D01*
X233789160Y-134570057D02*
X233836779Y-134522438D01*
X233836779Y-134522438D02*
X233932017Y-134474819D01*
X233932017Y-134474819D02*
X234170112Y-134474819D01*
X234170112Y-134474819D02*
X234265350Y-134522438D01*
X234265350Y-134522438D02*
X234312969Y-134570057D01*
X234312969Y-134570057D02*
X234360588Y-134665295D01*
X234360588Y-134665295D02*
X234360588Y-134760533D01*
X234360588Y-134760533D02*
X234312969Y-134903390D01*
X234312969Y-134903390D02*
X233741541Y-135474819D01*
X233741541Y-135474819D02*
X234360588Y-135474819D01*
X235312969Y-135474819D02*
X234741541Y-135474819D01*
X235027255Y-135474819D02*
X235027255Y-134474819D01*
X235027255Y-134474819D02*
X234932017Y-134617676D01*
X234932017Y-134617676D02*
X234836779Y-134712914D01*
X234836779Y-134712914D02*
X234741541Y-134760533D01*
X236687030Y-135474819D02*
X236687030Y-134474819D01*
X236687030Y-134474819D02*
X237067982Y-134474819D01*
X237067982Y-134474819D02*
X237163220Y-134522438D01*
X237163220Y-134522438D02*
X237210839Y-134570057D01*
X237210839Y-134570057D02*
X237258458Y-134665295D01*
X237258458Y-134665295D02*
X237258458Y-134808152D01*
X237258458Y-134808152D02*
X237210839Y-134903390D01*
X237210839Y-134903390D02*
X237163220Y-134951009D01*
X237163220Y-134951009D02*
X237067982Y-134998628D01*
X237067982Y-134998628D02*
X236687030Y-134998628D01*
X237639411Y-134570057D02*
X237687030Y-134522438D01*
X237687030Y-134522438D02*
X237782268Y-134474819D01*
X237782268Y-134474819D02*
X238020363Y-134474819D01*
X238020363Y-134474819D02*
X238115601Y-134522438D01*
X238115601Y-134522438D02*
X238163220Y-134570057D01*
X238163220Y-134570057D02*
X238210839Y-134665295D01*
X238210839Y-134665295D02*
X238210839Y-134760533D01*
X238210839Y-134760533D02*
X238163220Y-134903390D01*
X238163220Y-134903390D02*
X237591792Y-135474819D01*
X237591792Y-135474819D02*
X238210839Y-135474819D01*
X232836779Y-138014819D02*
X232836779Y-137014819D01*
X232836779Y-137014819D02*
X233217731Y-137014819D01*
X233217731Y-137014819D02*
X233312969Y-137062438D01*
X233312969Y-137062438D02*
X233360588Y-137110057D01*
X233360588Y-137110057D02*
X233408207Y-137205295D01*
X233408207Y-137205295D02*
X233408207Y-137348152D01*
X233408207Y-137348152D02*
X233360588Y-137443390D01*
X233360588Y-137443390D02*
X233312969Y-137491009D01*
X233312969Y-137491009D02*
X233217731Y-137538628D01*
X233217731Y-137538628D02*
X232836779Y-137538628D01*
X233789160Y-137110057D02*
X233836779Y-137062438D01*
X233836779Y-137062438D02*
X233932017Y-137014819D01*
X233932017Y-137014819D02*
X234170112Y-137014819D01*
X234170112Y-137014819D02*
X234265350Y-137062438D01*
X234265350Y-137062438D02*
X234312969Y-137110057D01*
X234312969Y-137110057D02*
X234360588Y-137205295D01*
X234360588Y-137205295D02*
X234360588Y-137300533D01*
X234360588Y-137300533D02*
X234312969Y-137443390D01*
X234312969Y-137443390D02*
X233741541Y-138014819D01*
X233741541Y-138014819D02*
X234360588Y-138014819D01*
X234979636Y-137014819D02*
X235074874Y-137014819D01*
X235074874Y-137014819D02*
X235170112Y-137062438D01*
X235170112Y-137062438D02*
X235217731Y-137110057D01*
X235217731Y-137110057D02*
X235265350Y-137205295D01*
X235265350Y-137205295D02*
X235312969Y-137395771D01*
X235312969Y-137395771D02*
X235312969Y-137633866D01*
X235312969Y-137633866D02*
X235265350Y-137824342D01*
X235265350Y-137824342D02*
X235217731Y-137919580D01*
X235217731Y-137919580D02*
X235170112Y-137967200D01*
X235170112Y-137967200D02*
X235074874Y-138014819D01*
X235074874Y-138014819D02*
X234979636Y-138014819D01*
X234979636Y-138014819D02*
X234884398Y-137967200D01*
X234884398Y-137967200D02*
X234836779Y-137919580D01*
X234836779Y-137919580D02*
X234789160Y-137824342D01*
X234789160Y-137824342D02*
X234741541Y-137633866D01*
X234741541Y-137633866D02*
X234741541Y-137395771D01*
X234741541Y-137395771D02*
X234789160Y-137205295D01*
X234789160Y-137205295D02*
X234836779Y-137110057D01*
X234836779Y-137110057D02*
X234884398Y-137062438D01*
X234884398Y-137062438D02*
X234979636Y-137014819D01*
X236687030Y-138014819D02*
X236687030Y-137014819D01*
X236687030Y-137014819D02*
X237067982Y-137014819D01*
X237067982Y-137014819D02*
X237163220Y-137062438D01*
X237163220Y-137062438D02*
X237210839Y-137110057D01*
X237210839Y-137110057D02*
X237258458Y-137205295D01*
X237258458Y-137205295D02*
X237258458Y-137348152D01*
X237258458Y-137348152D02*
X237210839Y-137443390D01*
X237210839Y-137443390D02*
X237163220Y-137491009D01*
X237163220Y-137491009D02*
X237067982Y-137538628D01*
X237067982Y-137538628D02*
X236687030Y-137538628D01*
X237591792Y-137014819D02*
X238210839Y-137014819D01*
X238210839Y-137014819D02*
X237877506Y-137395771D01*
X237877506Y-137395771D02*
X238020363Y-137395771D01*
X238020363Y-137395771D02*
X238115601Y-137443390D01*
X238115601Y-137443390D02*
X238163220Y-137491009D01*
X238163220Y-137491009D02*
X238210839Y-137586247D01*
X238210839Y-137586247D02*
X238210839Y-137824342D01*
X238210839Y-137824342D02*
X238163220Y-137919580D01*
X238163220Y-137919580D02*
X238115601Y-137967200D01*
X238115601Y-137967200D02*
X238020363Y-138014819D01*
X238020363Y-138014819D02*
X237734649Y-138014819D01*
X237734649Y-138014819D02*
X237639411Y-137967200D01*
X237639411Y-137967200D02*
X237591792Y-137919580D01*
X232836779Y-140554819D02*
X232836779Y-139554819D01*
X232836779Y-139554819D02*
X233217731Y-139554819D01*
X233217731Y-139554819D02*
X233312969Y-139602438D01*
X233312969Y-139602438D02*
X233360588Y-139650057D01*
X233360588Y-139650057D02*
X233408207Y-139745295D01*
X233408207Y-139745295D02*
X233408207Y-139888152D01*
X233408207Y-139888152D02*
X233360588Y-139983390D01*
X233360588Y-139983390D02*
X233312969Y-140031009D01*
X233312969Y-140031009D02*
X233217731Y-140078628D01*
X233217731Y-140078628D02*
X232836779Y-140078628D01*
X234360588Y-140554819D02*
X233789160Y-140554819D01*
X234074874Y-140554819D02*
X234074874Y-139554819D01*
X234074874Y-139554819D02*
X233979636Y-139697676D01*
X233979636Y-139697676D02*
X233884398Y-139792914D01*
X233884398Y-139792914D02*
X233789160Y-139840533D01*
X234836779Y-140554819D02*
X235027255Y-140554819D01*
X235027255Y-140554819D02*
X235122493Y-140507200D01*
X235122493Y-140507200D02*
X235170112Y-140459580D01*
X235170112Y-140459580D02*
X235265350Y-140316723D01*
X235265350Y-140316723D02*
X235312969Y-140126247D01*
X235312969Y-140126247D02*
X235312969Y-139745295D01*
X235312969Y-139745295D02*
X235265350Y-139650057D01*
X235265350Y-139650057D02*
X235217731Y-139602438D01*
X235217731Y-139602438D02*
X235122493Y-139554819D01*
X235122493Y-139554819D02*
X234932017Y-139554819D01*
X234932017Y-139554819D02*
X234836779Y-139602438D01*
X234836779Y-139602438D02*
X234789160Y-139650057D01*
X234789160Y-139650057D02*
X234741541Y-139745295D01*
X234741541Y-139745295D02*
X234741541Y-139983390D01*
X234741541Y-139983390D02*
X234789160Y-140078628D01*
X234789160Y-140078628D02*
X234836779Y-140126247D01*
X234836779Y-140126247D02*
X234932017Y-140173866D01*
X234932017Y-140173866D02*
X235122493Y-140173866D01*
X235122493Y-140173866D02*
X235217731Y-140126247D01*
X235217731Y-140126247D02*
X235265350Y-140078628D01*
X235265350Y-140078628D02*
X235312969Y-139983390D01*
X236687030Y-140554819D02*
X236687030Y-139554819D01*
X236687030Y-139554819D02*
X237067982Y-139554819D01*
X237067982Y-139554819D02*
X237163220Y-139602438D01*
X237163220Y-139602438D02*
X237210839Y-139650057D01*
X237210839Y-139650057D02*
X237258458Y-139745295D01*
X237258458Y-139745295D02*
X237258458Y-139888152D01*
X237258458Y-139888152D02*
X237210839Y-139983390D01*
X237210839Y-139983390D02*
X237163220Y-140031009D01*
X237163220Y-140031009D02*
X237067982Y-140078628D01*
X237067982Y-140078628D02*
X236687030Y-140078628D01*
X238115601Y-139888152D02*
X238115601Y-140554819D01*
X237877506Y-139507200D02*
X237639411Y-140221485D01*
X237639411Y-140221485D02*
X238258458Y-140221485D01*
X232836779Y-143094819D02*
X232836779Y-142094819D01*
X232836779Y-142094819D02*
X233217731Y-142094819D01*
X233217731Y-142094819D02*
X233312969Y-142142438D01*
X233312969Y-142142438D02*
X233360588Y-142190057D01*
X233360588Y-142190057D02*
X233408207Y-142285295D01*
X233408207Y-142285295D02*
X233408207Y-142428152D01*
X233408207Y-142428152D02*
X233360588Y-142523390D01*
X233360588Y-142523390D02*
X233312969Y-142571009D01*
X233312969Y-142571009D02*
X233217731Y-142618628D01*
X233217731Y-142618628D02*
X232836779Y-142618628D01*
X234360588Y-143094819D02*
X233789160Y-143094819D01*
X234074874Y-143094819D02*
X234074874Y-142094819D01*
X234074874Y-142094819D02*
X233979636Y-142237676D01*
X233979636Y-142237676D02*
X233884398Y-142332914D01*
X233884398Y-142332914D02*
X233789160Y-142380533D01*
X234932017Y-142523390D02*
X234836779Y-142475771D01*
X234836779Y-142475771D02*
X234789160Y-142428152D01*
X234789160Y-142428152D02*
X234741541Y-142332914D01*
X234741541Y-142332914D02*
X234741541Y-142285295D01*
X234741541Y-142285295D02*
X234789160Y-142190057D01*
X234789160Y-142190057D02*
X234836779Y-142142438D01*
X234836779Y-142142438D02*
X234932017Y-142094819D01*
X234932017Y-142094819D02*
X235122493Y-142094819D01*
X235122493Y-142094819D02*
X235217731Y-142142438D01*
X235217731Y-142142438D02*
X235265350Y-142190057D01*
X235265350Y-142190057D02*
X235312969Y-142285295D01*
X235312969Y-142285295D02*
X235312969Y-142332914D01*
X235312969Y-142332914D02*
X235265350Y-142428152D01*
X235265350Y-142428152D02*
X235217731Y-142475771D01*
X235217731Y-142475771D02*
X235122493Y-142523390D01*
X235122493Y-142523390D02*
X234932017Y-142523390D01*
X234932017Y-142523390D02*
X234836779Y-142571009D01*
X234836779Y-142571009D02*
X234789160Y-142618628D01*
X234789160Y-142618628D02*
X234741541Y-142713866D01*
X234741541Y-142713866D02*
X234741541Y-142904342D01*
X234741541Y-142904342D02*
X234789160Y-142999580D01*
X234789160Y-142999580D02*
X234836779Y-143047200D01*
X234836779Y-143047200D02*
X234932017Y-143094819D01*
X234932017Y-143094819D02*
X235122493Y-143094819D01*
X235122493Y-143094819D02*
X235217731Y-143047200D01*
X235217731Y-143047200D02*
X235265350Y-142999580D01*
X235265350Y-142999580D02*
X235312969Y-142904342D01*
X235312969Y-142904342D02*
X235312969Y-142713866D01*
X235312969Y-142713866D02*
X235265350Y-142618628D01*
X235265350Y-142618628D02*
X235217731Y-142571009D01*
X235217731Y-142571009D02*
X235122493Y-142523390D01*
X236687030Y-143094819D02*
X236687030Y-142094819D01*
X236687030Y-142094819D02*
X237067982Y-142094819D01*
X237067982Y-142094819D02*
X237163220Y-142142438D01*
X237163220Y-142142438D02*
X237210839Y-142190057D01*
X237210839Y-142190057D02*
X237258458Y-142285295D01*
X237258458Y-142285295D02*
X237258458Y-142428152D01*
X237258458Y-142428152D02*
X237210839Y-142523390D01*
X237210839Y-142523390D02*
X237163220Y-142571009D01*
X237163220Y-142571009D02*
X237067982Y-142618628D01*
X237067982Y-142618628D02*
X236687030Y-142618628D01*
X238163220Y-142094819D02*
X237687030Y-142094819D01*
X237687030Y-142094819D02*
X237639411Y-142571009D01*
X237639411Y-142571009D02*
X237687030Y-142523390D01*
X237687030Y-142523390D02*
X237782268Y-142475771D01*
X237782268Y-142475771D02*
X238020363Y-142475771D01*
X238020363Y-142475771D02*
X238115601Y-142523390D01*
X238115601Y-142523390D02*
X238163220Y-142571009D01*
X238163220Y-142571009D02*
X238210839Y-142666247D01*
X238210839Y-142666247D02*
X238210839Y-142904342D01*
X238210839Y-142904342D02*
X238163220Y-142999580D01*
X238163220Y-142999580D02*
X238115601Y-143047200D01*
X238115601Y-143047200D02*
X238020363Y-143094819D01*
X238020363Y-143094819D02*
X237782268Y-143094819D01*
X237782268Y-143094819D02*
X237687030Y-143047200D01*
X237687030Y-143047200D02*
X237639411Y-142999580D01*
X232836779Y-145634819D02*
X232836779Y-144634819D01*
X232836779Y-144634819D02*
X233217731Y-144634819D01*
X233217731Y-144634819D02*
X233312969Y-144682438D01*
X233312969Y-144682438D02*
X233360588Y-144730057D01*
X233360588Y-144730057D02*
X233408207Y-144825295D01*
X233408207Y-144825295D02*
X233408207Y-144968152D01*
X233408207Y-144968152D02*
X233360588Y-145063390D01*
X233360588Y-145063390D02*
X233312969Y-145111009D01*
X233312969Y-145111009D02*
X233217731Y-145158628D01*
X233217731Y-145158628D02*
X232836779Y-145158628D01*
X234360588Y-145634819D02*
X233789160Y-145634819D01*
X234074874Y-145634819D02*
X234074874Y-144634819D01*
X234074874Y-144634819D02*
X233979636Y-144777676D01*
X233979636Y-144777676D02*
X233884398Y-144872914D01*
X233884398Y-144872914D02*
X233789160Y-144920533D01*
X235265350Y-144634819D02*
X234789160Y-144634819D01*
X234789160Y-144634819D02*
X234741541Y-145111009D01*
X234741541Y-145111009D02*
X234789160Y-145063390D01*
X234789160Y-145063390D02*
X234884398Y-145015771D01*
X234884398Y-145015771D02*
X235122493Y-145015771D01*
X235122493Y-145015771D02*
X235217731Y-145063390D01*
X235217731Y-145063390D02*
X235265350Y-145111009D01*
X235265350Y-145111009D02*
X235312969Y-145206247D01*
X235312969Y-145206247D02*
X235312969Y-145444342D01*
X235312969Y-145444342D02*
X235265350Y-145539580D01*
X235265350Y-145539580D02*
X235217731Y-145587200D01*
X235217731Y-145587200D02*
X235122493Y-145634819D01*
X235122493Y-145634819D02*
X234884398Y-145634819D01*
X234884398Y-145634819D02*
X234789160Y-145587200D01*
X234789160Y-145587200D02*
X234741541Y-145539580D01*
X236687030Y-145634819D02*
X236687030Y-144634819D01*
X236687030Y-144634819D02*
X237067982Y-144634819D01*
X237067982Y-144634819D02*
X237163220Y-144682438D01*
X237163220Y-144682438D02*
X237210839Y-144730057D01*
X237210839Y-144730057D02*
X237258458Y-144825295D01*
X237258458Y-144825295D02*
X237258458Y-144968152D01*
X237258458Y-144968152D02*
X237210839Y-145063390D01*
X237210839Y-145063390D02*
X237163220Y-145111009D01*
X237163220Y-145111009D02*
X237067982Y-145158628D01*
X237067982Y-145158628D02*
X236687030Y-145158628D01*
X238115601Y-144634819D02*
X237925125Y-144634819D01*
X237925125Y-144634819D02*
X237829887Y-144682438D01*
X237829887Y-144682438D02*
X237782268Y-144730057D01*
X237782268Y-144730057D02*
X237687030Y-144872914D01*
X237687030Y-144872914D02*
X237639411Y-145063390D01*
X237639411Y-145063390D02*
X237639411Y-145444342D01*
X237639411Y-145444342D02*
X237687030Y-145539580D01*
X237687030Y-145539580D02*
X237734649Y-145587200D01*
X237734649Y-145587200D02*
X237829887Y-145634819D01*
X237829887Y-145634819D02*
X238020363Y-145634819D01*
X238020363Y-145634819D02*
X238115601Y-145587200D01*
X238115601Y-145587200D02*
X238163220Y-145539580D01*
X238163220Y-145539580D02*
X238210839Y-145444342D01*
X238210839Y-145444342D02*
X238210839Y-145206247D01*
X238210839Y-145206247D02*
X238163220Y-145111009D01*
X238163220Y-145111009D02*
X238115601Y-145063390D01*
X238115601Y-145063390D02*
X238020363Y-145015771D01*
X238020363Y-145015771D02*
X237829887Y-145015771D01*
X237829887Y-145015771D02*
X237734649Y-145063390D01*
X237734649Y-145063390D02*
X237687030Y-145111009D01*
X237687030Y-145111009D02*
X237639411Y-145206247D01*
X232836779Y-148174819D02*
X232836779Y-147174819D01*
X232836779Y-147174819D02*
X233217731Y-147174819D01*
X233217731Y-147174819D02*
X233312969Y-147222438D01*
X233312969Y-147222438D02*
X233360588Y-147270057D01*
X233360588Y-147270057D02*
X233408207Y-147365295D01*
X233408207Y-147365295D02*
X233408207Y-147508152D01*
X233408207Y-147508152D02*
X233360588Y-147603390D01*
X233360588Y-147603390D02*
X233312969Y-147651009D01*
X233312969Y-147651009D02*
X233217731Y-147698628D01*
X233217731Y-147698628D02*
X232836779Y-147698628D01*
X234360588Y-148174819D02*
X233789160Y-148174819D01*
X234074874Y-148174819D02*
X234074874Y-147174819D01*
X234074874Y-147174819D02*
X233979636Y-147317676D01*
X233979636Y-147317676D02*
X233884398Y-147412914D01*
X233884398Y-147412914D02*
X233789160Y-147460533D01*
X235217731Y-147508152D02*
X235217731Y-148174819D01*
X234979636Y-147127200D02*
X234741541Y-147841485D01*
X234741541Y-147841485D02*
X235360588Y-147841485D01*
X236687030Y-148174819D02*
X236687030Y-147174819D01*
X236687030Y-147174819D02*
X237067982Y-147174819D01*
X237067982Y-147174819D02*
X237163220Y-147222438D01*
X237163220Y-147222438D02*
X237210839Y-147270057D01*
X237210839Y-147270057D02*
X237258458Y-147365295D01*
X237258458Y-147365295D02*
X237258458Y-147508152D01*
X237258458Y-147508152D02*
X237210839Y-147603390D01*
X237210839Y-147603390D02*
X237163220Y-147651009D01*
X237163220Y-147651009D02*
X237067982Y-147698628D01*
X237067982Y-147698628D02*
X236687030Y-147698628D01*
X237591792Y-147174819D02*
X238258458Y-147174819D01*
X238258458Y-147174819D02*
X237829887Y-148174819D01*
X232836779Y-150714819D02*
X232836779Y-149714819D01*
X232836779Y-149714819D02*
X233217731Y-149714819D01*
X233217731Y-149714819D02*
X233312969Y-149762438D01*
X233312969Y-149762438D02*
X233360588Y-149810057D01*
X233360588Y-149810057D02*
X233408207Y-149905295D01*
X233408207Y-149905295D02*
X233408207Y-150048152D01*
X233408207Y-150048152D02*
X233360588Y-150143390D01*
X233360588Y-150143390D02*
X233312969Y-150191009D01*
X233312969Y-150191009D02*
X233217731Y-150238628D01*
X233217731Y-150238628D02*
X232836779Y-150238628D01*
X234360588Y-150714819D02*
X233789160Y-150714819D01*
X234074874Y-150714819D02*
X234074874Y-149714819D01*
X234074874Y-149714819D02*
X233979636Y-149857676D01*
X233979636Y-149857676D02*
X233884398Y-149952914D01*
X233884398Y-149952914D02*
X233789160Y-150000533D01*
X235217731Y-149714819D02*
X235027255Y-149714819D01*
X235027255Y-149714819D02*
X234932017Y-149762438D01*
X234932017Y-149762438D02*
X234884398Y-149810057D01*
X234884398Y-149810057D02*
X234789160Y-149952914D01*
X234789160Y-149952914D02*
X234741541Y-150143390D01*
X234741541Y-150143390D02*
X234741541Y-150524342D01*
X234741541Y-150524342D02*
X234789160Y-150619580D01*
X234789160Y-150619580D02*
X234836779Y-150667200D01*
X234836779Y-150667200D02*
X234932017Y-150714819D01*
X234932017Y-150714819D02*
X235122493Y-150714819D01*
X235122493Y-150714819D02*
X235217731Y-150667200D01*
X235217731Y-150667200D02*
X235265350Y-150619580D01*
X235265350Y-150619580D02*
X235312969Y-150524342D01*
X235312969Y-150524342D02*
X235312969Y-150286247D01*
X235312969Y-150286247D02*
X235265350Y-150191009D01*
X235265350Y-150191009D02*
X235217731Y-150143390D01*
X235217731Y-150143390D02*
X235122493Y-150095771D01*
X235122493Y-150095771D02*
X234932017Y-150095771D01*
X234932017Y-150095771D02*
X234836779Y-150143390D01*
X234836779Y-150143390D02*
X234789160Y-150191009D01*
X234789160Y-150191009D02*
X234741541Y-150286247D01*
X236687030Y-150714819D02*
X236687030Y-149714819D01*
X236687030Y-149714819D02*
X237067982Y-149714819D01*
X237067982Y-149714819D02*
X237163220Y-149762438D01*
X237163220Y-149762438D02*
X237210839Y-149810057D01*
X237210839Y-149810057D02*
X237258458Y-149905295D01*
X237258458Y-149905295D02*
X237258458Y-150048152D01*
X237258458Y-150048152D02*
X237210839Y-150143390D01*
X237210839Y-150143390D02*
X237163220Y-150191009D01*
X237163220Y-150191009D02*
X237067982Y-150238628D01*
X237067982Y-150238628D02*
X236687030Y-150238628D01*
X237829887Y-150143390D02*
X237734649Y-150095771D01*
X237734649Y-150095771D02*
X237687030Y-150048152D01*
X237687030Y-150048152D02*
X237639411Y-149952914D01*
X237639411Y-149952914D02*
X237639411Y-149905295D01*
X237639411Y-149905295D02*
X237687030Y-149810057D01*
X237687030Y-149810057D02*
X237734649Y-149762438D01*
X237734649Y-149762438D02*
X237829887Y-149714819D01*
X237829887Y-149714819D02*
X238020363Y-149714819D01*
X238020363Y-149714819D02*
X238115601Y-149762438D01*
X238115601Y-149762438D02*
X238163220Y-149810057D01*
X238163220Y-149810057D02*
X238210839Y-149905295D01*
X238210839Y-149905295D02*
X238210839Y-149952914D01*
X238210839Y-149952914D02*
X238163220Y-150048152D01*
X238163220Y-150048152D02*
X238115601Y-150095771D01*
X238115601Y-150095771D02*
X238020363Y-150143390D01*
X238020363Y-150143390D02*
X237829887Y-150143390D01*
X237829887Y-150143390D02*
X237734649Y-150191009D01*
X237734649Y-150191009D02*
X237687030Y-150238628D01*
X237687030Y-150238628D02*
X237639411Y-150333866D01*
X237639411Y-150333866D02*
X237639411Y-150524342D01*
X237639411Y-150524342D02*
X237687030Y-150619580D01*
X237687030Y-150619580D02*
X237734649Y-150667200D01*
X237734649Y-150667200D02*
X237829887Y-150714819D01*
X237829887Y-150714819D02*
X238020363Y-150714819D01*
X238020363Y-150714819D02*
X238115601Y-150667200D01*
X238115601Y-150667200D02*
X238163220Y-150619580D01*
X238163220Y-150619580D02*
X238210839Y-150524342D01*
X238210839Y-150524342D02*
X238210839Y-150333866D01*
X238210839Y-150333866D02*
X238163220Y-150238628D01*
X238163220Y-150238628D02*
X238115601Y-150191009D01*
X238115601Y-150191009D02*
X238020363Y-150143390D01*
X232836779Y-153254819D02*
X232836779Y-152254819D01*
X232836779Y-152254819D02*
X233217731Y-152254819D01*
X233217731Y-152254819D02*
X233312969Y-152302438D01*
X233312969Y-152302438D02*
X233360588Y-152350057D01*
X233360588Y-152350057D02*
X233408207Y-152445295D01*
X233408207Y-152445295D02*
X233408207Y-152588152D01*
X233408207Y-152588152D02*
X233360588Y-152683390D01*
X233360588Y-152683390D02*
X233312969Y-152731009D01*
X233312969Y-152731009D02*
X233217731Y-152778628D01*
X233217731Y-152778628D02*
X232836779Y-152778628D01*
X234360588Y-153254819D02*
X233789160Y-153254819D01*
X234074874Y-153254819D02*
X234074874Y-152254819D01*
X234074874Y-152254819D02*
X233979636Y-152397676D01*
X233979636Y-152397676D02*
X233884398Y-152492914D01*
X233884398Y-152492914D02*
X233789160Y-152540533D01*
X234979636Y-152254819D02*
X235074874Y-152254819D01*
X235074874Y-152254819D02*
X235170112Y-152302438D01*
X235170112Y-152302438D02*
X235217731Y-152350057D01*
X235217731Y-152350057D02*
X235265350Y-152445295D01*
X235265350Y-152445295D02*
X235312969Y-152635771D01*
X235312969Y-152635771D02*
X235312969Y-152873866D01*
X235312969Y-152873866D02*
X235265350Y-153064342D01*
X235265350Y-153064342D02*
X235217731Y-153159580D01*
X235217731Y-153159580D02*
X235170112Y-153207200D01*
X235170112Y-153207200D02*
X235074874Y-153254819D01*
X235074874Y-153254819D02*
X234979636Y-153254819D01*
X234979636Y-153254819D02*
X234884398Y-153207200D01*
X234884398Y-153207200D02*
X234836779Y-153159580D01*
X234836779Y-153159580D02*
X234789160Y-153064342D01*
X234789160Y-153064342D02*
X234741541Y-152873866D01*
X234741541Y-152873866D02*
X234741541Y-152635771D01*
X234741541Y-152635771D02*
X234789160Y-152445295D01*
X234789160Y-152445295D02*
X234836779Y-152350057D01*
X234836779Y-152350057D02*
X234884398Y-152302438D01*
X234884398Y-152302438D02*
X234979636Y-152254819D01*
X236687030Y-153254819D02*
X236687030Y-152254819D01*
X236687030Y-152254819D02*
X237067982Y-152254819D01*
X237067982Y-152254819D02*
X237163220Y-152302438D01*
X237163220Y-152302438D02*
X237210839Y-152350057D01*
X237210839Y-152350057D02*
X237258458Y-152445295D01*
X237258458Y-152445295D02*
X237258458Y-152588152D01*
X237258458Y-152588152D02*
X237210839Y-152683390D01*
X237210839Y-152683390D02*
X237163220Y-152731009D01*
X237163220Y-152731009D02*
X237067982Y-152778628D01*
X237067982Y-152778628D02*
X236687030Y-152778628D01*
X237734649Y-153254819D02*
X237925125Y-153254819D01*
X237925125Y-153254819D02*
X238020363Y-153207200D01*
X238020363Y-153207200D02*
X238067982Y-153159580D01*
X238067982Y-153159580D02*
X238163220Y-153016723D01*
X238163220Y-153016723D02*
X238210839Y-152826247D01*
X238210839Y-152826247D02*
X238210839Y-152445295D01*
X238210839Y-152445295D02*
X238163220Y-152350057D01*
X238163220Y-152350057D02*
X238115601Y-152302438D01*
X238115601Y-152302438D02*
X238020363Y-152254819D01*
X238020363Y-152254819D02*
X237829887Y-152254819D01*
X237829887Y-152254819D02*
X237734649Y-152302438D01*
X237734649Y-152302438D02*
X237687030Y-152350057D01*
X237687030Y-152350057D02*
X237639411Y-152445295D01*
X237639411Y-152445295D02*
X237639411Y-152683390D01*
X237639411Y-152683390D02*
X237687030Y-152778628D01*
X237687030Y-152778628D02*
X237734649Y-152826247D01*
X237734649Y-152826247D02*
X237829887Y-152873866D01*
X237829887Y-152873866D02*
X238020363Y-152873866D01*
X238020363Y-152873866D02*
X238115601Y-152826247D01*
X238115601Y-152826247D02*
X238163220Y-152778628D01*
X238163220Y-152778628D02*
X238210839Y-152683390D01*
X227452380Y-122769819D02*
X227119047Y-122293628D01*
X226880952Y-122769819D02*
X226880952Y-121769819D01*
X226880952Y-121769819D02*
X227261904Y-121769819D01*
X227261904Y-121769819D02*
X227357142Y-121817438D01*
X227357142Y-121817438D02*
X227404761Y-121865057D01*
X227404761Y-121865057D02*
X227452380Y-121960295D01*
X227452380Y-121960295D02*
X227452380Y-122103152D01*
X227452380Y-122103152D02*
X227404761Y-122198390D01*
X227404761Y-122198390D02*
X227357142Y-122246009D01*
X227357142Y-122246009D02*
X227261904Y-122293628D01*
X227261904Y-122293628D02*
X226880952Y-122293628D01*
X227880952Y-122674580D02*
X227928571Y-122722200D01*
X227928571Y-122722200D02*
X227880952Y-122769819D01*
X227880952Y-122769819D02*
X227833333Y-122722200D01*
X227833333Y-122722200D02*
X227880952Y-122674580D01*
X227880952Y-122674580D02*
X227880952Y-122769819D01*
X229071428Y-122722200D02*
X229214285Y-122769819D01*
X229214285Y-122769819D02*
X229452380Y-122769819D01*
X229452380Y-122769819D02*
X229547618Y-122722200D01*
X229547618Y-122722200D02*
X229595237Y-122674580D01*
X229595237Y-122674580D02*
X229642856Y-122579342D01*
X229642856Y-122579342D02*
X229642856Y-122484104D01*
X229642856Y-122484104D02*
X229595237Y-122388866D01*
X229595237Y-122388866D02*
X229547618Y-122341247D01*
X229547618Y-122341247D02*
X229452380Y-122293628D01*
X229452380Y-122293628D02*
X229261904Y-122246009D01*
X229261904Y-122246009D02*
X229166666Y-122198390D01*
X229166666Y-122198390D02*
X229119047Y-122150771D01*
X229119047Y-122150771D02*
X229071428Y-122055533D01*
X229071428Y-122055533D02*
X229071428Y-121960295D01*
X229071428Y-121960295D02*
X229119047Y-121865057D01*
X229119047Y-121865057D02*
X229166666Y-121817438D01*
X229166666Y-121817438D02*
X229261904Y-121769819D01*
X229261904Y-121769819D02*
X229499999Y-121769819D01*
X229499999Y-121769819D02*
X229642856Y-121817438D01*
X230071428Y-122769819D02*
X230071428Y-122103152D01*
X230071428Y-121769819D02*
X230023809Y-121817438D01*
X230023809Y-121817438D02*
X230071428Y-121865057D01*
X230071428Y-121865057D02*
X230119047Y-121817438D01*
X230119047Y-121817438D02*
X230071428Y-121769819D01*
X230071428Y-121769819D02*
X230071428Y-121865057D01*
X230976189Y-122769819D02*
X230976189Y-121769819D01*
X230976189Y-122722200D02*
X230880951Y-122769819D01*
X230880951Y-122769819D02*
X230690475Y-122769819D01*
X230690475Y-122769819D02*
X230595237Y-122722200D01*
X230595237Y-122722200D02*
X230547618Y-122674580D01*
X230547618Y-122674580D02*
X230499999Y-122579342D01*
X230499999Y-122579342D02*
X230499999Y-122293628D01*
X230499999Y-122293628D02*
X230547618Y-122198390D01*
X230547618Y-122198390D02*
X230595237Y-122150771D01*
X230595237Y-122150771D02*
X230690475Y-122103152D01*
X230690475Y-122103152D02*
X230880951Y-122103152D01*
X230880951Y-122103152D02*
X230976189Y-122150771D01*
X231833332Y-122722200D02*
X231738094Y-122769819D01*
X231738094Y-122769819D02*
X231547618Y-122769819D01*
X231547618Y-122769819D02*
X231452380Y-122722200D01*
X231452380Y-122722200D02*
X231404761Y-122626961D01*
X231404761Y-122626961D02*
X231404761Y-122246009D01*
X231404761Y-122246009D02*
X231452380Y-122150771D01*
X231452380Y-122150771D02*
X231547618Y-122103152D01*
X231547618Y-122103152D02*
X231738094Y-122103152D01*
X231738094Y-122103152D02*
X231833332Y-122150771D01*
X231833332Y-122150771D02*
X231880951Y-122246009D01*
X231880951Y-122246009D02*
X231880951Y-122341247D01*
X231880951Y-122341247D02*
X231404761Y-122436485D01*
X233071428Y-122388866D02*
X233833333Y-122388866D01*
X235357142Y-121769819D02*
X235357142Y-122484104D01*
X235357142Y-122484104D02*
X235309523Y-122626961D01*
X235309523Y-122626961D02*
X235214285Y-122722200D01*
X235214285Y-122722200D02*
X235071428Y-122769819D01*
X235071428Y-122769819D02*
X234976190Y-122769819D01*
X236261904Y-122103152D02*
X236261904Y-122769819D01*
X235833333Y-122103152D02*
X235833333Y-122626961D01*
X235833333Y-122626961D02*
X235880952Y-122722200D01*
X235880952Y-122722200D02*
X235976190Y-122769819D01*
X235976190Y-122769819D02*
X236119047Y-122769819D01*
X236119047Y-122769819D02*
X236214285Y-122722200D01*
X236214285Y-122722200D02*
X236261904Y-122674580D01*
X236738095Y-122769819D02*
X236738095Y-122103152D01*
X236738095Y-122198390D02*
X236785714Y-122150771D01*
X236785714Y-122150771D02*
X236880952Y-122103152D01*
X236880952Y-122103152D02*
X237023809Y-122103152D01*
X237023809Y-122103152D02*
X237119047Y-122150771D01*
X237119047Y-122150771D02*
X237166666Y-122246009D01*
X237166666Y-122246009D02*
X237166666Y-122769819D01*
X237166666Y-122246009D02*
X237214285Y-122150771D01*
X237214285Y-122150771D02*
X237309523Y-122103152D01*
X237309523Y-122103152D02*
X237452380Y-122103152D01*
X237452380Y-122103152D02*
X237547619Y-122150771D01*
X237547619Y-122150771D02*
X237595238Y-122246009D01*
X237595238Y-122246009D02*
X237595238Y-122769819D01*
X238071428Y-122103152D02*
X238071428Y-123103152D01*
X238071428Y-122150771D02*
X238166666Y-122103152D01*
X238166666Y-122103152D02*
X238357142Y-122103152D01*
X238357142Y-122103152D02*
X238452380Y-122150771D01*
X238452380Y-122150771D02*
X238499999Y-122198390D01*
X238499999Y-122198390D02*
X238547618Y-122293628D01*
X238547618Y-122293628D02*
X238547618Y-122579342D01*
X238547618Y-122579342D02*
X238499999Y-122674580D01*
X238499999Y-122674580D02*
X238452380Y-122722200D01*
X238452380Y-122722200D02*
X238357142Y-122769819D01*
X238357142Y-122769819D02*
X238166666Y-122769819D01*
X238166666Y-122769819D02*
X238071428Y-122722200D01*
X239357142Y-122722200D02*
X239261904Y-122769819D01*
X239261904Y-122769819D02*
X239071428Y-122769819D01*
X239071428Y-122769819D02*
X238976190Y-122722200D01*
X238976190Y-122722200D02*
X238928571Y-122626961D01*
X238928571Y-122626961D02*
X238928571Y-122246009D01*
X238928571Y-122246009D02*
X238976190Y-122150771D01*
X238976190Y-122150771D02*
X239071428Y-122103152D01*
X239071428Y-122103152D02*
X239261904Y-122103152D01*
X239261904Y-122103152D02*
X239357142Y-122150771D01*
X239357142Y-122150771D02*
X239404761Y-122246009D01*
X239404761Y-122246009D02*
X239404761Y-122341247D01*
X239404761Y-122341247D02*
X238928571Y-122436485D01*
X239833333Y-122769819D02*
X239833333Y-122103152D01*
X239833333Y-122293628D02*
X239880952Y-122198390D01*
X239880952Y-122198390D02*
X239928571Y-122150771D01*
X239928571Y-122150771D02*
X240023809Y-122103152D01*
X240023809Y-122103152D02*
X240119047Y-122103152D01*
X241214286Y-122769819D02*
X241214286Y-121769819D01*
X241214286Y-122246009D02*
X241785714Y-122246009D01*
X241785714Y-122769819D02*
X241785714Y-121769819D01*
X242642857Y-122722200D02*
X242547619Y-122769819D01*
X242547619Y-122769819D02*
X242357143Y-122769819D01*
X242357143Y-122769819D02*
X242261905Y-122722200D01*
X242261905Y-122722200D02*
X242214286Y-122626961D01*
X242214286Y-122626961D02*
X242214286Y-122246009D01*
X242214286Y-122246009D02*
X242261905Y-122150771D01*
X242261905Y-122150771D02*
X242357143Y-122103152D01*
X242357143Y-122103152D02*
X242547619Y-122103152D01*
X242547619Y-122103152D02*
X242642857Y-122150771D01*
X242642857Y-122150771D02*
X242690476Y-122246009D01*
X242690476Y-122246009D02*
X242690476Y-122341247D01*
X242690476Y-122341247D02*
X242214286Y-122436485D01*
X243119048Y-122769819D02*
X243119048Y-122103152D01*
X243119048Y-122293628D02*
X243166667Y-122198390D01*
X243166667Y-122198390D02*
X243214286Y-122150771D01*
X243214286Y-122150771D02*
X243309524Y-122103152D01*
X243309524Y-122103152D02*
X243404762Y-122103152D01*
X244119048Y-122722200D02*
X244023810Y-122769819D01*
X244023810Y-122769819D02*
X243833334Y-122769819D01*
X243833334Y-122769819D02*
X243738096Y-122722200D01*
X243738096Y-122722200D02*
X243690477Y-122626961D01*
X243690477Y-122626961D02*
X243690477Y-122246009D01*
X243690477Y-122246009D02*
X243738096Y-122150771D01*
X243738096Y-122150771D02*
X243833334Y-122103152D01*
X243833334Y-122103152D02*
X244023810Y-122103152D01*
X244023810Y-122103152D02*
X244119048Y-122150771D01*
X244119048Y-122150771D02*
X244166667Y-122246009D01*
X244166667Y-122246009D02*
X244166667Y-122341247D01*
X244166667Y-122341247D02*
X243690477Y-122436485D01*
%TO.C,G\u002A\u002A\u002A*%
G36*
X205325466Y-162964962D02*
G01*
X205365194Y-162990999D01*
X205393430Y-163047479D01*
X205414424Y-163145958D01*
X205432429Y-163297993D01*
X205451695Y-163515137D01*
X205467091Y-163698833D01*
X205487030Y-163923136D01*
X205507454Y-164132428D01*
X205526025Y-164303955D01*
X205540409Y-164414963D01*
X205540974Y-164418500D01*
X205555193Y-164496104D01*
X205567376Y-164519958D01*
X205581308Y-164481974D01*
X205600776Y-164374067D01*
X205620250Y-164249167D01*
X205649647Y-164047059D01*
X205682811Y-163803681D01*
X205713956Y-163561891D01*
X205723116Y-163487167D01*
X205748818Y-163302542D01*
X205776815Y-163147214D01*
X205803001Y-163042058D01*
X205816761Y-163010917D01*
X205883838Y-162976915D01*
X205992665Y-162960431D01*
X206107076Y-162962518D01*
X206190903Y-162984231D01*
X206208325Y-162999511D01*
X206222144Y-163052774D01*
X206245215Y-163176090D01*
X206275229Y-163355640D01*
X206309881Y-163577604D01*
X206346860Y-163828160D01*
X206347815Y-163834817D01*
X206387869Y-164109796D01*
X206419949Y-164310699D01*
X206445973Y-164436169D01*
X206467861Y-164484846D01*
X206487532Y-164455375D01*
X206506903Y-164346397D01*
X206527895Y-164156555D01*
X206552425Y-163884491D01*
X206569938Y-163677667D01*
X206591090Y-163455424D01*
X206614235Y-163261475D01*
X206637039Y-163112403D01*
X206657170Y-163024790D01*
X206663747Y-163010917D01*
X206728759Y-162977778D01*
X206836096Y-162961188D01*
X206953264Y-162961428D01*
X207047770Y-162978782D01*
X207086025Y-163007242D01*
X207084396Y-163059766D01*
X207072127Y-163181698D01*
X207051191Y-163358722D01*
X207023565Y-163576525D01*
X206991221Y-163820791D01*
X206956136Y-164077207D01*
X206920284Y-164331459D01*
X206885640Y-164569231D01*
X206854177Y-164776209D01*
X206827872Y-164938080D01*
X206808698Y-165040528D01*
X206801999Y-165066117D01*
X206757223Y-165098291D01*
X206647739Y-165110910D01*
X206516465Y-165108451D01*
X206251501Y-165095833D01*
X206158120Y-164524333D01*
X206123207Y-164301798D01*
X206093910Y-164098251D01*
X206072963Y-163933925D01*
X206063096Y-163829055D01*
X206062703Y-163817748D01*
X206051603Y-163717813D01*
X206027573Y-163662279D01*
X206026468Y-163661527D01*
X206009773Y-163694154D01*
X205984626Y-163797754D01*
X205953555Y-163959348D01*
X205919086Y-164165955D01*
X205888884Y-164368112D01*
X205785500Y-165095833D01*
X205499169Y-165108364D01*
X205329168Y-165110058D01*
X205231286Y-165095725D01*
X205194864Y-165066031D01*
X205184245Y-165006365D01*
X205167009Y-164878714D01*
X205145178Y-164699316D01*
X205120771Y-164484411D01*
X205109028Y-164376167D01*
X205080988Y-164117016D01*
X205051894Y-163853631D01*
X205024813Y-163613421D01*
X205002807Y-163423796D01*
X204998843Y-163390689D01*
X204982218Y-163224545D01*
X204975118Y-163089999D01*
X204978518Y-163009613D01*
X204981925Y-162999106D01*
X205036284Y-162974094D01*
X205143214Y-162959521D01*
X205194525Y-162958000D01*
X205269993Y-162957815D01*
X205325466Y-162964962D01*
G37*
G36*
X194334046Y-162980791D02*
G01*
X194459759Y-162989345D01*
X194547599Y-163010351D01*
X194620956Y-163049333D01*
X194700867Y-163109919D01*
X194856827Y-163264181D01*
X194958380Y-163441054D01*
X195013447Y-163659811D01*
X195029824Y-163910500D01*
X195032833Y-164249167D01*
X194344917Y-164260798D01*
X194114332Y-164265989D01*
X193916619Y-164272904D01*
X193765838Y-164280853D01*
X193676047Y-164289142D01*
X193657000Y-164294651D01*
X193674594Y-164343690D01*
X193717549Y-164433870D01*
X193723505Y-164445479D01*
X193842243Y-164586366D01*
X194028831Y-164679872D01*
X194284343Y-164726370D01*
X194541061Y-164729894D01*
X194905833Y-164714833D01*
X194918496Y-164910040D01*
X194931159Y-165105247D01*
X194770329Y-165131824D01*
X194558363Y-165152675D01*
X194320291Y-165154179D01*
X194090581Y-165137676D01*
X193903702Y-165104506D01*
X193878056Y-165097115D01*
X193625521Y-164978403D01*
X193419571Y-164800289D01*
X193307359Y-164638297D01*
X193262915Y-164542909D01*
X193234696Y-164442618D01*
X193219254Y-164314809D01*
X193213139Y-164136867D01*
X193212500Y-164016333D01*
X193213831Y-163889333D01*
X193613053Y-163889333D01*
X194127152Y-163889333D01*
X194641250Y-163889333D01*
X194614176Y-163753963D01*
X194546957Y-163564124D01*
X194429689Y-163437693D01*
X194309238Y-163380037D01*
X194108608Y-163353616D01*
X193924439Y-163402948D01*
X193771871Y-163519125D01*
X193666048Y-163693243D01*
X193641200Y-163772917D01*
X193613053Y-163889333D01*
X193213831Y-163889333D01*
X193214686Y-163807680D01*
X193223714Y-163661122D01*
X193243292Y-163554147D01*
X193277127Y-163464242D01*
X193315218Y-163392498D01*
X193418119Y-163252992D01*
X193548704Y-163125095D01*
X193586920Y-163096165D01*
X193675189Y-163040108D01*
X193758446Y-163005456D01*
X193860942Y-162987142D01*
X194006931Y-162980101D01*
X194147069Y-162979167D01*
X194334046Y-162980791D01*
G37*
G36*
X205278909Y-167242475D02*
G01*
X205441180Y-167293820D01*
X205483457Y-167321406D01*
X205540429Y-167373100D01*
X205573888Y-167432099D01*
X205590073Y-167521364D01*
X205595222Y-167663857D01*
X205595578Y-167734156D01*
X205601105Y-167966554D01*
X205617664Y-168121532D01*
X205646679Y-168205790D01*
X205689575Y-168226027D01*
X205699542Y-168223138D01*
X205754915Y-168234548D01*
X205784784Y-168295641D01*
X205777826Y-168372629D01*
X205759880Y-168403199D01*
X205673574Y-168450707D01*
X205556979Y-168456909D01*
X205453375Y-168422399D01*
X205426312Y-168398611D01*
X205378172Y-168358376D01*
X205321569Y-168374261D01*
X205284709Y-168398611D01*
X205137573Y-168456028D01*
X204970320Y-168454935D01*
X204818868Y-168398192D01*
X204767576Y-168357424D01*
X204686623Y-168237003D01*
X204670282Y-168129530D01*
X204963945Y-168129530D01*
X205010800Y-168198867D01*
X205079532Y-168244409D01*
X205160123Y-168233055D01*
X205216783Y-168205844D01*
X205281207Y-168131960D01*
X205298667Y-168014537D01*
X205293276Y-167917142D01*
X205263657Y-167883580D01*
X205189637Y-167893113D01*
X205182250Y-167894864D01*
X205041250Y-167952278D01*
X204966232Y-168034488D01*
X204963945Y-168129530D01*
X204670282Y-168129530D01*
X204663667Y-168086021D01*
X204701999Y-167920623D01*
X204812571Y-167792084D01*
X204988743Y-167706500D01*
X205105168Y-167680829D01*
X205228762Y-167654425D01*
X205286735Y-167616788D01*
X205298667Y-167570546D01*
X205261877Y-167499429D01*
X205169396Y-167457113D01*
X205048056Y-167453467D01*
X205005388Y-167462677D01*
X204888601Y-167495898D01*
X204833000Y-167511686D01*
X204769381Y-167513710D01*
X204748932Y-167455776D01*
X204748333Y-167431161D01*
X204771635Y-167345883D01*
X204855082Y-167290091D01*
X204881650Y-167280141D01*
X205082752Y-167237254D01*
X205278909Y-167242475D01*
G37*
G36*
X187733532Y-162779254D02*
G01*
X187965436Y-162872855D01*
X188139352Y-163027848D01*
X188170398Y-163071093D01*
X188274837Y-163288585D01*
X188340433Y-163551379D01*
X188359397Y-163826014D01*
X188357259Y-163874095D01*
X188344167Y-164079833D01*
X187635083Y-164091440D01*
X186926000Y-164103047D01*
X186926000Y-164212837D01*
X186963380Y-164328649D01*
X187070668Y-164466987D01*
X187086161Y-164482788D01*
X187266472Y-164613052D01*
X187484519Y-164677178D01*
X187747088Y-164676295D01*
X187984333Y-164631910D01*
X188168533Y-164586443D01*
X188285971Y-164563345D01*
X188352373Y-164565897D01*
X188383462Y-164597382D01*
X188394965Y-164661082D01*
X188399179Y-164718494D01*
X188400317Y-164827201D01*
X188375270Y-164902764D01*
X188309752Y-164956911D01*
X188189479Y-165001369D01*
X188000166Y-165047864D01*
X187997143Y-165048544D01*
X187786709Y-165091092D01*
X187621441Y-165108985D01*
X187465643Y-165102672D01*
X187283621Y-165072602D01*
X187215602Y-165058379D01*
X186923909Y-164959805D01*
X186693893Y-164803351D01*
X186526357Y-164589980D01*
X186422103Y-164320655D01*
X186384471Y-164060014D01*
X186395890Y-163710494D01*
X186422457Y-163601582D01*
X186924213Y-163601582D01*
X186955612Y-163645261D01*
X187043246Y-163667967D01*
X187197327Y-163676492D01*
X187370500Y-163677667D01*
X187815000Y-163677667D01*
X187815000Y-163569050D01*
X187779831Y-163386954D01*
X187679681Y-163255649D01*
X187522585Y-163183065D01*
X187411669Y-163171013D01*
X187217408Y-163203743D01*
X187068902Y-163307277D01*
X186989258Y-163424134D01*
X186938833Y-163530138D01*
X186924213Y-163601582D01*
X186422457Y-163601582D01*
X186470070Y-163406396D01*
X186602577Y-163153216D01*
X186788971Y-162956452D01*
X187024816Y-162821601D01*
X187305675Y-162754160D01*
X187444122Y-162747263D01*
X187733532Y-162779254D01*
G37*
G36*
X196838563Y-167289091D02*
G01*
X196874333Y-167320003D01*
X196852154Y-167376024D01*
X196794446Y-167477649D01*
X196726167Y-167584021D01*
X196648754Y-167703487D01*
X196595135Y-167794863D01*
X196578000Y-167834472D01*
X196600639Y-167881946D01*
X196660111Y-167977747D01*
X196743747Y-168101512D01*
X196747333Y-168106638D01*
X196831770Y-168231911D01*
X196892447Y-168330966D01*
X196916637Y-168382982D01*
X196916667Y-168383685D01*
X196879416Y-168406978D01*
X196787758Y-168418677D01*
X196767627Y-168419000D01*
X196671923Y-168408982D01*
X196597565Y-168366986D01*
X196517903Y-168275092D01*
X196484362Y-168228572D01*
X196350136Y-168038143D01*
X196220651Y-168227207D01*
X196133043Y-168341992D01*
X196058155Y-168399289D01*
X195970585Y-168417210D01*
X195953583Y-168417635D01*
X195859895Y-168412238D01*
X195816384Y-168397263D01*
X195816000Y-168395510D01*
X195838095Y-168351408D01*
X195896251Y-168257383D01*
X195978276Y-168133079D01*
X195985333Y-168122667D01*
X196068908Y-167995369D01*
X196129411Y-167895152D01*
X196154549Y-167842457D01*
X196154667Y-167841078D01*
X196131983Y-167792675D01*
X196072405Y-167696191D01*
X195988638Y-167572162D01*
X195985333Y-167567443D01*
X195901101Y-167444024D01*
X195840464Y-167348812D01*
X195816045Y-167301665D01*
X195816000Y-167301021D01*
X195853507Y-167285123D01*
X195946825Y-167276507D01*
X195979576Y-167276000D01*
X196087622Y-167285489D01*
X196164531Y-167326951D01*
X196242608Y-167419877D01*
X196260682Y-167445596D01*
X196378213Y-167615193D01*
X196502935Y-167445596D01*
X196598972Y-167334212D01*
X196686495Y-167283912D01*
X196750995Y-167276000D01*
X196838563Y-167289091D01*
G37*
G36*
X184341691Y-167282554D02*
G01*
X184385574Y-167298525D01*
X184386000Y-167300446D01*
X184368317Y-167362810D01*
X184320187Y-167485034D01*
X184248992Y-167651232D01*
X184162112Y-167845516D01*
X184066928Y-168051999D01*
X183970820Y-168254796D01*
X183881169Y-168438018D01*
X183805355Y-168585780D01*
X183750759Y-168682193D01*
X183732130Y-168707912D01*
X183640585Y-168769919D01*
X183516987Y-168816239D01*
X183392383Y-168839393D01*
X183297818Y-168831906D01*
X183274750Y-168818054D01*
X183237756Y-168736407D01*
X183265519Y-168662821D01*
X183345383Y-168630667D01*
X183345809Y-168630667D01*
X183454697Y-168603993D01*
X183515079Y-168564206D01*
X183572328Y-168492242D01*
X183599207Y-168410491D01*
X183593817Y-168304762D01*
X183554262Y-168160861D01*
X183478645Y-167964596D01*
X183414971Y-167815331D01*
X183333989Y-167627574D01*
X183267024Y-167468972D01*
X183220517Y-167355024D01*
X183200907Y-167301226D01*
X183200667Y-167299557D01*
X183237938Y-167284000D01*
X183329612Y-167276208D01*
X183349367Y-167276000D01*
X183433274Y-167281435D01*
X183490119Y-167309866D01*
X183538872Y-167379483D01*
X183598503Y-167508472D01*
X183603238Y-167519417D01*
X183692551Y-167728448D01*
X183754120Y-167864909D01*
X183797789Y-167932096D01*
X183833404Y-167933303D01*
X183870807Y-167871827D01*
X183919844Y-167750963D01*
X183963464Y-167640007D01*
X184033323Y-167469292D01*
X184084203Y-167362512D01*
X184127798Y-167304692D01*
X184175804Y-167280852D01*
X184239916Y-167276015D01*
X184247688Y-167276000D01*
X184341691Y-167282554D01*
G37*
G36*
X195410331Y-167309490D02*
G01*
X195423280Y-167317178D01*
X195528308Y-167407447D01*
X195590551Y-167533855D01*
X195618471Y-167716209D01*
X195621308Y-167780597D01*
X195625500Y-167932167D01*
X195276250Y-167944462D01*
X195103780Y-167952486D01*
X194999364Y-167964619D01*
X194946386Y-167985346D01*
X194928235Y-168019150D01*
X194927000Y-168038736D01*
X194960017Y-168119571D01*
X195033498Y-168190495D01*
X195141698Y-168232935D01*
X195287242Y-168235639D01*
X195486346Y-168198291D01*
X195554790Y-168180370D01*
X195623665Y-168170814D01*
X195643932Y-168210077D01*
X195639457Y-168273923D01*
X195612485Y-168357761D01*
X195545517Y-168412182D01*
X195424571Y-168443037D01*
X195235666Y-168456180D01*
X195202167Y-168456955D01*
X194974212Y-168430246D01*
X194854972Y-168378380D01*
X194700496Y-168237492D01*
X194611878Y-168043565D01*
X194588491Y-167839019D01*
X194616192Y-167663561D01*
X194927000Y-167663561D01*
X194941884Y-167712804D01*
X195000306Y-167736014D01*
X195117500Y-167741667D01*
X195236975Y-167735886D01*
X195293407Y-167712491D01*
X195307987Y-167662398D01*
X195308000Y-167660024D01*
X195278494Y-167565744D01*
X195209551Y-167482492D01*
X195130532Y-167445367D01*
X195128393Y-167445333D01*
X195047055Y-167479498D01*
X194969654Y-167558881D01*
X194928181Y-167648817D01*
X194927000Y-167663561D01*
X194616192Y-167663561D01*
X194622928Y-167620899D01*
X194716707Y-167443268D01*
X194856083Y-167314719D01*
X195027309Y-167243844D01*
X195216641Y-167239237D01*
X195410331Y-167309490D01*
G37*
G36*
X182544192Y-167070759D02*
G01*
X182704333Y-167087603D01*
X182814243Y-167111119D01*
X182954556Y-167195040D01*
X183023081Y-167315174D01*
X183015772Y-167456943D01*
X182945794Y-167584994D01*
X182860255Y-167693740D01*
X182966961Y-167800445D01*
X183039706Y-167899723D01*
X183072880Y-167997441D01*
X183073088Y-168004326D01*
X183055244Y-168166871D01*
X182997265Y-168283204D01*
X182889129Y-168359684D01*
X182720815Y-168402670D01*
X182482301Y-168418522D01*
X182419602Y-168419000D01*
X182057667Y-168419000D01*
X182057667Y-168212201D01*
X182354000Y-168212201D01*
X182533917Y-168199184D01*
X182649027Y-168184495D01*
X182704535Y-168151758D01*
X182725484Y-168084701D01*
X182726833Y-168073843D01*
X182701936Y-167960917D01*
X182614193Y-167872594D01*
X182485265Y-167828269D01*
X182450414Y-167826333D01*
X182390981Y-167835701D01*
X182362642Y-167878642D01*
X182354277Y-167977409D01*
X182354000Y-168019267D01*
X182354000Y-168212201D01*
X182057667Y-168212201D01*
X182057667Y-167741667D01*
X182057667Y-167445333D01*
X182354000Y-167445333D01*
X182364622Y-167560744D01*
X182406985Y-167610387D01*
X182496835Y-167603026D01*
X182584077Y-167573381D01*
X182672761Y-167508440D01*
X182692667Y-167429743D01*
X182664025Y-167335821D01*
X182572724Y-167286658D01*
X182456371Y-167276000D01*
X182390320Y-167285824D01*
X182360970Y-167331071D01*
X182354017Y-167435400D01*
X182354000Y-167445333D01*
X182057667Y-167445333D01*
X182057667Y-167064333D01*
X182368849Y-167064333D01*
X182544192Y-167070759D01*
G37*
G36*
X203912448Y-162986280D02*
G01*
X204108293Y-163051913D01*
X204117258Y-163056537D01*
X204308437Y-163193396D01*
X204444196Y-163377197D01*
X204529461Y-163617180D01*
X204567967Y-163902195D01*
X204572694Y-164213506D01*
X204540638Y-164462884D01*
X204467516Y-164666575D01*
X204349046Y-164840827D01*
X204309022Y-164884631D01*
X204095397Y-165047998D01*
X203844003Y-165139407D01*
X203565351Y-165156450D01*
X203317949Y-165111548D01*
X203161322Y-165031408D01*
X203005228Y-164892936D01*
X202871742Y-164719679D01*
X202785869Y-164543995D01*
X202735518Y-164314337D01*
X202719015Y-164046198D01*
X202720892Y-164017393D01*
X203204978Y-164017393D01*
X203226954Y-164280755D01*
X203292796Y-164489595D01*
X203396698Y-164638016D01*
X203532854Y-164720123D01*
X203695458Y-164730019D01*
X203853194Y-164675675D01*
X203978870Y-164564625D01*
X204063554Y-164389023D01*
X204103886Y-164160160D01*
X204096503Y-163889328D01*
X204093877Y-163867197D01*
X204037847Y-163645949D01*
X203937419Y-163484503D01*
X203800736Y-163389135D01*
X203635941Y-163366122D01*
X203491739Y-163403014D01*
X203347907Y-163505544D01*
X203254089Y-163673133D01*
X203209334Y-163907817D01*
X203204978Y-164017393D01*
X202720892Y-164017393D01*
X202736440Y-163778739D01*
X202783893Y-163562729D01*
X202888315Y-163349120D01*
X203040538Y-163164240D01*
X203218611Y-163033556D01*
X203254723Y-163016452D01*
X203449097Y-162966851D01*
X203680527Y-162957360D01*
X203912448Y-162986280D01*
G37*
G36*
X187535592Y-167094206D02*
G01*
X187580962Y-167133660D01*
X187595562Y-167201917D01*
X187608765Y-167268599D01*
X187643243Y-167303284D01*
X187721039Y-167316385D01*
X187841923Y-167318333D01*
X187974853Y-167321061D01*
X188042475Y-167334833D01*
X188064103Y-167368034D01*
X188061361Y-167413583D01*
X188042472Y-167470546D01*
X187991890Y-167501802D01*
X187887563Y-167517456D01*
X187825583Y-167521629D01*
X187603333Y-167534424D01*
X187603333Y-167868026D01*
X187609080Y-168057097D01*
X187633749Y-168174517D01*
X187688480Y-168232945D01*
X187784415Y-168245036D01*
X187918536Y-168226138D01*
X188027030Y-168215793D01*
X188081505Y-168242473D01*
X188094455Y-168266745D01*
X188097219Y-168361399D01*
X188022254Y-168425249D01*
X187871033Y-168457410D01*
X187769844Y-168461333D01*
X187607696Y-168453049D01*
X187497310Y-168422492D01*
X187411085Y-168364735D01*
X187355490Y-168309042D01*
X187319714Y-168243884D01*
X187297466Y-168147691D01*
X187282452Y-167998891D01*
X187275898Y-167901318D01*
X187263712Y-167724867D01*
X187250067Y-167615804D01*
X187228932Y-167556974D01*
X187194277Y-167531223D01*
X187142423Y-167521666D01*
X187049050Y-167483786D01*
X187018306Y-167413583D01*
X187021906Y-167345986D01*
X187074596Y-167320846D01*
X187131910Y-167318333D01*
X187224810Y-167305453D01*
X187264045Y-167250727D01*
X187272438Y-167201917D01*
X187292613Y-167122881D01*
X187346518Y-167090800D01*
X187434000Y-167085500D01*
X187535592Y-167094206D01*
G37*
G36*
X196850123Y-162974176D02*
G01*
X197035908Y-163025414D01*
X197176042Y-163128965D01*
X197285545Y-163292016D01*
X197287083Y-163295053D01*
X197320271Y-163366037D01*
X197344729Y-163437603D01*
X197361777Y-163523710D01*
X197372740Y-163638314D01*
X197378938Y-163795374D01*
X197381695Y-164008847D01*
X197382333Y-164292691D01*
X197382333Y-164300470D01*
X197382333Y-165117000D01*
X197149500Y-165117000D01*
X196916667Y-165117000D01*
X196916667Y-164352217D01*
X196914403Y-164097934D01*
X196908105Y-163871323D01*
X196898512Y-163687209D01*
X196886361Y-163560416D01*
X196874658Y-163508940D01*
X196782779Y-163418804D01*
X196643104Y-163370508D01*
X196484930Y-163370892D01*
X196394538Y-163396831D01*
X196307514Y-163439220D01*
X196241955Y-163491820D01*
X196194359Y-163566777D01*
X196161228Y-163676236D01*
X196139062Y-163832343D01*
X196124360Y-164047243D01*
X196113623Y-164333082D01*
X196112333Y-164376167D01*
X196091167Y-165095833D01*
X195868185Y-165108654D01*
X195645203Y-165121475D01*
X195656518Y-164050321D01*
X195667833Y-162979167D01*
X195858333Y-162979167D01*
X195975871Y-162982942D01*
X196033494Y-163005807D01*
X196055936Y-163065071D01*
X196062494Y-163122048D01*
X196076154Y-163264929D01*
X196193995Y-163123775D01*
X196263761Y-163048068D01*
X196332621Y-163004012D01*
X196427806Y-162981258D01*
X196576545Y-162969456D01*
X196603668Y-162968065D01*
X196850123Y-162974176D01*
G37*
G36*
X201622994Y-167279683D02*
G01*
X201773065Y-167384205D01*
X201873409Y-167546483D01*
X201911915Y-167757902D01*
X201912000Y-167769094D01*
X201912000Y-167953333D01*
X201552167Y-167953333D01*
X201360424Y-167957524D01*
X201244110Y-167973920D01*
X201194235Y-168008253D01*
X201201808Y-168066257D01*
X201251507Y-168145076D01*
X201337424Y-168199916D01*
X201477763Y-168226120D01*
X201646518Y-168221497D01*
X201795583Y-168190886D01*
X201878287Y-168174028D01*
X201908360Y-168205699D01*
X201912000Y-168267292D01*
X201883925Y-168367091D01*
X201803411Y-168420048D01*
X201625838Y-168456496D01*
X201419356Y-168454249D01*
X201226788Y-168415689D01*
X201149339Y-168383660D01*
X200997198Y-168261087D01*
X200901014Y-168095874D01*
X200859563Y-167906595D01*
X200871622Y-167711825D01*
X200900633Y-167629908D01*
X201199638Y-167629908D01*
X201200359Y-167697693D01*
X201279600Y-167734224D01*
X201382833Y-167741667D01*
X201500769Y-167736900D01*
X201556638Y-167714965D01*
X201572849Y-167664409D01*
X201573333Y-167644300D01*
X201544470Y-167519920D01*
X201470035Y-167458228D01*
X201368264Y-167466256D01*
X201277000Y-167530000D01*
X201199638Y-167629908D01*
X200900633Y-167629908D01*
X200935968Y-167530137D01*
X201051379Y-167380107D01*
X201216632Y-167280308D01*
X201222114Y-167278365D01*
X201435306Y-167241531D01*
X201622994Y-167279683D01*
G37*
G36*
X186287479Y-167072836D02*
G01*
X186437374Y-167085500D01*
X186681190Y-167720500D01*
X186763789Y-167937583D01*
X186834475Y-168127094D01*
X186888089Y-168274901D01*
X186919470Y-168366866D01*
X186925503Y-168389805D01*
X186888757Y-168408854D01*
X186797172Y-168412707D01*
X186770770Y-168410972D01*
X186661441Y-168390472D01*
X186601408Y-168335325D01*
X186566093Y-168249667D01*
X186533436Y-168165741D01*
X186490769Y-168120069D01*
X186413320Y-168098988D01*
X186276315Y-168088835D01*
X186274278Y-168088728D01*
X186031908Y-168075956D01*
X185964532Y-168247478D01*
X185911870Y-168358137D01*
X185854494Y-168408049D01*
X185776578Y-168419000D01*
X185689749Y-168409323D01*
X185654821Y-168387250D01*
X185668552Y-168338773D01*
X185707274Y-168225080D01*
X185766034Y-168060150D01*
X185839877Y-167857961D01*
X185854406Y-167818826D01*
X186131357Y-167818826D01*
X186165331Y-167857748D01*
X186250676Y-167868519D01*
X186269833Y-167868667D01*
X186367838Y-167865238D01*
X186416746Y-167856811D01*
X186418000Y-167855041D01*
X186405531Y-167810745D01*
X186373583Y-167712044D01*
X186347252Y-167633784D01*
X186276505Y-167426151D01*
X186202225Y-167594492D01*
X186144930Y-167736243D01*
X186131357Y-167818826D01*
X185854406Y-167818826D01*
X185895613Y-167707836D01*
X186137584Y-167060171D01*
X186287479Y-167072836D01*
G37*
G36*
X192874274Y-167474840D02*
G01*
X192953582Y-167680710D01*
X193033802Y-167887268D01*
X193102571Y-168062751D01*
X193129370Y-168130342D01*
X193176216Y-168260388D01*
X193201575Y-168356912D01*
X193201297Y-168394925D01*
X193146063Y-168411736D01*
X193046043Y-168418993D01*
X193042812Y-168419000D01*
X192953732Y-168409530D01*
X192901937Y-168365662D01*
X192862076Y-168264213D01*
X192857668Y-168249667D01*
X192806935Y-168080333D01*
X192561055Y-168080333D01*
X192315176Y-168080333D01*
X192248660Y-168249667D01*
X192197204Y-168358530D01*
X192140430Y-168407548D01*
X192052431Y-168419000D01*
X192051739Y-168419000D01*
X191961024Y-168416001D01*
X191921408Y-168408753D01*
X191921343Y-168408417D01*
X191935616Y-168367384D01*
X191975116Y-168260534D01*
X192034871Y-168101147D01*
X192109907Y-167902501D01*
X192122752Y-167868667D01*
X192394784Y-167868667D01*
X192557656Y-167868667D01*
X192720527Y-167868667D01*
X192655634Y-167678216D01*
X192611273Y-167561972D01*
X192572711Y-167484173D01*
X192559785Y-167468633D01*
X192530950Y-167493988D01*
X192490105Y-167579635D01*
X192461806Y-167659084D01*
X192394784Y-167868667D01*
X192122752Y-167868667D01*
X192170969Y-167741667D01*
X192420586Y-167085500D01*
X192567883Y-167072674D01*
X192715181Y-167059847D01*
X192874274Y-167474840D01*
G37*
G36*
X184428333Y-162444043D02*
G01*
X184449500Y-163051920D01*
X184534167Y-162956784D01*
X184687028Y-162842080D01*
X184887500Y-162769718D01*
X185107824Y-162743461D01*
X185320240Y-162767076D01*
X185474028Y-162829286D01*
X185560116Y-162887314D01*
X185627134Y-162951141D01*
X185677692Y-163031885D01*
X185714400Y-163140662D01*
X185739869Y-163288592D01*
X185756707Y-163486791D01*
X185767524Y-163746377D01*
X185774931Y-164078468D01*
X185775544Y-164113712D01*
X185791353Y-165036590D01*
X185522593Y-165023878D01*
X185253833Y-165011167D01*
X185265203Y-164312667D01*
X185268317Y-163995871D01*
X185264830Y-163752687D01*
X185252941Y-163572196D01*
X185230849Y-163443479D01*
X185196753Y-163355619D01*
X185148853Y-163297695D01*
X185091914Y-163261877D01*
X185010693Y-163232328D01*
X184932780Y-163236866D01*
X184824440Y-163279403D01*
X184786940Y-163297260D01*
X184664950Y-163361146D01*
X184574207Y-163426904D01*
X184510118Y-163507759D01*
X184468088Y-163616935D01*
X184443526Y-163767658D01*
X184431837Y-163973151D01*
X184428429Y-164246639D01*
X184428333Y-164329785D01*
X184428333Y-165032333D01*
X184173824Y-165032333D01*
X183919315Y-165032333D01*
X183930407Y-163434250D01*
X183941500Y-161836167D01*
X184174333Y-161836167D01*
X184407167Y-161836167D01*
X184428333Y-162444043D01*
G37*
G36*
X192683333Y-162280667D02*
G01*
X192683333Y-162467775D01*
X192678224Y-162546679D01*
X192658457Y-162627948D01*
X192617372Y-162725181D01*
X192548309Y-162851975D01*
X192444609Y-163021930D01*
X192304966Y-163240359D01*
X192149120Y-163481929D01*
X191982571Y-163740790D01*
X191822454Y-163990267D01*
X191685903Y-164203688D01*
X191650827Y-164258685D01*
X191375054Y-164691537D01*
X192039777Y-164703185D01*
X192704500Y-164714833D01*
X192704500Y-164905333D01*
X192704500Y-165095833D01*
X191783750Y-165107242D01*
X190863000Y-165118651D01*
X190863167Y-164895575D01*
X190863921Y-164839263D01*
X190868693Y-164786061D01*
X190881378Y-164729052D01*
X190905876Y-164661322D01*
X190946082Y-164575954D01*
X191005894Y-164466033D01*
X191089210Y-164324643D01*
X191199927Y-164144869D01*
X191341942Y-163919795D01*
X191519153Y-163642505D01*
X191735456Y-163306083D01*
X191922894Y-163015132D01*
X192004518Y-162885378D01*
X192064199Y-162784635D01*
X192090335Y-162732582D01*
X192090667Y-162730544D01*
X192050838Y-162721136D01*
X191941359Y-162711729D01*
X191777245Y-162703220D01*
X191573506Y-162696503D01*
X191487417Y-162694579D01*
X190884167Y-162682833D01*
X190871264Y-162481750D01*
X190858361Y-162280666D01*
X191770847Y-162280666D01*
X192683333Y-162280667D01*
G37*
G36*
X200796593Y-162120634D02*
G01*
X201336930Y-162132500D01*
X201338715Y-163317833D01*
X201340386Y-163629136D01*
X201344209Y-163914882D01*
X201349847Y-164163498D01*
X201356964Y-164363413D01*
X201365221Y-164503053D01*
X201374283Y-164570845D01*
X201375292Y-164573374D01*
X201460500Y-164658766D01*
X201601438Y-164712570D01*
X201772490Y-164726681D01*
X201839038Y-164720105D01*
X202008651Y-164694733D01*
X202112231Y-164686203D01*
X202167782Y-164701047D01*
X202193306Y-164745796D01*
X202206808Y-164826982D01*
X202210574Y-164854892D01*
X202217442Y-164965278D01*
X202193794Y-165041616D01*
X202127253Y-165091335D01*
X202005440Y-165121866D01*
X201815977Y-165140638D01*
X201725325Y-165146142D01*
X201532710Y-165152157D01*
X201397768Y-165142694D01*
X201294418Y-165114649D01*
X201237676Y-165088119D01*
X201132055Y-165022652D01*
X201047330Y-164943790D01*
X200981296Y-164842072D01*
X200931748Y-164708043D01*
X200896480Y-164532244D01*
X200873288Y-164305216D01*
X200859966Y-164017502D01*
X200854310Y-163659643D01*
X200853667Y-163440989D01*
X200853667Y-162538535D01*
X200567917Y-162526017D01*
X200282167Y-162513500D01*
X200269211Y-162311134D01*
X200256256Y-162108768D01*
X200796593Y-162120634D01*
G37*
G36*
X199845382Y-166835503D02*
G01*
X199884616Y-166860977D01*
X199903297Y-166928119D01*
X199912851Y-167057126D01*
X199913972Y-167078593D01*
X199924258Y-167216194D01*
X199941016Y-167285415D01*
X199970646Y-167302543D01*
X199998639Y-167293992D01*
X200186472Y-167244666D01*
X200363354Y-167258693D01*
X200483700Y-167317926D01*
X200532718Y-167359276D01*
X200565514Y-167402914D01*
X200585348Y-167465591D01*
X200595479Y-167564064D01*
X200599165Y-167715086D01*
X200599667Y-167914072D01*
X200599667Y-168419000D01*
X200452932Y-168419000D01*
X200306198Y-168419000D01*
X200294182Y-167964418D01*
X200287318Y-167761320D01*
X200277646Y-167627843D01*
X200262287Y-167548940D01*
X200238361Y-167509566D01*
X200204307Y-167494920D01*
X200121244Y-167511700D01*
X200027701Y-167572816D01*
X200024390Y-167575881D01*
X199974879Y-167629965D01*
X199944542Y-167692426D01*
X199928772Y-167784464D01*
X199922959Y-167927281D01*
X199922333Y-168045379D01*
X199922333Y-168419000D01*
X199773232Y-168419000D01*
X199624132Y-168419000D01*
X199635649Y-167625250D01*
X199647167Y-166831500D01*
X199774167Y-166831500D01*
X199845382Y-166835503D01*
G37*
G36*
X199099399Y-167034450D02*
G01*
X199261504Y-167055441D01*
X199356396Y-167083540D01*
X199401478Y-167128830D01*
X199414150Y-167201392D01*
X199414333Y-167216916D01*
X199407651Y-167283882D01*
X199371611Y-167306264D01*
X199282222Y-167295064D01*
X199255583Y-167289711D01*
X199018075Y-167266256D01*
X198836956Y-167305423D01*
X198710571Y-167408196D01*
X198637265Y-167575557D01*
X198621813Y-167666169D01*
X198631702Y-167872918D01*
X198703214Y-168043340D01*
X198824358Y-168165972D01*
X198983141Y-168229355D01*
X199167571Y-168222025D01*
X199195527Y-168214474D01*
X199338485Y-168176113D01*
X199417889Y-168171570D01*
X199449442Y-168204888D01*
X199448895Y-168279742D01*
X199420130Y-168362127D01*
X199348044Y-168415262D01*
X199219350Y-168444486D01*
X199020762Y-168455138D01*
X199012167Y-168455242D01*
X198798927Y-168431320D01*
X198645890Y-168375908D01*
X198466068Y-168235503D01*
X198347652Y-168041158D01*
X198295854Y-167802266D01*
X198293911Y-167741667D01*
X198330642Y-167494666D01*
X198434660Y-167291974D01*
X198596707Y-167141721D01*
X198807522Y-167052036D01*
X199057845Y-167031050D01*
X199099399Y-167034450D01*
G37*
G36*
X188619333Y-167674704D02*
G01*
X188621957Y-167856539D01*
X188628988Y-168010769D01*
X188639168Y-168114562D01*
X188645029Y-168140371D01*
X188702754Y-168199363D01*
X188792388Y-168192763D01*
X188895138Y-168122788D01*
X188908287Y-168109355D01*
X188953934Y-168049982D01*
X188981618Y-167976800D01*
X188995606Y-167868216D01*
X189000165Y-167702642D01*
X189000333Y-167643688D01*
X189000333Y-167276000D01*
X189148500Y-167276000D01*
X189296667Y-167276000D01*
X189296667Y-167847500D01*
X189296667Y-168419000D01*
X189148500Y-168419000D01*
X189050575Y-168407767D01*
X189001616Y-168380144D01*
X189000333Y-168374266D01*
X188971808Y-168361889D01*
X188906247Y-168395433D01*
X188753269Y-168456063D01*
X188588879Y-168448021D01*
X188444569Y-168373802D01*
X188426909Y-168357424D01*
X188382114Y-168307615D01*
X188352450Y-168253183D01*
X188334815Y-168176438D01*
X188326107Y-168059689D01*
X188323225Y-167885248D01*
X188323000Y-167764757D01*
X188323000Y-167276000D01*
X188471167Y-167276000D01*
X188619333Y-167276000D01*
X188619333Y-167674704D01*
G37*
G36*
X199964667Y-162466637D02*
G01*
X199952013Y-162603472D01*
X199911508Y-162671183D01*
X199897704Y-162678304D01*
X199833962Y-162687092D01*
X199701705Y-162694587D01*
X199517081Y-162700228D01*
X199296237Y-162703455D01*
X199156871Y-162704000D01*
X198483000Y-162704000D01*
X198483000Y-163148500D01*
X198483000Y-163593000D01*
X199033333Y-163593000D01*
X199583667Y-163593000D01*
X199583667Y-163803402D01*
X199583667Y-164013804D01*
X199043917Y-164025652D01*
X198504167Y-164037500D01*
X198492318Y-164577250D01*
X198480470Y-165117000D01*
X198277124Y-165117000D01*
X198152103Y-165111567D01*
X198065209Y-165097774D01*
X198045555Y-165088778D01*
X198038771Y-165041128D01*
X198032572Y-164918973D01*
X198027162Y-164732473D01*
X198022741Y-164491789D01*
X198019514Y-164207080D01*
X198017681Y-163888508D01*
X198017333Y-163670611D01*
X198017333Y-162280667D01*
X198991000Y-162280667D01*
X199964667Y-162280667D01*
X199964667Y-162466637D01*
G37*
G36*
X206738407Y-167276168D02*
G01*
X206831676Y-167339714D01*
X206895185Y-167447053D01*
X206931861Y-167608843D01*
X206944627Y-167835739D01*
X206941712Y-168016833D01*
X206928500Y-168397833D01*
X206769750Y-168410972D01*
X206611000Y-168424111D01*
X206611000Y-167975727D01*
X206606838Y-167748399D01*
X206591330Y-167597065D01*
X206559947Y-167513324D01*
X206508156Y-167488778D01*
X206431428Y-167515026D01*
X206379429Y-167546446D01*
X206330093Y-167585101D01*
X206298513Y-167635402D01*
X206279867Y-167716441D01*
X206269334Y-167847311D01*
X206263339Y-168006184D01*
X206251167Y-168397833D01*
X206092417Y-168410972D01*
X205933667Y-168424111D01*
X205933667Y-167847919D01*
X205933667Y-167271727D01*
X206134750Y-167276082D01*
X206290787Y-167272569D01*
X206437102Y-167258506D01*
X206474007Y-167252161D01*
X206628972Y-167248863D01*
X206738407Y-167276168D01*
G37*
G36*
X182001968Y-162372887D02*
G01*
X182314580Y-162375244D01*
X183518167Y-162386500D01*
X183518167Y-162598167D01*
X183518167Y-162809833D01*
X183041917Y-162821803D01*
X182565667Y-162833773D01*
X182565667Y-163933053D01*
X182565667Y-165032333D01*
X182311667Y-165032333D01*
X182057667Y-165032333D01*
X182057667Y-163931667D01*
X182057667Y-162831000D01*
X181616629Y-162831000D01*
X181425869Y-162828627D01*
X181262568Y-162822226D01*
X181148015Y-162812875D01*
X181108629Y-162805304D01*
X181065667Y-162749530D01*
X181043293Y-162645136D01*
X181044296Y-162526278D01*
X181071463Y-162427111D01*
X181076979Y-162417578D01*
X181105939Y-162401324D01*
X181174737Y-162388943D01*
X181291057Y-162380172D01*
X181462581Y-162374747D01*
X181696990Y-162372407D01*
X182001968Y-162372887D01*
G37*
G36*
X203173860Y-167458964D02*
G01*
X203179163Y-167580926D01*
X203166902Y-167639097D01*
X203125603Y-167654136D01*
X203068027Y-167649464D01*
X202971849Y-167615916D01*
X202935398Y-167538742D01*
X202908829Y-167468589D01*
X202842767Y-167464758D01*
X202829564Y-167468337D01*
X202722762Y-167516157D01*
X202651554Y-167595899D01*
X202609859Y-167722104D01*
X202591595Y-167909315D01*
X202589333Y-168042690D01*
X202589333Y-168419000D01*
X202441167Y-168419000D01*
X202293000Y-168419000D01*
X202293000Y-167845363D01*
X202293000Y-167271727D01*
X202494083Y-167272423D01*
X202661419Y-167271003D01*
X202851431Y-167266609D01*
X202928000Y-167263976D01*
X203160833Y-167254833D01*
X203173860Y-167458964D01*
G37*
G36*
X204113333Y-167845788D02*
G01*
X204113333Y-168419000D01*
X203965167Y-168419000D01*
X203817000Y-168419000D01*
X203817000Y-167955653D01*
X203817000Y-167492305D01*
X203615917Y-167479403D01*
X203491956Y-167465735D01*
X203431877Y-167438922D01*
X203414951Y-167388905D01*
X203414833Y-167381833D01*
X203422426Y-167339830D01*
X203456344Y-167313374D01*
X203533298Y-167297825D01*
X203669999Y-167288544D01*
X203764083Y-167284871D01*
X204113333Y-167272576D01*
X204113333Y-167845788D01*
G37*
G36*
X194059167Y-167614667D02*
G01*
X194059167Y-168397833D01*
X193900417Y-168410972D01*
X193741667Y-168424111D01*
X193741667Y-167725375D01*
X193741667Y-167026639D01*
X193540583Y-167013736D01*
X193416623Y-167000069D01*
X193356544Y-166973255D01*
X193339617Y-166923238D01*
X193339500Y-166916167D01*
X193346196Y-166874999D01*
X193377322Y-166849853D01*
X193449431Y-166836833D01*
X193579081Y-166832044D01*
X193699333Y-166831500D01*
X194059167Y-166831500D01*
X194059167Y-167614667D01*
G37*
G36*
X190303017Y-167625250D02*
G01*
X190314535Y-168419000D01*
X190165434Y-168419000D01*
X190016333Y-168419000D01*
X190016333Y-167722819D01*
X190016333Y-167026639D01*
X189815250Y-167013736D01*
X189691289Y-167000069D01*
X189631210Y-166973255D01*
X189614284Y-166923238D01*
X189614167Y-166916167D01*
X189621237Y-166873982D01*
X189653802Y-166848700D01*
X189728893Y-166836062D01*
X189863541Y-166831811D01*
X189952833Y-166831500D01*
X190291500Y-166831500D01*
X190303017Y-167625250D01*
G37*
G36*
X204074431Y-166836922D02*
G01*
X204125489Y-166866427D01*
X204144693Y-166939870D01*
X204147765Y-166969083D01*
X204151965Y-167052790D01*
X204129079Y-167092993D01*
X204057927Y-167105649D01*
X203965167Y-167106667D01*
X203846263Y-167103947D01*
X203790843Y-167085149D01*
X203777726Y-167034311D01*
X203782568Y-166969083D01*
X203797760Y-166880730D01*
X203837850Y-166841557D01*
X203929192Y-166831708D01*
X203965167Y-166831500D01*
X204074431Y-166836922D01*
G37*
%TO.C,S1*%
X161000000Y-145500000D02*
X162000000Y-145500000D01*
X148000000Y-145500000D02*
X148000000Y-146500000D01*
X162000000Y-146500000D02*
X162000000Y-145500000D01*
X148000000Y-145500000D02*
X149000000Y-145500000D01*
X149000000Y-159500000D02*
X148000000Y-159500000D01*
X162000000Y-159500000D02*
X162000000Y-158500000D01*
X148000000Y-158500000D02*
X148000000Y-159500000D01*
X162000000Y-159500000D02*
X161000000Y-159500000D01*
X159200000Y-154500000D02*
X158700000Y-154000000D01*
X162700000Y-154500000D02*
X163200000Y-154000000D01*
X160600000Y-145500000D02*
X161200000Y-145500000D01*
X158700000Y-154000000D02*
X158700000Y-151500000D01*
X157200000Y-150000000D02*
X156500000Y-150000000D01*
X163200000Y-151000000D02*
X162700000Y-150500000D01*
X163200000Y-154000000D02*
X163200000Y-151000000D01*
X156500000Y-150000000D02*
X156500000Y-145500000D01*
X161700000Y-150500000D02*
X162700000Y-150500000D01*
X156500000Y-145500000D02*
X157000000Y-145500000D01*
X161200000Y-145500000D02*
X161200000Y-150000000D01*
X158700000Y-151700000D02*
G75*
G03*
X157220000Y-150000000I-1590000J110000D01*
G01*
X161200001Y-149980000D02*
G75*
G03*
X161780000Y-150499999I549999J30000D01*
G01*
%TO.C,S2*%
X165500000Y-141060000D02*
X165500000Y-140060000D01*
X165500000Y-154060000D02*
X166500000Y-154060000D01*
X166500000Y-140060000D02*
X165500000Y-140060000D01*
X165500000Y-154060000D02*
X165500000Y-153060000D01*
X179500000Y-153060000D02*
X179500000Y-154060000D01*
X179500000Y-140060000D02*
X178500000Y-140060000D01*
X178500000Y-154060000D02*
X179500000Y-154060000D01*
X179500000Y-140060000D02*
X179500000Y-141060000D01*
X174500000Y-142860000D02*
X174000000Y-143360000D01*
X174500000Y-139360000D02*
X174000000Y-138860000D01*
X165500000Y-141460000D02*
X165500000Y-140860000D01*
X174000000Y-143360000D02*
X171500000Y-143360000D01*
X170000000Y-144860000D02*
X170000000Y-145560000D01*
X171000000Y-138860000D02*
X170500000Y-139360000D01*
X174000000Y-138860000D02*
X171000000Y-138860000D01*
X170000000Y-145560000D02*
X165500000Y-145560000D01*
X170500000Y-140360000D02*
X170500000Y-139360000D01*
X165500000Y-145560000D02*
X165500000Y-145060000D01*
X165500000Y-140860000D02*
X170000000Y-140860000D01*
X171700000Y-143360000D02*
G75*
G03*
X170000000Y-144840000I-110000J-1590000D01*
G01*
X169980000Y-140859999D02*
G75*
G03*
X170499999Y-140280000I-30000J549999D01*
G01*
%TO.C,S3*%
X165500000Y-124060000D02*
X165500000Y-123060000D01*
X165500000Y-137060000D02*
X166500000Y-137060000D01*
X166500000Y-123060000D02*
X165500000Y-123060000D01*
X165500000Y-137060000D02*
X165500000Y-136060000D01*
X179500000Y-136060000D02*
X179500000Y-137060000D01*
X179500000Y-123060000D02*
X178500000Y-123060000D01*
X178500000Y-137060000D02*
X179500000Y-137060000D01*
X179500000Y-123060000D02*
X179500000Y-124060000D01*
X174500000Y-125860000D02*
X174000000Y-126360000D01*
X174500000Y-122360000D02*
X174000000Y-121860000D01*
X165500000Y-124460000D02*
X165500000Y-123860000D01*
X174000000Y-126360000D02*
X171500000Y-126360000D01*
X170000000Y-127860000D02*
X170000000Y-128560000D01*
X171000000Y-121860000D02*
X170500000Y-122360000D01*
X174000000Y-121860000D02*
X171000000Y-121860000D01*
X170000000Y-128560000D02*
X165500000Y-128560000D01*
X170500000Y-123360000D02*
X170500000Y-122360000D01*
X165500000Y-128560000D02*
X165500000Y-128060000D01*
X165500000Y-123860000D02*
X170000000Y-123860000D01*
X171700000Y-126360000D02*
G75*
G03*
X170000000Y-127840000I-110000J-1590000D01*
G01*
X169980000Y-123859999D02*
G75*
G03*
X170499999Y-123280000I-30000J549999D01*
G01*
%TO.C,S4*%
X183500000Y-141060000D02*
X183500000Y-140060000D01*
X183500000Y-154060000D02*
X184500000Y-154060000D01*
X184500000Y-140060000D02*
X183500000Y-140060000D01*
X183500000Y-154060000D02*
X183500000Y-153060000D01*
X197500000Y-153060000D02*
X197500000Y-154060000D01*
X197500000Y-140060000D02*
X196500000Y-140060000D01*
X196500000Y-154060000D02*
X197500000Y-154060000D01*
X197500000Y-140060000D02*
X197500000Y-141060000D01*
X192500000Y-142860000D02*
X192000000Y-143360000D01*
X192500000Y-139360000D02*
X192000000Y-138860000D01*
X183500000Y-141460000D02*
X183500000Y-140860000D01*
X192000000Y-143360000D02*
X189500000Y-143360000D01*
X188000000Y-144860000D02*
X188000000Y-145560000D01*
X189000000Y-138860000D02*
X188500000Y-139360000D01*
X192000000Y-138860000D02*
X189000000Y-138860000D01*
X188000000Y-145560000D02*
X183500000Y-145560000D01*
X188500000Y-140360000D02*
X188500000Y-139360000D01*
X183500000Y-145560000D02*
X183500000Y-145060000D01*
X183500000Y-140860000D02*
X188000000Y-140860000D01*
X189700000Y-143360000D02*
G75*
G03*
X188000000Y-144840000I-110000J-1590000D01*
G01*
X187980000Y-140859999D02*
G75*
G03*
X188499999Y-140280000I-30000J549999D01*
G01*
%TO.C,S5*%
X183500000Y-124060000D02*
X183500000Y-123060000D01*
X183500000Y-137060000D02*
X184500000Y-137060000D01*
X184500000Y-123060000D02*
X183500000Y-123060000D01*
X183500000Y-137060000D02*
X183500000Y-136060000D01*
X197500000Y-136060000D02*
X197500000Y-137060000D01*
X197500000Y-123060000D02*
X196500000Y-123060000D01*
X196500000Y-137060000D02*
X197500000Y-137060000D01*
X197500000Y-123060000D02*
X197500000Y-124060000D01*
X192500000Y-125860000D02*
X192000000Y-126360000D01*
X192500000Y-122360000D02*
X192000000Y-121860000D01*
X183500000Y-124460000D02*
X183500000Y-123860000D01*
X192000000Y-126360000D02*
X189500000Y-126360000D01*
X188000000Y-127860000D02*
X188000000Y-128560000D01*
X189000000Y-121860000D02*
X188500000Y-122360000D01*
X192000000Y-121860000D02*
X189000000Y-121860000D01*
X188000000Y-128560000D02*
X183500000Y-128560000D01*
X188500000Y-123360000D02*
X188500000Y-122360000D01*
X183500000Y-128560000D02*
X183500000Y-128060000D01*
X183500000Y-123860000D02*
X188000000Y-123860000D01*
X189700000Y-126360000D02*
G75*
G03*
X188000000Y-127840000I-110000J-1590000D01*
G01*
X187980000Y-123859999D02*
G75*
G03*
X188499999Y-123280000I-30000J549999D01*
G01*
%TO.C,S6*%
X201500000Y-141060000D02*
X201500000Y-140060000D01*
X201500000Y-154060000D02*
X202500000Y-154060000D01*
X202500000Y-140060000D02*
X201500000Y-140060000D01*
X201500000Y-154060000D02*
X201500000Y-153060000D01*
X215500000Y-153060000D02*
X215500000Y-154060000D01*
X215500000Y-140060000D02*
X214500000Y-140060000D01*
X214500000Y-154060000D02*
X215500000Y-154060000D01*
X215500000Y-140060000D02*
X215500000Y-141060000D01*
X210500000Y-142860000D02*
X210000000Y-143360000D01*
X210500000Y-139360000D02*
X210000000Y-138860000D01*
X201500000Y-141460000D02*
X201500000Y-140860000D01*
X210000000Y-143360000D02*
X207500000Y-143360000D01*
X206000000Y-144860000D02*
X206000000Y-145560000D01*
X207000000Y-138860000D02*
X206500000Y-139360000D01*
X210000000Y-138860000D02*
X207000000Y-138860000D01*
X206000000Y-145560000D02*
X201500000Y-145560000D01*
X206500000Y-140360000D02*
X206500000Y-139360000D01*
X201500000Y-145560000D02*
X201500000Y-145060000D01*
X201500000Y-140860000D02*
X206000000Y-140860000D01*
X207700000Y-143360000D02*
G75*
G03*
X206000000Y-144840000I-110000J-1590000D01*
G01*
X205980000Y-140859999D02*
G75*
G03*
X206499999Y-140280000I-30000J549999D01*
G01*
%TO.C,S7*%
X201500000Y-124060000D02*
X201500000Y-123060000D01*
X201500000Y-137060000D02*
X202500000Y-137060000D01*
X202500000Y-123060000D02*
X201500000Y-123060000D01*
X201500000Y-137060000D02*
X201500000Y-136060000D01*
X215500000Y-136060000D02*
X215500000Y-137060000D01*
X215500000Y-123060000D02*
X214500000Y-123060000D01*
X214500000Y-137060000D02*
X215500000Y-137060000D01*
X215500000Y-123060000D02*
X215500000Y-124060000D01*
X210500000Y-125860000D02*
X210000000Y-126360000D01*
X210500000Y-122360000D02*
X210000000Y-121860000D01*
X201500000Y-124460000D02*
X201500000Y-123860000D01*
X210000000Y-126360000D02*
X207500000Y-126360000D01*
X206000000Y-127860000D02*
X206000000Y-128560000D01*
X207000000Y-121860000D02*
X206500000Y-122360000D01*
X210000000Y-121860000D02*
X207000000Y-121860000D01*
X206000000Y-128560000D02*
X201500000Y-128560000D01*
X206500000Y-123360000D02*
X206500000Y-122360000D01*
X201500000Y-128560000D02*
X201500000Y-128060000D01*
X201500000Y-123860000D02*
X206000000Y-123860000D01*
X207700000Y-126360000D02*
G75*
G03*
X206000000Y-127840000I-110000J-1590000D01*
G01*
X205980000Y-123859999D02*
G75*
G03*
X206499999Y-123280000I-30000J549999D01*
G01*
%TO.C,S8*%
X220000000Y-163500000D02*
X220000000Y-162500000D01*
X220000000Y-176500000D02*
X221000000Y-176500000D01*
X221000000Y-162500000D02*
X220000000Y-162500000D01*
X220000000Y-176500000D02*
X220000000Y-175500000D01*
X234000000Y-175500000D02*
X234000000Y-176500000D01*
X234000000Y-162500000D02*
X233000000Y-162500000D01*
X233000000Y-176500000D02*
X234000000Y-176500000D01*
X234000000Y-162500000D02*
X234000000Y-163500000D01*
X229000000Y-165300000D02*
X228500000Y-165800000D01*
X229000000Y-161800000D02*
X228500000Y-161300000D01*
X220000000Y-163900000D02*
X220000000Y-163300000D01*
X228500000Y-165800000D02*
X226000000Y-165800000D01*
X224500000Y-167300000D02*
X224500000Y-168000000D01*
X225500000Y-161300000D02*
X225000000Y-161800000D01*
X228500000Y-161300000D02*
X225500000Y-161300000D01*
X224500000Y-168000000D02*
X220000000Y-168000000D01*
X225000000Y-162800000D02*
X225000000Y-161800000D01*
X220000000Y-168000000D02*
X220000000Y-167500000D01*
X220000000Y-163300000D02*
X224500000Y-163300000D01*
X226200000Y-165800000D02*
G75*
G03*
X224500000Y-167280000I-110000J-1590000D01*
G01*
X224480000Y-163299999D02*
G75*
G03*
X224999999Y-162720000I-30000J549999D01*
G01*
%TO.C,S9*%
X238000000Y-163500000D02*
X238000000Y-162500000D01*
X238000000Y-176500000D02*
X239000000Y-176500000D01*
X239000000Y-162500000D02*
X238000000Y-162500000D01*
X238000000Y-176500000D02*
X238000000Y-175500000D01*
X252000000Y-175500000D02*
X252000000Y-176500000D01*
X252000000Y-162500000D02*
X251000000Y-162500000D01*
X251000000Y-176500000D02*
X252000000Y-176500000D01*
X252000000Y-162500000D02*
X252000000Y-163500000D01*
X247000000Y-165300000D02*
X246500000Y-165800000D01*
X247000000Y-161800000D02*
X246500000Y-161300000D01*
X238000000Y-163900000D02*
X238000000Y-163300000D01*
X246500000Y-165800000D02*
X244000000Y-165800000D01*
X242500000Y-167300000D02*
X242500000Y-168000000D01*
X243500000Y-161300000D02*
X243000000Y-161800000D01*
X246500000Y-161300000D02*
X243500000Y-161300000D01*
X242500000Y-168000000D02*
X238000000Y-168000000D01*
X243000000Y-162800000D02*
X243000000Y-161800000D01*
X238000000Y-168000000D02*
X238000000Y-167500000D01*
X238000000Y-163300000D02*
X242500000Y-163300000D01*
X244200000Y-165800000D02*
G75*
G03*
X242500000Y-167280000I-110000J-1590000D01*
G01*
X242480000Y-163299999D02*
G75*
G03*
X242999999Y-162720000I-30000J549999D01*
G01*
D11*
%TO.C,MCU1*%
X241790000Y-126130000D02*
X244450000Y-126130000D01*
X241790000Y-123530000D02*
X244450000Y-123530000D01*
X241790000Y-123530000D02*
X241790000Y-154130000D01*
X241790000Y-154130000D02*
X244450000Y-154130000D01*
X244450000Y-123530000D02*
X244450000Y-154130000D01*
X226550000Y-123530000D02*
X229210000Y-123530000D01*
X226550000Y-123530000D02*
X226550000Y-154130000D01*
X226550000Y-154130000D02*
X229210000Y-154130000D01*
X229210000Y-123530000D02*
X229210000Y-154130000D01*
%TO.C,SW1*%
X251915000Y-124610000D02*
X251125000Y-124610000D01*
X251125000Y-131510000D02*
X251915000Y-131510000D01*
X250075000Y-129660000D02*
X250075000Y-127960000D01*
X252925000Y-130910000D02*
X252925000Y-125210000D01*
X250075000Y-126660000D02*
X250075000Y-126460000D01*
D10*
%TO.C,BAT*%
X226000000Y-154560000D02*
X226000000Y-154060000D01*
X226250000Y-154310000D02*
X225750000Y-154310000D01*
D11*
%TO.C,DISP1*%
X229090000Y-156430000D02*
X229090000Y-159090000D01*
X241910000Y-159090000D02*
X229090000Y-159090000D01*
X241910000Y-156430000D02*
X241910000Y-159090000D01*
X241910000Y-156430000D02*
X229090000Y-156430000D01*
%TD*%
D12*
%TO.C,BAT*%
X225000000Y-157060000D03*
X225000000Y-155060000D03*
%TD*%
M02*
