%TF.GenerationSoftware,KiCad,Pcbnew,7.0.9*%
%TF.CreationDate,2024-03-07T17:23:47+01:00*%
%TF.ProjectId,zenFlow,7a656e46-6c6f-4772-9e6b-696361645f70,1*%
%TF.SameCoordinates,Original*%
%TF.FileFunction,Copper,L1,Top*%
%TF.FilePolarity,Positive*%
%FSLAX46Y46*%
G04 Gerber Fmt 4.6, Leading zero omitted, Abs format (unit mm)*
G04 Created by KiCad (PCBNEW 7.0.9) date 2024-03-07 17:23:47*
%MOMM*%
%LPD*%
G01*
G04 APERTURE LIST*
G04 Aperture macros list*
%AMFreePoly0*
4,1,6,1.300000,-0.250000,0.050000,-1.300000,-1.300000,-1.300000,-1.300000,1.300000,1.300000,1.300000,1.300000,-0.250000,1.300000,-0.250000,$1*%
%AMFreePoly1*
4,1,6,0.250000,0.000000,-0.250000,-0.625000,-0.500000,-0.625000,-0.500000,0.625000,-0.250000,0.625000,0.250000,0.000000,0.250000,0.000000,$1*%
%AMFreePoly2*
4,1,6,0.500000,-0.625000,-0.650000,-0.625000,-0.150000,0.000000,-0.650000,0.625000,0.500000,0.625000,0.500000,-0.625000,0.500000,-0.625000,$1*%
G04 Aperture macros list end*
%TA.AperFunction,ConnectorPad*%
%ADD10FreePoly0,270.000000*%
%TD*%
%TA.AperFunction,SMDPad,CuDef*%
%ADD11R,2.600000X2.600000*%
%TD*%
%TA.AperFunction,ComponentPad*%
%ADD12C,2.032000*%
%TD*%
%TA.AperFunction,ConnectorPad*%
%ADD13FreePoly0,0.000000*%
%TD*%
%TA.AperFunction,ComponentPad*%
%ADD14C,1.700000*%
%TD*%
%TA.AperFunction,ComponentPad*%
%ADD15C,0.800000*%
%TD*%
%TA.AperFunction,SMDPad,CuDef*%
%ADD16FreePoly1,0.000000*%
%TD*%
%TA.AperFunction,SMDPad,CuDef*%
%ADD17FreePoly2,0.000000*%
%TD*%
%TA.AperFunction,SMDPad,CuDef*%
%ADD18FreePoly2,180.000000*%
%TD*%
%TA.AperFunction,SMDPad,CuDef*%
%ADD19FreePoly1,180.000000*%
%TD*%
%TA.AperFunction,SMDPad,CuDef*%
%ADD20R,0.800000X1.000000*%
%TD*%
%TA.AperFunction,SMDPad,CuDef*%
%ADD21R,1.500000X0.700000*%
%TD*%
%TA.AperFunction,SMDPad,CuDef*%
%ADD22R,1.700000X0.900000*%
%TD*%
%TA.AperFunction,ComponentPad*%
%ADD23C,1.000000*%
%TD*%
%TA.AperFunction,ComponentPad*%
%ADD24C,0.600000*%
%TD*%
%TA.AperFunction,ComponentPad*%
%ADD25C,2.400000*%
%TD*%
%TA.AperFunction,SMDPad,CuDef*%
%ADD26R,1.200000X0.600000*%
%TD*%
%TA.AperFunction,ComponentPad*%
%ADD27O,1.700000X1.700000*%
%TD*%
%TA.AperFunction,ViaPad*%
%ADD28C,0.800000*%
%TD*%
%TA.AperFunction,Conductor*%
%ADD29C,0.250000*%
%TD*%
G04 APERTURE END LIST*
%TA.AperFunction,EtchedComponent*%
%TO.C,G\u002A\u002A\u002A*%
G36*
X176263551Y-161519854D02*
G01*
X176787241Y-161520350D01*
X177238011Y-161521220D01*
X177621734Y-161522601D01*
X177944283Y-161524629D01*
X178211532Y-161527442D01*
X178429353Y-161531175D01*
X178603620Y-161535965D01*
X178740205Y-161541948D01*
X178844984Y-161549262D01*
X178923827Y-161558042D01*
X178982609Y-161568426D01*
X179027203Y-161580550D01*
X179063482Y-161594549D01*
X179073167Y-161598925D01*
X179268222Y-161721933D01*
X179426295Y-161884246D01*
X179514973Y-162040006D01*
X179527221Y-162115220D01*
X179537579Y-162262946D01*
X179546048Y-162471049D01*
X179552628Y-162727395D01*
X179557317Y-163019848D01*
X179560116Y-163336275D01*
X179561025Y-163664542D01*
X179560043Y-163992513D01*
X179557169Y-164308055D01*
X179552403Y-164599033D01*
X179545745Y-164853313D01*
X179537195Y-165058761D01*
X179526752Y-165203241D01*
X179515070Y-165272994D01*
X179456679Y-165379258D01*
X179366059Y-165498374D01*
X179336308Y-165530910D01*
X179290305Y-165578161D01*
X179245657Y-165619397D01*
X179196585Y-165655023D01*
X179137308Y-165685439D01*
X179062047Y-165711049D01*
X178965021Y-165732255D01*
X178840451Y-165749458D01*
X178682555Y-165763063D01*
X178485555Y-165773470D01*
X178243669Y-165781082D01*
X177951118Y-165786303D01*
X177602122Y-165789533D01*
X177190900Y-165791176D01*
X176711673Y-165791634D01*
X176158660Y-165791310D01*
X175604733Y-165790695D01*
X175091114Y-165789686D01*
X174600438Y-165787908D01*
X174139541Y-165785434D01*
X173715259Y-165782340D01*
X173334427Y-165778701D01*
X173003882Y-165774591D01*
X172730458Y-165770084D01*
X172520993Y-165765256D01*
X172382320Y-165760182D01*
X172321277Y-165754936D01*
X172320726Y-165754779D01*
X172064758Y-165641177D01*
X171874862Y-165476866D01*
X171835381Y-165424213D01*
X171728333Y-165266679D01*
X171728333Y-164651957D01*
X173210000Y-164651957D01*
X173220425Y-164721137D01*
X173258165Y-164773726D01*
X173332914Y-164811871D01*
X173454367Y-164837722D01*
X173632218Y-164853425D01*
X173876164Y-164861130D01*
X174162500Y-164863000D01*
X174447931Y-164861737D01*
X174660877Y-164857327D01*
X174813490Y-164848836D01*
X174917923Y-164835331D01*
X174986328Y-164815881D01*
X175020914Y-164797099D01*
X175095760Y-164703297D01*
X175109579Y-164603290D01*
X176140121Y-164603290D01*
X176152031Y-164697299D01*
X176215667Y-164778333D01*
X176251669Y-164808677D01*
X176298474Y-164830787D01*
X176368952Y-164845953D01*
X176475971Y-164855465D01*
X176632402Y-164860613D01*
X176851114Y-164862686D01*
X177060341Y-164863000D01*
X177380436Y-164859982D01*
X177634158Y-164851147D01*
X177815753Y-164836819D01*
X177919462Y-164817325D01*
X177928175Y-164813871D01*
X178015939Y-164741223D01*
X178036000Y-164653005D01*
X178032124Y-164583258D01*
X178013554Y-164530618D01*
X177969879Y-164492688D01*
X177890685Y-164467067D01*
X177765560Y-164451357D01*
X177584091Y-164443158D01*
X177335867Y-164440071D01*
X177110117Y-164439667D01*
X176819374Y-164440543D01*
X176601476Y-164443785D01*
X176444610Y-164450311D01*
X176336966Y-164461037D01*
X176266732Y-164476881D01*
X176222100Y-164498762D01*
X176208417Y-164509728D01*
X176140121Y-164603290D01*
X175109579Y-164603290D01*
X175111536Y-164589128D01*
X175064200Y-164490466D01*
X175013303Y-164470937D01*
X174900957Y-164456436D01*
X174721205Y-164446623D01*
X174468094Y-164441155D01*
X174178224Y-164439667D01*
X173866797Y-164440960D01*
X173629943Y-164446312D01*
X173457586Y-164457932D01*
X173339653Y-164478028D01*
X173266068Y-164508811D01*
X173226757Y-164552488D01*
X173211647Y-164611268D01*
X173210000Y-164651957D01*
X171728333Y-164651957D01*
X171728333Y-163665737D01*
X171728345Y-163631693D01*
X173131748Y-163631693D01*
X173150876Y-163757303D01*
X173225475Y-163857278D01*
X173261996Y-163879588D01*
X173413930Y-163921474D01*
X173581347Y-163921860D01*
X173723938Y-163881884D01*
X173750914Y-163865766D01*
X173829268Y-163765434D01*
X173844626Y-163663114D01*
X174268333Y-163663114D01*
X174296319Y-163732458D01*
X174364473Y-163819819D01*
X174372242Y-163827757D01*
X174510835Y-163911294D01*
X174677949Y-163932395D01*
X174843981Y-163890184D01*
X174918791Y-163843927D01*
X175007070Y-163736049D01*
X175014397Y-163686865D01*
X176237587Y-163686865D01*
X176239532Y-163694150D01*
X176316789Y-163823604D01*
X176447766Y-163904868D01*
X176612580Y-163931597D01*
X176791348Y-163897448D01*
X176828523Y-163882076D01*
X176931118Y-163797710D01*
X176971631Y-163682948D01*
X176968326Y-163660807D01*
X177401000Y-163660807D01*
X177438027Y-163776462D01*
X177534499Y-163863119D01*
X177668506Y-163915217D01*
X177818135Y-163927199D01*
X177961476Y-163893506D01*
X178059091Y-163827757D01*
X178142533Y-163720537D01*
X178152354Y-163623567D01*
X178088965Y-163512712D01*
X178064970Y-163483754D01*
X177947401Y-163399614D01*
X177803634Y-163369391D01*
X177655401Y-163387289D01*
X177524437Y-163447513D01*
X177432475Y-163544267D01*
X177401000Y-163660807D01*
X176968326Y-163660807D01*
X176953443Y-163561086D01*
X176879936Y-163455420D01*
X176757071Y-163389920D01*
X176595880Y-163374852D01*
X176445080Y-163407745D01*
X176322927Y-163477865D01*
X176247677Y-163574483D01*
X176237587Y-163686865D01*
X175014397Y-163686865D01*
X175024033Y-163622180D01*
X174980766Y-163515786D01*
X174888354Y-163430330D01*
X174757883Y-163379278D01*
X174600438Y-163376093D01*
X174543500Y-163388099D01*
X174419405Y-163448213D01*
X174319568Y-163542151D01*
X174269947Y-163643968D01*
X174268333Y-163663114D01*
X173844626Y-163663114D01*
X173848489Y-163637377D01*
X173809391Y-163513658D01*
X173740136Y-163441576D01*
X173593380Y-163386225D01*
X173420612Y-163376881D01*
X173267558Y-163415660D01*
X173260327Y-163419388D01*
X173168197Y-163509403D01*
X173131748Y-163631693D01*
X171728345Y-163631693D01*
X171728484Y-163235098D01*
X171729700Y-162880686D01*
X171731166Y-162758125D01*
X172926984Y-162758125D01*
X172966503Y-162875746D01*
X173070688Y-162968442D01*
X173095058Y-162980173D01*
X173222714Y-163027879D01*
X173321908Y-163034908D01*
X173436943Y-163001460D01*
X173485019Y-162981956D01*
X173611214Y-162899388D01*
X173667631Y-162797516D01*
X173665085Y-162742845D01*
X174099000Y-162742845D01*
X174134736Y-162873694D01*
X174228384Y-162967616D01*
X174359608Y-163020012D01*
X174508068Y-163026285D01*
X174653428Y-162981837D01*
X174765750Y-162893568D01*
X174838011Y-162797855D01*
X174841656Y-162777688D01*
X176428919Y-162777688D01*
X176486720Y-162893666D01*
X176613585Y-162982217D01*
X176738455Y-163028961D01*
X176832621Y-163036357D01*
X176938960Y-163006944D01*
X176951530Y-163002223D01*
X177057594Y-162934729D01*
X177122175Y-162863690D01*
X177161301Y-162750355D01*
X177613315Y-162750355D01*
X177651953Y-162877092D01*
X177757743Y-162980666D01*
X177824333Y-163014575D01*
X177943882Y-163029603D01*
X178089964Y-163007685D01*
X178217757Y-162957448D01*
X178252917Y-162932082D01*
X178327652Y-162822884D01*
X178332411Y-162709738D01*
X178280404Y-162604465D01*
X178184838Y-162518887D01*
X178058925Y-162464825D01*
X177915872Y-162454101D01*
X177768889Y-162498536D01*
X177768633Y-162498671D01*
X177661774Y-162576514D01*
X177618064Y-162679671D01*
X177613315Y-162750355D01*
X177161301Y-162750355D01*
X177164437Y-162741271D01*
X177137839Y-162630033D01*
X177058152Y-162538789D01*
X176941150Y-162476354D01*
X176802605Y-162451541D01*
X176658291Y-162473164D01*
X176538876Y-162537739D01*
X176445302Y-162653083D01*
X176428919Y-162777688D01*
X174841656Y-162777688D01*
X174851364Y-162723985D01*
X174803282Y-162643582D01*
X174737256Y-162573743D01*
X174604425Y-162486176D01*
X174455372Y-162455750D01*
X174310454Y-162477072D01*
X174190025Y-162544750D01*
X174114441Y-162653391D01*
X174099000Y-162742845D01*
X173665085Y-162742845D01*
X173662609Y-162689692D01*
X173604485Y-162589269D01*
X173501598Y-162509599D01*
X173362286Y-162464032D01*
X173194888Y-162465922D01*
X173166232Y-162471482D01*
X173029867Y-162534414D01*
X172949112Y-162637155D01*
X172926984Y-162758125D01*
X171731166Y-162758125D01*
X171733128Y-162594059D01*
X171739913Y-162366778D01*
X171751201Y-162190401D01*
X171768139Y-162056490D01*
X171791871Y-161956603D01*
X171823544Y-161882299D01*
X171864304Y-161825140D01*
X171915297Y-161776683D01*
X171977668Y-161728489D01*
X171992872Y-161717201D01*
X172124297Y-161635217D01*
X172261533Y-161571361D01*
X172274400Y-161566846D01*
X172333800Y-161556927D01*
X172450920Y-161548279D01*
X172628835Y-161540857D01*
X172870622Y-161534621D01*
X173179356Y-161529525D01*
X173558114Y-161525529D01*
X174009971Y-161522588D01*
X174538003Y-161520660D01*
X175145286Y-161519702D01*
X175661067Y-161519596D01*
X176263551Y-161519854D01*
G37*
%TD.AperFunction*%
%TD*%
D10*
%TO.P,S1,1*%
%TO.N,P8*%
X160950000Y-155775000D03*
D11*
%TO.P,S1,2*%
%TO.N,GND*%
X158750000Y-144225000D03*
D12*
X149100000Y-152500000D03*
%TO.P,S1,1*%
%TO.N,P8*%
X151200000Y-147500000D03*
X151200000Y-157500000D03*
%TD*%
D13*
%TO.P,S2,1*%
%TO.N,P7*%
X175775000Y-141110000D03*
D11*
%TO.P,S2,2*%
%TO.N,GND*%
X164225000Y-143310000D03*
D12*
X172500000Y-152960000D03*
%TO.P,S2,1*%
%TO.N,P7*%
X167500000Y-150860000D03*
X177500000Y-150860000D03*
%TD*%
D13*
%TO.P,S3,1*%
%TO.N,P19*%
X175775000Y-124110000D03*
D11*
%TO.P,S3,2*%
%TO.N,GND*%
X164225000Y-126310000D03*
D12*
X172500000Y-135960000D03*
%TO.P,S3,1*%
%TO.N,P19*%
X167500000Y-133860000D03*
X177500000Y-133860000D03*
%TD*%
D13*
%TO.P,S4,1*%
%TO.N,P6*%
X193775000Y-141110000D03*
D11*
%TO.P,S4,2*%
%TO.N,GND*%
X182225000Y-143310000D03*
D12*
X190500000Y-152960000D03*
%TO.P,S4,1*%
%TO.N,P6*%
X185500000Y-150860000D03*
X195500000Y-150860000D03*
%TD*%
D13*
%TO.P,S5,1*%
%TO.N,P20*%
X193775000Y-124110000D03*
D11*
%TO.P,S5,2*%
%TO.N,GND*%
X182225000Y-126310000D03*
D12*
X190500000Y-135960000D03*
%TO.P,S5,1*%
%TO.N,P20*%
X185500000Y-133860000D03*
X195500000Y-133860000D03*
%TD*%
D13*
%TO.P,S6,1*%
%TO.N,P5*%
X211775000Y-141110000D03*
D11*
%TO.P,S6,2*%
%TO.N,GND*%
X200225000Y-143310000D03*
D12*
X208500000Y-152960000D03*
%TO.P,S6,1*%
%TO.N,P5*%
X203500000Y-150860000D03*
X213500000Y-150860000D03*
%TD*%
D13*
%TO.P,S7,1*%
%TO.N,P21*%
X211775000Y-124110000D03*
D11*
%TO.P,S7,2*%
%TO.N,GND*%
X200225000Y-126310000D03*
D12*
X208500000Y-135960000D03*
%TO.P,S7,1*%
%TO.N,P21*%
X203500000Y-133860000D03*
X213500000Y-133860000D03*
%TD*%
D13*
%TO.P,S8,1*%
%TO.N,P15*%
X230275000Y-163550000D03*
D11*
%TO.P,S8,2*%
%TO.N,GND*%
X218725000Y-165750000D03*
D12*
X227000000Y-175400000D03*
%TO.P,S8,1*%
%TO.N,P15*%
X222000000Y-173300000D03*
X232000000Y-173300000D03*
%TD*%
D13*
%TO.P,S9,1*%
%TO.N,P14*%
X248275000Y-163550000D03*
D11*
%TO.P,S9,2*%
%TO.N,GND*%
X236725000Y-165750000D03*
D12*
X245000000Y-175400000D03*
%TO.P,S9,1*%
%TO.N,P14*%
X240000000Y-173300000D03*
X250000000Y-173300000D03*
%TD*%
D14*
%TO.P,MCU1,24*%
%TO.N,MCU1_24*%
X227880000Y-124860000D03*
%TO.P,MCU1,1*%
%TO.N,MCU1_1*%
X243120000Y-124860000D03*
D15*
%TO.P,MCU1,124*%
%TO.N,P1*%
X232238000Y-124860000D03*
%TO.P,MCU1,1*%
%TO.N,RAW*%
X238762000Y-124860000D03*
D16*
%TO.P,MCU1,24*%
%TO.N,MCU1_24*%
X230000000Y-124860000D03*
D17*
%TO.P,MCU1,124*%
%TO.N,P1*%
X230725000Y-124860000D03*
D18*
%TO.P,MCU1,1*%
%TO.N,RAW*%
X240275000Y-124860000D03*
D19*
%TO.N,MCU1_1*%
X241000000Y-124860000D03*
D14*
%TO.P,MCU1,23*%
%TO.N,MCU1_23*%
X227880000Y-127400000D03*
%TO.P,MCU1,2*%
%TO.N,MCU1_2*%
X243120000Y-127400000D03*
D15*
%TO.P,MCU1,123*%
%TO.N,P0*%
X232238000Y-127400000D03*
%TO.P,MCU1,2*%
%TO.N,GND*%
X238762000Y-127400000D03*
D16*
%TO.P,MCU1,23*%
%TO.N,MCU1_23*%
X230000000Y-127400000D03*
D17*
%TO.P,MCU1,123*%
%TO.N,P0*%
X230725000Y-127400000D03*
D18*
%TO.P,MCU1,2*%
%TO.N,GND*%
X240275000Y-127400000D03*
D19*
%TO.N,MCU1_2*%
X241000000Y-127400000D03*
D14*
%TO.P,MCU1,22*%
%TO.N,MCU1_22*%
X227880000Y-129940000D03*
%TO.P,MCU1,3*%
%TO.N,MCU1_3*%
X243120000Y-129940000D03*
D15*
%TO.P,MCU1,122*%
%TO.N,GND*%
X232238000Y-129940000D03*
%TO.P,MCU1,3*%
%TO.N,RST*%
X238762000Y-129940000D03*
D16*
%TO.P,MCU1,22*%
%TO.N,MCU1_22*%
X230000000Y-129940000D03*
D17*
%TO.P,MCU1,122*%
%TO.N,GND*%
X230725000Y-129940000D03*
D18*
%TO.P,MCU1,3*%
%TO.N,RST*%
X240275000Y-129940000D03*
D19*
%TO.N,MCU1_3*%
X241000000Y-129940000D03*
D14*
%TO.P,MCU1,21*%
%TO.N,MCU1_21*%
X227880000Y-132480000D03*
%TO.P,MCU1,4*%
%TO.N,MCU1_4*%
X243120000Y-132480000D03*
D15*
%TO.P,MCU1,121*%
%TO.N,GND*%
X232238000Y-132480000D03*
%TO.P,MCU1,4*%
%TO.N,VCC*%
X238762000Y-132480000D03*
D16*
%TO.P,MCU1,21*%
%TO.N,MCU1_21*%
X230000000Y-132480000D03*
D17*
%TO.P,MCU1,121*%
%TO.N,GND*%
X230725000Y-132480000D03*
D18*
%TO.P,MCU1,4*%
%TO.N,VCC*%
X240275000Y-132480000D03*
D19*
%TO.N,MCU1_4*%
X241000000Y-132480000D03*
D14*
%TO.P,MCU1,20*%
%TO.N,MCU1_20*%
X227880000Y-135020000D03*
%TO.P,MCU1,5*%
%TO.N,MCU1_5*%
X243120000Y-135020000D03*
D15*
%TO.P,MCU1,120*%
%TO.N,P2*%
X232238000Y-135020000D03*
%TO.P,MCU1,5*%
%TO.N,P21*%
X238762000Y-135020000D03*
D16*
%TO.P,MCU1,20*%
%TO.N,MCU1_20*%
X230000000Y-135020000D03*
D17*
%TO.P,MCU1,120*%
%TO.N,P2*%
X230725000Y-135020000D03*
D18*
%TO.P,MCU1,5*%
%TO.N,P21*%
X240275000Y-135020000D03*
D19*
%TO.N,MCU1_5*%
X241000000Y-135020000D03*
D14*
%TO.P,MCU1,19*%
%TO.N,MCU1_19*%
X227880000Y-137560000D03*
%TO.P,MCU1,6*%
%TO.N,MCU1_6*%
X243120000Y-137560000D03*
D15*
%TO.P,MCU1,119*%
%TO.N,P3*%
X232238000Y-137560000D03*
%TO.P,MCU1,6*%
%TO.N,P20*%
X238762000Y-137560000D03*
D16*
%TO.P,MCU1,19*%
%TO.N,MCU1_19*%
X230000000Y-137560000D03*
D17*
%TO.P,MCU1,119*%
%TO.N,P3*%
X230725000Y-137560000D03*
D18*
%TO.P,MCU1,6*%
%TO.N,P20*%
X240275000Y-137560000D03*
D19*
%TO.N,MCU1_6*%
X241000000Y-137560000D03*
D14*
%TO.P,MCU1,18*%
%TO.N,MCU1_18*%
X227880000Y-140100000D03*
%TO.P,MCU1,7*%
%TO.N,MCU1_7*%
X243120000Y-140100000D03*
D15*
%TO.P,MCU1,118*%
%TO.N,P4*%
X232238000Y-140100000D03*
%TO.P,MCU1,7*%
%TO.N,P19*%
X238762000Y-140100000D03*
D16*
%TO.P,MCU1,18*%
%TO.N,MCU1_18*%
X230000000Y-140100000D03*
D17*
%TO.P,MCU1,118*%
%TO.N,P4*%
X230725000Y-140100000D03*
D18*
%TO.P,MCU1,7*%
%TO.N,P19*%
X240275000Y-140100000D03*
D19*
%TO.N,MCU1_7*%
X241000000Y-140100000D03*
D14*
%TO.P,MCU1,17*%
%TO.N,MCU1_17*%
X227880000Y-142640000D03*
%TO.P,MCU1,8*%
%TO.N,MCU1_8*%
X243120000Y-142640000D03*
D15*
%TO.P,MCU1,117*%
%TO.N,P5*%
X232238000Y-142640000D03*
%TO.P,MCU1,8*%
%TO.N,P18*%
X238762000Y-142640000D03*
D16*
%TO.P,MCU1,17*%
%TO.N,MCU1_17*%
X230000000Y-142640000D03*
D17*
%TO.P,MCU1,117*%
%TO.N,P5*%
X230725000Y-142640000D03*
D18*
%TO.P,MCU1,8*%
%TO.N,P18*%
X240275000Y-142640000D03*
D19*
%TO.N,MCU1_8*%
X241000000Y-142640000D03*
D14*
%TO.P,MCU1,16*%
%TO.N,MCU1_16*%
X227880000Y-145180000D03*
%TO.P,MCU1,9*%
%TO.N,MCU1_9*%
X243120000Y-145180000D03*
D15*
%TO.P,MCU1,116*%
%TO.N,P6*%
X232238000Y-145180000D03*
%TO.P,MCU1,9*%
%TO.N,P15*%
X238762000Y-145180000D03*
D16*
%TO.P,MCU1,16*%
%TO.N,MCU1_16*%
X230000000Y-145180000D03*
D17*
%TO.P,MCU1,116*%
%TO.N,P6*%
X230725000Y-145180000D03*
D18*
%TO.P,MCU1,9*%
%TO.N,P15*%
X240275000Y-145180000D03*
D19*
%TO.N,MCU1_9*%
X241000000Y-145180000D03*
D14*
%TO.P,MCU1,15*%
%TO.N,MCU1_15*%
X227880000Y-147720000D03*
%TO.P,MCU1,10*%
%TO.N,MCU1_10*%
X243120000Y-147720000D03*
D15*
%TO.P,MCU1,115*%
%TO.N,P7*%
X232238000Y-147720000D03*
%TO.P,MCU1,10*%
%TO.N,P14*%
X238762000Y-147720000D03*
D16*
%TO.P,MCU1,15*%
%TO.N,MCU1_15*%
X230000000Y-147720000D03*
D17*
%TO.P,MCU1,115*%
%TO.N,P7*%
X230725000Y-147720000D03*
D18*
%TO.P,MCU1,10*%
%TO.N,P14*%
X240275000Y-147720000D03*
D19*
%TO.N,MCU1_10*%
X241000000Y-147720000D03*
D14*
%TO.P,MCU1,14*%
%TO.N,MCU1_14*%
X227880000Y-150260000D03*
%TO.P,MCU1,11*%
%TO.N,MCU1_11*%
X243120000Y-150260000D03*
D15*
%TO.P,MCU1,114*%
%TO.N,P8*%
X232238000Y-150260000D03*
%TO.P,MCU1,11*%
%TO.N,P16*%
X238762000Y-150260000D03*
D16*
%TO.P,MCU1,14*%
%TO.N,MCU1_14*%
X230000000Y-150260000D03*
D17*
%TO.P,MCU1,114*%
%TO.N,P8*%
X230725000Y-150260000D03*
D18*
%TO.P,MCU1,11*%
%TO.N,P16*%
X240275000Y-150260000D03*
D19*
%TO.N,MCU1_11*%
X241000000Y-150260000D03*
D14*
%TO.P,MCU1,13*%
%TO.N,MCU1_13*%
X227880000Y-152800000D03*
%TO.P,MCU1,12*%
%TO.N,MCU1_12*%
X243120000Y-152800000D03*
D15*
%TO.P,MCU1,113*%
%TO.N,P9*%
X232238000Y-152800000D03*
%TO.P,MCU1,12*%
%TO.N,P10*%
X238762000Y-152800000D03*
D16*
%TO.P,MCU1,13*%
%TO.N,MCU1_13*%
X230000000Y-152800000D03*
D17*
%TO.P,MCU1,113*%
%TO.N,P9*%
X230725000Y-152800000D03*
D18*
%TO.P,MCU1,12*%
%TO.N,P10*%
X240275000Y-152800000D03*
D19*
%TO.N,MCU1_12*%
X241000000Y-152800000D03*
%TD*%
D20*
%TO.P,SW1,*%
%TO.N,*%
X252625000Y-124410000D03*
X250415000Y-124410000D03*
X250415000Y-131710000D03*
D21*
%TO.P,SW1,1*%
%TO.N,N/C*%
X249765000Y-130310000D03*
%TO.P,SW1,2*%
%TO.N,BAT_P*%
X249765000Y-127310000D03*
%TO.P,SW1,3*%
%TO.N,RAW*%
X249765000Y-125810000D03*
D20*
%TO.P,SW1,*%
%TO.N,*%
X252625000Y-131710000D03*
%TD*%
D22*
%TO.P,S10,1*%
%TO.N,RST*%
X251500000Y-138360000D03*
%TO.P,S10,2*%
%TO.N,GND*%
X251500000Y-141760000D03*
%TD*%
D23*
%TO.P,BAT,1*%
%TO.N,GND*%
X225000000Y-157060000D03*
%TO.P,BAT,2*%
%TO.N,BAT_P*%
X225000000Y-155060000D03*
%TD*%
D24*
%TO.P,Via1,1*%
%TO.N,P19*%
X172500000Y-127360000D03*
%TD*%
%TO.P,Via2,1*%
%TO.N,P20*%
X190500000Y-127360000D03*
%TD*%
%TO.P,Via3,1*%
%TO.N,P21*%
X208500000Y-127360000D03*
%TD*%
D25*
%TO.P,H1,*%
%TO.N,*%
X199500000Y-138560000D03*
%TD*%
%TO.P,H2,*%
%TO.N,*%
X181500000Y-138560000D03*
%TD*%
%TO.P,H3,*%
%TO.N,*%
X165500000Y-158060000D03*
%TD*%
%TO.P,H4,*%
%TO.N,*%
X220000000Y-158060000D03*
%TD*%
D26*
%TO.P,DISP1,14*%
%TO.N,P1*%
X230420000Y-154510000D03*
%TO.P,DISP1,15*%
%TO.N,GND*%
X232960000Y-154510000D03*
%TO.P,DISP1,16*%
%TO.N,P3*%
X238040000Y-154510000D03*
%TO.P,DISP1,17*%
%TO.N,P2*%
X240580000Y-154510000D03*
%TO.P,DISP1,10*%
%TO.N,DISP1_1*%
X230420000Y-155410000D03*
%TO.P,DISP1,11*%
%TO.N,DISP1_2*%
X232960000Y-155410000D03*
%TO.P,DISP1,12*%
%TO.N,DISP1_4*%
X238040000Y-155410000D03*
%TO.P,DISP1,13*%
%TO.N,DISP1_5*%
X240580000Y-155410000D03*
D27*
%TO.P,DISP1,1*%
%TO.N,DISP1_1*%
X230420000Y-157760000D03*
%TO.P,DISP1,2*%
%TO.N,DISP1_2*%
X232960000Y-157760000D03*
%TO.P,DISP1,3*%
%TO.N,VCC*%
X235500000Y-157760000D03*
%TO.P,DISP1,4*%
%TO.N,DISP1_4*%
X238040000Y-157760000D03*
D14*
%TO.P,DISP1,5*%
%TO.N,DISP1_5*%
X240580000Y-157760000D03*
%TD*%
D28*
%TO.N,DISP1_1*%
X229190300Y-155380900D03*
%TO.N,BAT_P*%
X248409100Y-128738500D03*
X233557500Y-159981500D03*
%TO.N,P3*%
X236047300Y-154502600D03*
%TO.N,P2*%
X229198400Y-154315400D03*
%TO.N,P1*%
X236774500Y-156754900D03*
%TO.N,RST*%
X250412300Y-139422900D03*
%TO.N,P14*%
X243507100Y-155227500D03*
%TO.N,GND*%
X249679800Y-138359200D03*
%TD*%
D29*
%TO.N,DISP1_5*%
X240580000Y-155410000D02*
X239653100Y-155410000D01*
X239653100Y-156833100D02*
X239653100Y-155410000D01*
X240580000Y-157760000D02*
X239653100Y-156833100D01*
%TO.N,DISP1_4*%
X238040000Y-157760000D02*
X238040000Y-155410000D01*
%TO.N,DISP1_2*%
X232960000Y-155410000D02*
X232033100Y-155410000D01*
X232960000Y-157760000D02*
X232960000Y-156583100D01*
X232033100Y-155900200D02*
X232033100Y-155410000D01*
X232716000Y-156583100D02*
X232033100Y-155900200D01*
X232960000Y-156583100D02*
X232716000Y-156583100D01*
%TO.N,DISP1_1*%
X230420000Y-155410000D02*
X229493100Y-155410000D01*
X229464000Y-155380900D02*
X229190300Y-155380900D01*
X229493100Y-155410000D02*
X229464000Y-155380900D01*
%TO.N,BAT_P*%
X249765000Y-127310000D02*
X248688100Y-127310000D01*
X248409100Y-127589000D02*
X248409100Y-128738500D01*
X248688100Y-127310000D02*
X248409100Y-127589000D01*
X248409100Y-131943600D02*
X248409100Y-128738500D01*
X253136700Y-136671200D02*
X248409100Y-131943600D01*
X253136700Y-147603900D02*
X253136700Y-136671200D01*
X240759100Y-159981500D02*
X253136700Y-147603900D01*
X233557500Y-159981500D02*
X240759100Y-159981500D01*
%TO.N,MCU1_12*%
X241000000Y-152800000D02*
X243120000Y-152800000D01*
%TO.N,MCU1_13*%
X227880000Y-152800000D02*
X230000000Y-152800000D01*
%TO.N,MCU1_11*%
X241000000Y-150260000D02*
X243120000Y-150260000D01*
%TO.N,MCU1_14*%
X227880000Y-150260000D02*
X230000000Y-150260000D01*
%TO.N,MCU1_10*%
X241000000Y-147720000D02*
X243120000Y-147720000D01*
%TO.N,MCU1_15*%
X227880000Y-147720000D02*
X230000000Y-147720000D01*
%TO.N,MCU1_9*%
X241000000Y-145180000D02*
X243120000Y-145180000D01*
%TO.N,MCU1_16*%
X227880000Y-145180000D02*
X230000000Y-145180000D01*
%TO.N,MCU1_8*%
X241000000Y-142640000D02*
X243120000Y-142640000D01*
%TO.N,MCU1_17*%
X227880000Y-142640000D02*
X230000000Y-142640000D01*
%TO.N,MCU1_7*%
X241000000Y-140100000D02*
X243120000Y-140100000D01*
%TO.N,MCU1_18*%
X227880000Y-140100000D02*
X230000000Y-140100000D01*
%TO.N,MCU1_6*%
X241000000Y-137560000D02*
X243120000Y-137560000D01*
%TO.N,MCU1_19*%
X227880000Y-137560000D02*
X230000000Y-137560000D01*
%TO.N,MCU1_5*%
X241000000Y-135020000D02*
X243120000Y-135020000D01*
%TO.N,MCU1_20*%
X227880000Y-135020000D02*
X230000000Y-135020000D01*
%TO.N,MCU1_4*%
X241000000Y-132480000D02*
X243120000Y-132480000D01*
%TO.N,MCU1_21*%
X227880000Y-132480000D02*
X230000000Y-132480000D01*
%TO.N,MCU1_3*%
X241000000Y-129940000D02*
X243120000Y-129940000D01*
%TO.N,MCU1_22*%
X227880000Y-129940000D02*
X230000000Y-129940000D01*
%TO.N,MCU1_2*%
X241000000Y-127400000D02*
X243120000Y-127400000D01*
%TO.N,MCU1_23*%
X227880000Y-127400000D02*
X230000000Y-127400000D01*
%TO.N,MCU1_1*%
X241000000Y-124860000D02*
X243120000Y-124860000D01*
%TO.N,MCU1_24*%
X227880000Y-124860000D02*
X230000000Y-124860000D01*
%TO.N,P9*%
X230720000Y-152800000D02*
X230725000Y-152800000D01*
X230725000Y-152800000D02*
X232238000Y-152800000D01*
X232238000Y-152800000D02*
X232240000Y-152800000D01*
%TO.N,P4*%
X230720000Y-140100000D02*
X230725000Y-140100000D01*
X230725000Y-140100000D02*
X232238000Y-140100000D01*
X232238000Y-140100000D02*
X232240000Y-140100000D01*
%TO.N,P3*%
X230720000Y-137560000D02*
X230725000Y-137560000D01*
X230725000Y-137560000D02*
X232238000Y-137560000D01*
X232238000Y-137560000D02*
X232240000Y-137560000D01*
X237105700Y-154502600D02*
X237113100Y-154510000D01*
X236047300Y-154502600D02*
X237105700Y-154502600D01*
X238040000Y-154510000D02*
X237113100Y-154510000D01*
%TO.N,P2*%
X230720000Y-135020000D02*
X230725000Y-135020000D01*
X230725000Y-135020000D02*
X232238000Y-135020000D01*
X240580000Y-154510000D02*
X239653100Y-154510000D01*
X232238000Y-135020000D02*
X232240000Y-135020000D01*
X237981100Y-144911400D02*
X237981100Y-151530000D01*
X238982500Y-143910000D02*
X237981100Y-144911400D01*
X243552300Y-143910000D02*
X238982500Y-143910000D01*
X244350700Y-143111600D02*
X243552300Y-143910000D01*
X244350700Y-137099900D02*
X244350700Y-143111600D01*
X243540800Y-136290000D02*
X244350700Y-137099900D01*
X233510000Y-136290000D02*
X243540800Y-136290000D01*
X232240000Y-135020000D02*
X233510000Y-136290000D01*
X239408800Y-154510000D02*
X239653100Y-154510000D01*
X237981100Y-153082300D02*
X239408800Y-154510000D01*
X237981100Y-151530000D02*
X237981100Y-153082300D01*
X227714000Y-154315400D02*
X229198400Y-154315400D01*
X226688600Y-153290000D02*
X227714000Y-154315400D01*
X226688600Y-152305300D02*
X226688600Y-153290000D01*
X227463900Y-151530000D02*
X226688600Y-152305300D01*
X237981100Y-151530000D02*
X227463900Y-151530000D01*
%TO.N,P0*%
X230720000Y-127400000D02*
X230725000Y-127400000D01*
X230725000Y-127400000D02*
X232238000Y-127400000D01*
X232238000Y-127400000D02*
X232240000Y-127400000D01*
%TO.N,P1*%
X230720000Y-124860000D02*
X230725000Y-124860000D01*
X230725000Y-124860000D02*
X232238000Y-124860000D01*
X232238000Y-124860000D02*
X232240000Y-124860000D01*
X233902700Y-153883100D02*
X236774500Y-156754900D01*
X231973800Y-153883100D02*
X233902700Y-153883100D01*
X231346900Y-154510000D02*
X231973800Y-153883100D01*
X230420000Y-154510000D02*
X231346900Y-154510000D01*
%TO.N,P10*%
X240280000Y-152800000D02*
X240275000Y-152800000D01*
X240275000Y-152800000D02*
X238762000Y-152800000D01*
X238762000Y-152800000D02*
X238760000Y-152800000D01*
%TO.N,P16*%
X240280000Y-150260000D02*
X240275000Y-150260000D01*
X240275000Y-150260000D02*
X238762000Y-150260000D01*
X238762000Y-150260000D02*
X238760000Y-150260000D01*
%TO.N,P18*%
X240280000Y-142640000D02*
X240275000Y-142640000D01*
X240275000Y-142640000D02*
X238762000Y-142640000D01*
X238762000Y-142640000D02*
X238760000Y-142640000D01*
%TO.N,VCC*%
X240280000Y-132480000D02*
X240275000Y-132480000D01*
X240275000Y-132480000D02*
X238762000Y-132480000D01*
X238762000Y-132480000D02*
X238761000Y-132480000D01*
X238761000Y-132480000D02*
X238760000Y-132480000D01*
X236676900Y-158125800D02*
X236676900Y-157760000D01*
X237489400Y-158938300D02*
X236676900Y-158125800D01*
X241137500Y-158938300D02*
X237489400Y-158938300D01*
X252676900Y-147398900D02*
X241137500Y-158938300D01*
X252676900Y-137738800D02*
X252676900Y-147398900D01*
X243666000Y-128727900D02*
X252676900Y-137738800D01*
X238899700Y-128727900D02*
X243666000Y-128727900D01*
X238033000Y-129594600D02*
X238899700Y-128727900D01*
X238033000Y-131752000D02*
X238033000Y-129594600D01*
X238761000Y-132480000D02*
X238033000Y-131752000D01*
X235500000Y-157760000D02*
X236676900Y-157760000D01*
%TO.N,RST*%
X240275000Y-129940000D02*
X238762000Y-129940000D01*
X238762000Y-129940000D02*
X238760000Y-129940000D01*
X240280000Y-129940000D02*
X240277500Y-129940000D01*
X240277500Y-129940000D02*
X240275000Y-129940000D01*
X251500000Y-138360000D02*
X250435700Y-138360000D01*
X250412300Y-138060800D02*
X250412300Y-138360000D01*
X243561500Y-131210000D02*
X250412300Y-138060800D01*
X241428500Y-131210000D02*
X243561500Y-131210000D01*
X240277500Y-130059000D02*
X241428500Y-131210000D01*
X240277500Y-129940000D02*
X240277500Y-130059000D01*
X250412300Y-138360000D02*
X250435700Y-138360000D01*
X250412300Y-138360000D02*
X250412300Y-139422900D01*
%TO.N,RAW*%
X240275000Y-124860000D02*
X238762000Y-124860000D01*
X238762000Y-124860000D02*
X238760000Y-124860000D01*
X240280000Y-124860000D02*
X240277500Y-124860000D01*
X240277500Y-124860000D02*
X240275000Y-124860000D01*
X248448100Y-126050000D02*
X248688100Y-125810000D01*
X241348500Y-126050000D02*
X248448100Y-126050000D01*
X240277500Y-124979000D02*
X241348500Y-126050000D01*
X240277500Y-124860000D02*
X240277500Y-124979000D01*
X249765000Y-125810000D02*
X248688100Y-125810000D01*
%TO.N,P14*%
X240275000Y-147720000D02*
X238762000Y-147720000D01*
X238762000Y-147720000D02*
X238760000Y-147720000D01*
X250000000Y-173300000D02*
X240000000Y-173300000D01*
X247905600Y-171205600D02*
X250000000Y-173300000D01*
X247905600Y-163919400D02*
X247905600Y-171205600D01*
X248275000Y-163550000D02*
X247905600Y-163919400D01*
X240280000Y-147720000D02*
X240277500Y-147720000D01*
X240277500Y-147720000D02*
X240275000Y-147720000D01*
X244303200Y-154431400D02*
X243507100Y-155227500D01*
X244303200Y-149690600D02*
X244303200Y-154431400D01*
X243602600Y-148990000D02*
X244303200Y-149690600D01*
X241409100Y-148990000D02*
X243602600Y-148990000D01*
X240277500Y-147858400D02*
X241409100Y-148990000D01*
X240277500Y-147720000D02*
X240277500Y-147858400D01*
%TO.N,P15*%
X240280000Y-145180000D02*
X240275000Y-145180000D01*
X240275000Y-145180000D02*
X238762000Y-145180000D01*
X238762000Y-145180000D02*
X238760000Y-145180000D01*
X232000000Y-173300000D02*
X222000000Y-173300000D01*
X229905600Y-171205600D02*
X232000000Y-173300000D01*
X229905600Y-163919400D02*
X229905600Y-171205600D01*
X230275000Y-163550000D02*
X229905600Y-163919400D01*
%TO.N,P21*%
X240280000Y-135020000D02*
X240275000Y-135020000D01*
X240275000Y-135020000D02*
X238762000Y-135020000D01*
X238762000Y-135020000D02*
X238760000Y-135020000D01*
X237545000Y-133805000D02*
X238760000Y-135020000D01*
X213555000Y-133805000D02*
X237545000Y-133805000D01*
X213500000Y-133860000D02*
X213555000Y-133805000D01*
X211750000Y-124110000D02*
X211775000Y-124110000D01*
X208500000Y-127360000D02*
X211750000Y-124110000D01*
%TO.N,P5*%
X230725000Y-142640000D02*
X232238000Y-142640000D01*
X232238000Y-142640000D02*
X232240000Y-142640000D01*
X230720000Y-142640000D02*
X230722500Y-142640000D01*
X230722500Y-142640000D02*
X230725000Y-142640000D01*
X223592200Y-141110000D02*
X211775000Y-141110000D01*
X223852200Y-141370000D02*
X223592200Y-141110000D01*
X229571500Y-141370000D02*
X223852200Y-141370000D01*
X230722500Y-142521000D02*
X229571500Y-141370000D01*
X230722500Y-142640000D02*
X230722500Y-142521000D01*
X211392100Y-141492900D02*
X211392100Y-149992300D01*
X211775000Y-141110000D02*
X211392100Y-141492900D01*
X212632300Y-149992300D02*
X211392100Y-149992300D01*
X213500000Y-150860000D02*
X212632300Y-149992300D01*
X204367700Y-149992300D02*
X203500000Y-150860000D01*
X211392100Y-149992300D02*
X204367700Y-149992300D01*
%TO.N,P20*%
X240280000Y-137560000D02*
X240275000Y-137560000D01*
X240275000Y-137560000D02*
X238762000Y-137560000D01*
X238762000Y-137560000D02*
X238760000Y-137560000D01*
X198984000Y-133860000D02*
X195500000Y-133860000D01*
X203903100Y-138779100D02*
X198984000Y-133860000D01*
X237540900Y-138779100D02*
X203903100Y-138779100D01*
X238760000Y-137560000D02*
X237540900Y-138779100D01*
X190525000Y-127360000D02*
X190500000Y-127360000D01*
X193775000Y-124110000D02*
X190525000Y-127360000D01*
%TO.N,P6*%
X230725000Y-145180000D02*
X232238000Y-145180000D01*
X232238000Y-145180000D02*
X232240000Y-145180000D01*
X230720000Y-145180000D02*
X230725000Y-145180000D01*
X191311200Y-150860000D02*
X185500000Y-150860000D01*
X193405600Y-148765600D02*
X191311200Y-150860000D01*
X193405600Y-141479400D02*
X193405600Y-148765600D01*
X193775000Y-141110000D02*
X193405600Y-141479400D01*
X193405600Y-148765600D02*
X195500000Y-150860000D01*
%TO.N,P19*%
X240280000Y-140100000D02*
X240275000Y-140100000D01*
X240275000Y-140100000D02*
X238762000Y-140100000D01*
X238762000Y-140100000D02*
X238760000Y-140100000D01*
X172525000Y-127360000D02*
X175775000Y-124110000D01*
X172500000Y-127360000D02*
X172525000Y-127360000D01*
%TO.N,P7*%
X230725000Y-147720000D02*
X232238000Y-147720000D01*
X232238000Y-147720000D02*
X232240000Y-147720000D01*
X177500000Y-150860000D02*
X167500000Y-150860000D01*
X175405600Y-148765600D02*
X177500000Y-150860000D01*
X175405600Y-141479400D02*
X175405600Y-148765600D01*
X175775000Y-141110000D02*
X175405600Y-141479400D01*
X230720000Y-147720000D02*
X230722500Y-147720000D01*
X230722500Y-147720000D02*
X230725000Y-147720000D01*
X178901000Y-152261000D02*
X177500000Y-150860000D01*
X187241600Y-152261000D02*
X178901000Y-152261000D01*
X187885500Y-151617100D02*
X187241600Y-152261000D01*
X191056300Y-151617100D02*
X187885500Y-151617100D01*
X191645300Y-152206100D02*
X191056300Y-151617100D01*
X204053100Y-152206100D02*
X191645300Y-152206100D01*
X204722900Y-151536300D02*
X204053100Y-152206100D01*
X209153700Y-151536300D02*
X204722900Y-151536300D01*
X209823600Y-152206200D02*
X209153700Y-151536300D01*
X214704600Y-152206200D02*
X209823600Y-152206200D01*
X220390500Y-146520300D02*
X214704600Y-152206200D01*
X229668700Y-146520300D02*
X220390500Y-146520300D01*
X230722500Y-147574100D02*
X229668700Y-146520300D01*
X230722500Y-147720000D02*
X230722500Y-147574100D01*
%TO.N,GND*%
X230720000Y-132480000D02*
X230725000Y-132480000D01*
X230720000Y-129940000D02*
X230725000Y-129940000D01*
X240280000Y-127400000D02*
X240275000Y-127400000D01*
X240275000Y-127400000D02*
X238762000Y-127400000D01*
X238762000Y-127400000D02*
X238760000Y-127400000D01*
X230725000Y-129940000D02*
X232238000Y-129940000D01*
X232238000Y-129940000D02*
X232240000Y-129940000D01*
X230725000Y-132480000D02*
X232238000Y-132480000D01*
X232238000Y-132480000D02*
X232240000Y-132480000D01*
X200225000Y-126310000D02*
X200225000Y-127936900D01*
X200225000Y-143310000D02*
X198598100Y-143310000D01*
X168889900Y-132349900D02*
X172500000Y-135960000D01*
X167251300Y-132349900D02*
X168889900Y-132349900D01*
X164225000Y-129323600D02*
X167251300Y-132349900D01*
X164225000Y-126310000D02*
X164225000Y-129323600D01*
X251500000Y-141760000D02*
X250323100Y-141760000D01*
X190500000Y-135960000D02*
X191756500Y-135960000D01*
X198598100Y-142801600D02*
X198598100Y-143310000D01*
X191756500Y-135960000D02*
X198598100Y-142801600D01*
X191756500Y-135658000D02*
X191756500Y-135960000D01*
X195926700Y-131487800D02*
X191756500Y-135658000D01*
X200225000Y-131487800D02*
X195926700Y-131487800D01*
X204027800Y-131487800D02*
X200225000Y-131487800D01*
X208500000Y-135960000D02*
X204027800Y-131487800D01*
X200225000Y-131487800D02*
X200225000Y-127936900D01*
X182225000Y-143310000D02*
X182225000Y-141683100D01*
X218725000Y-165750000D02*
X218725000Y-164123100D01*
X249414700Y-140851600D02*
X249414700Y-138388400D01*
X250323100Y-141760000D02*
X249414700Y-140851600D01*
X237162000Y-132480000D02*
X232240000Y-132480000D01*
X238430100Y-133748100D02*
X237162000Y-132480000D01*
X244774400Y-133748100D02*
X238430100Y-133748100D01*
X249414700Y-138388400D02*
X244774400Y-133748100D01*
X158750000Y-144225000D02*
X160376900Y-144225000D01*
X171575000Y-135960000D02*
X164225000Y-143310000D01*
X172500000Y-135960000D02*
X171575000Y-135960000D01*
X161291900Y-143310000D02*
X160376900Y-144225000D01*
X164225000Y-143310000D02*
X161291900Y-143310000D01*
X183563100Y-140345000D02*
X183563100Y-137202000D01*
X182225000Y-141683100D02*
X183563100Y-140345000D01*
X189258000Y-137202000D02*
X183563100Y-137202000D01*
X190500000Y-135960000D02*
X189258000Y-137202000D01*
X172596100Y-135863900D02*
X172500000Y-135960000D01*
X182225000Y-135863900D02*
X172596100Y-135863900D01*
X183563100Y-137202000D02*
X182225000Y-135863900D01*
X182225000Y-135863900D02*
X182225000Y-126310000D01*
X249443900Y-138359200D02*
X249679800Y-138359200D01*
X249414700Y-138388400D02*
X249443900Y-138359200D01*
X232960000Y-154510000D02*
X232033100Y-154510000D01*
X225000000Y-157848100D02*
X218725000Y-164123100D01*
X225000000Y-157060000D02*
X225000000Y-157848100D01*
X236725000Y-165750000D02*
X236725000Y-164123100D01*
X236623300Y-164123100D02*
X236725000Y-164123100D01*
X231690000Y-159189800D02*
X236623300Y-164123100D01*
X231690000Y-157283100D02*
X231690000Y-159189800D01*
X230876200Y-156469300D02*
X231690000Y-157283100D01*
X225590700Y-156469300D02*
X230876200Y-156469300D01*
X225000000Y-157060000D02*
X225590700Y-156469300D01*
X231419500Y-155123600D02*
X232033100Y-154510000D01*
X231419500Y-155926000D02*
X231419500Y-155123600D01*
X230876200Y-156469300D02*
X231419500Y-155926000D01*
%TO.N,P8*%
X230725000Y-150260000D02*
X232238000Y-150260000D01*
X232238000Y-150260000D02*
X232240000Y-150260000D01*
X230720000Y-150260000D02*
X230722500Y-150260000D01*
X230722500Y-150260000D02*
X230725000Y-150260000D01*
X220675000Y-155775000D02*
X160950000Y-155775000D01*
X227388100Y-149061900D02*
X220675000Y-155775000D01*
X229643400Y-149061900D02*
X227388100Y-149061900D01*
X230722500Y-150141000D02*
X229643400Y-149061900D01*
X230722500Y-150260000D02*
X230722500Y-150141000D01*
X151200000Y-153346200D02*
X151200000Y-147500000D01*
X153276900Y-155423100D02*
X151200000Y-153346200D01*
X151200000Y-157500000D02*
X153276900Y-155423100D01*
X160598100Y-155423100D02*
X160950000Y-155775000D01*
X153276900Y-155423100D02*
X160598100Y-155423100D01*
%TD*%
M02*
