0
SECTION
2
HEADER
9
$INSUNITS
70
4
0
ENDSEC
0
SECTION
2
TABLES
0
TABLE
2
LTYPE
0
LTYPE
72
65
70
64
2
CONTINUOUS
3
______
73
0
40
0
0
ENDTAB
0
TABLE
2
LAYER
0
ENDTAB
0
ENDSEC
0
SECTION
2
ENTITIES
0
LINE
8
0
10
146.75
20
-143.75
11
146.75
21
-161.25
0
LINE
8
0
10
146.75
20
-161.25
11
163.25
21
-161.25
0
LINE
8
0
10
163.25
20
-161.25
11
163.25
21
-143.75
0
LINE
8
0
10
163.25
20
-143.75
11
146.75
21
-143.75
0
LINE
8
0
10
163.75
20
-155.31
11
181.25
21
-155.31
0
LINE
8
0
10
181.25
20
-155.31
11
181.25
21
-138.81
0
LINE
8
0
10
181.25
20
-138.81
11
163.75
21
-138.81
0
LINE
8
0
10
163.75
20
-138.81
11
163.75
21
-155.31
0
LINE
8
0
10
163.75
20
-138.31
11
181.25
21
-138.31
0
LINE
8
0
10
181.25
20
-138.31
11
181.25
21
-121.81
0
LINE
8
0
10
181.25
20
-121.81
11
163.75
21
-121.81
0
LINE
8
0
10
163.75
20
-121.81
11
163.75
21
-138.31
0
LINE
8
0
10
181.75
20
-155.31
11
199.25
21
-155.31
0
LINE
8
0
10
199.25
20
-155.31
11
199.25
21
-138.81
0
LINE
8
0
10
199.25
20
-138.81
11
181.75
21
-138.81
0
LINE
8
0
10
181.75
20
-138.81
11
181.75
21
-155.31
0
LINE
8
0
10
181.75
20
-138.31
11
199.25
21
-138.31
0
LINE
8
0
10
199.25
20
-138.31
11
199.25
21
-121.81
0
LINE
8
0
10
199.25
20
-121.81
11
181.75
21
-121.81
0
LINE
8
0
10
181.75
20
-121.81
11
181.75
21
-138.31
0
LINE
8
0
10
199.75
20
-155.31
11
217.25
21
-155.31
0
LINE
8
0
10
217.25
20
-155.31
11
217.25
21
-138.81
0
LINE
8
0
10
217.25
20
-138.81
11
199.75
21
-138.81
0
LINE
8
0
10
199.75
20
-138.81
11
199.75
21
-155.31
0
LINE
8
0
10
199.75
20
-138.31
11
217.25
21
-138.31
0
LINE
8
0
10
217.25
20
-138.31
11
217.25
21
-121.81
0
LINE
8
0
10
217.25
20
-121.81
11
199.75
21
-121.81
0
LINE
8
0
10
199.75
20
-121.81
11
199.75
21
-138.31
0
LINE
8
0
10
218.25
20
-177.75
11
235.75
21
-177.75
0
LINE
8
0
10
235.75
20
-177.75
11
235.75
21
-161.25
0
LINE
8
0
10
235.75
20
-161.25
11
218.25
21
-161.25
0
LINE
8
0
10
218.25
20
-161.25
11
218.25
21
-177.75
0
LINE
8
0
10
236.25
20
-177.75
11
253.75
21
-177.75
0
LINE
8
0
10
253.75
20
-177.75
11
253.75
21
-161.25
0
LINE
8
0
10
253.75
20
-161.25
11
236.25
21
-161.25
0
LINE
8
0
10
236.25
20
-161.25
11
236.25
21
-177.75
0
ENDSEC
0
EOF