<svg width="690" height="1876" viewBox="0 0 690 1876" class="keymap" xmlns="http://www.w3.org/2000/svg" xmlns:xlink="http://www.w3.org/1999/xlink">
<style>/* font and background color specifications */
svg {
    font-family: SFMono-Regular,Consolas,Liberation Mono,Menlo,monospace;
    font-size: 14px;
    font-kerning: normal;
    text-rendering: optimizeLegibility;
    fill: #24292e;
}

/* default key styling */
rect {
    fill: #f6f8fa;
    stroke: #c9cccf;
    stroke-width: 1;
}

/* color accent for combo boxes */
rect.combo {
    fill: #cdf;
}

/* color accent for held keys */
rect.held, rect.combo.held {
    fill: #fdd;
}

/* color accent for ghost (optional) keys */
rect.ghost, rect.combo.ghost {
    fill: #fff0;
    stroke-width: 0;
}

text {
    text-anchor: middle;
    dominant-baseline: middle;
}

/* styling for layer labels */
text.label {
    font-weight: bold;
    text-anchor: start;
    stroke: white;
    stroke-width: 2;
    paint-order: stroke;
}

/* styling for combo tap, and key hold/shifted label text */
text.combo, text.hold, text.shifted {
    font-size: 11px;
}

text.hold {
    text-anchor: middle;
    dominant-baseline: auto;
}

text.shifted {
    text-anchor: middle;
    dominant-baseline: hanging;
}

/* styling for hold/shifted label text in combo box */
text.combo.hold, text.combo.shifted {
    font-size: 8px;
}

/* styling for combo dendrons */
path {
    stroke-width: 1;
    stroke: gray;
    fill: none;
}</style>
<g transform="translate(30, 0)" class="layer-AL1">
<text x="0" y="28" class="label" id="AL1">AL1:</text>
<g transform="translate(0, 56)">
<g transform="translate(30, 28)" class="key ghost keypos-0">
<rect rx="6" ry="6" x="-28" y="-26" width="56" height="52" class="key ghost"/>
</g>
<g transform="translate(90, 28)" class="key keypos-1">
<rect rx="6" ry="6" x="-28" y="-26" width="56" height="52" class="key"/>
<text x="0" y="0" class="key tap">L</text>
<text x="0" y="21" class="key hold">CTL</text>
</g>
<g transform="translate(150, 28)" class="key keypos-2">
<rect rx="6" ry="6" x="-28" y="-26" width="56" height="52" class="key"/>
<text x="0" y="0" class="key tap">G</text>
<text x="0" y="21" class="key hold">ALT</text>
</g>
<g transform="translate(210, 28)" class="key keypos-3">
<rect rx="6" ry="6" x="-28" y="-26" width="56" height="52" class="key"/>
<text x="0" y="0" class="key tap">D</text>
<text x="0" y="21" class="key hold">GUI</text>
</g>
<g transform="translate(270, 28)" class="key ghost keypos-4">
<rect rx="6" ry="6" x="-28" y="-26" width="56" height="52" class="key ghost"/>
</g>
<g transform="translate(360, 28)" class="key ghost keypos-5">
<rect rx="6" ry="6" x="-28" y="-26" width="56" height="52" class="key ghost"/>
</g>
<g transform="translate(420, 28)" class="key keypos-6">
<rect rx="6" ry="6" x="-28" y="-26" width="56" height="52" class="key"/>
<text x="0" y="0" class="key tap">H</text>
<text x="0" y="21" class="key hold">GUI</text>
</g>
<g transform="translate(480, 28)" class="key keypos-7">
<rect rx="6" ry="6" x="-28" y="-26" width="56" height="52" class="key"/>
<text x="0" y="0" class="key tap">U</text>
<text x="0" y="21" class="key hold">ALT</text>
</g>
<g transform="translate(540, 28)" class="key keypos-8">
<rect rx="6" ry="6" x="-28" y="-26" width="56" height="52" class="key"/>
<text x="0" y="0" class="key tap">O</text>
<text x="0" y="21" class="key hold">CTL</text>
</g>
<g transform="translate(600, 28)" class="key ghost keypos-9">
<rect rx="6" ry="6" x="-28" y="-26" width="56" height="52" class="key ghost"/>
</g>
<g transform="translate(30, 84)" class="key keypos-10">
<rect rx="6" ry="6" x="-28" y="-26" width="56" height="52" class="key"/>
<text x="0" y="0" class="key tap">I</text>
<a href="#NUM">
<text x="0" y="21" class="key hold layer-activator">NUM</text>
</a></g>
<g transform="translate(90, 84)" class="key keypos-11">
<rect rx="6" ry="6" x="-28" y="-26" width="56" height="52" class="key"/>
<text x="0" y="0" class="key tap">S</text>
<a href="#SYM2">
<text x="0" y="21" class="key hold layer-activator">SYM2</text>
</a></g>
<g transform="translate(150, 84)" class="key keypos-12">
<rect rx="6" ry="6" x="-28" y="-26" width="56" height="52" class="key"/>
<text x="0" y="0" class="key tap">R</text>
<a href="#SYM1">
<text x="0" y="21" class="key hold layer-activator">SYM1</text>
</a></g>
<g transform="translate(210, 84)" class="key keypos-13">
<rect rx="6" ry="6" x="-28" y="-26" width="56" height="52" class="key"/>
<text x="0" y="0" class="key tap">T</text>
<a href="#SYS">
<text x="0" y="21" class="key hold layer-activator">SYS</text>
</a></g>
<g transform="translate(270, 84)" class="key ghost keypos-14">
<rect rx="6" ry="6" x="-28" y="-26" width="56" height="52" class="key ghost"/>
</g>
<g transform="translate(360, 84)" class="key ghost keypos-15">
<rect rx="6" ry="6" x="-28" y="-26" width="56" height="52" class="key ghost"/>
</g>
<g transform="translate(420, 84)" class="key keypos-16">
<rect rx="6" ry="6" x="-28" y="-26" width="56" height="52" class="key"/>
<text x="0" y="0" class="key tap">N</text>
<a href="#SYS">
<text x="0" y="21" class="key hold layer-activator">SYS</text>
</a></g>
<g transform="translate(480, 84)" class="key keypos-17">
<rect rx="6" ry="6" x="-28" y="-26" width="56" height="52" class="key"/>
<text x="0" y="0" class="key tap">E</text>
<a href="#SYM1">
<text x="0" y="21" class="key hold layer-activator">SYM1</text>
</a></g>
<g transform="translate(540, 84)" class="key keypos-18">
<rect rx="6" ry="6" x="-28" y="-26" width="56" height="52" class="key"/>
<text x="0" y="0" class="key tap">A</text>
<a href="#SYM2">
<text x="0" y="21" class="key hold layer-activator">SYM2</text>
</a></g>
<g transform="translate(600, 84)" class="key keypos-19">
<rect rx="6" ry="6" x="-28" y="-26" width="56" height="52" class="key"/>
<text x="0" y="0" class="key tap">C</text>
<a href="#NUM">
<text x="0" y="21" class="key hold layer-activator">NUM</text>
</a></g>
<g transform="translate(210, 140)" class="key keypos-20">
<rect rx="6" ry="6" x="-28" y="-26" width="56" height="52" class="key"/>
<text x="0" y="0" class="key tap">SPC</text>
<text x="0" y="21" class="key hold">SHFT</text>
</g>
<g transform="translate(270, 140)" class="key keypos-21">
<rect rx="6" ry="6" x="-28" y="-26" width="56" height="52" class="key"/>
<text x="0" y="0" class="key tap">CPY</text>
<text x="0" y="21" class="key hold">PST</text>
</g>
<g transform="translate(360, 140)" class="key keypos-22">
<rect rx="6" ry="6" x="-28" y="-26" width="56" height="52" class="key"/>
<text x="0" y="0" class="key tap">BSPC</text>
</g>
<g transform="translate(420, 140)" class="key keypos-23">
<rect rx="6" ry="6" x="-28" y="-26" width="56" height="52" class="key"/>
<a href="#AL2">
<text x="0" y="0" class="key tap layer-activator">AL2</text>
</a></g>
<g class="combo combopos-0">
<rect rx="6" ry="6" x="166" y="15" width="28" height="26" class="combo"/>
<text x="180" y="28" class="combo tap">ENT</text>
</g>
<g class="combo combopos-1">
<rect rx="6" ry="6" x="106" y="15" width="28" height="26" class="combo"/>
<text x="120" y="28" class="combo tap">ESC</text>
</g>
<g class="combo combopos-2">
<rect rx="6" ry="6" x="106" y="71" width="28" height="26" class="combo"/>
<text x="120" y="84" class="combo tap">TAB</text>
</g>
<g class="combo combopos-3">
<path d="M315,169 h-39 a6.0,6.0 0 0 1 -6.0,-6.0 v-4" class="combo"/>
<path d="M315,169 h39 a6.0,6.0 0 0 0 6.0,-6.0 v-4" class="combo"/>
<rect rx="6" ry="6" x="301" y="156" width="28" height="26" class="combo"/>
<a href="#GAME">
<text x="315" y="169" class="combo tap layer-activator">GAME</text>
</a></g>
</g>
</g>
<g transform="translate(30, 238)" class="layer-AL2">
<text x="0" y="28" class="label" id="AL2">AL2:</text>
<g transform="translate(0, 56)">
<g transform="translate(30, 28)" class="key ghost keypos-0">
<rect rx="6" ry="6" x="-28" y="-26" width="56" height="52" class="key ghost"/>
</g>
<g transform="translate(90, 28)" class="key keypos-1">
<rect rx="6" ry="6" x="-28" y="-26" width="56" height="52" class="key"/>
<text x="0" y="0" class="key tap">V</text>
</g>
<g transform="translate(150, 28)" class="key keypos-2">
<rect rx="6" ry="6" x="-28" y="-26" width="56" height="52" class="key"/>
<text x="0" y="0" class="key tap">W</text>
</g>
<g transform="translate(210, 28)" class="key keypos-3">
<rect rx="6" ry="6" x="-28" y="-26" width="56" height="52" class="key"/>
<text x="0" y="0" class="key tap">M</text>
</g>
<g transform="translate(270, 28)" class="key ghost keypos-4">
<rect rx="6" ry="6" x="-28" y="-26" width="56" height="52" class="key ghost"/>
</g>
<g transform="translate(360, 28)" class="key ghost keypos-5">
<rect rx="6" ry="6" x="-28" y="-26" width="56" height="52" class="key ghost"/>
</g>
<g transform="translate(420, 28)" class="key keypos-6">
<rect rx="6" ry="6" x="-28" y="-26" width="56" height="52" class="key"/>
<text x="0" y="0" class="key tap">F</text>
</g>
<g transform="translate(480, 28)" class="key keypos-7">
<rect rx="6" ry="6" x="-28" y="-26" width="56" height="52" class="key"/>
<text x="0" y="0" class="key tap">&#x27;</text>
</g>
<g transform="translate(540, 28)" class="key keypos-8">
<rect rx="6" ry="6" x="-28" y="-26" width="56" height="52" class="key"/>
<text x="0" y="0" class="key tap">Z</text>
</g>
<g transform="translate(600, 28)" class="key ghost keypos-9">
<rect rx="6" ry="6" x="-28" y="-26" width="56" height="52" class="key ghost"/>
</g>
<g transform="translate(30, 84)" class="key keypos-10">
<rect rx="6" ry="6" x="-28" y="-26" width="56" height="52" class="key"/>
<text x="0" y="0" class="key tap">Q</text>
</g>
<g transform="translate(90, 84)" class="key keypos-11">
<rect rx="6" ry="6" x="-28" y="-26" width="56" height="52" class="key"/>
<text x="0" y="0" class="key tap">J</text>
</g>
<g transform="translate(150, 84)" class="key keypos-12">
<rect rx="6" ry="6" x="-28" y="-26" width="56" height="52" class="key"/>
<text x="0" y="0" class="key tap">P</text>
</g>
<g transform="translate(210, 84)" class="key keypos-13">
<rect rx="6" ry="6" x="-28" y="-26" width="56" height="52" class="key"/>
<text x="0" y="0" class="key tap">K</text>
</g>
<g transform="translate(270, 84)" class="key ghost keypos-14">
<rect rx="6" ry="6" x="-28" y="-26" width="56" height="52" class="key ghost"/>
</g>
<g transform="translate(360, 84)" class="key ghost keypos-15">
<rect rx="6" ry="6" x="-28" y="-26" width="56" height="52" class="key ghost"/>
</g>
<g transform="translate(420, 84)" class="key keypos-16">
<rect rx="6" ry="6" x="-28" y="-26" width="56" height="52" class="key"/>
<text x="0" y="0" class="key tap">B</text>
</g>
<g transform="translate(480, 84)" class="key keypos-17">
<rect rx="6" ry="6" x="-28" y="-26" width="56" height="52" class="key"/>
<text x="0" y="0" class="key tap">.</text>
<text x="0" y="21" class="key hold">,</text>
</g>
<g transform="translate(540, 84)" class="key keypos-18">
<rect rx="6" ry="6" x="-28" y="-26" width="56" height="52" class="key"/>
<text x="0" y="0" class="key tap">X</text>
</g>
<g transform="translate(600, 84)" class="key keypos-19">
<rect rx="6" ry="6" x="-28" y="-26" width="56" height="52" class="key"/>
<text x="0" y="0" class="key tap">Y</text>
</g>
<g transform="translate(210, 140)" class="key keypos-20">
<rect rx="6" ry="6" x="-28" y="-26" width="56" height="52" class="key"/>
<text x="0" y="0" class="key tap">trans</text>
</g>
<g transform="translate(270, 140)" class="key keypos-21">
<rect rx="6" ry="6" x="-28" y="-26" width="56" height="52" class="key"/>
<text x="0" y="0" class="key tap">trans</text>
</g>
<g transform="translate(360, 140)" class="key keypos-22">
<rect rx="6" ry="6" x="-28" y="-26" width="56" height="52" class="key"/>
<text x="0" y="0" class="key tap">trans</text>
</g>
<g transform="translate(420, 140)" class="key keypos-23">
<rect rx="6" ry="6" x="-28" y="-26" width="56" height="52" class="key"/>
<text x="0" y="0" class="key tap">AL2U</text>
</g>
</g>
</g>
<g transform="translate(30, 462)" class="layer-SYM1">
<text x="0" y="28" class="label" id="SYM1">SYM1:</text>
<g transform="translate(0, 56)">
<g transform="translate(30, 28)" class="key ghost keypos-0">
<rect rx="6" ry="6" x="-28" y="-26" width="56" height="52" class="key ghost"/>
</g>
<g transform="translate(90, 28)" class="key keypos-1">
<rect rx="6" ry="6" x="-28" y="-26" width="56" height="52" class="key"/>
<text x="0" y="0" class="key tap">!</text>
</g>
<g transform="translate(150, 28)" class="key keypos-2">
<rect rx="6" ry="6" x="-28" y="-26" width="56" height="52" class="key"/>
<text x="0" y="0" class="key tap">@</text>
</g>
<g transform="translate(210, 28)" class="key keypos-3">
<rect rx="6" ry="6" x="-28" y="-26" width="56" height="52" class="key"/>
<text x="0" y="0" class="key tap">#</text>
</g>
<g transform="translate(270, 28)" class="key ghost keypos-4">
<rect rx="6" ry="6" x="-28" y="-26" width="56" height="52" class="key ghost"/>
</g>
<g transform="translate(360, 28)" class="key ghost keypos-5">
<rect rx="6" ry="6" x="-28" y="-26" width="56" height="52" class="key ghost"/>
</g>
<g transform="translate(420, 28)" class="key keypos-6">
<rect rx="6" ry="6" x="-28" y="-26" width="56" height="52" class="key"/>
<text x="0" y="0" class="key tap">&amp;</text>
</g>
<g transform="translate(480, 28)" class="key keypos-7">
<rect rx="6" ry="6" x="-28" y="-26" width="56" height="52" class="key"/>
<text x="0" y="0" class="key tap">*</text>
</g>
<g transform="translate(540, 28)" class="key keypos-8">
<rect rx="6" ry="6" x="-28" y="-26" width="56" height="52" class="key"/>
<text x="0" y="0" class="key tap">?</text>
</g>
<g transform="translate(600, 28)" class="key ghost keypos-9">
<rect rx="6" ry="6" x="-28" y="-26" width="56" height="52" class="key ghost"/>
</g>
<g transform="translate(30, 84)" class="key keypos-10">
<rect rx="6" ry="6" x="-28" y="-26" width="56" height="52" class="key"/>
<text x="0" y="0" class="key tap">`</text>
</g>
<g transform="translate(90, 84)" class="key keypos-11">
<rect rx="6" ry="6" x="-28" y="-26" width="56" height="52" class="key"/>
<text x="0" y="0" class="key tap">$</text>
</g>
<g transform="translate(150, 84)" class="key held keypos-12">
<rect rx="6" ry="6" x="-28" y="-26" width="56" height="52" class="key held"/>
<text x="0" y="0" class="key held tap">%</text>
</g>
<g transform="translate(210, 84)" class="key keypos-13">
<rect rx="6" ry="6" x="-28" y="-26" width="56" height="52" class="key"/>
<text x="0" y="0" class="key tap">^</text>
</g>
<g transform="translate(270, 84)" class="key ghost keypos-14">
<rect rx="6" ry="6" x="-28" y="-26" width="56" height="52" class="key ghost"/>
</g>
<g transform="translate(360, 84)" class="key ghost keypos-15">
<rect rx="6" ry="6" x="-28" y="-26" width="56" height="52" class="key ghost"/>
</g>
<g transform="translate(420, 84)" class="key keypos-16">
<rect rx="6" ry="6" x="-28" y="-26" width="56" height="52" class="key"/>
<text x="0" y="0" class="key tap">_</text>
</g>
<g transform="translate(480, 84)" class="key held keypos-17">
<rect rx="6" ry="6" x="-28" y="-26" width="56" height="52" class="key held"/>
<text x="0" y="0" class="key held tap">\</text>
</g>
<g transform="translate(540, 84)" class="key keypos-18">
<rect rx="6" ry="6" x="-28" y="-26" width="56" height="52" class="key"/>
<text x="0" y="0" class="key tap">|</text>
</g>
<g transform="translate(600, 84)" class="key keypos-19">
<rect rx="6" ry="6" x="-28" y="-26" width="56" height="52" class="key"/>
<text x="0" y="0" class="key tap">~</text>
</g>
<g transform="translate(210, 140)" class="key keypos-20">
<rect rx="6" ry="6" x="-28" y="-26" width="56" height="52" class="key"/>
<text x="0" y="0" class="key tap">TAB-PRV</text>
</g>
<g transform="translate(270, 140)" class="key keypos-21">
<rect rx="6" ry="6" x="-28" y="-26" width="56" height="52" class="key"/>
<text x="0" y="0" class="key tap">TAB-NXT</text>
</g>
<g transform="translate(360, 140)" class="key keypos-22">
<rect rx="6" ry="6" x="-28" y="-26" width="56" height="52" class="key"/>
<text x="0" y="0" class="key tap">PG-PRV</text>
</g>
<g transform="translate(420, 140)" class="key keypos-23">
<rect rx="6" ry="6" x="-28" y="-26" width="56" height="52" class="key"/>
<text x="0" y="0" class="key tap">PG-NXT</text>
</g>
<g class="combo combopos-0">
<path d="M480,113 h-54 a6.0,6.0 0 0 1 -6.0,-6.0 v-4" class="combo"/>
<path d="M480,113 h54 a6.0,6.0 0 0 0 6.0,-6.0 v-4" class="combo"/>
<rect rx="6" ry="6" x="466" y="100" width="28" height="26" class="combo"/>
<a href="#BT">
<text x="480" y="113" class="combo tap layer-activator">BT</text>
</a></g>
</g>
</g>
<g transform="translate(30, 686)" class="layer-SYM2">
<text x="0" y="28" class="label" id="SYM2">SYM2:</text>
<g transform="translate(0, 56)">
<g transform="translate(30, 28)" class="key ghost keypos-0">
<rect rx="6" ry="6" x="-28" y="-26" width="56" height="52" class="key ghost"/>
</g>
<g transform="translate(90, 28)" class="key keypos-1">
<rect rx="6" ry="6" x="-28" y="-26" width="56" height="52" class="key"/>
<text x="0" y="0" class="key tap">&quot;</text>
</g>
<g transform="translate(150, 28)" class="key keypos-2">
<rect rx="6" ry="6" x="-28" y="-26" width="56" height="52" class="key"/>
<text x="0" y="0" class="key tap">&lt;</text>
</g>
<g transform="translate(210, 28)" class="key keypos-3">
<rect rx="6" ry="6" x="-28" y="-26" width="56" height="52" class="key"/>
<text x="0" y="0" class="key tap">&gt;</text>
</g>
<g transform="translate(270, 28)" class="key ghost keypos-4">
<rect rx="6" ry="6" x="-28" y="-26" width="56" height="52" class="key ghost"/>
</g>
<g transform="translate(360, 28)" class="key ghost keypos-5">
<rect rx="6" ry="6" x="-28" y="-26" width="56" height="52" class="key ghost"/>
</g>
<g transform="translate(420, 28)" class="key keypos-6">
<rect rx="6" ry="6" x="-28" y="-26" width="56" height="52" class="key"/>
<text x="0" y="0" class="key tap">(</text>
</g>
<g transform="translate(480, 28)" class="key keypos-7">
<rect rx="6" ry="6" x="-28" y="-26" width="56" height="52" class="key"/>
<text x="0" y="0" class="key tap">)</text>
</g>
<g transform="translate(540, 28)" class="key keypos-8">
<rect rx="6" ry="6" x="-28" y="-26" width="56" height="52" class="key"/>
<text x="0" y="0" class="key tap">~</text>
</g>
<g transform="translate(600, 28)" class="key ghost keypos-9">
<rect rx="6" ry="6" x="-28" y="-26" width="56" height="52" class="key ghost"/>
</g>
<g transform="translate(30, 84)" class="key keypos-10">
<rect rx="6" ry="6" x="-28" y="-26" width="56" height="52" class="key"/>
</g>
<g transform="translate(90, 84)" class="key held keypos-11">
<rect rx="6" ry="6" x="-28" y="-26" width="56" height="52" class="key held"/>
<text x="0" y="0" class="key held tap">&#x27;</text>
</g>
<g transform="translate(150, 84)" class="key keypos-12">
<rect rx="6" ry="6" x="-28" y="-26" width="56" height="52" class="key"/>
<text x="0" y="0" class="key tap">{</text>
</g>
<g transform="translate(210, 84)" class="key keypos-13">
<rect rx="6" ry="6" x="-28" y="-26" width="56" height="52" class="key"/>
<text x="0" y="0" class="key tap">}</text>
</g>
<g transform="translate(270, 84)" class="key ghost keypos-14">
<rect rx="6" ry="6" x="-28" y="-26" width="56" height="52" class="key ghost"/>
</g>
<g transform="translate(360, 84)" class="key ghost keypos-15">
<rect rx="6" ry="6" x="-28" y="-26" width="56" height="52" class="key ghost"/>
</g>
<g transform="translate(420, 84)" class="key keypos-16">
<rect rx="6" ry="6" x="-28" y="-26" width="56" height="52" class="key"/>
<text x="0" y="0" class="key tap">[</text>
</g>
<g transform="translate(480, 84)" class="key keypos-17">
<rect rx="6" ry="6" x="-28" y="-26" width="56" height="52" class="key"/>
<text x="0" y="0" class="key tap">]</text>
</g>
<g transform="translate(540, 84)" class="key held keypos-18">
<rect rx="6" ry="6" x="-28" y="-26" width="56" height="52" class="key held"/>
<text x="0" y="0" class="key held tap">_</text>
</g>
<g transform="translate(600, 84)" class="key keypos-19">
<rect rx="6" ry="6" x="-28" y="-26" width="56" height="52" class="key"/>
</g>
<g transform="translate(210, 140)" class="key keypos-20">
<rect rx="6" ry="6" x="-28" y="-26" width="56" height="52" class="key"/>
<text x="0" y="0" class="key tap">trans</text>
</g>
<g transform="translate(270, 140)" class="key keypos-21">
<rect rx="6" ry="6" x="-28" y="-26" width="56" height="52" class="key"/>
<text x="0" y="0" class="key tap">trans</text>
</g>
<g transform="translate(360, 140)" class="key keypos-22">
<rect rx="6" ry="6" x="-28" y="-26" width="56" height="52" class="key"/>
<text x="0" y="0" class="key tap">BSPC</text>
</g>
<g transform="translate(420, 140)" class="key keypos-23">
<rect rx="6" ry="6" x="-28" y="-26" width="56" height="52" class="key"/>
<text x="0" y="0" class="key tap">RGUI</text>
</g>
</g>
</g>
<g transform="translate(30, 910)" class="layer-NUM">
<text x="0" y="28" class="label" id="NUM">NUM:</text>
<g transform="translate(0, 56)">
<g transform="translate(30, 28)" class="key ghost keypos-0">
<rect rx="6" ry="6" x="-28" y="-26" width="56" height="52" class="key ghost"/>
</g>
<g transform="translate(90, 28)" class="key keypos-1">
<rect rx="6" ry="6" x="-28" y="-26" width="56" height="52" class="key"/>
<text x="0" y="0" class="key tap">*</text>
</g>
<g transform="translate(150, 28)" class="key keypos-2">
<rect rx="6" ry="6" x="-28" y="-26" width="56" height="52" class="key"/>
<text x="0" y="0" class="key tap">,</text>
</g>
<g transform="translate(210, 28)" class="key keypos-3">
<rect rx="6" ry="6" x="-28" y="-26" width="56" height="52" class="key"/>
<text x="0" y="0" class="key tap">;</text>
</g>
<g transform="translate(270, 28)" class="key ghost keypos-4">
<rect rx="6" ry="6" x="-28" y="-26" width="56" height="52" class="key ghost"/>
</g>
<g transform="translate(360, 28)" class="key ghost keypos-5">
<rect rx="6" ry="6" x="-28" y="-26" width="56" height="52" class="key ghost"/>
</g>
<g transform="translate(420, 28)" class="key keypos-6">
<rect rx="6" ry="6" x="-28" y="-26" width="56" height="52" class="key"/>
<text x="0" y="0" class="key tap">1</text>
</g>
<g transform="translate(480, 28)" class="key keypos-7">
<rect rx="6" ry="6" x="-28" y="-26" width="56" height="52" class="key"/>
<text x="0" y="0" class="key tap">2</text>
</g>
<g transform="translate(540, 28)" class="key keypos-8">
<rect rx="6" ry="6" x="-28" y="-26" width="56" height="52" class="key"/>
<text x="0" y="0" class="key tap">3</text>
</g>
<g transform="translate(600, 28)" class="key ghost keypos-9">
<rect rx="6" ry="6" x="-28" y="-26" width="56" height="52" class="key ghost"/>
</g>
<g transform="translate(30, 84)" class="key held keypos-10">
<rect rx="6" ry="6" x="-28" y="-26" width="56" height="52" class="key held"/>
<text x="0" y="0" class="key held tap">/</text>
</g>
<g transform="translate(90, 84)" class="key keypos-11">
<rect rx="6" ry="6" x="-28" y="-26" width="56" height="52" class="key"/>
<text x="0" y="0" class="key tap">-</text>
</g>
<g transform="translate(150, 84)" class="key keypos-12">
<rect rx="6" ry="6" x="-28" y="-26" width="56" height="52" class="key"/>
<text x="0" y="0" class="key tap">+</text>
</g>
<g transform="translate(210, 84)" class="key keypos-13">
<rect rx="6" ry="6" x="-28" y="-26" width="56" height="52" class="key"/>
<text x="0" y="0" class="key tap">:</text>
</g>
<g transform="translate(270, 84)" class="key ghost keypos-14">
<rect rx="6" ry="6" x="-28" y="-26" width="56" height="52" class="key ghost"/>
</g>
<g transform="translate(360, 84)" class="key ghost keypos-15">
<rect rx="6" ry="6" x="-28" y="-26" width="56" height="52" class="key ghost"/>
</g>
<g transform="translate(420, 84)" class="key keypos-16">
<rect rx="6" ry="6" x="-28" y="-26" width="56" height="52" class="key"/>
<text x="0" y="0" class="key tap">4</text>
</g>
<g transform="translate(480, 84)" class="key keypos-17">
<rect rx="6" ry="6" x="-28" y="-26" width="56" height="52" class="key"/>
<text x="0" y="0" class="key tap">5</text>
</g>
<g transform="translate(540, 84)" class="key keypos-18">
<rect rx="6" ry="6" x="-28" y="-26" width="56" height="52" class="key"/>
<text x="0" y="0" class="key tap">6</text>
</g>
<g transform="translate(600, 84)" class="key held keypos-19">
<rect rx="6" ry="6" x="-28" y="-26" width="56" height="52" class="key held"/>
<text x="0" y="0" class="key held tap">.</text>
</g>
<g transform="translate(210, 140)" class="key keypos-20">
<rect rx="6" ry="6" x="-28" y="-26" width="56" height="52" class="key"/>
<text x="0" y="0" class="key tap">SPC</text>
<text x="0" y="21" class="key hold">SHFT</text>
</g>
<g transform="translate(270, 140)" class="key keypos-21">
<rect rx="6" ry="6" x="-28" y="-26" width="56" height="52" class="key"/>
<text x="0" y="0" class="key tap">=</text>
</g>
<g transform="translate(360, 140)" class="key keypos-22">
<rect rx="6" ry="6" x="-28" y="-26" width="56" height="52" class="key"/>
<text x="0" y="0" class="key tap">BSPC</text>
</g>
<g transform="translate(420, 140)" class="key keypos-23">
<rect rx="6" ry="6" x="-28" y="-26" width="56" height="52" class="key"/>
<text x="0" y="0" class="key tap">GUI</text>
</g>
<g class="combo combopos-0">
<rect rx="6" ry="6" x="436" y="15" width="28" height="26" class="combo"/>
<text x="450" y="28" class="combo tap">7</text>
</g>
<g class="combo combopos-1">
<rect rx="6" ry="6" x="496" y="15" width="28" height="26" class="combo"/>
<text x="510" y="28" class="combo tap">8</text>
</g>
<g class="combo combopos-2">
<rect rx="6" ry="6" x="436" y="71" width="28" height="26" class="combo"/>
<text x="450" y="84" class="combo tap">9</text>
</g>
<g class="combo combopos-3">
<rect rx="6" ry="6" x="496" y="71" width="28" height="26" class="combo"/>
<text x="510" y="84" class="combo tap">0</text>
</g>
</g>
</g>
<g transform="translate(30, 1134)" class="layer-SYS">
<text x="0" y="28" class="label" id="SYS">SYS:</text>
<g transform="translate(0, 56)">
<g transform="translate(30, 28)" class="key ghost keypos-0">
<rect rx="6" ry="6" x="-28" y="-26" width="56" height="52" class="key ghost"/>
</g>
<g transform="translate(90, 28)" class="key keypos-1">
<rect rx="6" ry="6" x="-28" y="-26" width="56" height="52" class="key"/>
<text x="0" y="0" class="key tap">RCLK</text>
</g>
<g transform="translate(150, 28)" class="key keypos-2">
<rect rx="6" ry="6" x="-28" y="-26" width="56" height="52" class="key"/>
<text x="0" y="0" class="key tap">M-UP</text>
</g>
<g transform="translate(210, 28)" class="key keypos-3">
<rect rx="6" ry="6" x="-28" y="-26" width="56" height="52" class="key"/>
<text x="0" y="0" class="key tap">LCLK</text>
</g>
<g transform="translate(270, 28)" class="key ghost keypos-4">
<rect rx="6" ry="6" x="-28" y="-26" width="56" height="52" class="key ghost"/>
</g>
<g transform="translate(360, 28)" class="key ghost keypos-5">
<rect rx="6" ry="6" x="-28" y="-26" width="56" height="52" class="key ghost"/>
</g>
<g transform="translate(420, 28)" class="key keypos-6">
<rect rx="6" ry="6" x="-28" y="-26" width="56" height="52" class="key"/>
<text x="0" y="0" class="key tap">CPY</text>
<text x="0" y="21" class="key hold">PST</text>
</g>
<g transform="translate(480, 28)" class="key keypos-7">
<rect rx="6" ry="6" x="-28" y="-26" width="56" height="52" class="key"/>
<text x="0" y="0" class="key tap">↑</text>
</g>
<g transform="translate(540, 28)" class="key keypos-8">
<rect rx="6" ry="6" x="-28" y="-26" width="56" height="52" class="key"/>
<text x="0" y="0" class="key tap">F3</text>
<text x="0" y="21" class="key hold">ALT(F4)</text>
</g>
<g transform="translate(600, 28)" class="key ghost keypos-9">
<rect rx="6" ry="6" x="-28" y="-26" width="56" height="52" class="key ghost"/>
</g>
<g transform="translate(30, 84)" class="key keypos-10">
<rect rx="6" ry="6" x="-28" y="-26" width="56" height="52" class="key"/>
<text x="0" y="0" class="key tap">DEL</text>
<text x="0" y="21" class="key hold">HOME</text>
</g>
<g transform="translate(90, 84)" class="key keypos-11">
<rect rx="6" ry="6" x="-28" y="-26" width="56" height="52" class="key"/>
<text x="0" y="0" class="key tap">M-LT</text>
</g>
<g transform="translate(150, 84)" class="key keypos-12">
<rect rx="6" ry="6" x="-28" y="-26" width="56" height="52" class="key"/>
<text x="0" y="0" class="key tap">M-DN</text>
</g>
<g transform="translate(210, 84)" class="key held keypos-13">
<rect rx="6" ry="6" x="-28" y="-26" width="56" height="52" class="key held"/>
<text x="0" y="0" class="key held tap">M-RT</text>
</g>
<g transform="translate(270, 84)" class="key ghost keypos-14">
<rect rx="6" ry="6" x="-28" y="-26" width="56" height="52" class="key ghost"/>
</g>
<g transform="translate(360, 84)" class="key ghost keypos-15">
<rect rx="6" ry="6" x="-28" y="-26" width="56" height="52" class="key ghost"/>
</g>
<g transform="translate(420, 84)" class="key held keypos-16">
<rect rx="6" ry="6" x="-28" y="-26" width="56" height="52" class="key held"/>
<text x="0" y="0" class="key held tap">←</text>
</g>
<g transform="translate(480, 84)" class="key keypos-17">
<rect rx="6" ry="6" x="-28" y="-26" width="56" height="52" class="key"/>
<text x="0" y="0" class="key tap">↓</text>
</g>
<g transform="translate(540, 84)" class="key keypos-18">
<rect rx="6" ry="6" x="-28" y="-26" width="56" height="52" class="key"/>
<text x="0" y="0" class="key tap">→</text>
</g>
<g transform="translate(600, 84)" class="key keypos-19">
<rect rx="6" ry="6" x="-28" y="-26" width="56" height="52" class="key"/>
<text x="0" y="0" class="key tap">F2</text>
<text x="0" y="21" class="key hold">SCRS</text>
</g>
<g transform="translate(210, 140)" class="key keypos-20">
<rect rx="6" ry="6" x="-28" y="-26" width="56" height="52" class="key"/>
<text x="0" y="0" class="key tap">SHFT</text>
</g>
<g transform="translate(270, 140)" class="key keypos-21">
<rect rx="6" ry="6" x="-28" y="-26" width="56" height="52" class="key"/>
<text x="0" y="0" class="key tap">ALT</text>
</g>
<g transform="translate(360, 140)" class="key keypos-22">
<rect rx="6" ry="6" x="-28" y="-26" width="56" height="52" class="key"/>
<text x="0" y="0" class="key tap">BSPC</text>
</g>
<g transform="translate(420, 140)" class="key keypos-23">
<rect rx="6" ry="6" x="-28" y="-26" width="56" height="52" class="key"/>
<text x="0" y="0" class="key tap">GUI</text>
</g>
</g>
</g>
<g transform="translate(30, 1358)" class="layer-BT">
<text x="0" y="28" class="label" id="BT">BT:</text>
<g transform="translate(0, 56)">
<g transform="translate(30, 28)" class="key ghost keypos-0">
<rect rx="6" ry="6" x="-28" y="-26" width="56" height="52" class="key ghost"/>
</g>
<g transform="translate(90, 28)" class="key keypos-1">
<rect rx="6" ry="6" x="-28" y="-26" width="56" height="52" class="key"/>
<text x="0" y="0" class="key tap">BT0</text>
</g>
<g transform="translate(150, 28)" class="key keypos-2">
<rect rx="6" ry="6" x="-28" y="-26" width="56" height="52" class="key"/>
<text x="0" y="0" class="key tap">BT1</text>
</g>
<g transform="translate(210, 28)" class="key keypos-3">
<rect rx="6" ry="6" x="-28" y="-26" width="56" height="52" class="key"/>
<text x="0" y="0" class="key tap">BT2</text>
</g>
<g transform="translate(270, 28)" class="key ghost keypos-4">
<rect rx="6" ry="6" x="-28" y="-26" width="56" height="52" class="key ghost"/>
</g>
<g transform="translate(360, 28)" class="key ghost keypos-5">
<rect rx="6" ry="6" x="-28" y="-26" width="56" height="52" class="key ghost"/>
</g>
<g transform="translate(420, 28)" class="key keypos-6">
<rect rx="6" ry="6" x="-28" y="-26" width="56" height="52" class="key"/>
</g>
<g transform="translate(480, 28)" class="key keypos-7">
<rect rx="6" ry="6" x="-28" y="-26" width="56" height="52" class="key"/>
</g>
<g transform="translate(540, 28)" class="key keypos-8">
<rect rx="6" ry="6" x="-28" y="-26" width="56" height="52" class="key"/>
</g>
<g transform="translate(600, 28)" class="key ghost keypos-9">
<rect rx="6" ry="6" x="-28" y="-26" width="56" height="52" class="key ghost"/>
</g>
<g transform="translate(30, 84)" class="key keypos-10">
<rect rx="6" ry="6" x="-28" y="-26" width="56" height="52" class="key"/>
</g>
<g transform="translate(90, 84)" class="key keypos-11">
<rect rx="6" ry="6" x="-28" y="-26" width="56" height="52" class="key"/>
</g>
<g transform="translate(150, 84)" class="key keypos-12">
<rect rx="6" ry="6" x="-28" y="-26" width="56" height="52" class="key"/>
</g>
<g transform="translate(210, 84)" class="key keypos-13">
<rect rx="6" ry="6" x="-28" y="-26" width="56" height="52" class="key"/>
<text x="0" y="0" class="key tap">BOOT</text>
</g>
<g transform="translate(270, 84)" class="key ghost keypos-14">
<rect rx="6" ry="6" x="-28" y="-26" width="56" height="52" class="key ghost"/>
</g>
<g transform="translate(360, 84)" class="key ghost keypos-15">
<rect rx="6" ry="6" x="-28" y="-26" width="56" height="52" class="key ghost"/>
</g>
<g transform="translate(420, 84)" class="key keypos-16">
<rect rx="6" ry="6" x="-28" y="-26" width="56" height="52" class="key"/>
<text x="0" y="0" class="key tap">BOOT</text>
</g>
<g transform="translate(480, 84)" class="key keypos-17">
<rect rx="6" ry="6" x="-28" y="-26" width="56" height="52" class="key"/>
</g>
<g transform="translate(540, 84)" class="key keypos-18">
<rect rx="6" ry="6" x="-28" y="-26" width="56" height="52" class="key"/>
</g>
<g transform="translate(600, 84)" class="key keypos-19">
<rect rx="6" ry="6" x="-28" y="-26" width="56" height="52" class="key"/>
<text x="0" y="0" class="key tap">BTCLR</text>
</g>
<g transform="translate(210, 140)" class="key keypos-20">
<rect rx="6" ry="6" x="-28" y="-26" width="56" height="52" class="key"/>
<a href="#AL1">
<text x="0" y="0" class="key tap layer-activator">AL1</text>
</a></g>
<g transform="translate(270, 140)" class="key keypos-21">
<rect rx="6" ry="6" x="-28" y="-26" width="56" height="52" class="key"/>
</g>
<g transform="translate(360, 140)" class="key keypos-22">
<rect rx="6" ry="6" x="-28" y="-26" width="56" height="52" class="key"/>
</g>
<g transform="translate(420, 140)" class="key keypos-23">
<rect rx="6" ry="6" x="-28" y="-26" width="56" height="52" class="key"/>
</g>
</g>
</g>
<g transform="translate(30, 1582)" class="layer-GAME">
<text x="0" y="28" class="label" id="GAME">GAME:</text>
<g transform="translate(0, 56)">
<g transform="translate(30, 28)" class="key ghost keypos-0">
<rect rx="6" ry="6" x="-28" y="-26" width="56" height="52" class="key ghost"/>
</g>
<g transform="translate(90, 28)" class="key keypos-1">
<rect rx="6" ry="6" x="-28" y="-26" width="56" height="52" class="key"/>
<text x="0" y="0" class="key tap">F</text>
<text x="0" y="21" class="key hold">TAB</text>
</g>
<g transform="translate(150, 28)" class="key keypos-2">
<rect rx="6" ry="6" x="-28" y="-26" width="56" height="52" class="key"/>
<text x="0" y="0" class="key tap">W</text>
</g>
<g transform="translate(210, 28)" class="key keypos-3">
<rect rx="6" ry="6" x="-28" y="-26" width="56" height="52" class="key"/>
<text x="0" y="0" class="key tap">R</text>
<text x="0" y="21" class="key hold">E</text>
</g>
<g transform="translate(270, 28)" class="key ghost keypos-4">
<rect rx="6" ry="6" x="-28" y="-26" width="56" height="52" class="key ghost"/>
</g>
<g transform="translate(360, 28)" class="key ghost keypos-5">
<rect rx="6" ry="6" x="-28" y="-26" width="56" height="52" class="key ghost"/>
</g>
<g transform="translate(420, 28)" class="key keypos-6">
<rect rx="6" ry="6" x="-28" y="-26" width="56" height="52" class="key"/>
<text x="0" y="0" class="key tap">F1</text>
</g>
<g transform="translate(480, 28)" class="key keypos-7">
<rect rx="6" ry="6" x="-28" y="-26" width="56" height="52" class="key"/>
<text x="0" y="0" class="key tap">F2</text>
</g>
<g transform="translate(540, 28)" class="key keypos-8">
<rect rx="6" ry="6" x="-28" y="-26" width="56" height="52" class="key"/>
<text x="0" y="0" class="key tap">F3</text>
</g>
<g transform="translate(600, 28)" class="key ghost keypos-9">
<rect rx="6" ry="6" x="-28" y="-26" width="56" height="52" class="key ghost"/>
</g>
<g transform="translate(30, 84)" class="key keypos-10">
<rect rx="6" ry="6" x="-28" y="-26" width="56" height="52" class="key"/>
<text x="0" y="0" class="key tap">CTL</text>
</g>
<g transform="translate(90, 84)" class="key keypos-11">
<rect rx="6" ry="6" x="-28" y="-26" width="56" height="52" class="key"/>
<text x="0" y="0" class="key tap">A</text>
</g>
<g transform="translate(150, 84)" class="key keypos-12">
<rect rx="6" ry="6" x="-28" y="-26" width="56" height="52" class="key"/>
<text x="0" y="0" class="key tap">S</text>
</g>
<g transform="translate(210, 84)" class="key keypos-13">
<rect rx="6" ry="6" x="-28" y="-26" width="56" height="52" class="key"/>
<text x="0" y="0" class="key tap">D</text>
</g>
<g transform="translate(270, 84)" class="key ghost keypos-14">
<rect rx="6" ry="6" x="-28" y="-26" width="56" height="52" class="key ghost"/>
</g>
<g transform="translate(360, 84)" class="key ghost keypos-15">
<rect rx="6" ry="6" x="-28" y="-26" width="56" height="52" class="key ghost"/>
</g>
<g transform="translate(420, 84)" class="key keypos-16">
<rect rx="6" ry="6" x="-28" y="-26" width="56" height="52" class="key"/>
<text x="0" y="0" class="key tap">F8</text>
</g>
<g transform="translate(480, 84)" class="key keypos-17">
<rect rx="6" ry="6" x="-28" y="-26" width="56" height="52" class="key"/>
<text x="0" y="0" class="key tap">F11</text>
</g>
<g transform="translate(540, 84)" class="key keypos-18">
<rect rx="6" ry="6" x="-28" y="-26" width="56" height="52" class="key"/>
<text x="0" y="0" class="key tap">F12</text>
</g>
<g transform="translate(600, 84)" class="key keypos-19">
<rect rx="6" ry="6" x="-28" y="-26" width="56" height="52" class="key"/>
<text x="0" y="0" class="key tap">ENT</text>
</g>
<g transform="translate(210, 140)" class="key keypos-20">
<rect rx="6" ry="6" x="-28" y="-26" width="56" height="52" class="key"/>
<text x="0" y="0" class="key tap">SPC</text>
<text x="0" y="21" class="key hold">SHFT</text>
</g>
<g transform="translate(270, 140)" class="key keypos-21">
<rect rx="6" ry="6" x="-28" y="-26" width="56" height="52" class="key"/>
<text x="0" y="0" class="key tap">G</text>
<text x="0" y="21" class="key hold">B</text>
</g>
<g transform="translate(360, 140)" class="key keypos-22">
<rect rx="6" ry="6" x="-28" y="-26" width="56" height="52" class="key"/>
</g>
<g transform="translate(420, 140)" class="key keypos-23">
<rect rx="6" ry="6" x="-28" y="-26" width="56" height="52" class="key"/>
</g>
<g class="combo combopos-0">
<path d="M315,169 h-39 a6.0,6.0 0 0 1 -6.0,-6.0 v-4" class="combo"/>
<path d="M315,169 h39 a6.0,6.0 0 0 0 6.0,-6.0 v-4" class="combo"/>
<rect rx="6" ry="6" x="301" y="156" width="28" height="26" class="combo"/>
<a href="#AL1">
<text x="315" y="169" class="combo tap layer-activator">AL1</text>
</a></g>
</g>
</g>
<text x="660.0" y="1848.0" class="footer">Created with <a href="https://github.com/caksoylar/keymap-drawer">keymap-drawer</a></text></svg>
